M48
; DRILL file {KiCad 8.0.7} date 2025-03-13T19:28:34-0500
; FORMAT={-:-/ absolute / inch / decimal}
; #@! TF.CreationDate,2025-03-13T19:28:34-05:00
; #@! TF.GenerationSoftware,Kicad,Pcbnew,8.0.7
; #@! TF.FileFunction,Plated,1,4,PTH
FMAT,2
INCH
; #@! TA.AperFunction,Plated,PTH,ViaDrill
T1C0.0118
; #@! TA.AperFunction,Plated,PTH,ViaDrill
T2C0.0236
; #@! TA.AperFunction,Plated,PTH,ComponentDrill
T3C0.0299
; #@! TA.AperFunction,Plated,PTH,ComponentDrill
T4C0.0394
; #@! TA.AperFunction,Plated,PTH,ComponentDrill
T5C0.0630
; #@! TA.AperFunction,Plated,PTH,ComponentDrill
T6C0.0728
%
G90
G05
T1
X4.6828Y-3.9827
X5.3478Y-4.8527
X5.4528Y-4.8477
X5.5478Y-4.8577
X5.8328Y-5.1377
X6.0028Y-2.6877
X6.0228Y-5.1227
X6.0878Y-5.1277
X6.2028Y-2.8627
X6.2028Y-3.1877
X6.2328Y-4.9927
X6.2628Y-4.5877
T2
X4.4028Y-4.3927
X4.4178Y-4.1877
X4.4678Y-3.3627
X4.4778Y-4.0727
X4.5128Y-4.1827
X4.5328Y-4.0727
X4.5378Y-3.3227
X4.5828Y-4.1477
X4.6181Y-3.1627
X4.6409Y-4.1477
X4.6631Y-3.1627
X4.6778Y-4.3677
X4.711Y-4.1477
X4.7128Y-3.2577
X4.7478Y-3.2977
X4.8428Y-3.0877
X4.8428Y-3.1677
X4.9078Y-2.7027
X4.9078Y-2.7627
X4.9128Y-2.6477
X4.9628Y-2.5277
X4.9814Y-3.1873
X5.0528Y-2.5277
X5.0778Y-3.2627
X5.1722Y-2.7671
X5.2122Y-2.6621
X5.2678Y-4.5077
X5.2778Y-2.6027
X5.2778Y-2.6627
X5.2778Y-4.3777
X5.3928Y-4.5627
X5.3978Y-4.3777
X5.4078Y-4.6177
X5.4778Y-4.6927
X5.4822Y-2.7971
X5.5978Y-2.4627
X5.6022Y-2.5867
X5.6622Y-2.7471
X5.6878Y-2.5727
X5.7278Y-3.9977
X5.7278Y-4.0477
X5.7278Y-4.0977
X5.7478Y-5.0277
X5.7998Y-4.2185
X5.8128Y-4.0527
X5.8498Y-4.2185
X5.9848Y-4.0285
X5.9898Y-4.1985
X6.0398Y-4.1985
X6.1122Y-2.4871
X6.1148Y-4.0535
X6.1198Y-4.1685
X6.1698Y-5.0335
X6.1698Y-5.1135
X6.1998Y-4.0485
X6.2722Y-2.8371
X6.2798Y-5.1085
X6.3298Y-4.5765
X6.3722Y-2.4971
X6.5028Y-2.9427
X6.7098Y-4.5765
T3
X6.519Y-4.0351
X6.519Y-4.1351
X6.519Y-4.2351
X6.519Y-4.3351
X6.522Y-4.7663
X6.522Y-4.8663
X6.522Y-4.9663
X6.522Y-5.0663
X6.619Y-4.0851
X6.619Y-4.1851
X6.619Y-4.2851
X6.619Y-4.3851
X6.622Y-4.8163
X6.622Y-4.9163
X6.622Y-5.0163
X6.622Y-5.1163
T4
X6.0453Y-4.5352
X6.0453Y-4.6352
T5
X5.4472Y-2.9921
X6.0472Y-2.9921
T6
X4.3867Y-2.4977
X4.3867Y-2.7288
X4.6178Y-2.4977
X4.6178Y-2.7288
X6.6867Y-3.0466
X6.6867Y-3.2777
X6.6917Y-2.5227
X6.6917Y-2.7538
X6.9178Y-3.0466
X6.9178Y-3.2777
X6.9228Y-2.5227
X6.9228Y-2.7538
M30
