%TF.GenerationSoftware,KiCad,Pcbnew,8.0.7*%
%TF.CreationDate,2025-03-13T19:28:30-05:00*%
%TF.ProjectId,motorboard,6d6f746f-7262-46f6-9172-642e6b696361,rev?*%
%TF.SameCoordinates,Original*%
%TF.FileFunction,Copper,L4,Bot*%
%TF.FilePolarity,Positive*%
%FSLAX46Y46*%
G04 Gerber Fmt 4.6, Leading zero omitted, Abs format (unit mm)*
G04 Created by KiCad (PCBNEW 8.0.7) date 2025-03-13 19:28:30*
%MOMM*%
%LPD*%
G01*
G04 APERTURE LIST*
%TA.AperFunction,ComponentPad*%
%ADD10R,3.200000X3.200000*%
%TD*%
%TA.AperFunction,ComponentPad*%
%ADD11O,3.200000X3.200000*%
%TD*%
%TA.AperFunction,ComponentPad*%
%ADD12R,1.500000X1.500000*%
%TD*%
%TA.AperFunction,ComponentPad*%
%ADD13C,1.500000*%
%TD*%
%TA.AperFunction,ComponentPad*%
%ADD14C,3.200000*%
%TD*%
%TA.AperFunction,ComponentPad*%
%ADD15R,1.700000X1.700000*%
%TD*%
%TA.AperFunction,ComponentPad*%
%ADD16O,1.700000X1.700000*%
%TD*%
%TA.AperFunction,ViaPad*%
%ADD17C,1.000000*%
%TD*%
%TA.AperFunction,ViaPad*%
%ADD18C,0.600000*%
%TD*%
%TA.AperFunction,Conductor*%
%ADD19C,1.016000*%
%TD*%
%TA.AperFunction,Conductor*%
%ADD20C,0.200000*%
%TD*%
%TA.AperFunction,Conductor*%
%ADD21C,0.381000*%
%TD*%
G04 APERTURE END LIST*
D10*
%TO.P,D1,1,K*%
%TO.N,Net-(D1-K)*%
X153600000Y-76000000D03*
D11*
%TO.P,D1,2,A*%
%TO.N,GND2*%
X138360000Y-76000000D03*
%TD*%
D12*
%TO.P,J2,1*%
%TO.N,GND*%
X168122800Y-111380500D03*
D13*
%TO.P,J2,2*%
%TO.N,+12VL*%
X165582800Y-110110500D03*
%TO.P,J2,3*%
X168122800Y-108840500D03*
%TO.P,J2,4*%
%TO.N,/CAN/CAN_P*%
X165582800Y-107570500D03*
%TO.P,J2,5*%
%TO.N,/CAN/CAN_N*%
X168122800Y-106300500D03*
%TO.P,J2,6*%
%TO.N,GND*%
X165582800Y-105030500D03*
%TO.P,J2,7*%
X168122800Y-103760500D03*
%TO.P,J2,8*%
%TO.N,+12VL*%
X165582800Y-102490500D03*
%TD*%
D14*
%TO.P,J7,1,Pin_1*%
%TO.N,GND2*%
X169842000Y-77383000D03*
X169842000Y-83253000D03*
X175712000Y-77383000D03*
X175712000Y-83253000D03*
%TD*%
D12*
%TO.P,J1,1*%
%TO.N,GND*%
X168199000Y-129954500D03*
D13*
%TO.P,J1,2*%
%TO.N,+12VL*%
X165659000Y-128684500D03*
%TO.P,J1,3*%
X168199000Y-127414500D03*
%TO.P,J1,4*%
%TO.N,/CAN/CAN_P*%
X165659000Y-126144500D03*
%TO.P,J1,5*%
%TO.N,/CAN/CAN_N*%
X168199000Y-124874500D03*
%TO.P,J1,6*%
%TO.N,GND*%
X165659000Y-123604500D03*
%TO.P,J1,7*%
X168199000Y-122334500D03*
%TO.P,J1,8*%
%TO.N,+12VL*%
X165659000Y-121064500D03*
%TD*%
D15*
%TO.P,J3,1,Pin_1*%
%TO.N,Net-(J3-Pin_1)*%
X153550001Y-115194200D03*
D16*
%TO.P,J3,2,Pin_2*%
%TO.N,Net-(J3-Pin_2)*%
X153550001Y-117734200D03*
%TD*%
D14*
%TO.P,J6,1,Pin_1*%
%TO.N,/THROTTLE_OUT*%
X111422000Y-63441000D03*
X111422000Y-69311000D03*
X117292000Y-63441000D03*
X117292000Y-69311000D03*
%TD*%
%TO.P,J4,1,Pin_1*%
%TO.N,/TSV_Power/84VH*%
X169969000Y-64076000D03*
X169969000Y-69946000D03*
X175839000Y-64076000D03*
X175839000Y-69946000D03*
%TD*%
D17*
%TO.N,/CAN/CAN_N*%
X170428800Y-116242000D03*
X160776800Y-116242000D03*
D18*
%TO.N,GND*%
X159075000Y-116528000D03*
X140914000Y-123386000D03*
X118943000Y-101161000D03*
X135834000Y-123259000D03*
D17*
X136977000Y-115893000D03*
D18*
X154630000Y-130244000D03*
D17*
X137104000Y-111194000D03*
X148584800Y-107150700D03*
X152140800Y-106642700D03*
D18*
X152979000Y-130117000D03*
D17*
X112212000Y-106368000D03*
X134056000Y-111194000D03*
X147314800Y-107150700D03*
D18*
X138501000Y-123132000D03*
D17*
X133802000Y-114496000D03*
X115133000Y-103447000D03*
X157474800Y-102832700D03*
X153410800Y-106642700D03*
D18*
X148153000Y-130498000D03*
X158313000Y-126815000D03*
D17*
%TO.N,+3.3VL*%
X145486000Y-104082000D03*
X147645000Y-102939000D03*
X113736000Y-103447000D03*
X139136000Y-119195000D03*
X145486000Y-101542000D03*
X152013800Y-102324700D03*
X145486000Y-102812000D03*
X114625000Y-106241000D03*
%TO.N,+5VL*%
X145994000Y-127704000D03*
X137358000Y-117290000D03*
X111831000Y-111575000D03*
%TO.N,GND2*%
X126528751Y-80957450D03*
X128341000Y-64203000D03*
X159315000Y-72063000D03*
X161855000Y-63427000D03*
X139249000Y-71047000D03*
X120594000Y-83761000D03*
X115260000Y-84396000D03*
X123007000Y-78427000D03*
X165171000Y-74744000D03*
X155251000Y-63173000D03*
D18*
X157551000Y-80967000D03*
D17*
X144470000Y-65346000D03*
X123007000Y-80459000D03*
X142184000Y-62552000D03*
X119705000Y-82745000D03*
X126055000Y-64203000D03*
X131375000Y-70285000D03*
%TO.N,/TSV_Power/+15V*%
X142297000Y-65701663D03*
X143821000Y-69777000D03*
D18*
%TO.N,Net-(D2-A)*%
X157551000Y-72712000D03*
X152471000Y-68267000D03*
D17*
%TO.N,+3.3VH*%
X124658000Y-70172000D03*
X124658000Y-68648000D03*
X117299301Y-80332000D03*
X124785000Y-67251000D03*
X113482000Y-85412000D03*
X118442301Y-80332000D03*
%TO.N,+12VH*%
X128976000Y-82872000D03*
X132391000Y-67618000D03*
X134056000Y-66108000D03*
X134056000Y-67632000D03*
%TO.N,+12VL*%
X155315800Y-102959700D03*
X156712800Y-129883700D03*
X156712800Y-127851700D03*
X155442800Y-105880700D03*
X159506800Y-129756700D03*
%TO.N,/CS*%
X116403000Y-105352000D03*
X118816000Y-110940000D03*
%TO.N,/SCK*%
X117879256Y-105352000D03*
X119660256Y-105352000D03*
%TD*%
D19*
%TO.N,/CAN/CAN_N*%
X160776800Y-116242000D02*
X170428800Y-116242000D01*
D20*
%TO.N,Net-(D2-A)*%
X152471000Y-68267000D02*
X156916000Y-72712000D01*
X156916000Y-72712000D02*
X157551000Y-72712000D01*
D21*
%TO.N,/CS*%
X118816000Y-110940000D02*
X118816000Y-107765000D01*
X118816000Y-107765000D02*
X116403000Y-105352000D01*
%TO.N,/SCK*%
X117879256Y-105352000D02*
X119660256Y-105352000D01*
%TD*%
%TA.AperFunction,Conductor*%
%TO.N,GND2*%
G36*
X157543039Y-67219685D02*
G01*
X157588794Y-67272489D01*
X157600000Y-67324000D01*
X157600000Y-69876000D01*
X157580315Y-69943039D01*
X157527511Y-69988794D01*
X157476000Y-70000000D01*
X155524000Y-70000000D01*
X155456961Y-69980315D01*
X155411206Y-69927511D01*
X155400000Y-69876000D01*
X155400000Y-67324000D01*
X155419685Y-67256961D01*
X155472489Y-67211206D01*
X155524000Y-67200000D01*
X157476000Y-67200000D01*
X157543039Y-67219685D01*
G37*
%TD.AperFunction*%
%TD*%
M02*
