%TF.GenerationSoftware,KiCad,Pcbnew,8.0.7*%
%TF.CreationDate,2025-03-13T19:28:30-05:00*%
%TF.ProjectId,motorboard,6d6f746f-7262-46f6-9172-642e6b696361,rev?*%
%TF.SameCoordinates,Original*%
%TF.FileFunction,Soldermask,Bot*%
%TF.FilePolarity,Negative*%
%FSLAX46Y46*%
G04 Gerber Fmt 4.6, Leading zero omitted, Abs format (unit mm)*
G04 Created by KiCad (PCBNEW 8.0.7) date 2025-03-13 19:28:30*
%MOMM*%
%LPD*%
G01*
G04 APERTURE LIST*
%ADD10R,3.200000X3.200000*%
%ADD11O,3.200000X3.200000*%
%ADD12C,3.200000*%
%ADD13R,1.500000X1.500000*%
%ADD14C,1.500000*%
%ADD15C,2.200000*%
%ADD16C,4.300000*%
%ADD17R,1.700000X1.700000*%
%ADD18O,1.700000X1.700000*%
G04 APERTURE END LIST*
D10*
%TO.C,D1*%
X153600000Y-76000000D03*
D11*
X138360000Y-76000000D03*
%TD*%
D12*
%TO.C,J2*%
X174472800Y-112650500D03*
X174472800Y-101220500D03*
D13*
X168122800Y-111380500D03*
D14*
X165582800Y-110110500D03*
X168122800Y-108840500D03*
X165582800Y-107570500D03*
X168122800Y-106300500D03*
X165582800Y-105030500D03*
X168122800Y-103760500D03*
X165582800Y-102490500D03*
%TD*%
D15*
%TO.C,H1*%
X111831000Y-77157000D03*
%TD*%
D16*
%TO.C,J7*%
X172777000Y-80318000D03*
D12*
X169842000Y-77383000D03*
X169842000Y-83253000D03*
X175712000Y-77383000D03*
X175712000Y-83253000D03*
%TD*%
%TO.C,J1*%
X174549000Y-131224500D03*
X174549000Y-119794500D03*
D13*
X168199000Y-129954500D03*
D14*
X165659000Y-128684500D03*
X168199000Y-127414500D03*
X165659000Y-126144500D03*
X168199000Y-124874500D03*
X165659000Y-123604500D03*
X168199000Y-122334500D03*
X165659000Y-121064500D03*
%TD*%
D15*
%TO.C,H3*%
X136596000Y-130625000D03*
%TD*%
D17*
%TO.C,J3*%
X153550001Y-115194200D03*
D18*
X153550001Y-117734200D03*
%TD*%
D15*
%TO.C,H2*%
X136596000Y-103955000D03*
%TD*%
%TO.C,H3*%
X111577000Y-130625000D03*
%TD*%
D16*
%TO.C,J6*%
X114357000Y-66376000D03*
D12*
X111422000Y-63441000D03*
X111422000Y-69311000D03*
X117292000Y-63441000D03*
X117292000Y-69311000D03*
%TD*%
D16*
%TO.C,J4*%
X172904000Y-67011000D03*
D12*
X169969000Y-64076000D03*
X169969000Y-69946000D03*
X175839000Y-64076000D03*
X175839000Y-69946000D03*
%TD*%
D15*
%TO.C,H4*%
X163266000Y-82872000D03*
%TD*%
M02*
