%TF.GenerationSoftware,KiCad,Pcbnew,8.0.7*%
%TF.CreationDate,2025-03-13T19:28:30-05:00*%
%TF.ProjectId,motorboard,6d6f746f-7262-46f6-9172-642e6b696361,rev?*%
%TF.SameCoordinates,Original*%
%TF.FileFunction,Profile,NP*%
%FSLAX46Y46*%
G04 Gerber Fmt 4.6, Leading zero omitted, Abs format (unit mm)*
G04 Created by KiCad (PCBNEW 8.0.7) date 2025-03-13 19:28:30*
%MOMM*%
%LPD*%
G01*
G04 APERTURE LIST*
%TA.AperFunction,Profile*%
%ADD10C,0.050000*%
%TD*%
G04 APERTURE END LIST*
D10*
X121068000Y-95319000D02*
G75*
G02*
X121368000Y-95619000I0J-300000D01*
G01*
X154452000Y-98286000D02*
X154452000Y-88984000D01*
X179776000Y-70395000D02*
X179776000Y-62012000D01*
X107767000Y-62012000D02*
G75*
G02*
X109767000Y-60012000I2000000J0D01*
G01*
X107767000Y-70395000D02*
X107767000Y-62012000D01*
X107767000Y-132308000D02*
X107767000Y-70395000D01*
X121368000Y-95619000D02*
X121368000Y-98321000D01*
X111804000Y-95319000D02*
X121068000Y-95319000D01*
X125084000Y-98537000D02*
G75*
G02*
X124584000Y-98037000I0J500000D01*
G01*
X109767000Y-134308000D02*
G75*
G02*
X107767000Y-132308000I0J2000000D01*
G01*
X125084000Y-88235000D02*
X142948000Y-88235000D01*
X142948000Y-98537000D02*
X125084000Y-98537000D01*
X111804000Y-98621000D02*
G75*
G02*
X111504000Y-98321000I0J300000D01*
G01*
X177776000Y-60012000D02*
G75*
G02*
X179776000Y-62012000I0J-2000000D01*
G01*
X173316000Y-98286000D02*
G75*
G02*
X172816000Y-98786000I-500000J0D01*
G01*
X143448000Y-88735000D02*
X143448000Y-98037000D01*
X142948000Y-88235000D02*
G75*
G02*
X143448000Y-88735000I0J-500000D01*
G01*
X154952000Y-98786000D02*
G75*
G02*
X154452000Y-98286000I0J500000D01*
G01*
X154452000Y-88984000D02*
G75*
G02*
X154952000Y-88484000I500000J0D01*
G01*
X173316000Y-88984000D02*
X173316000Y-98286000D01*
X177776000Y-134308000D02*
X109767000Y-134308000D01*
X124584000Y-98037000D02*
X124584000Y-88735000D01*
X121068000Y-98621000D02*
X111804000Y-98621000D01*
X109767000Y-60012000D02*
X177776000Y-60012000D01*
X154952000Y-88484000D02*
X172816000Y-88484000D01*
X179776000Y-132308000D02*
G75*
G02*
X177776000Y-134308000I-2000000J0D01*
G01*
X172816000Y-88484000D02*
G75*
G02*
X173316000Y-88984000I0J-500000D01*
G01*
X111504000Y-95619000D02*
G75*
G02*
X111804000Y-95319000I300000J0D01*
G01*
X124584000Y-88735000D02*
G75*
G02*
X125084000Y-88235000I500000J0D01*
G01*
X179776000Y-70395000D02*
X179776000Y-132308000D01*
X121368000Y-98321000D02*
G75*
G02*
X121068000Y-98621000I-300000J0D01*
G01*
X172816000Y-98786000D02*
X154952000Y-98786000D01*
X143448000Y-98037000D02*
G75*
G02*
X142948000Y-98537000I-500000J0D01*
G01*
X111504000Y-98321000D02*
X111504000Y-95619000D01*
M02*
