%TF.GenerationSoftware,KiCad,Pcbnew,8.0.7*%
%TF.CreationDate,2025-03-11T17:28:54-05:00*%
%TF.ProjectId,motorboard,6d6f746f-7262-46f6-9172-642e6b696361,rev?*%
%TF.SameCoordinates,Original*%
%TF.FileFunction,Copper,L1,Top*%
%TF.FilePolarity,Positive*%
%FSLAX46Y46*%
G04 Gerber Fmt 4.6, Leading zero omitted, Abs format (unit mm)*
G04 Created by KiCad (PCBNEW 8.0.7) date 2025-03-11 17:28:54*
%MOMM*%
%LPD*%
G01*
G04 APERTURE LIST*
G04 Aperture macros list*
%AMRoundRect*
0 Rectangle with rounded corners*
0 $1 Rounding radius*
0 $2 $3 $4 $5 $6 $7 $8 $9 X,Y pos of 4 corners*
0 Add a 4 corners polygon primitive as box body*
4,1,4,$2,$3,$4,$5,$6,$7,$8,$9,$2,$3,0*
0 Add four circle primitives for the rounded corners*
1,1,$1+$1,$2,$3*
1,1,$1+$1,$4,$5*
1,1,$1+$1,$6,$7*
1,1,$1+$1,$8,$9*
0 Add four rect primitives between the rounded corners*
20,1,$1+$1,$2,$3,$4,$5,0*
20,1,$1+$1,$4,$5,$6,$7,0*
20,1,$1+$1,$6,$7,$8,$9,0*
20,1,$1+$1,$8,$9,$2,$3,0*%
G04 Aperture macros list end*
%TA.AperFunction,SMDPad,CuDef*%
%ADD10RoundRect,0.200000X0.200000X0.275000X-0.200000X0.275000X-0.200000X-0.275000X0.200000X-0.275000X0*%
%TD*%
%TA.AperFunction,SMDPad,CuDef*%
%ADD11RoundRect,0.200000X-0.275000X0.200000X-0.275000X-0.200000X0.275000X-0.200000X0.275000X0.200000X0*%
%TD*%
%TA.AperFunction,ComponentPad*%
%ADD12R,3.200000X3.200000*%
%TD*%
%TA.AperFunction,ComponentPad*%
%ADD13O,3.200000X3.200000*%
%TD*%
%TA.AperFunction,ComponentPad*%
%ADD14R,1.500000X1.500000*%
%TD*%
%TA.AperFunction,ComponentPad*%
%ADD15C,1.500000*%
%TD*%
%TA.AperFunction,SMDPad,CuDef*%
%ADD16RoundRect,0.225000X0.250000X-0.225000X0.250000X0.225000X-0.250000X0.225000X-0.250000X-0.225000X0*%
%TD*%
%TA.AperFunction,SMDPad,CuDef*%
%ADD17RoundRect,0.200000X0.275000X-0.200000X0.275000X0.200000X-0.275000X0.200000X-0.275000X-0.200000X0*%
%TD*%
%TA.AperFunction,SMDPad,CuDef*%
%ADD18R,0.630000X0.510000*%
%TD*%
%TA.AperFunction,SMDPad,CuDef*%
%ADD19RoundRect,0.225000X0.225000X0.250000X-0.225000X0.250000X-0.225000X-0.250000X0.225000X-0.250000X0*%
%TD*%
%TA.AperFunction,ComponentPad*%
%ADD20C,3.200000*%
%TD*%
%TA.AperFunction,SMDPad,CuDef*%
%ADD21R,0.756067X0.292473*%
%TD*%
%TA.AperFunction,SMDPad,CuDef*%
%ADD22R,1.100000X1.699999*%
%TD*%
%TA.AperFunction,SMDPad,CuDef*%
%ADD23RoundRect,0.200000X-0.200000X-0.275000X0.200000X-0.275000X0.200000X0.275000X-0.200000X0.275000X0*%
%TD*%
%TA.AperFunction,SMDPad,CuDef*%
%ADD24R,0.431000X1.327899*%
%TD*%
%TA.AperFunction,SMDPad,CuDef*%
%ADD25R,1.460500X0.558800*%
%TD*%
%TA.AperFunction,SMDPad,CuDef*%
%ADD26R,2.387600X3.098800*%
%TD*%
%TA.AperFunction,SMDPad,CuDef*%
%ADD27RoundRect,0.250000X0.325000X1.100000X-0.325000X1.100000X-0.325000X-1.100000X0.325000X-1.100000X0*%
%TD*%
%TA.AperFunction,SMDPad,CuDef*%
%ADD28R,0.508000X0.977900*%
%TD*%
%TA.AperFunction,SMDPad,CuDef*%
%ADD29RoundRect,0.250000X0.250000X0.475000X-0.250000X0.475000X-0.250000X-0.475000X0.250000X-0.475000X0*%
%TD*%
%TA.AperFunction,SMDPad,CuDef*%
%ADD30RoundRect,0.250000X-0.250000X-0.475000X0.250000X-0.475000X0.250000X0.475000X-0.250000X0.475000X0*%
%TD*%
%TA.AperFunction,SMDPad,CuDef*%
%ADD31RoundRect,0.140000X-0.170000X0.140000X-0.170000X-0.140000X0.170000X-0.140000X0.170000X0.140000X0*%
%TD*%
%TA.AperFunction,SMDPad,CuDef*%
%ADD32RoundRect,0.225000X-0.250000X0.225000X-0.250000X-0.225000X0.250000X-0.225000X0.250000X0.225000X0*%
%TD*%
%TA.AperFunction,SMDPad,CuDef*%
%ADD33RoundRect,0.243750X0.456250X-0.243750X0.456250X0.243750X-0.456250X0.243750X-0.456250X-0.243750X0*%
%TD*%
%TA.AperFunction,SMDPad,CuDef*%
%ADD34RoundRect,0.200000X0.800000X-1.175000X0.800000X1.175000X-0.800000X1.175000X-0.800000X-1.175000X0*%
%TD*%
%TA.AperFunction,SMDPad,CuDef*%
%ADD35RoundRect,0.200000X-0.800000X1.175000X-0.800000X-1.175000X0.800000X-1.175000X0.800000X1.175000X0*%
%TD*%
%TA.AperFunction,SMDPad,CuDef*%
%ADD36RoundRect,0.225000X-0.225000X-0.250000X0.225000X-0.250000X0.225000X0.250000X-0.225000X0.250000X0*%
%TD*%
%TA.AperFunction,SMDPad,CuDef*%
%ADD37RoundRect,0.250000X-1.100000X0.412500X-1.100000X-0.412500X1.100000X-0.412500X1.100000X0.412500X0*%
%TD*%
%TA.AperFunction,SMDPad,CuDef*%
%ADD38R,1.350000X0.900000*%
%TD*%
%TA.AperFunction,SMDPad,CuDef*%
%ADD39R,0.510000X0.630000*%
%TD*%
%TA.AperFunction,SMDPad,CuDef*%
%ADD40O,1.250000X0.549999*%
%TD*%
%TA.AperFunction,SMDPad,CuDef*%
%ADD41RoundRect,0.250000X-0.475000X0.250000X-0.475000X-0.250000X0.475000X-0.250000X0.475000X0.250000X0*%
%TD*%
%TA.AperFunction,SMDPad,CuDef*%
%ADD42RoundRect,0.250000X1.100000X-0.412500X1.100000X0.412500X-1.100000X0.412500X-1.100000X-0.412500X0*%
%TD*%
%TA.AperFunction,ComponentPad*%
%ADD43R,1.700000X1.700000*%
%TD*%
%TA.AperFunction,ComponentPad*%
%ADD44O,1.700000X1.700000*%
%TD*%
%TA.AperFunction,SMDPad,CuDef*%
%ADD45RoundRect,0.135000X0.185000X-0.135000X0.185000X0.135000X-0.185000X0.135000X-0.185000X-0.135000X0*%
%TD*%
%TA.AperFunction,SMDPad,CuDef*%
%ADD46RoundRect,0.160000X-0.160000X0.197500X-0.160000X-0.197500X0.160000X-0.197500X0.160000X0.197500X0*%
%TD*%
%TA.AperFunction,SMDPad,CuDef*%
%ADD47RoundRect,0.250000X0.475000X-0.250000X0.475000X0.250000X-0.475000X0.250000X-0.475000X-0.250000X0*%
%TD*%
%TA.AperFunction,SMDPad,CuDef*%
%ADD48R,0.354800X1.454899*%
%TD*%
%TA.AperFunction,ViaPad*%
%ADD49C,1.000000*%
%TD*%
%TA.AperFunction,ViaPad*%
%ADD50C,0.600000*%
%TD*%
%TA.AperFunction,Conductor*%
%ADD51C,1.016000*%
%TD*%
%TA.AperFunction,Conductor*%
%ADD52C,0.304800*%
%TD*%
%TA.AperFunction,Conductor*%
%ADD53C,0.508000*%
%TD*%
%TA.AperFunction,Conductor*%
%ADD54C,0.254000*%
%TD*%
%TA.AperFunction,Conductor*%
%ADD55C,0.381000*%
%TD*%
%TA.AperFunction,Conductor*%
%ADD56C,0.762000*%
%TD*%
%TA.AperFunction,Conductor*%
%ADD57C,0.200000*%
%TD*%
G04 APERTURE END LIST*
D10*
%TO.P,R3,1*%
%TO.N,/CAN/CAN_N*%
X146625001Y-119719200D03*
%TO.P,R3,2*%
%TO.N,Net-(U2-CANL)*%
X144975001Y-119719200D03*
%TD*%
%TO.P,R4,1*%
%TO.N,/CAN/CAN_P*%
X146625001Y-113219200D03*
%TO.P,R4,2*%
%TO.N,Net-(U2-CANH)*%
X144975001Y-113219200D03*
%TD*%
D11*
%TO.P,R22,1*%
%TO.N,Net-(D2-K)*%
X157551000Y-78237000D03*
%TO.P,R22,2*%
%TO.N,GND2*%
X157551000Y-79887000D03*
%TD*%
D12*
%TO.P,D1,1,K*%
%TO.N,Net-(D1-K)*%
X153600000Y-76000000D03*
D13*
%TO.P,D1,2,A*%
%TO.N,GND2*%
X138360000Y-76000000D03*
%TD*%
D14*
%TO.P,J2,1*%
%TO.N,GND*%
X168122800Y-111380500D03*
D15*
%TO.P,J2,2*%
%TO.N,+12VL*%
X165582800Y-110110500D03*
%TO.P,J2,3*%
X168122800Y-108840500D03*
%TO.P,J2,4*%
%TO.N,/CAN/CAN_P*%
X165582800Y-107570500D03*
%TO.P,J2,5*%
%TO.N,/CAN/CAN_N*%
X168122800Y-106300500D03*
%TO.P,J2,6*%
%TO.N,GND*%
X165582800Y-105030500D03*
%TO.P,J2,7*%
X168122800Y-103760500D03*
%TO.P,J2,8*%
%TO.N,+12VL*%
X165582800Y-102490500D03*
%TD*%
D10*
%TO.P,R11,1*%
%TO.N,GND2*%
X155173000Y-64597000D03*
%TO.P,R11,2*%
%TO.N,Net-(D2-A)*%
X153523000Y-64597000D03*
%TD*%
D16*
%TO.P,C25,1*%
%TO.N,+3.3VH*%
X126168000Y-67011001D03*
%TO.P,C25,2*%
%TO.N,GND2*%
X126168000Y-65461001D03*
%TD*%
D17*
%TO.P,R7,1*%
%TO.N,Net-(U6-IN-)*%
X130941751Y-81782450D03*
%TO.P,R7,2*%
%TO.N,/THROTTLE_OUT*%
X130941751Y-80132450D03*
%TD*%
D11*
%TO.P,R8,1*%
%TO.N,GND2*%
X124972751Y-80132450D03*
%TO.P,R8,2*%
%TO.N,Net-(U6-IN-)*%
X124972751Y-81782450D03*
%TD*%
D18*
%TO.P,L1,1*%
%TO.N,Net-(D1-K)*%
X145331000Y-70645000D03*
%TO.P,L1,2*%
%TO.N,/TSV_Power/+15V*%
X145331000Y-69725000D03*
%TD*%
D19*
%TO.P,C22,1*%
%TO.N,/TSV_Power/+15V*%
X141815000Y-70184763D03*
%TO.P,C22,2*%
%TO.N,GND2*%
X140265000Y-70184763D03*
%TD*%
D20*
%TO.P,J7,1,Pin_1*%
%TO.N,GND2*%
X169842000Y-77383000D03*
X169842000Y-83253000D03*
X175712000Y-77383000D03*
X175712000Y-83253000D03*
%TD*%
D21*
%TO.P,U8,1,OUT*%
%TO.N,+5VL*%
X153473800Y-128037999D03*
%TO.P,U8,2,FB*%
%TO.N,Net-(U8-FB)*%
X153473800Y-128688000D03*
%TO.P,U8,3,GND*%
%TO.N,GND*%
X153473800Y-129338001D03*
%TO.P,U8,4,EN*%
%TO.N,+12VL*%
X155629864Y-129338001D03*
%TO.P,U8,5,GND*%
%TO.N,GND*%
X155629864Y-128688000D03*
%TO.P,U8,6,IN*%
%TO.N,+12VL*%
X155629864Y-128037999D03*
D22*
%TO.P,U8,7,Thermal_Pad*%
%TO.N,GND*%
X154551832Y-128688000D03*
%TD*%
D10*
%TO.P,R10,1*%
%TO.N,Net-(D2-A)*%
X151426000Y-63681000D03*
%TO.P,R10,2*%
%TO.N,/TSV_Power/+15V*%
X149776000Y-63681000D03*
%TD*%
D21*
%TO.P,U7,1,OUT*%
%TO.N,+3.3VL*%
X152394800Y-103765998D03*
%TO.P,U7,2,FB*%
%TO.N,Net-(U7-FB)*%
X152394800Y-104415999D03*
%TO.P,U7,3,GND*%
%TO.N,GND*%
X152394800Y-105066000D03*
%TO.P,U7,4,EN*%
%TO.N,+12VL*%
X154550864Y-105066000D03*
%TO.P,U7,5,GND*%
%TO.N,GND*%
X154550864Y-104415999D03*
%TO.P,U7,6,IN*%
%TO.N,+12VL*%
X154550864Y-103765998D03*
D22*
%TO.P,U7,7,Thermal_Pad*%
%TO.N,GND*%
X153472832Y-104415999D03*
%TD*%
D23*
%TO.P,R14,1*%
%TO.N,+5VL*%
X149854800Y-125640000D03*
%TO.P,R14,2*%
%TO.N,Net-(R14-Pad2)*%
X151504800Y-125640000D03*
%TD*%
D24*
%TO.P,U4,1,VDD*%
%TO.N,+3.3VH*%
X118266999Y-78626652D03*
%TO.P,U4,2,VREF*%
X117617001Y-78626652D03*
%TO.P,U4,3,VFB*%
%TO.N,Net-(U4-VFB)*%
X116966999Y-78626652D03*
%TO.P,U4,4,VOUT*%
X116317001Y-78626652D03*
%TO.P,U4,5,\u002ASYNC*%
%TO.N,Net-(U3-OUTA)*%
X116317001Y-83053348D03*
%TO.P,U4,6,SCLK*%
%TO.N,Net-(U3-OUTB)*%
X116966999Y-83053348D03*
%TO.P,U4,7,DIN*%
%TO.N,Net-(U3-OUTC)*%
X117617001Y-83053348D03*
%TO.P,U4,8,GND*%
%TO.N,GND2*%
X118266999Y-83053348D03*
%TD*%
D21*
%TO.P,U11,1,OUT*%
%TO.N,+12VH*%
X140088968Y-66994762D03*
%TO.P,U11,2,FB*%
%TO.N,Net-(U11-FB)*%
X140088968Y-67644763D03*
%TO.P,U11,3,GND*%
%TO.N,GND2*%
X140088968Y-68294764D03*
%TO.P,U11,4,EN*%
%TO.N,/TSV_Power/+15V*%
X142245032Y-68294764D03*
%TO.P,U11,5,GND*%
%TO.N,GND2*%
X142245032Y-67644763D03*
%TO.P,U11,6,IN*%
%TO.N,/TSV_Power/+15V*%
X142245032Y-66994762D03*
D22*
%TO.P,U11,7,Thermal_Pad*%
%TO.N,GND2*%
X141167000Y-67644763D03*
%TD*%
D23*
%TO.P,R18,1*%
%TO.N,Net-(R17-Pad2)*%
X136545200Y-67644763D03*
%TO.P,R18,2*%
%TO.N,Net-(U11-FB)*%
X138195200Y-67644763D03*
%TD*%
D25*
%TO.P,U5,1,GND*%
%TO.N,GND2*%
X159231150Y-70566000D03*
%TO.P,U5,2,VIN*%
%TO.N,/TSV_Power/84VH*%
X159231150Y-69296000D03*
%TO.P,U5,3,EN/UVLO*%
X159231150Y-68026000D03*
%TO.P,U5,4,RON*%
%TO.N,Net-(U5-RON)*%
X159231150Y-66756000D03*
%TO.P,U5,5,FB*%
%TO.N,Net-(D2-A)*%
X153782850Y-66756000D03*
%TO.P,U5,6,PGOOD*%
X153782850Y-68026000D03*
%TO.P,U5,7,BST*%
%TO.N,Net-(U5-BST)*%
X153782850Y-69296000D03*
%TO.P,U5,8,SW*%
%TO.N,Net-(D1-K)*%
X153782850Y-70566000D03*
D26*
%TO.P,U5,EPAD*%
%TO.N,GND2*%
X156507000Y-68661000D03*
%TD*%
D27*
%TO.P,C15,1*%
%TO.N,/TSV_Power/+15V*%
X147723000Y-62933000D03*
%TO.P,C15,2*%
%TO.N,GND2*%
X144773000Y-62933000D03*
%TD*%
D14*
%TO.P,J1,1*%
%TO.N,GND*%
X168199000Y-129954500D03*
D15*
%TO.P,J1,2*%
%TO.N,+12VL*%
X165659000Y-128684500D03*
%TO.P,J1,3*%
X168199000Y-127414500D03*
%TO.P,J1,4*%
%TO.N,/CAN/CAN_P*%
X165659000Y-126144500D03*
%TO.P,J1,5*%
%TO.N,/CAN/CAN_N*%
X168199000Y-124874500D03*
%TO.P,J1,6*%
%TO.N,GND*%
X165659000Y-123604500D03*
%TO.P,J1,7*%
X168199000Y-122334500D03*
%TO.P,J1,8*%
%TO.N,+12VL*%
X165659000Y-121064500D03*
%TD*%
D28*
%TO.P,U6,1,OUT*%
%TO.N,/THROTTLE_OUT*%
X128909751Y-79560450D03*
%TO.P,U6,2,V-*%
%TO.N,GND2*%
X127959750Y-79560450D03*
%TO.P,U6,3,IN+*%
%TO.N,/DAC_OUT*%
X127009749Y-79560450D03*
%TO.P,U6,4,IN-*%
%TO.N,Net-(U6-IN-)*%
X127009749Y-82290950D03*
%TO.P,U6,5,V+*%
%TO.N,+12VH*%
X128909751Y-82290950D03*
%TD*%
D29*
%TO.P,C13,1*%
%TO.N,Net-(C13-Pad1)*%
X147551000Y-66756000D03*
%TO.P,C13,2*%
%TO.N,/TSV_Power/+15V*%
X145651000Y-66756000D03*
%TD*%
D30*
%TO.P,C14,1*%
%TO.N,Net-(C13-Pad1)*%
X149728000Y-66756000D03*
%TO.P,C14,2*%
%TO.N,Net-(D2-A)*%
X151628000Y-66756000D03*
%TD*%
D31*
%TO.P,C1,1*%
%TO.N,GND*%
X158550001Y-117739200D03*
%TO.P,C1,2*%
%TO.N,/CAN/CAN_N*%
X158550001Y-118699200D03*
%TD*%
D32*
%TO.P,C11,1*%
%TO.N,/TSV_Power/84VH*%
X161714000Y-71048000D03*
%TO.P,C11,2*%
%TO.N,GND2*%
X161714000Y-72598000D03*
%TD*%
D23*
%TO.P,R21,1*%
%TO.N,Net-(U9-FB)*%
X128391000Y-70300001D03*
%TO.P,R21,2*%
%TO.N,GND2*%
X130041000Y-70300001D03*
%TD*%
D16*
%TO.P,C18,1*%
%TO.N,+12VL*%
X156712800Y-105385700D03*
%TO.P,C18,2*%
%TO.N,GND*%
X156712800Y-103835700D03*
%TD*%
D32*
%TO.P,C21,1*%
%TO.N,+5VL*%
X147631800Y-127659000D03*
%TO.P,C21,2*%
%TO.N,GND*%
X147631800Y-129209000D03*
%TD*%
D16*
%TO.P,C7,1*%
%TO.N,Net-(C7-Pad1)*%
X138424800Y-112699000D03*
%TO.P,C7,2*%
%TO.N,GND*%
X138424800Y-111149000D03*
%TD*%
D33*
%TO.P,D2,1,K*%
%TO.N,Net-(D2-K)*%
X157551000Y-75554500D03*
%TO.P,D2,2,A*%
%TO.N,Net-(D2-A)*%
X157551000Y-73679500D03*
%TD*%
D23*
%TO.P,R19,1*%
%TO.N,Net-(U11-FB)*%
X136532000Y-70184763D03*
%TO.P,R19,2*%
%TO.N,GND2*%
X138182000Y-70184763D03*
%TD*%
D34*
%TO.P,U1,14,5V*%
%TO.N,+5VL*%
X111149756Y-108618000D03*
%TO.P,U1,13,GND*%
%TO.N,GND*%
X113689756Y-108618000D03*
%TO.P,U1,12,3V3*%
%TO.N,+3.3VL*%
X116229756Y-108618000D03*
%TO.P,U1,11,GPIO3/D10/SPI0_MOSI*%
%TO.N,/MOSI*%
X118769756Y-108618000D03*
%TO.P,U1,10,GPIO4/D9/SPI0_MISO*%
%TO.N,unconnected-(U1-GPIO4{slash}D9{slash}SPI0_MISO-Pad10)*%
X121309756Y-108618000D03*
%TO.P,U1,9,GPIO2/D8/SPI0_SCK*%
%TO.N,/SCK*%
X123849756Y-108618000D03*
%TO.P,U1,8,GPIO1/D7/RX0*%
%TO.N,unconnected-(U1-GPIO1{slash}D7{slash}RX0-Pad8)*%
X126389756Y-108618000D03*
D35*
%TO.P,U1,7,GPIO0/D6/TXO*%
%TO.N,unconnected-(U1-GPIO0{slash}D6{slash}TXO-Pad7)*%
X126389756Y-124783000D03*
%TO.P,U1,6,GPIO7/D5/SCL1*%
%TO.N,unconnected-(U1-GPIO7{slash}D5{slash}SCL1-Pad6)*%
X123849756Y-124783000D03*
%TO.P,U1,5,GPIO6/D4/SDA1*%
%TO.N,unconnected-(U1-GPIO6{slash}D4{slash}SDA1-Pad5)*%
X121309756Y-124783000D03*
%TO.P,U1,4,GPIO5/D3/SPI0_CS*%
%TO.N,/CS*%
X118769756Y-124783000D03*
%TO.P,U1,3,GPIO28/D2/ADC2*%
%TO.N,unconnected-(U1-GPIO28{slash}D2{slash}ADC2-Pad3)*%
X116229756Y-124783000D03*
%TO.P,U1,2,GPIO27/D1/ADC1*%
%TO.N,/CAN/CAN_TX*%
X113689756Y-124783000D03*
%TO.P,U1,1,GPIO26/D0/ADC0*%
%TO.N,/CAN/CAN_RX*%
X111149756Y-124783000D03*
%TD*%
D36*
%TO.P,C16,1*%
%TO.N,+3.3VH*%
X120073000Y-78457000D03*
%TO.P,C16,2*%
%TO.N,GND2*%
X121623000Y-78457000D03*
%TD*%
D37*
%TO.P,C10,1*%
%TO.N,/TSV_Power/84VH*%
X164536000Y-69625500D03*
%TO.P,C10,2*%
%TO.N,GND2*%
X164536000Y-72750500D03*
%TD*%
D38*
%TO.P,FL1,1*%
%TO.N,/CAN/CAN_N*%
X148176201Y-117719200D03*
%TO.P,FL1,2*%
%TO.N,/CAN/CAN_P*%
X148176201Y-115219200D03*
%TO.P,FL1,3*%
%TO.N,Net-(U2-CANH)*%
X143626201Y-115219200D03*
%TO.P,FL1,4*%
%TO.N,Net-(U2-CANL)*%
X143626201Y-117719200D03*
%TD*%
D16*
%TO.P,C20,1*%
%TO.N,+12VL*%
X158045800Y-129717000D03*
%TO.P,C20,2*%
%TO.N,GND*%
X158045800Y-128167000D03*
%TD*%
D17*
%TO.P,R2,1*%
%TO.N,Net-(J3-Pin_1)*%
X150550001Y-115492200D03*
%TO.P,R2,2*%
%TO.N,/CAN/CAN_P*%
X150550001Y-113842200D03*
%TD*%
D39*
%TO.P,L2,1*%
%TO.N,Net-(U4-VFB)*%
X116626000Y-76776000D03*
%TO.P,L2,2*%
%TO.N,/DAC_OUT*%
X117546000Y-76776000D03*
%TD*%
D40*
%TO.P,U2,1,TXD*%
%TO.N,/CAN/CAN_TX*%
X135630800Y-114591000D03*
%TO.P,U2,2,GND*%
%TO.N,GND*%
X135630800Y-115861000D03*
%TO.P,U2,3,VCC*%
%TO.N,+5VL*%
X135630800Y-117131000D03*
%TO.P,U2,4,RXD*%
%TO.N,/CAN/CAN_RX*%
X135630800Y-118401000D03*
%TO.P,U2,5,VIO*%
%TO.N,+3.3VL*%
X140880800Y-118401000D03*
%TO.P,U2,6,CANL*%
%TO.N,Net-(U2-CANL)*%
X140880800Y-117131000D03*
%TO.P,U2,7,CANH*%
%TO.N,Net-(U2-CANH)*%
X140880800Y-115861000D03*
%TO.P,U2,8,STB*%
%TO.N,Net-(U2-STB)*%
X140880800Y-114591000D03*
%TD*%
D32*
%TO.P,C6,1*%
%TO.N,GND*%
X133344800Y-115721000D03*
%TO.P,C6,2*%
%TO.N,+5VL*%
X133344800Y-117271000D03*
%TD*%
D17*
%TO.P,R5,1*%
%TO.N,Net-(U2-STB)*%
X140964800Y-112686000D03*
%TO.P,R5,2*%
%TO.N,Net-(C7-Pad1)*%
X140964800Y-111036000D03*
%TD*%
D36*
%TO.P,C17,1*%
%TO.N,+3.3VH*%
X120073000Y-80459000D03*
%TO.P,C17,2*%
%TO.N,GND2*%
X121623000Y-80459000D03*
%TD*%
D41*
%TO.P,C4,1*%
%TO.N,+3.3VL*%
X140934800Y-120372000D03*
%TO.P,C4,2*%
%TO.N,GND*%
X140934800Y-122272000D03*
%TD*%
D10*
%TO.P,R15,1*%
%TO.N,Net-(U8-FB)*%
X151518000Y-129736000D03*
%TO.P,R15,2*%
%TO.N,GND*%
X149868000Y-129736000D03*
%TD*%
D42*
%TO.P,C11,1*%
%TO.N,/TSV_Power/84VH*%
X164536000Y-66908500D03*
%TO.P,C11,2*%
%TO.N,GND2*%
X164536000Y-63783500D03*
%TD*%
D43*
%TO.P,J3,1,Pin_1*%
%TO.N,Net-(J3-Pin_1)*%
X153550001Y-115194200D03*
D44*
%TO.P,J3,2,Pin_2*%
%TO.N,Net-(J3-Pin_2)*%
X153550001Y-117734200D03*
%TD*%
D11*
%TO.P,R13,1*%
%TO.N,Net-(U7-FB)*%
X150362800Y-106019000D03*
%TO.P,R13,2*%
%TO.N,GND*%
X150362800Y-107669000D03*
%TD*%
D45*
%TO.P,R6,1*%
%TO.N,Net-(U5-RON)*%
X161968000Y-65983000D03*
%TO.P,R6,2*%
%TO.N,GND2*%
X161968000Y-64963000D03*
%TD*%
D16*
%TO.P,C9,1*%
%TO.N,/CAN/CAN_TX*%
X135630800Y-112699000D03*
%TO.P,C9,2*%
%TO.N,GND*%
X135630800Y-111149000D03*
%TD*%
D32*
%TO.P,C5,1*%
%TO.N,+3.3VL*%
X138424800Y-120547000D03*
%TO.P,C5,2*%
%TO.N,GND*%
X138424800Y-122097000D03*
%TD*%
%TO.P,C19,1*%
%TO.N,+3.3VL*%
X147695800Y-104037000D03*
%TO.P,C19,2*%
%TO.N,GND*%
X147695800Y-105587000D03*
%TD*%
D41*
%TO.P,C12,1*%
%TO.N,Net-(U5-BST)*%
X151300000Y-69108000D03*
%TO.P,C12,2*%
%TO.N,Net-(D1-K)*%
X151300000Y-71008000D03*
%TD*%
D46*
%TO.P,R9,1*%
%TO.N,Net-(C13-Pad1)*%
X147490000Y-69460500D03*
%TO.P,R9,2*%
%TO.N,Net-(D1-K)*%
X147490000Y-70655500D03*
%TD*%
D20*
%TO.P,J6,1,Pin_1*%
%TO.N,/THROTTLE_OUT*%
X111422000Y-63441000D03*
X111422000Y-69311000D03*
X117292000Y-63441000D03*
X117292000Y-69311000D03*
%TD*%
D31*
%TO.P,C2,1*%
%TO.N,/CAN/CAN_P*%
X158550001Y-114239200D03*
%TO.P,C2,2*%
%TO.N,GND*%
X158550001Y-115199200D03*
%TD*%
D47*
%TO.P,C3,1*%
%TO.N,Net-(J3-Pin_2)*%
X156662000Y-117478000D03*
%TO.P,C3,2*%
%TO.N,GND*%
X156662000Y-115578000D03*
%TD*%
D23*
%TO.P,R16,1*%
%TO.N,Net-(R14-Pad2)*%
X149854800Y-127672000D03*
%TO.P,R16,2*%
%TO.N,Net-(U8-FB)*%
X151504800Y-127672000D03*
%TD*%
D17*
%TO.P,R12,1*%
%TO.N,Net-(U7-FB)*%
X150312000Y-104018000D03*
%TO.P,R12,2*%
%TO.N,+3.3VL*%
X150312000Y-102368000D03*
%TD*%
D20*
%TO.P,J4,1,Pin_1*%
%TO.N,/TSV_Power/84VH*%
X169969000Y-64076000D03*
X169969000Y-69946000D03*
X175839000Y-64076000D03*
X175839000Y-69946000D03*
%TD*%
D17*
%TO.P,R1,1*%
%TO.N,/CAN/CAN_N*%
X150550001Y-119302200D03*
%TO.P,R1,2*%
%TO.N,Net-(J3-Pin_2)*%
X150550001Y-117652200D03*
%TD*%
D32*
%TO.P,C8,1*%
%TO.N,/CAN/CAN_RX*%
X135884800Y-120534000D03*
%TO.P,C8,2*%
%TO.N,GND*%
X135884800Y-122084000D03*
%TD*%
D48*
%TO.P,U3,1,VCC1*%
%TO.N,+3.3VL*%
X115069500Y-99691348D03*
%TO.P,U3,2,GND1*%
%TO.N,GND*%
X115704500Y-99691348D03*
%TO.P,U3,3,INA*%
%TO.N,/CS*%
X116339500Y-99691348D03*
%TO.P,U3,4,INB*%
%TO.N,/SCK*%
X116974500Y-99691348D03*
%TO.P,U3,5,INC*%
%TO.N,/MOSI*%
X117609500Y-99691348D03*
%TO.P,U3,6,OUTD*%
%TO.N,unconnected-(U3-OUTD-Pad6)*%
X118244500Y-99691348D03*
%TO.P,U3,7,GND1*%
%TO.N,GND*%
X118879500Y-99691348D03*
%TO.P,U3,8,GND1*%
X119514500Y-99691348D03*
%TO.P,U3,9,GND2*%
%TO.N,GND2*%
X119514500Y-94248652D03*
%TO.P,U3,10,GND2*%
X118879500Y-94248652D03*
%TO.P,U3,11,IND*%
%TO.N,unconnected-(U3-IND-Pad11)*%
X118244500Y-94248652D03*
%TO.P,U3,12,OUTC*%
%TO.N,Net-(U3-OUTC)*%
X117609500Y-94248652D03*
%TO.P,U3,13,OUTB*%
%TO.N,Net-(U3-OUTB)*%
X116974500Y-94248652D03*
%TO.P,U3,14,OUTA*%
%TO.N,Net-(U3-OUTA)*%
X116339500Y-94248652D03*
%TO.P,U3,15,GND2*%
%TO.N,GND2*%
X115704500Y-94248652D03*
%TO.P,U3,16,VCC2*%
%TO.N,+3.3VH*%
X115069500Y-94248652D03*
%TD*%
D17*
%TO.P,R20,1*%
%TO.N,Net-(U9-FB)*%
X126182000Y-70235000D03*
%TO.P,R20,2*%
%TO.N,+3.3VH*%
X126182000Y-68585000D03*
%TD*%
D36*
%TO.P,C23,1*%
%TO.N,+12VH*%
X140747000Y-64177663D03*
%TO.P,C23,2*%
%TO.N,GND2*%
X142297000Y-64177663D03*
%TD*%
D10*
%TO.P,R17,1*%
%TO.N,+12VH*%
X138308400Y-64177663D03*
%TO.P,R17,2*%
%TO.N,Net-(R17-Pad2)*%
X136658400Y-64177663D03*
%TD*%
D19*
%TO.P,C24,1*%
%TO.N,+12VH*%
X129991000Y-65474001D03*
%TO.P,C24,2*%
%TO.N,GND2*%
X128441000Y-65474001D03*
%TD*%
D21*
%TO.P,U9,1,OUT*%
%TO.N,+3.3VH*%
X128456936Y-66983000D03*
%TO.P,U9,2,FB*%
%TO.N,Net-(U9-FB)*%
X128456936Y-67633001D03*
%TO.P,U9,3,GND*%
%TO.N,GND2*%
X128456936Y-68283002D03*
%TO.P,U9,4,EN*%
%TO.N,+12VH*%
X130613000Y-68283002D03*
%TO.P,U9,5,GND*%
%TO.N,GND2*%
X130613000Y-67633001D03*
%TO.P,U9,6,IN*%
%TO.N,+12VH*%
X130613000Y-66983000D03*
D22*
%TO.P,U9,7,Thermal_Pad*%
%TO.N,GND2*%
X129534968Y-67633001D03*
%TD*%
D49*
%TO.N,/CAN/CAN_N*%
X170428800Y-116242000D03*
X160776800Y-116242000D03*
D50*
%TO.N,GND*%
X159075000Y-116528000D03*
X140914000Y-123386000D03*
X118943000Y-101161000D03*
X135834000Y-123259000D03*
D49*
X136977000Y-115893000D03*
D50*
X154630000Y-130244000D03*
D49*
X137104000Y-111194000D03*
X148584800Y-107150700D03*
X152140800Y-106642700D03*
D50*
X152979000Y-130117000D03*
D49*
X112212000Y-106368000D03*
X134056000Y-111194000D03*
X147314800Y-107150700D03*
D50*
X138501000Y-123132000D03*
D49*
X133802000Y-114496000D03*
X115133000Y-103447000D03*
X157474800Y-102832700D03*
X153410800Y-106642700D03*
D50*
X148153000Y-130498000D03*
X158313000Y-126815000D03*
D49*
%TO.N,+3.3VL*%
X145486000Y-104082000D03*
X147645000Y-102939000D03*
X113736000Y-103447000D03*
X139136000Y-119195000D03*
X145486000Y-101542000D03*
X152013800Y-102324700D03*
X145486000Y-102812000D03*
X114625000Y-106241000D03*
%TO.N,+5VL*%
X145994000Y-127704000D03*
X137358000Y-117290000D03*
X111831000Y-111575000D03*
%TO.N,GND2*%
X126528751Y-80957450D03*
X128341000Y-64203000D03*
X159315000Y-72063000D03*
X161855000Y-63427000D03*
X139249000Y-71047000D03*
X120594000Y-83761000D03*
X115260000Y-84396000D03*
X123007000Y-78427000D03*
X165171000Y-74744000D03*
X155251000Y-63173000D03*
D50*
X157551000Y-80967000D03*
D49*
X144470000Y-65346000D03*
X123007000Y-80459000D03*
X142184000Y-62552000D03*
X119705000Y-82745000D03*
X126055000Y-64203000D03*
X131375000Y-70285000D03*
%TO.N,/TSV_Power/+15V*%
X142297000Y-65701663D03*
X143821000Y-69777000D03*
D50*
%TO.N,Net-(D2-A)*%
X157551000Y-72712000D03*
X152471000Y-68267000D03*
D49*
%TO.N,+3.3VH*%
X124658000Y-70172000D03*
X124658000Y-68648000D03*
X117299301Y-80332000D03*
X124785000Y-67251000D03*
X113482000Y-85412000D03*
X118442301Y-80332000D03*
%TO.N,+12VH*%
X128976000Y-82872000D03*
X132391000Y-67618000D03*
X134056000Y-66108000D03*
X134056000Y-67632000D03*
%TO.N,+12VL*%
X155315800Y-102959700D03*
X156712800Y-129883700D03*
X156712800Y-127851700D03*
X155442800Y-105880700D03*
X159506800Y-129756700D03*
%TO.N,/CS*%
X116403000Y-105352000D03*
X118816000Y-110940000D03*
%TO.N,/SCK*%
X117879256Y-105352000D03*
X119660256Y-105352000D03*
%TD*%
D51*
%TO.N,/CAN/CAN_N*%
X158550001Y-118994200D02*
X159025001Y-118994200D01*
X168199000Y-124874500D02*
X170428800Y-122644700D01*
X159025001Y-118994200D02*
X160776800Y-117242401D01*
X170428800Y-108606500D02*
X168122800Y-106300500D01*
X149759201Y-119302200D02*
X148176201Y-117719200D01*
X150550001Y-119302200D02*
X158242001Y-119302200D01*
X170428800Y-122644700D02*
X170428800Y-116242000D01*
X150550001Y-119302200D02*
X149759201Y-119302200D01*
X170428800Y-116242000D02*
X170428800Y-108606500D01*
X160776800Y-117242401D02*
X160776800Y-116242000D01*
X150133001Y-119719200D02*
X150550001Y-119302200D01*
X146625001Y-119719200D02*
X150133001Y-119719200D01*
X158242001Y-119302200D02*
X158550001Y-118994200D01*
%TO.N,/CAN/CAN_P*%
X163316800Y-123802300D02*
X165659000Y-126144500D01*
X150756001Y-113636200D02*
X150550001Y-113842200D01*
X158550001Y-113944200D02*
X158242001Y-113636200D01*
X163316800Y-116750000D02*
X163316800Y-123802300D01*
X165582800Y-107570500D02*
X163316800Y-109836500D01*
X163316800Y-109836500D02*
X163316800Y-116750000D01*
X160765000Y-113944200D02*
X163316800Y-116496000D01*
X158242001Y-113636200D02*
X150756001Y-113636200D01*
X163316800Y-116496000D02*
X163316800Y-116750000D01*
X149927001Y-113219200D02*
X150550001Y-113842200D01*
X150550001Y-113842200D02*
X149553201Y-113842200D01*
X149553201Y-113842200D02*
X148176201Y-115219200D01*
X158550001Y-113944200D02*
X160765000Y-113944200D01*
X146625001Y-113219200D02*
X149927001Y-113219200D01*
%TO.N,Net-(J3-Pin_2)*%
X150550001Y-117652200D02*
X153468001Y-117652200D01*
X156662000Y-117478000D02*
X153806201Y-117478000D01*
X153806201Y-117478000D02*
X153550001Y-117734200D01*
X153468001Y-117652200D02*
X153550001Y-117734200D01*
D52*
%TO.N,GND*%
X158045800Y-127082200D02*
X158313000Y-126815000D01*
X153473800Y-129338001D02*
X153901831Y-129338001D01*
D53*
X148158800Y-129736000D02*
X148153000Y-129741800D01*
D51*
X138424800Y-111149000D02*
X137149000Y-111149000D01*
X156662000Y-115578000D02*
X158199201Y-115578000D01*
D52*
X154551832Y-130165832D02*
X154630000Y-130244000D01*
D51*
X158199201Y-115578000D02*
X158550001Y-115227200D01*
D52*
X154551832Y-128688000D02*
X154551832Y-130165832D01*
X118879500Y-101097500D02*
X118943000Y-101161000D01*
D53*
X113689756Y-107845756D02*
X112212000Y-106368000D01*
D51*
X134101000Y-111149000D02*
X134056000Y-111194000D01*
X133344800Y-115721000D02*
X133344800Y-114953200D01*
D53*
X149868000Y-129736000D02*
X148158800Y-129736000D01*
D52*
X140934800Y-123365200D02*
X140914000Y-123386000D01*
X153901831Y-129338001D02*
X154551832Y-128688000D01*
D54*
X115704500Y-102875500D02*
X115704500Y-99691348D01*
D53*
X148153000Y-129741800D02*
X148153000Y-130498000D01*
X153472832Y-106580668D02*
X153410800Y-106642700D01*
D52*
X118879500Y-99691348D02*
X118879500Y-101097500D01*
D53*
X156132501Y-104415999D02*
X154550864Y-104415999D01*
D52*
X135884800Y-123208200D02*
X135834000Y-123259000D01*
X119514500Y-100589500D02*
X118943000Y-101161000D01*
D54*
X115133000Y-103447000D02*
X115704500Y-102875500D01*
D55*
X152394800Y-105066000D02*
X152394800Y-106388700D01*
D52*
X140934800Y-122272000D02*
X140934800Y-123365200D01*
X119514500Y-99691348D02*
X119514500Y-100589500D01*
D53*
X158550001Y-116528000D02*
X158550001Y-117739200D01*
X153472832Y-104415999D02*
X154550864Y-104415999D01*
D52*
X138424800Y-122097000D02*
X138424800Y-123055800D01*
X138424800Y-123055800D02*
X138501000Y-123132000D01*
D53*
X157474800Y-102832700D02*
X156712800Y-103594700D01*
D55*
X152394800Y-106388700D02*
X152140800Y-106642700D01*
D53*
X156712800Y-103594700D02*
X156712800Y-103835700D01*
X148158800Y-129736000D02*
X147631800Y-129209000D01*
D51*
X135630800Y-115861000D02*
X136945000Y-115861000D01*
D52*
X158045800Y-128167000D02*
X158045800Y-127082200D01*
D51*
X133344800Y-114953200D02*
X133802000Y-114496000D01*
X136945000Y-115861000D02*
X136977000Y-115893000D01*
D52*
X154551832Y-128688000D02*
X155629864Y-128688000D01*
D51*
X137149000Y-111149000D02*
X137104000Y-111194000D01*
X135630800Y-111149000D02*
X134101000Y-111149000D01*
D52*
X135884800Y-122084000D02*
X135884800Y-123208200D01*
X153473800Y-129338001D02*
X153473800Y-129622200D01*
D53*
X113689756Y-108618000D02*
X113689756Y-107845756D01*
D52*
X153473800Y-129622200D02*
X152979000Y-130117000D01*
D53*
X153472832Y-104415999D02*
X153472832Y-106580668D01*
X158550001Y-115199200D02*
X158550001Y-116528000D01*
X158550001Y-116528000D02*
X159075000Y-116528000D01*
X156712800Y-103835700D02*
X156132501Y-104415999D01*
D55*
%TO.N,+3.3VL*%
X152394800Y-102705700D02*
X152013800Y-102324700D01*
X138424800Y-119906200D02*
X139136000Y-119195000D01*
D53*
X113736000Y-103447000D02*
X113736000Y-100272000D01*
D55*
X138424800Y-120547000D02*
X138424800Y-119906200D01*
X140880800Y-120493000D02*
X140934800Y-120547000D01*
X152394800Y-103765998D02*
X152394800Y-102705700D01*
D56*
X147645000Y-103986200D02*
X147695800Y-104037000D01*
D53*
X114316652Y-99691348D02*
X115069500Y-99691348D01*
X115227756Y-106241000D02*
X116229756Y-107243000D01*
X114625000Y-106241000D02*
X115227756Y-106241000D01*
X113736000Y-100272000D02*
X114316652Y-99691348D01*
D56*
X147645000Y-102939000D02*
X147645000Y-103986200D01*
D55*
X140934800Y-120547000D02*
X138424800Y-120547000D01*
X140880800Y-118401000D02*
X140880800Y-120493000D01*
D53*
X116229756Y-107243000D02*
X116229756Y-108618000D01*
%TO.N,+5VL*%
X150783800Y-124711000D02*
X152018000Y-124711000D01*
X149650800Y-125640000D02*
X147631800Y-127659000D01*
D55*
X153473800Y-128037999D02*
X153473800Y-127590200D01*
D53*
X153473800Y-126166800D02*
X153487000Y-126180000D01*
D51*
X135630800Y-117131000D02*
X133484800Y-117131000D01*
X133484800Y-117131000D02*
X133344800Y-117271000D01*
X135662800Y-117163000D02*
X135630800Y-117131000D01*
X137231000Y-117163000D02*
X135662800Y-117163000D01*
D53*
X149854800Y-125640000D02*
X150783800Y-124711000D01*
D51*
X111831000Y-109299244D02*
X111149756Y-108618000D01*
X147631800Y-127659000D02*
X146039000Y-127659000D01*
D53*
X152018000Y-124711000D02*
X153473800Y-126166800D01*
X153487000Y-126180000D02*
X153487000Y-127577000D01*
D51*
X137358000Y-117290000D02*
X137231000Y-117163000D01*
D55*
X153473800Y-127590200D02*
X153487000Y-127577000D01*
D51*
X111831000Y-111575000D02*
X111831000Y-109299244D01*
D53*
X149854800Y-125640000D02*
X149650800Y-125640000D01*
D51*
X146039000Y-127659000D02*
X145994000Y-127704000D01*
D55*
%TO.N,Net-(C7-Pad1)*%
X140964800Y-111036000D02*
X140087800Y-111036000D01*
X140087800Y-111036000D02*
X138424800Y-112699000D01*
%TO.N,/CAN/CAN_RX*%
X115196500Y-129228000D02*
X111149756Y-125181256D01*
X135630800Y-121243500D02*
X135373618Y-121243500D01*
X135884800Y-120534000D02*
X135884800Y-118655000D01*
X135373618Y-121243500D02*
X135019300Y-121597818D01*
X111149756Y-125181256D02*
X111149756Y-124783000D01*
X127960000Y-129228000D02*
X115196500Y-129228000D01*
X135884800Y-118655000D02*
X135630800Y-118401000D01*
X135630800Y-118401000D02*
X135630800Y-121243500D01*
X135019300Y-122168700D02*
X127960000Y-129228000D01*
X135019300Y-121597818D02*
X135019300Y-122168700D01*
%TO.N,/CAN/CAN_TX*%
X116530000Y-127958000D02*
X126817000Y-127958000D01*
X131897000Y-114877000D02*
X134075000Y-112699000D01*
X131897000Y-122878000D02*
X131897000Y-114877000D01*
X116530000Y-127958000D02*
X113689756Y-125117756D01*
X134075000Y-112699000D02*
X135630800Y-112699000D01*
X113689756Y-125117756D02*
X113689756Y-124783000D01*
X126817000Y-127958000D02*
X131897000Y-122878000D01*
X135630800Y-112699000D02*
X135630800Y-114591000D01*
D51*
%TO.N,GND2*%
X164536000Y-63783500D02*
X162211500Y-63783500D01*
D54*
X128884967Y-68283002D02*
X129534968Y-67633001D01*
D51*
X144773000Y-65043000D02*
X144470000Y-65346000D01*
D53*
X141167000Y-67999000D02*
X140637205Y-68528795D01*
X119380199Y-84974801D02*
X120594000Y-83761000D01*
D54*
X130613000Y-67633001D02*
X129534968Y-67633001D01*
D56*
X126168000Y-65461001D02*
X126168000Y-64316000D01*
D53*
X129534968Y-68091003D02*
X129534968Y-67633001D01*
X139249000Y-70184763D02*
X139249000Y-71047000D01*
D51*
X161727000Y-72585000D02*
X161714000Y-72598000D01*
D55*
X142245032Y-67644763D02*
X141167000Y-67644763D01*
D54*
X128456936Y-68283002D02*
X128884967Y-68283002D01*
D56*
X125703751Y-80132450D02*
X126528751Y-80957450D01*
D51*
X165171000Y-74744000D02*
X163012000Y-72585000D01*
D53*
X130041000Y-70300001D02*
X131359999Y-70300001D01*
D56*
X124972751Y-80132450D02*
X125703751Y-80132450D01*
D55*
X115704500Y-85865652D02*
X115704500Y-84840500D01*
D56*
X142297000Y-62665000D02*
X142184000Y-62552000D01*
D54*
X115704500Y-94248652D02*
X115704500Y-85865652D01*
D52*
X118879500Y-85865652D02*
X119380199Y-85865652D01*
D55*
X115704500Y-84840500D02*
X115260000Y-84396000D01*
D51*
X155173000Y-63251000D02*
X155251000Y-63173000D01*
D54*
X118879500Y-94248652D02*
X118879500Y-85865652D01*
D53*
X129534968Y-67633001D02*
X129534968Y-69793969D01*
D55*
X127959750Y-80070278D02*
X127072578Y-80957450D01*
D53*
X121623000Y-78457000D02*
X122977000Y-78457000D01*
D51*
X161714000Y-72598000D02*
X159850000Y-72598000D01*
D55*
X127072578Y-80957450D02*
X126528751Y-80957450D01*
D51*
X163012000Y-72585000D02*
X161727000Y-72585000D01*
X161968000Y-63540000D02*
X161855000Y-63427000D01*
X155173000Y-64597000D02*
X155173000Y-63251000D01*
X162211500Y-63783500D02*
X161855000Y-63427000D01*
D53*
X129534968Y-66567969D02*
X128441000Y-65474001D01*
X122977000Y-78457000D02*
X123007000Y-78427000D01*
D57*
X158412000Y-70566000D02*
X159231150Y-70566000D01*
D51*
X159231150Y-70566000D02*
X159231150Y-71979150D01*
X144773000Y-62933000D02*
X144773000Y-65043000D01*
D53*
X129342969Y-68283002D02*
X129534968Y-68091003D01*
X140265000Y-68528795D02*
X140088968Y-68352763D01*
D51*
X161968000Y-64648000D02*
X161968000Y-63540000D01*
D53*
X121623000Y-78457000D02*
X121623000Y-80459000D01*
X141167000Y-67644763D02*
X141167000Y-67999000D01*
X119380199Y-85865652D02*
X119380199Y-84974801D01*
D54*
X119514500Y-94248652D02*
X118879500Y-94248652D01*
D53*
X140265000Y-70184763D02*
X140265000Y-68528795D01*
X138182000Y-70184763D02*
X139249000Y-70184763D01*
D51*
X159850000Y-72598000D02*
X159315000Y-72063000D01*
D53*
X129534968Y-69793969D02*
X130041000Y-70300001D01*
D57*
X157551000Y-79887000D02*
X157551000Y-80967000D01*
D53*
X140637205Y-68528795D02*
X140265000Y-68528795D01*
D55*
X127959750Y-79560450D02*
X127959750Y-80070278D01*
D53*
X131359999Y-70300001D02*
X131375000Y-70285000D01*
X128441000Y-64303000D02*
X128341000Y-64203000D01*
X129534968Y-67633001D02*
X129534968Y-66567969D01*
D51*
X159231150Y-71979150D02*
X159315000Y-72063000D01*
D53*
X121623000Y-80459000D02*
X123007000Y-80459000D01*
X128441000Y-65474001D02*
X128441000Y-64303000D01*
X139249000Y-70184763D02*
X140265000Y-70184763D01*
D56*
X142297000Y-64177663D02*
X142297000Y-62665000D01*
D57*
X156507000Y-68661000D02*
X158412000Y-70566000D01*
D56*
X126168000Y-64316000D02*
X126055000Y-64203000D01*
D51*
%TO.N,/TSV_Power/84VH*%
X163113500Y-71048000D02*
X164536000Y-69625500D01*
D53*
X159231150Y-69296000D02*
X159231150Y-68026000D01*
D51*
X161714000Y-71048000D02*
X163113500Y-71048000D01*
D53*
%TO.N,Net-(D1-K)*%
X153515850Y-70833000D02*
X153782850Y-70566000D01*
D51*
X153840000Y-70623150D02*
X153782850Y-70566000D01*
X153840000Y-74603000D02*
X153840000Y-70623150D01*
D53*
X151300000Y-70833000D02*
X153515850Y-70833000D01*
X145331000Y-70645000D02*
X147252000Y-70645000D01*
X147490000Y-70883000D02*
X151250000Y-70883000D01*
X147252000Y-70645000D02*
X147490000Y-70883000D01*
X151250000Y-70883000D02*
X151300000Y-70833000D01*
%TO.N,Net-(U5-BST)*%
X153769850Y-69283000D02*
X153782850Y-69296000D01*
X151300000Y-69283000D02*
X153769850Y-69283000D01*
%TO.N,/TSV_Power/+15V*%
X142245032Y-69754731D02*
X142245032Y-68294764D01*
X145826000Y-66756000D02*
X145826000Y-65231000D01*
X145331000Y-68661000D02*
X145826000Y-68166000D01*
D55*
X142245032Y-65753631D02*
X142297000Y-65701663D01*
D53*
X147376000Y-63681000D02*
X149776000Y-63681000D01*
X145826000Y-68166000D02*
X145826000Y-66756000D01*
X145331000Y-69725000D02*
X143873000Y-69725000D01*
D55*
X142245032Y-66994762D02*
X142245032Y-65753631D01*
D53*
X143873000Y-69725000D02*
X143821000Y-69777000D01*
X145331000Y-69725000D02*
X145331000Y-68661000D01*
X145826000Y-65231000D02*
X147376000Y-63681000D01*
X141815000Y-70184763D02*
X142245032Y-69754731D01*
%TO.N,Net-(C13-Pad1)*%
X147490000Y-69233000D02*
X147490000Y-66870000D01*
X147376000Y-66756000D02*
X149903000Y-66756000D01*
X147490000Y-66870000D02*
X147376000Y-66756000D01*
%TO.N,Net-(D2-A)*%
X153523000Y-64597000D02*
X151426000Y-64597000D01*
X151426000Y-64597000D02*
X151426000Y-66729000D01*
D57*
X157551000Y-72712000D02*
X157551000Y-73679500D01*
X152712000Y-68026000D02*
X152471000Y-68267000D01*
X153782850Y-68026000D02*
X152712000Y-68026000D01*
D55*
X151426000Y-63681000D02*
X151426000Y-64597000D01*
D53*
X151426000Y-66729000D02*
X151453000Y-66756000D01*
X151453000Y-66756000D02*
X153782850Y-66756000D01*
%TO.N,+3.3VH*%
X119903348Y-78626652D02*
X120073000Y-78457000D01*
X126168000Y-67011001D02*
X125024999Y-67011001D01*
X126196001Y-66983000D02*
X126181000Y-66998001D01*
X120073000Y-80459000D02*
X120073000Y-78457000D01*
X118266999Y-80156698D02*
X118442301Y-80332000D01*
X124723001Y-68713001D02*
X124658000Y-68648000D01*
D54*
X115069500Y-86999500D02*
X113482000Y-85412000D01*
D53*
X126116999Y-68713001D02*
X124658000Y-70172000D01*
X120073000Y-80459000D02*
X118569301Y-80459000D01*
X118266999Y-78626652D02*
X119903348Y-78626652D01*
X126168000Y-68713001D02*
X126116999Y-68713001D01*
X128456936Y-66983000D02*
X126196001Y-66983000D01*
X126168000Y-68713001D02*
X126168000Y-67011001D01*
X126168000Y-68713001D02*
X124723001Y-68713001D01*
X117299301Y-80332000D02*
X118442301Y-80332000D01*
X125024999Y-67011001D02*
X124785000Y-67251000D01*
X118569301Y-80459000D02*
X118442301Y-80332000D01*
D54*
X115069500Y-94248652D02*
X115069500Y-86999500D01*
D53*
X118266999Y-78626652D02*
X117636499Y-78626652D01*
X118266999Y-78626652D02*
X118266999Y-80156698D01*
%TO.N,+12VH*%
X130613000Y-66096001D02*
X130613000Y-66983000D01*
D56*
X138308400Y-65214194D02*
X139903969Y-66809763D01*
D53*
X132391000Y-67618000D02*
X131756000Y-66983000D01*
D54*
X130613000Y-66983000D02*
X131756000Y-66983000D01*
D53*
X132391000Y-67618000D02*
X131725998Y-68283002D01*
X129991000Y-65474001D02*
X130613000Y-66096001D01*
D56*
X138308400Y-64177663D02*
X138308400Y-65214194D01*
X138308400Y-64177663D02*
X139744000Y-64177663D01*
X128909751Y-82290950D02*
X128909751Y-82805751D01*
D54*
X130613000Y-68283002D02*
X131725998Y-68283002D01*
D56*
X128909751Y-82805751D02*
X128976000Y-82872000D01*
X139744000Y-64177663D02*
X140747000Y-64177663D01*
D51*
%TO.N,Net-(U2-CANH)*%
X143626201Y-115219200D02*
X143626201Y-114568000D01*
X142984401Y-115861000D02*
X143626201Y-115219200D01*
X140880800Y-115861000D02*
X142984401Y-115861000D01*
X143626201Y-114568000D02*
X144975001Y-113219200D01*
%TO.N,Net-(U2-CANL)*%
X143038001Y-117131000D02*
X140880800Y-117131000D01*
X143626201Y-117719200D02*
X143626201Y-118370400D01*
X143626201Y-117719200D02*
X143038001Y-117131000D01*
X143626201Y-118370400D02*
X144975001Y-119719200D01*
D55*
%TO.N,+12VL*%
X155629864Y-128037999D02*
X156526501Y-128037999D01*
X154550864Y-103765998D02*
X154550864Y-103724636D01*
X156526501Y-128037999D02*
X156712800Y-127851700D01*
X158045800Y-129717000D02*
X159467100Y-129717000D01*
X155629864Y-129338001D02*
X156167101Y-129338001D01*
X154550864Y-105066000D02*
X154628100Y-105066000D01*
X156712800Y-105385700D02*
X155937800Y-105385700D01*
X155937800Y-105385700D02*
X155442800Y-105880700D01*
X154550864Y-103724636D02*
X155315800Y-102959700D01*
X156167101Y-129338001D02*
X156712800Y-129883700D01*
X159467100Y-129717000D02*
X159506800Y-129756700D01*
X154628100Y-105066000D02*
X155442800Y-105880700D01*
X158045800Y-129717000D02*
X156879500Y-129717000D01*
X156879500Y-129717000D02*
X156712800Y-129883700D01*
D57*
%TO.N,Net-(J3-Pin_1)*%
X153450001Y-114794200D02*
X153550001Y-114694200D01*
D51*
X150550001Y-115492200D02*
X153252001Y-115492200D01*
X153252001Y-115492200D02*
X153550001Y-115194200D01*
D57*
X153400001Y-114794200D02*
X153550001Y-114944200D01*
D56*
%TO.N,/THROTTLE_OUT*%
X111422000Y-71583000D02*
X117292000Y-71583000D01*
X117292000Y-65713000D02*
X117292000Y-71583000D01*
X111422000Y-65713000D02*
X111422000Y-71583000D01*
D51*
X130369751Y-79560450D02*
X128921750Y-79560450D01*
X130941751Y-80132450D02*
X130369751Y-79560450D01*
D55*
%TO.N,Net-(U2-STB)*%
X140880800Y-114591000D02*
X140880800Y-112770000D01*
X140880800Y-112770000D02*
X140964800Y-112686000D01*
D53*
%TO.N,Net-(U5-RON)*%
X159612150Y-66375000D02*
X159231150Y-66756000D01*
X161778000Y-66173000D02*
X161968000Y-65983000D01*
X161778000Y-66375000D02*
X159612150Y-66375000D01*
X161778000Y-66375000D02*
X161778000Y-66173000D01*
D56*
%TO.N,Net-(U6-IN-)*%
X125481251Y-82290950D02*
X127009749Y-82290950D01*
X124972751Y-81782450D02*
X125481251Y-82290950D01*
X128079699Y-81221000D02*
X130380301Y-81221000D01*
X127009749Y-82290950D02*
X128079699Y-81221000D01*
X130380301Y-81221000D02*
X130941751Y-81782450D01*
D53*
%TO.N,Net-(U7-FB)*%
X150424832Y-104113000D02*
X150424832Y-105956968D01*
X150727831Y-104415999D02*
X150424832Y-104113000D01*
X150424832Y-105956968D02*
X150362800Y-106019000D01*
X152394800Y-104415999D02*
X150727831Y-104415999D01*
%TO.N,Net-(R14-Pad2)*%
X151504800Y-126022000D02*
X149854800Y-127672000D01*
X151504800Y-125640000D02*
X151504800Y-126022000D01*
%TO.N,Net-(U8-FB)*%
X151441800Y-129832000D02*
X152585800Y-128688000D01*
X151504800Y-127672000D02*
X152520800Y-128688000D01*
X152520800Y-128688000D02*
X153473800Y-128688000D01*
X152585800Y-128688000D02*
X153473800Y-128688000D01*
D56*
%TO.N,Net-(R17-Pad2)*%
X136545200Y-67644763D02*
X136545200Y-65116963D01*
X136646200Y-64189863D02*
X136658400Y-64177663D01*
X136658400Y-65003763D02*
X136658400Y-64177663D01*
X136545200Y-65116963D02*
X136658400Y-65003763D01*
D53*
%TO.N,Net-(U11-FB)*%
X138195200Y-68330563D02*
X138195200Y-67644763D01*
X140088968Y-67644763D02*
X138195200Y-67644763D01*
X136532000Y-70184763D02*
X136532000Y-69993763D01*
X136532000Y-69993763D02*
X138195200Y-68330563D01*
D55*
%TO.N,Net-(U9-FB)*%
X127697903Y-67633001D02*
X127184000Y-68146904D01*
X128391000Y-70300001D02*
X126231000Y-70300001D01*
X127184000Y-69347001D02*
X126168000Y-70363001D01*
X128456936Y-67633001D02*
X127697903Y-67633001D01*
X126231000Y-70300001D02*
X126168000Y-70363001D01*
X127184000Y-68146904D02*
X127184000Y-69347001D01*
D54*
%TO.N,Net-(U3-OUTC)*%
X117609500Y-94248652D02*
X117609500Y-85865652D01*
D55*
X117609500Y-83060849D02*
X117617001Y-83053348D01*
X117609500Y-85865652D02*
X117609500Y-83060849D01*
%TO.N,Net-(U3-OUTB)*%
X116974500Y-85635000D02*
X116974500Y-83060849D01*
X116974500Y-85865652D02*
X116974500Y-85635000D01*
X116974500Y-83060849D02*
X116966999Y-83053348D01*
D54*
X116974500Y-94248652D02*
X116974500Y-85635000D01*
D55*
%TO.N,Net-(U3-OUTA)*%
X116339500Y-85865652D02*
X116339500Y-83075847D01*
D54*
X116339500Y-94248652D02*
X116339500Y-85865652D01*
D55*
X116339500Y-83075847D02*
X116317001Y-83053348D01*
%TO.N,/DAC_OUT*%
X117546000Y-76776000D02*
X124225299Y-76776000D01*
X124225299Y-76776000D02*
X127009749Y-79560450D01*
D57*
%TO.N,Net-(D2-K)*%
X157551000Y-75554500D02*
X157551000Y-78237000D01*
D55*
%TO.N,/MOSI*%
X117609500Y-103764500D02*
X117609500Y-99691348D01*
X118769756Y-108618000D02*
X118769756Y-104924756D01*
X118769756Y-104924756D02*
X117609500Y-103764500D01*
%TO.N,/CS*%
X116403000Y-105352000D02*
X116339500Y-105288500D01*
X118816000Y-110940000D02*
X118769756Y-110986244D01*
X116339500Y-105288500D02*
X116339500Y-99691348D01*
X118769756Y-110986244D02*
X118769756Y-124783000D01*
%TO.N,/SCK*%
X116974500Y-99691348D02*
X116974500Y-104447244D01*
X119660256Y-105352000D02*
X121958756Y-105352000D01*
X123849756Y-107243000D02*
X123849756Y-108618000D01*
X116974500Y-104447244D02*
X117879256Y-105352000D01*
X121958756Y-105352000D02*
X123849756Y-107243000D01*
D53*
%TO.N,Net-(U4-VFB)*%
X116317001Y-78626652D02*
X116657000Y-78626652D01*
X116317001Y-77084999D02*
X116626000Y-76776000D01*
X116657000Y-78626652D02*
X116928499Y-78626652D01*
X116317001Y-78626652D02*
X116317001Y-77084999D01*
%TD*%
%TA.AperFunction,Conductor*%
%TO.N,/TSV_Power/84VH*%
G36*
X178326219Y-61429067D02*
G01*
X178372491Y-61481418D01*
X178382507Y-61513560D01*
X178871281Y-64432737D01*
X178872983Y-64453409D01*
X178859104Y-73280592D01*
X178839314Y-73347600D01*
X178803666Y-73383718D01*
X177380163Y-74328321D01*
X177313419Y-74348987D01*
X177311601Y-74349000D01*
X168006684Y-74349000D01*
X167939645Y-74329315D01*
X167914005Y-74307381D01*
X166417820Y-72624172D01*
X166387994Y-72560988D01*
X166386499Y-72541791D01*
X166386499Y-72287998D01*
X166386498Y-72287981D01*
X166375999Y-72185203D01*
X166375998Y-72185200D01*
X166340634Y-72078479D01*
X166320814Y-72018666D01*
X166228712Y-71869344D01*
X166104656Y-71745288D01*
X165955334Y-71653186D01*
X165788797Y-71598001D01*
X165788795Y-71598000D01*
X165686010Y-71587500D01*
X163385998Y-71587500D01*
X163385983Y-71587501D01*
X163283198Y-71598001D01*
X163277515Y-71599218D01*
X163227375Y-71599582D01*
X163158563Y-71585895D01*
X163111329Y-71576500D01*
X162798838Y-71576500D01*
X162731799Y-71556815D01*
X162686044Y-71504011D01*
X162676100Y-71434853D01*
X162677585Y-71426544D01*
X162678855Y-71420607D01*
X162688999Y-71321322D01*
X162689000Y-71321309D01*
X162689000Y-71298000D01*
X160739001Y-71298000D01*
X160739001Y-71321322D01*
X160749144Y-71420609D01*
X160751096Y-71426500D01*
X160753496Y-71496328D01*
X160717762Y-71556369D01*
X160655241Y-71587559D01*
X160633389Y-71589500D01*
X160363650Y-71589500D01*
X160296611Y-71569815D01*
X160250856Y-71517011D01*
X160239650Y-71465500D01*
X160239650Y-71324376D01*
X160259335Y-71257337D01*
X160289336Y-71225111D01*
X160318946Y-71202946D01*
X160405196Y-71087731D01*
X160455491Y-70952883D01*
X160461900Y-70893273D01*
X160461900Y-70774677D01*
X160739000Y-70774677D01*
X160739000Y-70798000D01*
X161464000Y-70798000D01*
X161464000Y-70098000D01*
X161964000Y-70098000D01*
X161964000Y-70798000D01*
X162688999Y-70798000D01*
X162688999Y-70774692D01*
X162688998Y-70774677D01*
X162678856Y-70675395D01*
X162677963Y-70672701D01*
X162677902Y-70670934D01*
X162677439Y-70668771D01*
X162677824Y-70668688D01*
X162675557Y-70602873D01*
X162711285Y-70542829D01*
X162773804Y-70511633D01*
X162843264Y-70519189D01*
X162883348Y-70546009D01*
X162967654Y-70630315D01*
X163116875Y-70722356D01*
X163116880Y-70722358D01*
X163283302Y-70777505D01*
X163283309Y-70777506D01*
X163386019Y-70787999D01*
X164285999Y-70787999D01*
X164786000Y-70787999D01*
X165685972Y-70787999D01*
X165685986Y-70787998D01*
X165788697Y-70777505D01*
X165955119Y-70722358D01*
X165955124Y-70722356D01*
X166104345Y-70630315D01*
X166228315Y-70506345D01*
X166320356Y-70357124D01*
X166320358Y-70357119D01*
X166375505Y-70190697D01*
X166375506Y-70190690D01*
X166385999Y-70087986D01*
X166386000Y-70087973D01*
X166386000Y-69875500D01*
X164786000Y-69875500D01*
X164786000Y-70787999D01*
X164285999Y-70787999D01*
X164286000Y-70787998D01*
X164286000Y-69875500D01*
X162686001Y-69875500D01*
X162686001Y-70087986D01*
X162696494Y-70190699D01*
X162700171Y-70201795D01*
X162702572Y-70271624D01*
X162666840Y-70331665D01*
X162604319Y-70362857D01*
X162534860Y-70355296D01*
X162494784Y-70328479D01*
X162416732Y-70250427D01*
X162416728Y-70250424D01*
X162272492Y-70161457D01*
X162272481Y-70161452D01*
X162111606Y-70108144D01*
X162012322Y-70098000D01*
X161964000Y-70098000D01*
X161464000Y-70098000D01*
X161463999Y-70097999D01*
X161415693Y-70098000D01*
X161415675Y-70098001D01*
X161316392Y-70108144D01*
X161155518Y-70161452D01*
X161155507Y-70161457D01*
X161011271Y-70250424D01*
X161011267Y-70250427D01*
X160891427Y-70370267D01*
X160891424Y-70370271D01*
X160802457Y-70514507D01*
X160802452Y-70514518D01*
X160749144Y-70675393D01*
X160739000Y-70774677D01*
X160461900Y-70774677D01*
X160461899Y-70238728D01*
X160455491Y-70179117D01*
X160448904Y-70161457D01*
X160405197Y-70044271D01*
X160405196Y-70044269D01*
X160375719Y-70004893D01*
X160351302Y-69939429D01*
X160366153Y-69871156D01*
X160375721Y-69856269D01*
X160404751Y-69817491D01*
X160454997Y-69682776D01*
X160454998Y-69682772D01*
X160461399Y-69623244D01*
X160461400Y-69623227D01*
X160461400Y-69546000D01*
X159355150Y-69546000D01*
X159288111Y-69526315D01*
X159242356Y-69473511D01*
X159231150Y-69422000D01*
X159231150Y-69296000D01*
X159105150Y-69296000D01*
X159038111Y-69276315D01*
X158992356Y-69223511D01*
X158981150Y-69172000D01*
X158981150Y-69163013D01*
X162686000Y-69163013D01*
X162686000Y-69375500D01*
X164286000Y-69375500D01*
X164786000Y-69375500D01*
X166385999Y-69375500D01*
X166385999Y-69163028D01*
X166385998Y-69163013D01*
X166375505Y-69060302D01*
X166320358Y-68893880D01*
X166320356Y-68893875D01*
X166228315Y-68744654D01*
X166104345Y-68620684D01*
X165955124Y-68528643D01*
X165955119Y-68528641D01*
X165788697Y-68473494D01*
X165788690Y-68473493D01*
X165685986Y-68463000D01*
X164786000Y-68463000D01*
X164786000Y-69375500D01*
X164286000Y-69375500D01*
X164286000Y-68463000D01*
X163386028Y-68463000D01*
X163386012Y-68463001D01*
X163283302Y-68473494D01*
X163116880Y-68528641D01*
X163116875Y-68528643D01*
X162967654Y-68620684D01*
X162843684Y-68744654D01*
X162751643Y-68893875D01*
X162751641Y-68893880D01*
X162696494Y-69060302D01*
X162696493Y-69060309D01*
X162686000Y-69163013D01*
X158981150Y-69163013D01*
X158981150Y-69046000D01*
X159481150Y-69046000D01*
X160461400Y-69046000D01*
X160461400Y-68968772D01*
X160461399Y-68968755D01*
X160454998Y-68909227D01*
X160454997Y-68909223D01*
X160404752Y-68774511D01*
X160404751Y-68774510D01*
X160375407Y-68735312D01*
X160350989Y-68669848D01*
X160365840Y-68601575D01*
X160375407Y-68586688D01*
X160404751Y-68547489D01*
X160404752Y-68547488D01*
X160454997Y-68412776D01*
X160454998Y-68412772D01*
X160461399Y-68353244D01*
X160461400Y-68353227D01*
X160461400Y-68276000D01*
X159481150Y-68276000D01*
X159481150Y-69046000D01*
X158981150Y-69046000D01*
X158981150Y-68150000D01*
X159000835Y-68082961D01*
X159053639Y-68037206D01*
X159105150Y-68026000D01*
X159231150Y-68026000D01*
X159231150Y-67900000D01*
X159250835Y-67832961D01*
X159303639Y-67787206D01*
X159355150Y-67776000D01*
X160461400Y-67776000D01*
X160461400Y-67698772D01*
X160461399Y-67698755D01*
X160454998Y-67639227D01*
X160453213Y-67631670D01*
X160454509Y-67631363D01*
X160450102Y-67569777D01*
X160483584Y-67508452D01*
X160544906Y-67474965D01*
X160569709Y-67472141D01*
X162596490Y-67446806D01*
X162663769Y-67465651D01*
X162710181Y-67517879D01*
X162715745Y-67531792D01*
X162751641Y-67640119D01*
X162751643Y-67640124D01*
X162843684Y-67789345D01*
X162967654Y-67913315D01*
X163116875Y-68005356D01*
X163116880Y-68005358D01*
X163283302Y-68060505D01*
X163283309Y-68060506D01*
X163386019Y-68070999D01*
X164285999Y-68070999D01*
X164786000Y-68070999D01*
X165685972Y-68070999D01*
X165685986Y-68070998D01*
X165788697Y-68060505D01*
X165955119Y-68005358D01*
X165955124Y-68005356D01*
X166104345Y-67913315D01*
X166228315Y-67789345D01*
X166320356Y-67640124D01*
X166320358Y-67640119D01*
X166375505Y-67473697D01*
X166375506Y-67473690D01*
X166385999Y-67370986D01*
X166386000Y-67370973D01*
X166386000Y-67158500D01*
X164786000Y-67158500D01*
X164786000Y-68070999D01*
X164285999Y-68070999D01*
X164286000Y-68070998D01*
X164286000Y-67032500D01*
X164305685Y-66965461D01*
X164358489Y-66919706D01*
X164410000Y-66908500D01*
X164536000Y-66908500D01*
X164536000Y-66782500D01*
X164555685Y-66715461D01*
X164608489Y-66669706D01*
X164660000Y-66658500D01*
X166385999Y-66658500D01*
X166385999Y-66446028D01*
X166385998Y-66446013D01*
X166375505Y-66343302D01*
X166320358Y-66176880D01*
X166320356Y-66176875D01*
X166228315Y-66027654D01*
X166104345Y-65903684D01*
X165955124Y-65811643D01*
X165955119Y-65811641D01*
X165788697Y-65756494D01*
X165788690Y-65756493D01*
X165685986Y-65746000D01*
X165027000Y-65746000D01*
X164959961Y-65726315D01*
X164914206Y-65673511D01*
X164903000Y-65622000D01*
X164903000Y-65070499D01*
X164922685Y-65003460D01*
X164975489Y-64957705D01*
X165026998Y-64946499D01*
X165686008Y-64946499D01*
X165788797Y-64935999D01*
X165955334Y-64880814D01*
X166104656Y-64788712D01*
X166228712Y-64664656D01*
X166320814Y-64515334D01*
X166375999Y-64348797D01*
X166386500Y-64246009D01*
X166386500Y-64076000D01*
X167864093Y-64076000D01*
X167883697Y-64362618D01*
X167883698Y-64362619D01*
X167942145Y-64643885D01*
X167942150Y-64643902D01*
X168038355Y-64914595D01*
X168170527Y-65169677D01*
X168170531Y-65169683D01*
X168315867Y-65375576D01*
X168315868Y-65375577D01*
X169160497Y-64530947D01*
X169250505Y-64665653D01*
X169379347Y-64794495D01*
X169514051Y-64884501D01*
X168671198Y-65727353D01*
X168755144Y-65795647D01*
X168755146Y-65795648D01*
X169000607Y-65944917D01*
X169264108Y-66059371D01*
X169540737Y-66136879D01*
X169540744Y-66136880D01*
X169825355Y-66176000D01*
X170112645Y-66176000D01*
X170397255Y-66136880D01*
X170397271Y-66136877D01*
X170466866Y-66117377D01*
X170536730Y-66118243D01*
X170595035Y-66156744D01*
X170623269Y-66220655D01*
X170617364Y-66277731D01*
X170593685Y-66345401D01*
X170593684Y-66345405D01*
X170533688Y-66608268D01*
X170533686Y-66608280D01*
X170503500Y-66876186D01*
X170503500Y-67145813D01*
X170533686Y-67413719D01*
X170533688Y-67413731D01*
X170593684Y-67676593D01*
X170617364Y-67744267D01*
X170620925Y-67814046D01*
X170586196Y-67874673D01*
X170524202Y-67906900D01*
X170466867Y-67904623D01*
X170397262Y-67885120D01*
X170397255Y-67885119D01*
X170112645Y-67846000D01*
X169825355Y-67846000D01*
X169540744Y-67885119D01*
X169540737Y-67885120D01*
X169264108Y-67962628D01*
X169000610Y-68077081D01*
X168755140Y-68226355D01*
X168755137Y-68226357D01*
X168671199Y-68294645D01*
X169514051Y-69137497D01*
X169379347Y-69227505D01*
X169250505Y-69356347D01*
X169160498Y-69491051D01*
X168315868Y-68646421D01*
X168315867Y-68646421D01*
X168170531Y-68852316D01*
X168170527Y-68852322D01*
X168038355Y-69107404D01*
X167942150Y-69378097D01*
X167942145Y-69378114D01*
X167883698Y-69659380D01*
X167883697Y-69659381D01*
X167864093Y-69946000D01*
X167883697Y-70232618D01*
X167883698Y-70232619D01*
X167942145Y-70513885D01*
X167942150Y-70513902D01*
X168038355Y-70784595D01*
X168170527Y-71039677D01*
X168170531Y-71039683D01*
X168315867Y-71245576D01*
X168315868Y-71245577D01*
X169160497Y-70400947D01*
X169250505Y-70535653D01*
X169379347Y-70664495D01*
X169514051Y-70754501D01*
X168671198Y-71597353D01*
X168755144Y-71665647D01*
X168755146Y-71665648D01*
X169000607Y-71814917D01*
X169264108Y-71929371D01*
X169540737Y-72006879D01*
X169540744Y-72006880D01*
X169825355Y-72046000D01*
X170112645Y-72046000D01*
X170397255Y-72006880D01*
X170397262Y-72006879D01*
X170673891Y-71929371D01*
X170937392Y-71814917D01*
X171182854Y-71665648D01*
X171266800Y-71597353D01*
X170423948Y-70754502D01*
X170558653Y-70664495D01*
X170687495Y-70535653D01*
X170777502Y-70400948D01*
X171622130Y-71245576D01*
X171622131Y-71245576D01*
X171767472Y-71039676D01*
X171899644Y-70784595D01*
X171995849Y-70513902D01*
X171995854Y-70513885D01*
X172054301Y-70232619D01*
X172054302Y-70232618D01*
X172073906Y-69946000D01*
X172054302Y-69659382D01*
X172008719Y-69440027D01*
X172014352Y-69370385D01*
X172056742Y-69314843D01*
X172122431Y-69291037D01*
X172171080Y-69297757D01*
X172238397Y-69321312D01*
X172238405Y-69321315D01*
X172238408Y-69321315D01*
X172238409Y-69321316D01*
X172501268Y-69381312D01*
X172769187Y-69411499D01*
X172769188Y-69411500D01*
X172769191Y-69411500D01*
X173038812Y-69411500D01*
X173038812Y-69411499D01*
X173306732Y-69381312D01*
X173569591Y-69321316D01*
X173636919Y-69297756D01*
X173706697Y-69294194D01*
X173767325Y-69328923D01*
X173799552Y-69390916D01*
X173799280Y-69440026D01*
X173753698Y-69659379D01*
X173753697Y-69659381D01*
X173734093Y-69946000D01*
X173753697Y-70232618D01*
X173753698Y-70232619D01*
X173812145Y-70513885D01*
X173812150Y-70513902D01*
X173908355Y-70784595D01*
X174040527Y-71039677D01*
X174040531Y-71039683D01*
X174185867Y-71245576D01*
X174185868Y-71245577D01*
X175030497Y-70400947D01*
X175120505Y-70535653D01*
X175249347Y-70664495D01*
X175384051Y-70754501D01*
X174541198Y-71597353D01*
X174625144Y-71665647D01*
X174625146Y-71665648D01*
X174870607Y-71814917D01*
X175134108Y-71929371D01*
X175410737Y-72006879D01*
X175410744Y-72006880D01*
X175695355Y-72046000D01*
X175982645Y-72046000D01*
X176267255Y-72006880D01*
X176267262Y-72006879D01*
X176543891Y-71929371D01*
X176807392Y-71814917D01*
X177052854Y-71665648D01*
X177136800Y-71597353D01*
X176293948Y-70754502D01*
X176428653Y-70664495D01*
X176557495Y-70535653D01*
X176647502Y-70400948D01*
X177492130Y-71245576D01*
X177492131Y-71245576D01*
X177637472Y-71039676D01*
X177769644Y-70784595D01*
X177865849Y-70513902D01*
X177865854Y-70513885D01*
X177924301Y-70232619D01*
X177924302Y-70232618D01*
X177943906Y-69946000D01*
X177924302Y-69659381D01*
X177924301Y-69659380D01*
X177865854Y-69378114D01*
X177865849Y-69378097D01*
X177769644Y-69107404D01*
X177637472Y-68852323D01*
X177492130Y-68646422D01*
X176647501Y-69491051D01*
X176557495Y-69356347D01*
X176428653Y-69227505D01*
X176293947Y-69137497D01*
X177136800Y-68294645D01*
X177052862Y-68226357D01*
X177052853Y-68226351D01*
X176807392Y-68077082D01*
X176543891Y-67962628D01*
X176267262Y-67885120D01*
X176267255Y-67885119D01*
X175982645Y-67846000D01*
X175695355Y-67846000D01*
X175410744Y-67885119D01*
X175410733Y-67885121D01*
X175341131Y-67904623D01*
X175271267Y-67903755D01*
X175212963Y-67865254D01*
X175184729Y-67801342D01*
X175190636Y-67744266D01*
X175214312Y-67676602D01*
X175214315Y-67676594D01*
X175222639Y-67640124D01*
X175274312Y-67413732D01*
X175304500Y-67145809D01*
X175304500Y-66876191D01*
X175274312Y-66608268D01*
X175214316Y-66345409D01*
X175190634Y-66277732D01*
X175187074Y-66207954D01*
X175221803Y-66147326D01*
X175283796Y-66115099D01*
X175341133Y-66117377D01*
X175410728Y-66136877D01*
X175410744Y-66136880D01*
X175695355Y-66176000D01*
X175982645Y-66176000D01*
X176267255Y-66136880D01*
X176267262Y-66136879D01*
X176543891Y-66059371D01*
X176807392Y-65944917D01*
X177052854Y-65795648D01*
X177136800Y-65727353D01*
X176293948Y-64884501D01*
X176428653Y-64794495D01*
X176557495Y-64665653D01*
X176647502Y-64530948D01*
X177492130Y-65375576D01*
X177492131Y-65375576D01*
X177637472Y-65169676D01*
X177769644Y-64914595D01*
X177865849Y-64643902D01*
X177865854Y-64643885D01*
X177924301Y-64362619D01*
X177924302Y-64362618D01*
X177943906Y-64076000D01*
X177924302Y-63789381D01*
X177924301Y-63789380D01*
X177865854Y-63508114D01*
X177865849Y-63508097D01*
X177769644Y-63237404D01*
X177637472Y-62982323D01*
X177492130Y-62776422D01*
X176647501Y-63621051D01*
X176557495Y-63486347D01*
X176428653Y-63357505D01*
X176293948Y-63267497D01*
X177136800Y-62424645D01*
X177052862Y-62356357D01*
X177052853Y-62356351D01*
X176807392Y-62207082D01*
X176543891Y-62092628D01*
X176267262Y-62015120D01*
X176267255Y-62015119D01*
X175982645Y-61976000D01*
X175695355Y-61976000D01*
X175410744Y-62015119D01*
X175410737Y-62015120D01*
X175134108Y-62092628D01*
X174870610Y-62207081D01*
X174625140Y-62356355D01*
X174625137Y-62356357D01*
X174541199Y-62424645D01*
X175384051Y-63267497D01*
X175249347Y-63357505D01*
X175120505Y-63486347D01*
X175030498Y-63621051D01*
X174185868Y-62776421D01*
X174185867Y-62776421D01*
X174040531Y-62982316D01*
X174040527Y-62982322D01*
X173908355Y-63237404D01*
X173812150Y-63508097D01*
X173812145Y-63508114D01*
X173753698Y-63789380D01*
X173753697Y-63789381D01*
X173734093Y-64076000D01*
X173753697Y-64362618D01*
X173753698Y-64362620D01*
X173799280Y-64581973D01*
X173793647Y-64651615D01*
X173751257Y-64707156D01*
X173685568Y-64730962D01*
X173636920Y-64724243D01*
X173569592Y-64700684D01*
X173569594Y-64700684D01*
X173320813Y-64643902D01*
X173306732Y-64640688D01*
X173306728Y-64640687D01*
X173306719Y-64640686D01*
X173038813Y-64610500D01*
X173038809Y-64610500D01*
X172769191Y-64610500D01*
X172769186Y-64610500D01*
X172501280Y-64640686D01*
X172501268Y-64640688D01*
X172238406Y-64700684D01*
X172171079Y-64724243D01*
X172101300Y-64727804D01*
X172040673Y-64693075D01*
X172008446Y-64631081D01*
X172008719Y-64581972D01*
X172054302Y-64362617D01*
X172073906Y-64076000D01*
X172054302Y-63789381D01*
X172054301Y-63789380D01*
X171995854Y-63508114D01*
X171995849Y-63508097D01*
X171899644Y-63237404D01*
X171767472Y-62982323D01*
X171622130Y-62776422D01*
X170777501Y-63621051D01*
X170687495Y-63486347D01*
X170558653Y-63357505D01*
X170423948Y-63267497D01*
X171266800Y-62424645D01*
X171182862Y-62356357D01*
X171182853Y-62356351D01*
X170937392Y-62207082D01*
X170673891Y-62092628D01*
X170397262Y-62015120D01*
X170397255Y-62015119D01*
X170112645Y-61976000D01*
X169825355Y-61976000D01*
X169540744Y-62015119D01*
X169540737Y-62015120D01*
X169264108Y-62092628D01*
X169000610Y-62207081D01*
X168755140Y-62356355D01*
X168755137Y-62356357D01*
X168671199Y-62424645D01*
X169514051Y-63267497D01*
X169379347Y-63357505D01*
X169250505Y-63486347D01*
X169160498Y-63621051D01*
X168315868Y-62776421D01*
X168315867Y-62776421D01*
X168170531Y-62982316D01*
X168170527Y-62982322D01*
X168038355Y-63237404D01*
X167942150Y-63508097D01*
X167942145Y-63508114D01*
X167883698Y-63789380D01*
X167883697Y-63789381D01*
X167864093Y-64076000D01*
X166386500Y-64076000D01*
X166386499Y-63320992D01*
X166375999Y-63218203D01*
X166320814Y-63051666D01*
X166228712Y-62902344D01*
X166104656Y-62778288D01*
X165955334Y-62686186D01*
X165826960Y-62643647D01*
X165799728Y-62634623D01*
X165742283Y-62594850D01*
X165715460Y-62530334D01*
X165726831Y-62463495D01*
X166139672Y-61598804D01*
X166186319Y-61546789D01*
X166250348Y-61528238D01*
X178258990Y-61410043D01*
X178326219Y-61429067D01*
G37*
%TD.AperFunction*%
%TD*%
%TA.AperFunction,Conductor*%
%TO.N,/TSV_Power/+15V*%
G36*
X143640539Y-62430685D02*
G01*
X143686294Y-62483489D01*
X143697500Y-62535000D01*
X143697500Y-64083001D01*
X143697501Y-64083018D01*
X143708000Y-64185796D01*
X143708001Y-64185799D01*
X143758206Y-64337305D01*
X143764500Y-64376309D01*
X143764500Y-64573902D01*
X143744815Y-64640941D01*
X143728183Y-64661581D01*
X143686648Y-64703116D01*
X143686644Y-64703122D01*
X143576282Y-64868289D01*
X143576277Y-64868298D01*
X143500256Y-65051831D01*
X143500254Y-65051839D01*
X143461500Y-65246666D01*
X143461500Y-65445333D01*
X143500254Y-65640160D01*
X143500256Y-65640168D01*
X143576277Y-65823701D01*
X143576282Y-65823710D01*
X143686646Y-65988880D01*
X143686649Y-65988884D01*
X143827115Y-66129350D01*
X143827119Y-66129353D01*
X143992289Y-66239717D01*
X143992295Y-66239720D01*
X143992296Y-66239721D01*
X144175832Y-66315744D01*
X144370666Y-66354499D01*
X144370669Y-66354500D01*
X144527000Y-66354500D01*
X144594039Y-66374185D01*
X144639794Y-66426989D01*
X144651000Y-66478500D01*
X144651000Y-66506000D01*
X145527000Y-66506000D01*
X145594039Y-66525685D01*
X145639794Y-66578489D01*
X145651000Y-66630000D01*
X145651000Y-66756000D01*
X145777000Y-66756000D01*
X145844039Y-66775685D01*
X145889794Y-66828489D01*
X145901000Y-66880000D01*
X145901000Y-67980999D01*
X145950972Y-67980999D01*
X145950986Y-67980998D01*
X146053697Y-67970505D01*
X146220119Y-67915358D01*
X146220124Y-67915356D01*
X146369345Y-67823315D01*
X146493318Y-67699342D01*
X146495165Y-67696348D01*
X146496969Y-67694724D01*
X146497798Y-67693677D01*
X146497976Y-67693818D01*
X146547110Y-67649621D01*
X146616073Y-67638396D01*
X146680156Y-67666236D01*
X146706243Y-67696341D01*
X146708288Y-67699656D01*
X146708289Y-67699657D01*
X146708291Y-67699660D01*
X146708763Y-67700257D01*
X146708959Y-67700743D01*
X146712080Y-67705803D01*
X146711215Y-67706336D01*
X146734906Y-67765051D01*
X146735500Y-67777171D01*
X146735500Y-68081138D01*
X146715815Y-68148177D01*
X146699181Y-68168819D01*
X146361000Y-68506999D01*
X146361000Y-69268938D01*
X146341315Y-69335977D01*
X146288511Y-69381732D01*
X146219353Y-69391676D01*
X146155797Y-69362651D01*
X146120818Y-69312271D01*
X146089354Y-69227913D01*
X146089350Y-69227906D01*
X146003190Y-69112812D01*
X146003187Y-69112809D01*
X145888093Y-69026649D01*
X145888086Y-69026645D01*
X145753379Y-68976403D01*
X145753372Y-68976401D01*
X145693844Y-68970000D01*
X145581000Y-68970000D01*
X145581000Y-69601000D01*
X145561315Y-69668039D01*
X145508511Y-69713794D01*
X145457000Y-69725000D01*
X145331000Y-69725000D01*
X145331000Y-69765500D01*
X145311315Y-69832539D01*
X145258511Y-69878294D01*
X145207001Y-69889500D01*
X144968130Y-69889500D01*
X144968123Y-69889501D01*
X144908516Y-69895908D01*
X144773670Y-69946202D01*
X144768242Y-69950267D01*
X144702778Y-69974684D01*
X144693931Y-69975000D01*
X144516000Y-69975000D01*
X144516000Y-70027844D01*
X144522401Y-70087372D01*
X144522403Y-70087382D01*
X144542384Y-70140953D01*
X144547368Y-70210644D01*
X144542384Y-70227617D01*
X144521910Y-70282511D01*
X144521909Y-70282515D01*
X144521909Y-70282517D01*
X144515500Y-70342127D01*
X144515500Y-70342134D01*
X144515500Y-70342135D01*
X144515500Y-70947870D01*
X144515501Y-70947876D01*
X144521908Y-71007483D01*
X144572202Y-71142328D01*
X144572206Y-71142335D01*
X144658452Y-71257544D01*
X144658455Y-71257547D01*
X144773664Y-71343793D01*
X144773671Y-71343797D01*
X144818618Y-71360561D01*
X144908517Y-71394091D01*
X144968127Y-71400500D01*
X145693872Y-71400499D01*
X145695929Y-71400277D01*
X145696562Y-71400210D01*
X145709815Y-71399500D01*
X145963138Y-71399500D01*
X146030177Y-71419185D01*
X146075932Y-71471989D01*
X146085876Y-71541147D01*
X146056851Y-71604703D01*
X146050819Y-71611181D01*
X145889319Y-71772681D01*
X145827996Y-71806166D01*
X145801638Y-71809000D01*
X141586362Y-71809000D01*
X141519323Y-71789315D01*
X141498681Y-71772681D01*
X141063319Y-71337319D01*
X141029834Y-71275996D01*
X141027000Y-71249638D01*
X141027000Y-71161497D01*
X141046685Y-71094458D01*
X141099489Y-71048703D01*
X141168647Y-71038759D01*
X141216098Y-71055959D01*
X141281511Y-71096307D01*
X141281518Y-71096310D01*
X141442393Y-71149618D01*
X141541683Y-71159762D01*
X142065000Y-71159762D01*
X142088308Y-71159762D01*
X142088322Y-71159761D01*
X142187607Y-71149618D01*
X142348481Y-71096310D01*
X142348492Y-71096305D01*
X142492728Y-71007338D01*
X142492732Y-71007335D01*
X142612572Y-70887495D01*
X142612575Y-70887491D01*
X142701542Y-70743255D01*
X142701547Y-70743244D01*
X142754855Y-70582369D01*
X142764999Y-70483085D01*
X142765000Y-70483072D01*
X142765000Y-70434763D01*
X142065000Y-70434763D01*
X142065000Y-71159762D01*
X141541683Y-71159762D01*
X141565000Y-71159761D01*
X141565000Y-69934763D01*
X142065000Y-69934763D01*
X142764999Y-69934763D01*
X142764999Y-69886455D01*
X142764998Y-69886440D01*
X142754855Y-69787155D01*
X142701547Y-69626281D01*
X142701542Y-69626270D01*
X142612575Y-69482034D01*
X142612572Y-69482030D01*
X142552697Y-69422155D01*
X144516000Y-69422155D01*
X144516000Y-69475000D01*
X145081000Y-69475000D01*
X145081000Y-68970000D01*
X144968155Y-68970000D01*
X144908627Y-68976401D01*
X144908620Y-68976403D01*
X144773913Y-69026645D01*
X144773906Y-69026649D01*
X144658812Y-69112809D01*
X144658809Y-69112812D01*
X144572649Y-69227906D01*
X144572645Y-69227913D01*
X144522403Y-69362620D01*
X144522401Y-69362627D01*
X144516000Y-69422155D01*
X142552697Y-69422155D01*
X142492732Y-69362190D01*
X142492728Y-69362187D01*
X142348492Y-69273220D01*
X142348481Y-69273215D01*
X142187606Y-69219907D01*
X142088322Y-69209763D01*
X142065000Y-69209763D01*
X142065000Y-69934763D01*
X141565000Y-69934763D01*
X141565000Y-69209762D01*
X141562182Y-69206945D01*
X141528695Y-69145623D01*
X141533678Y-69075931D01*
X141575548Y-69019997D01*
X141641012Y-68995578D01*
X141649861Y-68995262D01*
X141764871Y-68995262D01*
X141764872Y-68995262D01*
X141824483Y-68988854D01*
X141875851Y-68969695D01*
X141931823Y-68948819D01*
X141975156Y-68941001D01*
X142098796Y-68941001D01*
X142098796Y-68861187D01*
X142118481Y-68794148D01*
X142123529Y-68786876D01*
X142166111Y-68729994D01*
X142168255Y-68731599D01*
X142207832Y-68692016D01*
X142276103Y-68677158D01*
X142341570Y-68701569D01*
X142383446Y-68757499D01*
X142391268Y-68800843D01*
X142391268Y-68941001D01*
X142670894Y-68941001D01*
X142670910Y-68941000D01*
X142730438Y-68934599D01*
X142730445Y-68934597D01*
X142865152Y-68884355D01*
X142865159Y-68884351D01*
X142980253Y-68798191D01*
X142980256Y-68798188D01*
X143066416Y-68683094D01*
X143066420Y-68683087D01*
X143116662Y-68548380D01*
X143116664Y-68548373D01*
X143123065Y-68488845D01*
X143123066Y-68488828D01*
X143123066Y-68441000D01*
X142962501Y-68441000D01*
X142895462Y-68421315D01*
X142849707Y-68368511D01*
X142839763Y-68299353D01*
X142868788Y-68235797D01*
X142888190Y-68217733D01*
X142947597Y-68173261D01*
X143013061Y-68148844D01*
X143021908Y-68148528D01*
X143123066Y-68148528D01*
X143123066Y-68100699D01*
X143123065Y-68100682D01*
X143116664Y-68041154D01*
X143116664Y-68041152D01*
X143106466Y-68013810D01*
X143101482Y-67944119D01*
X143106463Y-67927153D01*
X143117157Y-67898483D01*
X143123566Y-67838873D01*
X143123565Y-67450654D01*
X143117157Y-67391043D01*
X143106465Y-67362378D01*
X143101482Y-67292688D01*
X143104918Y-67280986D01*
X144651001Y-67280986D01*
X144661494Y-67383697D01*
X144716641Y-67550119D01*
X144716643Y-67550124D01*
X144808684Y-67699345D01*
X144932654Y-67823315D01*
X145081875Y-67915356D01*
X145081880Y-67915358D01*
X145248302Y-67970505D01*
X145248309Y-67970506D01*
X145351019Y-67980999D01*
X145400999Y-67980998D01*
X145401000Y-67980998D01*
X145401000Y-67006000D01*
X144651001Y-67006000D01*
X144651001Y-67280986D01*
X143104918Y-67280986D01*
X143106467Y-67275709D01*
X143116664Y-67248369D01*
X143123065Y-67188843D01*
X143123066Y-67188826D01*
X143123066Y-67140998D01*
X143021908Y-67140998D01*
X142954869Y-67121313D01*
X142947597Y-67116265D01*
X142888190Y-67071793D01*
X142846319Y-67015859D01*
X142841335Y-66946167D01*
X142874820Y-66884844D01*
X142936144Y-66851360D01*
X142962501Y-66848526D01*
X143123066Y-66848526D01*
X143123066Y-66800697D01*
X143123065Y-66800680D01*
X143116664Y-66741152D01*
X143116662Y-66741145D01*
X143066420Y-66606438D01*
X143066416Y-66606431D01*
X142980256Y-66491337D01*
X142980253Y-66491334D01*
X142865159Y-66405174D01*
X142865152Y-66405170D01*
X142730445Y-66354928D01*
X142730438Y-66354926D01*
X142670910Y-66348525D01*
X142391268Y-66348525D01*
X142391268Y-66488682D01*
X142371583Y-66555721D01*
X142318779Y-66601476D01*
X142249621Y-66611420D01*
X142186065Y-66582395D01*
X142167064Y-66558817D01*
X142166111Y-66559531D01*
X142123529Y-66502648D01*
X142099112Y-66437184D01*
X142098796Y-66428338D01*
X142098796Y-66348525D01*
X141975156Y-66348525D01*
X141931823Y-66340707D01*
X141824482Y-66300671D01*
X141824483Y-66300671D01*
X141764883Y-66294264D01*
X141764881Y-66294263D01*
X141764873Y-66294263D01*
X141764865Y-66294263D01*
X141151000Y-66294263D01*
X141083961Y-66274578D01*
X141038206Y-66221774D01*
X141027000Y-66170263D01*
X141027000Y-65479122D01*
X141033363Y-65439910D01*
X141114248Y-65197254D01*
X141154120Y-65139884D01*
X141192871Y-65118768D01*
X141280697Y-65089666D01*
X141425044Y-65000631D01*
X141434319Y-64991356D01*
X141495642Y-64957871D01*
X141565334Y-64962855D01*
X141609681Y-64991356D01*
X141618955Y-65000630D01*
X141618959Y-65000633D01*
X141763294Y-65089661D01*
X141763297Y-65089662D01*
X141763303Y-65089666D01*
X141924292Y-65143012D01*
X142023655Y-65153163D01*
X142570344Y-65153162D01*
X142570352Y-65153161D01*
X142570355Y-65153161D01*
X142624760Y-65147603D01*
X142669708Y-65143012D01*
X142830697Y-65089666D01*
X142975044Y-65000631D01*
X143094968Y-64880707D01*
X143184003Y-64736360D01*
X143237349Y-64575371D01*
X143247500Y-64476008D01*
X143247499Y-63879319D01*
X143237349Y-63779955D01*
X143230775Y-63760116D01*
X143184794Y-63621350D01*
X143178500Y-63582347D01*
X143178500Y-62668164D01*
X143179097Y-62656010D01*
X143189341Y-62551999D01*
X143189341Y-62551994D01*
X143188864Y-62547150D01*
X143201885Y-62478505D01*
X143249951Y-62427796D01*
X143312267Y-62411000D01*
X143573500Y-62411000D01*
X143640539Y-62430685D01*
G37*
%TD.AperFunction*%
%TA.AperFunction,Conductor*%
G36*
X146591039Y-62430685D02*
G01*
X146636794Y-62483489D01*
X146648000Y-62535000D01*
X146648000Y-62683000D01*
X148797999Y-62683000D01*
X148797999Y-62535000D01*
X148817684Y-62467961D01*
X148870488Y-62422206D01*
X148921999Y-62411000D01*
X150077467Y-62411000D01*
X150144506Y-62430685D01*
X150190261Y-62483489D01*
X150196693Y-62500928D01*
X150205967Y-62533384D01*
X150211529Y-62552853D01*
X150211017Y-62622721D01*
X150172814Y-62681221D01*
X150109047Y-62709780D01*
X150081079Y-62710407D01*
X150032574Y-62706000D01*
X150026000Y-62706000D01*
X150026000Y-64655999D01*
X150032581Y-64655999D01*
X150103102Y-64649591D01*
X150103107Y-64649590D01*
X150265396Y-64599018D01*
X150410877Y-64511072D01*
X150459818Y-64462131D01*
X150521141Y-64428645D01*
X150590832Y-64433629D01*
X150646766Y-64475500D01*
X150671184Y-64540964D01*
X150671500Y-64549811D01*
X150671500Y-65613770D01*
X150651815Y-65680809D01*
X150599011Y-65726564D01*
X150529853Y-65736508D01*
X150466297Y-65707483D01*
X150459819Y-65701451D01*
X150446657Y-65688289D01*
X150446656Y-65688288D01*
X150353888Y-65631069D01*
X150297336Y-65596187D01*
X150297331Y-65596185D01*
X150280498Y-65590607D01*
X150130797Y-65541001D01*
X150130795Y-65541000D01*
X150028010Y-65530500D01*
X149427998Y-65530500D01*
X149427980Y-65530501D01*
X149325203Y-65541000D01*
X149325200Y-65541001D01*
X149158668Y-65596185D01*
X149158663Y-65596187D01*
X149009342Y-65688289D01*
X148885289Y-65812342D01*
X148804948Y-65942597D01*
X148753000Y-65989321D01*
X148699409Y-66001500D01*
X148579591Y-66001500D01*
X148512552Y-65981815D01*
X148474052Y-65942597D01*
X148424576Y-65862383D01*
X148393712Y-65812344D01*
X148269656Y-65688288D01*
X148176888Y-65631069D01*
X148120336Y-65596187D01*
X148120331Y-65596185D01*
X148103498Y-65590607D01*
X147953797Y-65541001D01*
X147953795Y-65541000D01*
X147851010Y-65530500D01*
X147250998Y-65530500D01*
X147250980Y-65530501D01*
X147148203Y-65541000D01*
X147148200Y-65541001D01*
X146981668Y-65596185D01*
X146981663Y-65596187D01*
X146832342Y-65688289D01*
X146708288Y-65812343D01*
X146708283Y-65812349D01*
X146706241Y-65815661D01*
X146704247Y-65817453D01*
X146703807Y-65818011D01*
X146703711Y-65817935D01*
X146654291Y-65862383D01*
X146585328Y-65873602D01*
X146521247Y-65845755D01*
X146495168Y-65815656D01*
X146493319Y-65812659D01*
X146493316Y-65812655D01*
X146369345Y-65688684D01*
X146220124Y-65596643D01*
X146220119Y-65596641D01*
X146053697Y-65541494D01*
X146053690Y-65541493D01*
X145950986Y-65531000D01*
X145848035Y-65531000D01*
X145780996Y-65511315D01*
X145735241Y-65458511D01*
X145725297Y-65389353D01*
X145733474Y-65359548D01*
X145733718Y-65358958D01*
X145742744Y-65337168D01*
X145781500Y-65142328D01*
X145781500Y-64943671D01*
X145781500Y-64376309D01*
X145787794Y-64337305D01*
X145811166Y-64266772D01*
X145837999Y-64185797D01*
X145848500Y-64083009D01*
X145848500Y-64082971D01*
X146648000Y-64082971D01*
X146648001Y-64082987D01*
X146658494Y-64185697D01*
X146713641Y-64352119D01*
X146713643Y-64352124D01*
X146805684Y-64501345D01*
X146929654Y-64625315D01*
X147078875Y-64717356D01*
X147078880Y-64717358D01*
X147245302Y-64772505D01*
X147245309Y-64772506D01*
X147348019Y-64782999D01*
X147472999Y-64782999D01*
X147473000Y-64782998D01*
X147473000Y-63183000D01*
X147973000Y-63183000D01*
X147973000Y-64782999D01*
X148097972Y-64782999D01*
X148097986Y-64782998D01*
X148200697Y-64772505D01*
X148367119Y-64717358D01*
X148367124Y-64717356D01*
X148516345Y-64625315D01*
X148640315Y-64501345D01*
X148732356Y-64352124D01*
X148732357Y-64352120D01*
X148741603Y-64324218D01*
X148781374Y-64266772D01*
X148845889Y-64239947D01*
X148914665Y-64252261D01*
X148965427Y-64299069D01*
X149020927Y-64390877D01*
X149141122Y-64511072D01*
X149286604Y-64599019D01*
X149286603Y-64599019D01*
X149448894Y-64649590D01*
X149448893Y-64649590D01*
X149519408Y-64655998D01*
X149519426Y-64655999D01*
X149525999Y-64655998D01*
X149526000Y-64655998D01*
X149526000Y-62706000D01*
X149525999Y-62705999D01*
X149519436Y-62706000D01*
X149519417Y-62706001D01*
X149448897Y-62712408D01*
X149448892Y-62712409D01*
X149286603Y-62762981D01*
X149141122Y-62850927D01*
X149020927Y-62971122D01*
X148929102Y-63123019D01*
X148926240Y-63121289D01*
X148890510Y-63162964D01*
X148823574Y-63182998D01*
X148822926Y-63183000D01*
X147973000Y-63183000D01*
X147473000Y-63183000D01*
X146648000Y-63183000D01*
X146648000Y-64082971D01*
X145848500Y-64082971D01*
X145848499Y-62534998D01*
X145868184Y-62467961D01*
X145920987Y-62422206D01*
X145972499Y-62411000D01*
X146524000Y-62411000D01*
X146591039Y-62430685D01*
G37*
%TD.AperFunction*%
%TD*%
%TA.AperFunction,Conductor*%
%TO.N,+12VH*%
G36*
X138502583Y-62176656D02*
G01*
X138523409Y-62193409D01*
X139720681Y-63390681D01*
X139754166Y-63452004D01*
X139757000Y-63478362D01*
X139757000Y-66227046D01*
X139737315Y-66294085D01*
X139684511Y-66339840D01*
X139646259Y-66350335D01*
X139603559Y-66354926D01*
X139603554Y-66354928D01*
X139468847Y-66405170D01*
X139468840Y-66405174D01*
X139353746Y-66491334D01*
X139353743Y-66491337D01*
X139267583Y-66606431D01*
X139267579Y-66606438D01*
X139217337Y-66741145D01*
X139217335Y-66741151D01*
X139213210Y-66779520D01*
X139186471Y-66844071D01*
X139129078Y-66883918D01*
X139089921Y-66890263D01*
X138957719Y-66890263D01*
X138890680Y-66870578D01*
X138870037Y-66853943D01*
X138830388Y-66814294D01*
X138830388Y-66814293D01*
X138684806Y-66726285D01*
X138675612Y-66723420D01*
X138522396Y-66675677D01*
X138522394Y-66675676D01*
X138522392Y-66675676D01*
X138472978Y-66671186D01*
X138451816Y-66669263D01*
X137938584Y-66669263D01*
X137919345Y-66671011D01*
X137868007Y-66675676D01*
X137705593Y-66726285D01*
X137614850Y-66781142D01*
X137547295Y-66798978D01*
X137480821Y-66777460D01*
X137436534Y-66723420D01*
X137426700Y-66675025D01*
X137426700Y-65476458D01*
X137438930Y-65427637D01*
X137437244Y-65426939D01*
X137506022Y-65260891D01*
X137506024Y-65260887D01*
X137534467Y-65117898D01*
X137566852Y-65055988D01*
X137627568Y-65021413D01*
X137697337Y-65025153D01*
X137720235Y-65035974D01*
X137819001Y-65095681D01*
X137819003Y-65095682D01*
X137981294Y-65146253D01*
X137981293Y-65146253D01*
X138051808Y-65152661D01*
X138051826Y-65152662D01*
X138558400Y-65152662D01*
X138564981Y-65152662D01*
X138635502Y-65146254D01*
X138635507Y-65146253D01*
X138797796Y-65095681D01*
X138943277Y-65007735D01*
X139063472Y-64887540D01*
X139151419Y-64742058D01*
X139201990Y-64579769D01*
X139208400Y-64509235D01*
X139208400Y-64427663D01*
X138558400Y-64427663D01*
X138558400Y-65152662D01*
X138051826Y-65152662D01*
X138058399Y-65152661D01*
X138058400Y-65152661D01*
X138058400Y-63927663D01*
X138558400Y-63927663D01*
X139208399Y-63927663D01*
X139208399Y-63846080D01*
X139201991Y-63775560D01*
X139201990Y-63775555D01*
X139151418Y-63613266D01*
X139063472Y-63467785D01*
X138943277Y-63347590D01*
X138797795Y-63259643D01*
X138797796Y-63259643D01*
X138635505Y-63209072D01*
X138635506Y-63209072D01*
X138564972Y-63202663D01*
X138558400Y-63202663D01*
X138558400Y-63927663D01*
X138058400Y-63927663D01*
X138058400Y-63202663D01*
X138058399Y-63202662D01*
X138051836Y-63202663D01*
X138051817Y-63202664D01*
X137981297Y-63209071D01*
X137981292Y-63209072D01*
X137819003Y-63259644D01*
X137673522Y-63347590D01*
X137673521Y-63347591D01*
X137571435Y-63449678D01*
X137510112Y-63483163D01*
X137440420Y-63478179D01*
X137396073Y-63449678D01*
X137293588Y-63347193D01*
X137148006Y-63259185D01*
X136985596Y-63208577D01*
X136985594Y-63208576D01*
X136985592Y-63208576D01*
X136936178Y-63204086D01*
X136915016Y-63202163D01*
X136401784Y-63202163D01*
X136382545Y-63203911D01*
X136331207Y-63208576D01*
X136168793Y-63259185D01*
X136023211Y-63347193D01*
X135902930Y-63467474D01*
X135814922Y-63613056D01*
X135764313Y-63775470D01*
X135760424Y-63818273D01*
X135757900Y-63846047D01*
X135757900Y-64509279D01*
X135764314Y-64579859D01*
X135771285Y-64602231D01*
X135776900Y-64639119D01*
X135776900Y-64644268D01*
X135764673Y-64693092D01*
X135766356Y-64693789D01*
X135697576Y-64859838D01*
X135697574Y-64859844D01*
X135663700Y-65030140D01*
X135663700Y-67183304D01*
X135658086Y-67220192D01*
X135651114Y-67242566D01*
X135644700Y-67313149D01*
X135644700Y-67976376D01*
X135651113Y-68046955D01*
X135651113Y-68046957D01*
X135651114Y-68046959D01*
X135679104Y-68136784D01*
X135701722Y-68209369D01*
X135789730Y-68354951D01*
X135910011Y-68475232D01*
X135910013Y-68475233D01*
X135910015Y-68475235D01*
X136055594Y-68563241D01*
X136218004Y-68613849D01*
X136288584Y-68620263D01*
X136288587Y-68620263D01*
X136539112Y-68620263D01*
X136606151Y-68639948D01*
X136651906Y-68692752D01*
X136661850Y-68761910D01*
X136632825Y-68825466D01*
X136626793Y-68831944D01*
X136480056Y-68978681D01*
X136418733Y-69012166D01*
X136392375Y-69015000D01*
X134930999Y-69015000D01*
X134423000Y-69522999D01*
X134423000Y-70565776D01*
X134403315Y-70632815D01*
X134395576Y-70643552D01*
X133585226Y-71649776D01*
X133527846Y-71689642D01*
X133488650Y-71696000D01*
X129653856Y-71696000D01*
X129586817Y-71676315D01*
X129559898Y-71652919D01*
X129296370Y-71346926D01*
X129267537Y-71283283D01*
X129277690Y-71214155D01*
X129323604Y-71161489D01*
X129390703Y-71142008D01*
X129454474Y-71159888D01*
X129551394Y-71218479D01*
X129713804Y-71269087D01*
X129784384Y-71275501D01*
X129784387Y-71275501D01*
X130297613Y-71275501D01*
X130297616Y-71275501D01*
X130368196Y-71269087D01*
X130530606Y-71218479D01*
X130676185Y-71130473D01*
X130676195Y-71130462D01*
X130676684Y-71130080D01*
X130677124Y-71129904D01*
X130682604Y-71126592D01*
X130683154Y-71127502D01*
X130741593Y-71104223D01*
X130810177Y-71117562D01*
X130811624Y-71118323D01*
X130816458Y-71120907D01*
X130816462Y-71120910D01*
X130990273Y-71213814D01*
X131178868Y-71271024D01*
X131375000Y-71290341D01*
X131571132Y-71271024D01*
X131759727Y-71213814D01*
X131933538Y-71120910D01*
X132085883Y-70995883D01*
X132210910Y-70843538D01*
X132303814Y-70669727D01*
X132361024Y-70481132D01*
X132380341Y-70285000D01*
X132361024Y-70088868D01*
X132303814Y-69900273D01*
X132303811Y-69900269D01*
X132303811Y-69900266D01*
X132210913Y-69726467D01*
X132210909Y-69726460D01*
X132085883Y-69574116D01*
X131933539Y-69449090D01*
X131933532Y-69449086D01*
X131759733Y-69356188D01*
X131759727Y-69356186D01*
X131571132Y-69298976D01*
X131571129Y-69298975D01*
X131375000Y-69279659D01*
X131178870Y-69298975D01*
X130990266Y-69356188D01*
X130816465Y-69449087D01*
X130810392Y-69454071D01*
X130746081Y-69481380D01*
X130677214Y-69469585D01*
X130667601Y-69464340D01*
X130530606Y-69381523D01*
X130530604Y-69381522D01*
X130530602Y-69381521D01*
X130530603Y-69381521D01*
X130376578Y-69333526D01*
X130318430Y-69294789D01*
X130290456Y-69230764D01*
X130289468Y-69215141D01*
X130289468Y-69053239D01*
X130309153Y-68986200D01*
X130361957Y-68940445D01*
X130413468Y-68929239D01*
X130466764Y-68929239D01*
X130466764Y-68849425D01*
X130486449Y-68782386D01*
X130491497Y-68775114D01*
X130534079Y-68718232D01*
X130536223Y-68719837D01*
X130575800Y-68680254D01*
X130644071Y-68665396D01*
X130709538Y-68689807D01*
X130751414Y-68745737D01*
X130759236Y-68789081D01*
X130759236Y-68929239D01*
X131038862Y-68929239D01*
X131038878Y-68929238D01*
X131098406Y-68922837D01*
X131098413Y-68922835D01*
X131233120Y-68872593D01*
X131233127Y-68872589D01*
X131348221Y-68786429D01*
X131348224Y-68786426D01*
X131434384Y-68671332D01*
X131434388Y-68671325D01*
X131484630Y-68536618D01*
X131484632Y-68536611D01*
X131491033Y-68477083D01*
X131491034Y-68477066D01*
X131491034Y-68429238D01*
X131330469Y-68429238D01*
X131263430Y-68409553D01*
X131217675Y-68356749D01*
X131207731Y-68287591D01*
X131236756Y-68224035D01*
X131256158Y-68205971D01*
X131315565Y-68161499D01*
X131381029Y-68137082D01*
X131389876Y-68136766D01*
X131491034Y-68136766D01*
X131491034Y-68088937D01*
X131491033Y-68088920D01*
X131484632Y-68029392D01*
X131484632Y-68029390D01*
X131474434Y-68002048D01*
X131469450Y-67932357D01*
X131474431Y-67915391D01*
X131485125Y-67886721D01*
X131491534Y-67827111D01*
X131491533Y-67438892D01*
X131485125Y-67379281D01*
X131474433Y-67350616D01*
X131469450Y-67280926D01*
X131474435Y-67263947D01*
X131484632Y-67236607D01*
X131491033Y-67177081D01*
X131491034Y-67177064D01*
X131491034Y-67129236D01*
X131389876Y-67129236D01*
X131322837Y-67109551D01*
X131315565Y-67104503D01*
X131256158Y-67060031D01*
X131214287Y-67004097D01*
X131209303Y-66934405D01*
X131242788Y-66873082D01*
X131304112Y-66839598D01*
X131330469Y-66836764D01*
X131491034Y-66836764D01*
X131491034Y-66788935D01*
X131491033Y-66788918D01*
X131484632Y-66729390D01*
X131484630Y-66729383D01*
X131434388Y-66594676D01*
X131434384Y-66594669D01*
X131348224Y-66479575D01*
X131348221Y-66479572D01*
X131233127Y-66393412D01*
X131233120Y-66393408D01*
X131098413Y-66343166D01*
X131098406Y-66343164D01*
X131038878Y-66336763D01*
X130912040Y-66336763D01*
X130845001Y-66317078D01*
X130799246Y-66264274D01*
X130789302Y-66195116D01*
X130806502Y-66147665D01*
X130877544Y-66032489D01*
X130877547Y-66032482D01*
X130930855Y-65871607D01*
X130940999Y-65772323D01*
X130941000Y-65772310D01*
X130941000Y-65724001D01*
X130115000Y-65724001D01*
X130047961Y-65704316D01*
X130002206Y-65651512D01*
X129991000Y-65600001D01*
X129991000Y-65474001D01*
X129865000Y-65474001D01*
X129797961Y-65454316D01*
X129752206Y-65401512D01*
X129741000Y-65350001D01*
X129741000Y-65224001D01*
X130241000Y-65224001D01*
X130940999Y-65224001D01*
X130940999Y-65175693D01*
X130940998Y-65175678D01*
X130930855Y-65076393D01*
X130877547Y-64915519D01*
X130877542Y-64915508D01*
X130788575Y-64771272D01*
X130788572Y-64771268D01*
X130668732Y-64651428D01*
X130668728Y-64651425D01*
X130524492Y-64562458D01*
X130524481Y-64562453D01*
X130363606Y-64509145D01*
X130264322Y-64499001D01*
X130241000Y-64499001D01*
X130241000Y-65224001D01*
X129741000Y-65224001D01*
X129741000Y-64499000D01*
X129717693Y-64499001D01*
X129717674Y-64499002D01*
X129618392Y-64509145D01*
X129484480Y-64553519D01*
X129414651Y-64555921D01*
X129354609Y-64520189D01*
X129323417Y-64457668D01*
X129326499Y-64405238D01*
X129325836Y-64405107D01*
X129326789Y-64400315D01*
X129326818Y-64399808D01*
X129327024Y-64399132D01*
X129346341Y-64203000D01*
X129327024Y-64006868D01*
X129269814Y-63818273D01*
X129269811Y-63818269D01*
X129269811Y-63818266D01*
X129176913Y-63644467D01*
X129176909Y-63644460D01*
X129051883Y-63492116D01*
X128997111Y-63447166D01*
X128957777Y-63389420D01*
X128955906Y-63319576D01*
X128984507Y-63267373D01*
X129955247Y-62211959D01*
X130015117Y-62175945D01*
X130046291Y-62171905D01*
X138435512Y-62157090D01*
X138502583Y-62176656D01*
G37*
%TD.AperFunction*%
%TD*%
%TA.AperFunction,Conductor*%
%TO.N,/THROTTLE_OUT*%
G36*
X118688746Y-61047685D02*
G01*
X118725673Y-61084420D01*
X119755378Y-62668582D01*
X120319967Y-63537180D01*
X120339998Y-63604117D01*
X120340000Y-63604759D01*
X120340000Y-69663999D01*
X120339999Y-69663999D01*
X120340000Y-69664000D01*
X121737000Y-71315000D01*
X126265094Y-71440780D01*
X126331560Y-71462318D01*
X126342348Y-71470584D01*
X132488698Y-76738884D01*
X132526788Y-76797459D01*
X132532000Y-76833032D01*
X132532000Y-79794728D01*
X132518909Y-79850181D01*
X132096612Y-80694777D01*
X132092636Y-80702728D01*
X132045049Y-80753886D01*
X131977357Y-80771196D01*
X131911053Y-80749161D01*
X131867187Y-80694777D01*
X131859687Y-80625311D01*
X131863342Y-80610383D01*
X131910341Y-80459556D01*
X131916751Y-80389022D01*
X131916751Y-80382450D01*
X130683995Y-80382450D01*
X130643476Y-80374390D01*
X130643248Y-80375143D01*
X130637418Y-80373374D01*
X130467124Y-80339500D01*
X130467122Y-80339500D01*
X130467121Y-80339500D01*
X129767791Y-80339500D01*
X129700752Y-80319815D01*
X129654997Y-80267011D01*
X129645053Y-80197853D01*
X129651609Y-80172168D01*
X129657346Y-80156783D01*
X129657349Y-80156772D01*
X129663750Y-80097244D01*
X129663751Y-80097227D01*
X129663751Y-79875877D01*
X129966751Y-79875877D01*
X129966751Y-79882450D01*
X130691751Y-79882450D01*
X131191751Y-79882450D01*
X131916750Y-79882450D01*
X131916750Y-79875867D01*
X131910342Y-79805347D01*
X131910341Y-79805342D01*
X131859769Y-79643053D01*
X131771823Y-79497572D01*
X131651628Y-79377377D01*
X131506146Y-79289430D01*
X131506147Y-79289430D01*
X131343856Y-79238859D01*
X131343857Y-79238859D01*
X131273323Y-79232450D01*
X131191751Y-79232450D01*
X131191751Y-79882450D01*
X130691751Y-79882450D01*
X130691751Y-79232450D01*
X130691750Y-79232449D01*
X130610168Y-79232450D01*
X130539648Y-79238858D01*
X130539643Y-79238859D01*
X130377354Y-79289431D01*
X130231873Y-79377377D01*
X130111678Y-79497572D01*
X130023731Y-79643054D01*
X129973160Y-79805343D01*
X129966751Y-79875877D01*
X129663751Y-79875877D01*
X129663751Y-79810450D01*
X129033751Y-79810450D01*
X128966712Y-79790765D01*
X128920957Y-79737961D01*
X128909751Y-79686450D01*
X128909751Y-79560450D01*
X128838249Y-79560450D01*
X128771210Y-79540765D01*
X128725455Y-79487961D01*
X128714249Y-79436450D01*
X128714249Y-79310450D01*
X129159751Y-79310450D01*
X129663751Y-79310450D01*
X129663751Y-79023672D01*
X129663750Y-79023655D01*
X129657349Y-78964127D01*
X129657347Y-78964120D01*
X129607105Y-78829413D01*
X129607101Y-78829406D01*
X129520941Y-78714312D01*
X129520938Y-78714309D01*
X129405844Y-78628149D01*
X129405837Y-78628145D01*
X129271130Y-78577903D01*
X129271123Y-78577901D01*
X129211595Y-78571500D01*
X129159751Y-78571500D01*
X129159751Y-79310450D01*
X128714249Y-79310450D01*
X128714249Y-79023629D01*
X128714248Y-79023623D01*
X128707841Y-78964016D01*
X128667569Y-78856041D01*
X128659751Y-78812708D01*
X128659751Y-78571500D01*
X128607923Y-78571500D01*
X128607898Y-78571501D01*
X128605238Y-78571787D01*
X128604626Y-78571676D01*
X128604598Y-78571678D01*
X128604597Y-78571671D01*
X128536480Y-78559372D01*
X128485349Y-78511755D01*
X128468000Y-78448496D01*
X128468000Y-77792000D01*
X123261000Y-73728000D01*
X110222001Y-73854592D01*
X110154773Y-73835559D01*
X110146397Y-73829798D01*
X110010666Y-73728000D01*
X108705600Y-72749200D01*
X108663779Y-72693229D01*
X108656000Y-72650000D01*
X108656000Y-63441000D01*
X109317093Y-63441000D01*
X109336697Y-63727618D01*
X109336698Y-63727619D01*
X109395145Y-64008885D01*
X109395150Y-64008902D01*
X109491355Y-64279595D01*
X109623527Y-64534677D01*
X109623531Y-64534683D01*
X109768867Y-64740576D01*
X109768868Y-64740577D01*
X110613497Y-63895947D01*
X110703505Y-64030653D01*
X110832347Y-64159495D01*
X110967051Y-64249501D01*
X110124198Y-65092353D01*
X110208144Y-65160647D01*
X110208146Y-65160648D01*
X110453607Y-65309917D01*
X110717108Y-65424371D01*
X110993737Y-65501879D01*
X110993744Y-65501880D01*
X111278355Y-65541000D01*
X111565645Y-65541000D01*
X111850255Y-65501880D01*
X111850271Y-65501877D01*
X111919866Y-65482377D01*
X111989730Y-65483243D01*
X112048035Y-65521744D01*
X112076269Y-65585655D01*
X112070364Y-65642731D01*
X112046685Y-65710401D01*
X112046684Y-65710405D01*
X111986688Y-65973268D01*
X111986686Y-65973280D01*
X111956500Y-66241186D01*
X111956500Y-66510813D01*
X111986686Y-66778719D01*
X111986687Y-66778728D01*
X111986688Y-66778732D01*
X112006669Y-66866273D01*
X112046684Y-67041593D01*
X112070364Y-67109267D01*
X112073925Y-67179046D01*
X112039196Y-67239673D01*
X111977202Y-67271900D01*
X111919867Y-67269623D01*
X111850262Y-67250120D01*
X111850255Y-67250119D01*
X111565645Y-67211000D01*
X111278355Y-67211000D01*
X110993744Y-67250119D01*
X110993737Y-67250120D01*
X110717108Y-67327628D01*
X110453610Y-67442081D01*
X110208140Y-67591355D01*
X110208137Y-67591357D01*
X110124199Y-67659645D01*
X110967051Y-68502497D01*
X110832347Y-68592505D01*
X110703505Y-68721347D01*
X110613498Y-68856051D01*
X109768868Y-68011421D01*
X109768867Y-68011421D01*
X109623531Y-68217316D01*
X109623527Y-68217322D01*
X109491355Y-68472404D01*
X109395150Y-68743097D01*
X109395145Y-68743114D01*
X109336698Y-69024380D01*
X109336697Y-69024381D01*
X109317093Y-69311000D01*
X109336697Y-69597618D01*
X109336698Y-69597619D01*
X109395145Y-69878885D01*
X109395150Y-69878902D01*
X109491355Y-70149595D01*
X109623527Y-70404677D01*
X109623531Y-70404683D01*
X109768867Y-70610576D01*
X109768868Y-70610577D01*
X110613497Y-69765947D01*
X110703505Y-69900653D01*
X110832347Y-70029495D01*
X110967051Y-70119501D01*
X110124198Y-70962353D01*
X110208144Y-71030647D01*
X110208146Y-71030648D01*
X110453607Y-71179917D01*
X110717108Y-71294371D01*
X110993737Y-71371879D01*
X110993744Y-71371880D01*
X111278355Y-71411000D01*
X111565645Y-71411000D01*
X111850255Y-71371880D01*
X111850262Y-71371879D01*
X112126891Y-71294371D01*
X112390392Y-71179917D01*
X112635854Y-71030648D01*
X112719800Y-70962353D01*
X111876948Y-70119502D01*
X112011653Y-70029495D01*
X112140495Y-69900653D01*
X112230502Y-69765948D01*
X113075130Y-70610576D01*
X113075131Y-70610576D01*
X113220472Y-70404676D01*
X113352644Y-70149595D01*
X113448849Y-69878902D01*
X113448854Y-69878885D01*
X113507301Y-69597619D01*
X113507302Y-69597618D01*
X113526906Y-69311000D01*
X113507302Y-69024382D01*
X113461719Y-68805027D01*
X113467352Y-68735385D01*
X113509742Y-68679843D01*
X113575431Y-68656037D01*
X113624080Y-68662757D01*
X113691397Y-68686312D01*
X113691405Y-68686315D01*
X113691408Y-68686315D01*
X113691409Y-68686316D01*
X113954268Y-68746312D01*
X114222187Y-68776499D01*
X114222188Y-68776500D01*
X114222191Y-68776500D01*
X114491812Y-68776500D01*
X114491812Y-68776499D01*
X114759732Y-68746312D01*
X115022591Y-68686316D01*
X115089919Y-68662756D01*
X115159697Y-68659194D01*
X115220325Y-68693923D01*
X115252552Y-68755916D01*
X115252280Y-68805026D01*
X115206698Y-69024379D01*
X115206697Y-69024381D01*
X115187093Y-69311000D01*
X115206697Y-69597618D01*
X115206698Y-69597619D01*
X115265145Y-69878885D01*
X115265150Y-69878902D01*
X115361355Y-70149595D01*
X115493527Y-70404677D01*
X115493531Y-70404683D01*
X115638867Y-70610576D01*
X115638868Y-70610577D01*
X116483497Y-69765947D01*
X116573505Y-69900653D01*
X116702347Y-70029495D01*
X116837051Y-70119501D01*
X115994198Y-70962353D01*
X116078144Y-71030647D01*
X116078146Y-71030648D01*
X116323607Y-71179917D01*
X116587108Y-71294371D01*
X116863737Y-71371879D01*
X116863744Y-71371880D01*
X117148355Y-71411000D01*
X117435645Y-71411000D01*
X117720255Y-71371880D01*
X117720262Y-71371879D01*
X117996891Y-71294371D01*
X118260392Y-71179917D01*
X118505854Y-71030648D01*
X118589800Y-70962353D01*
X117746948Y-70119502D01*
X117881653Y-70029495D01*
X118010495Y-69900653D01*
X118100502Y-69765948D01*
X118945130Y-70610576D01*
X118945131Y-70610576D01*
X119090472Y-70404676D01*
X119222644Y-70149595D01*
X119318849Y-69878902D01*
X119318854Y-69878885D01*
X119377301Y-69597619D01*
X119377302Y-69597618D01*
X119396906Y-69311000D01*
X119377302Y-69024381D01*
X119377301Y-69024380D01*
X119318854Y-68743114D01*
X119318849Y-68743097D01*
X119222644Y-68472404D01*
X119090472Y-68217323D01*
X118945130Y-68011422D01*
X118100501Y-68856051D01*
X118010495Y-68721347D01*
X117881653Y-68592505D01*
X117746947Y-68502497D01*
X118589800Y-67659645D01*
X118505862Y-67591357D01*
X118505853Y-67591351D01*
X118260392Y-67442082D01*
X117996891Y-67327628D01*
X117720262Y-67250120D01*
X117720255Y-67250119D01*
X117435645Y-67211000D01*
X117148355Y-67211000D01*
X116863744Y-67250119D01*
X116863733Y-67250121D01*
X116794131Y-67269623D01*
X116724267Y-67268755D01*
X116665963Y-67230254D01*
X116637729Y-67166342D01*
X116643636Y-67109266D01*
X116667312Y-67041602D01*
X116667315Y-67041594D01*
X116667316Y-67041591D01*
X116727312Y-66778732D01*
X116757500Y-66510809D01*
X116757500Y-66241191D01*
X116727312Y-65973268D01*
X116667316Y-65710409D01*
X116643634Y-65642732D01*
X116640074Y-65572954D01*
X116674803Y-65512326D01*
X116736796Y-65480099D01*
X116794133Y-65482377D01*
X116863728Y-65501877D01*
X116863744Y-65501880D01*
X117148355Y-65541000D01*
X117435645Y-65541000D01*
X117720255Y-65501880D01*
X117720262Y-65501879D01*
X117996891Y-65424371D01*
X118260392Y-65309917D01*
X118505854Y-65160648D01*
X118589800Y-65092353D01*
X117746948Y-64249501D01*
X117881653Y-64159495D01*
X118010495Y-64030653D01*
X118100502Y-63895948D01*
X118945130Y-64740576D01*
X118945131Y-64740576D01*
X119090472Y-64534676D01*
X119222644Y-64279595D01*
X119318849Y-64008902D01*
X119318854Y-64008885D01*
X119377301Y-63727619D01*
X119377302Y-63727618D01*
X119396906Y-63441000D01*
X119377302Y-63154381D01*
X119377301Y-63154380D01*
X119318854Y-62873114D01*
X119318849Y-62873097D01*
X119222644Y-62602404D01*
X119090472Y-62347323D01*
X118945130Y-62141422D01*
X118100501Y-62986051D01*
X118010495Y-62851347D01*
X117881653Y-62722505D01*
X117746948Y-62632497D01*
X118589800Y-61789645D01*
X118505862Y-61721357D01*
X118505853Y-61721351D01*
X118260392Y-61572082D01*
X117996891Y-61457628D01*
X117720262Y-61380120D01*
X117720255Y-61380119D01*
X117435645Y-61341000D01*
X117148355Y-61341000D01*
X116863744Y-61380119D01*
X116863737Y-61380120D01*
X116587108Y-61457628D01*
X116323610Y-61572081D01*
X116078140Y-61721355D01*
X116078137Y-61721357D01*
X115994199Y-61789645D01*
X116837051Y-62632497D01*
X116702347Y-62722505D01*
X116573505Y-62851347D01*
X116483498Y-62986051D01*
X115638868Y-62141421D01*
X115638867Y-62141421D01*
X115493531Y-62347316D01*
X115493527Y-62347322D01*
X115361355Y-62602404D01*
X115265150Y-62873097D01*
X115265145Y-62873114D01*
X115206698Y-63154380D01*
X115206697Y-63154381D01*
X115187093Y-63441000D01*
X115206697Y-63727618D01*
X115206698Y-63727620D01*
X115252280Y-63946973D01*
X115246647Y-64016615D01*
X115204257Y-64072156D01*
X115138568Y-64095962D01*
X115089920Y-64089243D01*
X115022592Y-64065684D01*
X115022594Y-64065684D01*
X114773813Y-64008902D01*
X114759732Y-64005688D01*
X114759728Y-64005687D01*
X114759719Y-64005686D01*
X114491813Y-63975500D01*
X114491809Y-63975500D01*
X114222191Y-63975500D01*
X114222186Y-63975500D01*
X113954280Y-64005686D01*
X113954268Y-64005688D01*
X113691406Y-64065684D01*
X113624079Y-64089243D01*
X113554300Y-64092804D01*
X113493673Y-64058075D01*
X113461446Y-63996081D01*
X113461719Y-63946972D01*
X113507302Y-63727617D01*
X113526906Y-63441000D01*
X113507302Y-63154381D01*
X113507301Y-63154380D01*
X113448854Y-62873114D01*
X113448849Y-62873097D01*
X113352644Y-62602404D01*
X113220472Y-62347323D01*
X113075130Y-62141422D01*
X112230501Y-62986051D01*
X112140495Y-62851347D01*
X112011653Y-62722505D01*
X111876948Y-62632497D01*
X112719800Y-61789645D01*
X112635862Y-61721357D01*
X112635853Y-61721351D01*
X112390392Y-61572082D01*
X112126891Y-61457628D01*
X111850262Y-61380120D01*
X111850255Y-61380119D01*
X111565645Y-61341000D01*
X111278355Y-61341000D01*
X110993744Y-61380119D01*
X110993737Y-61380120D01*
X110717108Y-61457628D01*
X110453610Y-61572081D01*
X110208140Y-61721355D01*
X110208137Y-61721357D01*
X110124199Y-61789645D01*
X110967051Y-62632497D01*
X110832347Y-62722505D01*
X110703505Y-62851347D01*
X110613498Y-62986051D01*
X109768868Y-62141421D01*
X109768867Y-62141421D01*
X109623531Y-62347316D01*
X109623527Y-62347322D01*
X109491355Y-62602404D01*
X109395150Y-62873097D01*
X109395145Y-62873114D01*
X109336698Y-63154380D01*
X109336697Y-63154381D01*
X109317093Y-63441000D01*
X108656000Y-63441000D01*
X108656000Y-62735621D01*
X108675685Y-62668582D01*
X108698789Y-62641916D01*
X109760973Y-61721357D01*
X110526044Y-61058294D01*
X110589597Y-61029264D01*
X110607255Y-61028000D01*
X118621707Y-61028000D01*
X118688746Y-61047685D01*
G37*
%TD.AperFunction*%
%TD*%
%TA.AperFunction,Conductor*%
%TO.N,GND*%
G36*
X153706681Y-104737361D02*
G01*
X153678740Y-104812276D01*
X153678739Y-104812280D01*
X153672330Y-104871890D01*
X153672330Y-104871897D01*
X153672330Y-104871898D01*
X153672330Y-105260107D01*
X153672331Y-105260113D01*
X153678738Y-105319720D01*
X153715014Y-105416978D01*
X153722832Y-105460311D01*
X153722832Y-105765999D01*
X153921800Y-105765999D01*
X153988839Y-105785684D01*
X154034594Y-105838488D01*
X154045800Y-105889999D01*
X154045800Y-107099338D01*
X154026115Y-107166377D01*
X154009481Y-107187019D01*
X152177119Y-109019381D01*
X152115796Y-109052866D01*
X152089438Y-109055700D01*
X147493162Y-109055700D01*
X147426123Y-109036015D01*
X147405481Y-109019381D01*
X146335119Y-107949019D01*
X146322321Y-107925582D01*
X149387801Y-107925582D01*
X149394208Y-107996102D01*
X149394209Y-107996107D01*
X149444781Y-108158396D01*
X149532727Y-108303877D01*
X149652922Y-108424072D01*
X149798404Y-108512019D01*
X149798403Y-108512019D01*
X149960694Y-108562590D01*
X149960692Y-108562590D01*
X150031218Y-108568999D01*
X150612800Y-108568999D01*
X150694381Y-108568999D01*
X150764902Y-108562591D01*
X150764907Y-108562590D01*
X150927196Y-108512018D01*
X151072677Y-108424072D01*
X151192872Y-108303877D01*
X151280819Y-108158395D01*
X151331390Y-107996106D01*
X151337800Y-107925572D01*
X151337800Y-107919000D01*
X150612800Y-107919000D01*
X150612800Y-108568999D01*
X150031218Y-108568999D01*
X150112799Y-108568998D01*
X150112800Y-108568998D01*
X150112800Y-107919000D01*
X149387801Y-107919000D01*
X149387801Y-107925582D01*
X146322321Y-107925582D01*
X146301634Y-107887696D01*
X146298800Y-107861338D01*
X146298800Y-105860322D01*
X146720801Y-105860322D01*
X146730944Y-105959607D01*
X146784252Y-106120481D01*
X146784257Y-106120492D01*
X146873224Y-106264728D01*
X146873227Y-106264732D01*
X146993067Y-106384572D01*
X146993071Y-106384575D01*
X147137307Y-106473542D01*
X147137318Y-106473547D01*
X147298193Y-106526855D01*
X147397483Y-106536999D01*
X147945800Y-106536999D01*
X147994108Y-106536999D01*
X147994122Y-106536998D01*
X148093407Y-106526855D01*
X148254281Y-106473547D01*
X148254292Y-106473542D01*
X148398528Y-106384575D01*
X148398532Y-106384572D01*
X148518372Y-106264732D01*
X148518375Y-106264728D01*
X148607342Y-106120492D01*
X148607347Y-106120481D01*
X148660655Y-105959606D01*
X148670799Y-105860322D01*
X148670800Y-105860309D01*
X148670800Y-105837000D01*
X147945800Y-105837000D01*
X147945800Y-106536999D01*
X147397483Y-106536999D01*
X147445799Y-106536998D01*
X147445800Y-106536998D01*
X147445800Y-105837000D01*
X146720801Y-105837000D01*
X146720801Y-105860322D01*
X146298800Y-105860322D01*
X146298800Y-105551062D01*
X146318485Y-105484023D01*
X146335119Y-105463381D01*
X146509119Y-105289381D01*
X146570442Y-105255896D01*
X146640134Y-105260880D01*
X146696067Y-105302752D01*
X146701727Y-105317927D01*
X146720800Y-105337000D01*
X148672671Y-105337000D01*
X148729866Y-105305768D01*
X148799558Y-105310752D01*
X148855424Y-105352533D01*
X148938561Y-105463381D01*
X148941000Y-105466633D01*
X148965476Y-105532075D01*
X148965800Y-105541033D01*
X148965800Y-106261700D01*
X149061050Y-106388700D01*
X149346799Y-106769700D01*
X149497788Y-106769700D01*
X149564827Y-106789385D01*
X149610582Y-106842189D01*
X149620526Y-106911347D01*
X149591501Y-106974903D01*
X149585469Y-106981381D01*
X149532728Y-107034121D01*
X149532727Y-107034122D01*
X149444780Y-107179604D01*
X149394209Y-107341893D01*
X149387800Y-107412427D01*
X149387800Y-107419000D01*
X151337799Y-107419000D01*
X151337799Y-107412417D01*
X151331391Y-107341897D01*
X151331390Y-107341892D01*
X151280818Y-107179603D01*
X151192872Y-107034122D01*
X151090784Y-106932034D01*
X151057299Y-106870711D01*
X151062283Y-106801019D01*
X151090783Y-106756673D01*
X151193272Y-106654185D01*
X151281278Y-106508606D01*
X151282315Y-106505277D01*
X151284122Y-106502286D01*
X151284360Y-106501760D01*
X151284423Y-106501788D01*
X151313021Y-106454478D01*
X151378800Y-106388700D01*
X151378800Y-105566913D01*
X151398485Y-105499874D01*
X151451289Y-105454119D01*
X151520447Y-105444175D01*
X151584003Y-105473200D01*
X151602067Y-105492602D01*
X151659579Y-105569427D01*
X151774672Y-105655587D01*
X151774679Y-105655591D01*
X151909386Y-105705833D01*
X151909393Y-105705835D01*
X151968921Y-105712236D01*
X151968938Y-105712237D01*
X152248564Y-105712237D01*
X152248564Y-105294499D01*
X152268249Y-105227460D01*
X152321053Y-105181705D01*
X152372564Y-105170499D01*
X152417036Y-105170499D01*
X152484075Y-105190184D01*
X152529830Y-105242988D01*
X152541036Y-105294499D01*
X152541036Y-105712237D01*
X152666106Y-105712237D01*
X152709439Y-105720055D01*
X152815452Y-105759595D01*
X152815459Y-105759597D01*
X152874987Y-105765998D01*
X152875004Y-105765999D01*
X153222832Y-105765999D01*
X153222832Y-104810310D01*
X153230649Y-104766978D01*
X153266925Y-104669719D01*
X153273270Y-104610700D01*
X153537800Y-104610700D01*
X153706681Y-104737361D01*
G37*
%TD.AperFunction*%
%TD*%
%TA.AperFunction,Conductor*%
%TO.N,GND2*%
G36*
X120624156Y-82001847D02*
G01*
X120750227Y-82080642D01*
X121551720Y-82581575D01*
X121598136Y-82633799D01*
X121610000Y-82686727D01*
X121610000Y-86558000D01*
X121590315Y-86625039D01*
X121537511Y-86670794D01*
X121486000Y-86682000D01*
X120594000Y-86682000D01*
X120464000Y-86682000D01*
X120396961Y-86662315D01*
X120351206Y-86609511D01*
X120340000Y-86558000D01*
X120340000Y-84650000D01*
X120213000Y-84523000D01*
X119375362Y-84523000D01*
X119308323Y-84503315D01*
X119287681Y-84486681D01*
X119070000Y-84269000D01*
X118941798Y-84269000D01*
X118874759Y-84249315D01*
X118829004Y-84196511D01*
X118819060Y-84127353D01*
X118842531Y-84070689D01*
X118925852Y-83959386D01*
X118925853Y-83959384D01*
X118976095Y-83824677D01*
X118976097Y-83824670D01*
X118982498Y-83765142D01*
X118982499Y-83765125D01*
X118982499Y-83268848D01*
X118457001Y-83268848D01*
X118389962Y-83249163D01*
X118344207Y-83196359D01*
X118333001Y-83144849D01*
X118333000Y-82961849D01*
X118352684Y-82894809D01*
X118405488Y-82849054D01*
X118457000Y-82837848D01*
X118982499Y-82837848D01*
X118982499Y-82341570D01*
X118982498Y-82341553D01*
X118976097Y-82282025D01*
X118976095Y-82282018D01*
X118926980Y-82150333D01*
X118921996Y-82080642D01*
X118955481Y-82019319D01*
X119016804Y-81985834D01*
X119043162Y-81983000D01*
X120558437Y-81983000D01*
X120624156Y-82001847D01*
G37*
%TD.AperFunction*%
%TD*%
%TA.AperFunction,Conductor*%
%TO.N,+3.3VL*%
G36*
X152343637Y-100927561D02*
G01*
X152410620Y-100947427D01*
X152430980Y-100963880D01*
X152866481Y-101399381D01*
X152899966Y-101460704D01*
X152902800Y-101487062D01*
X152902800Y-102953195D01*
X152883115Y-103020234D01*
X152830311Y-103065989D01*
X152822134Y-103069377D01*
X152708010Y-103111943D01*
X152664676Y-103119761D01*
X152541036Y-103119761D01*
X152541036Y-103199574D01*
X152521351Y-103266613D01*
X152516303Y-103273884D01*
X152473721Y-103330767D01*
X152471578Y-103329163D01*
X152431987Y-103368752D01*
X152363714Y-103383602D01*
X152298250Y-103359183D01*
X152256381Y-103303248D01*
X152248564Y-103259918D01*
X152248564Y-103119761D01*
X151968921Y-103119761D01*
X151909393Y-103126162D01*
X151909386Y-103126164D01*
X151774679Y-103176406D01*
X151774672Y-103176410D01*
X151659578Y-103262570D01*
X151659575Y-103262573D01*
X151573415Y-103377667D01*
X151573411Y-103377674D01*
X151523169Y-103512381D01*
X151523166Y-103512392D01*
X151522845Y-103515381D01*
X151521950Y-103517540D01*
X151521386Y-103519929D01*
X151520998Y-103519837D01*
X151496102Y-103579930D01*
X151438706Y-103619773D01*
X151368880Y-103622261D01*
X151308795Y-103586603D01*
X151304321Y-103581525D01*
X151158358Y-103406369D01*
X151147506Y-103391142D01*
X151142474Y-103382818D01*
X151142471Y-103382814D01*
X151123993Y-103364336D01*
X151116425Y-103356050D01*
X151040041Y-103264389D01*
X151012247Y-103200288D01*
X151023521Y-103131333D01*
X151047622Y-103097326D01*
X151142071Y-103002878D01*
X151142072Y-103002877D01*
X151230019Y-102857395D01*
X151280590Y-102695106D01*
X151287000Y-102624572D01*
X151287000Y-102618000D01*
X149337001Y-102618000D01*
X149337001Y-102624582D01*
X149343408Y-102695102D01*
X149343409Y-102695107D01*
X149393981Y-102857396D01*
X149481927Y-103002877D01*
X149559094Y-103080044D01*
X149592579Y-103141367D01*
X149587595Y-103211059D01*
X149559094Y-103255406D01*
X149219800Y-103594699D01*
X149219800Y-104432337D01*
X149200115Y-104499376D01*
X149183481Y-104520018D01*
X148932907Y-104770591D01*
X148871584Y-104804076D01*
X148836382Y-104806594D01*
X148773732Y-104802114D01*
X148772801Y-104801988D01*
X148765925Y-104801554D01*
X148692403Y-104806814D01*
X148624130Y-104791963D01*
X148574724Y-104742558D01*
X148559872Y-104674285D01*
X148578018Y-104618032D01*
X148607344Y-104570487D01*
X148607347Y-104570481D01*
X148660655Y-104409606D01*
X148670799Y-104310322D01*
X148670800Y-104310309D01*
X148670800Y-104287000D01*
X146720801Y-104287000D01*
X146720801Y-104310322D01*
X146730944Y-104409607D01*
X146784252Y-104570481D01*
X146787307Y-104577032D01*
X146785220Y-104578004D01*
X146800724Y-104634714D01*
X146779787Y-104701373D01*
X146726136Y-104746130D01*
X146667901Y-104756075D01*
X146606503Y-104751684D01*
X146606500Y-104751684D01*
X146462989Y-104761948D01*
X146328182Y-104812229D01*
X146283240Y-104836769D01*
X146223210Y-104851935D01*
X144639647Y-104844208D01*
X144572704Y-104824196D01*
X144563501Y-104817601D01*
X144187049Y-104520934D01*
X144146579Y-104463979D01*
X144139800Y-104423542D01*
X144139800Y-103763677D01*
X146720800Y-103763677D01*
X146720800Y-103787000D01*
X147445800Y-103787000D01*
X147945800Y-103787000D01*
X148670799Y-103787000D01*
X148670799Y-103763692D01*
X148670798Y-103763677D01*
X148660655Y-103664392D01*
X148607347Y-103503518D01*
X148607342Y-103503507D01*
X148518375Y-103359271D01*
X148518372Y-103359267D01*
X148398532Y-103239427D01*
X148398528Y-103239424D01*
X148254292Y-103150457D01*
X148254281Y-103150452D01*
X148093406Y-103097144D01*
X147994122Y-103087000D01*
X147945800Y-103087000D01*
X147945800Y-103787000D01*
X147445800Y-103787000D01*
X147445800Y-103087000D01*
X147445799Y-103086999D01*
X147397493Y-103087000D01*
X147397475Y-103087001D01*
X147298192Y-103097144D01*
X147137318Y-103150452D01*
X147137307Y-103150457D01*
X146993071Y-103239424D01*
X146993067Y-103239427D01*
X146873227Y-103359267D01*
X146873224Y-103359271D01*
X146784257Y-103503507D01*
X146784252Y-103503518D01*
X146730944Y-103664393D01*
X146720800Y-103763677D01*
X144139800Y-103763677D01*
X144139800Y-102111427D01*
X149337000Y-102111427D01*
X149337000Y-102118000D01*
X150062000Y-102118000D01*
X150562000Y-102118000D01*
X151286999Y-102118000D01*
X151286999Y-102111417D01*
X151280591Y-102040897D01*
X151280590Y-102040892D01*
X151230018Y-101878603D01*
X151142072Y-101733122D01*
X151021877Y-101612927D01*
X150876395Y-101524980D01*
X150876396Y-101524980D01*
X150714105Y-101474409D01*
X150714106Y-101474409D01*
X150643572Y-101468000D01*
X150562000Y-101468000D01*
X150562000Y-102118000D01*
X150062000Y-102118000D01*
X150062000Y-101468000D01*
X150061999Y-101467999D01*
X149980417Y-101468000D01*
X149909897Y-101474408D01*
X149909892Y-101474409D01*
X149747603Y-101524981D01*
X149602122Y-101612927D01*
X149481927Y-101733122D01*
X149393980Y-101878604D01*
X149343409Y-102040893D01*
X149337000Y-102111427D01*
X144139800Y-102111427D01*
X144139800Y-101730873D01*
X144159485Y-101663834D01*
X144164419Y-101656715D01*
X144686683Y-100956996D01*
X144742555Y-100915048D01*
X144786386Y-100907168D01*
X152343637Y-100927561D01*
G37*
%TD.AperFunction*%
%TD*%
M02*
