%TF.GenerationSoftware,KiCad,Pcbnew,8.0.7*%
%TF.CreationDate,2025-03-11T17:28:54-05:00*%
%TF.ProjectId,motorboard,6d6f746f-7262-46f6-9172-642e6b696361,rev?*%
%TF.SameCoordinates,Original*%
%TF.FileFunction,Legend,Top*%
%TF.FilePolarity,Positive*%
%FSLAX46Y46*%
G04 Gerber Fmt 4.6, Leading zero omitted, Abs format (unit mm)*
G04 Created by KiCad (PCBNEW 8.0.7) date 2025-03-11 17:28:54*
%MOMM*%
%LPD*%
G01*
G04 APERTURE LIST*
%ADD10C,0.150000*%
%ADD11C,0.098425*%
%ADD12C,0.101600*%
%ADD13C,0.120000*%
%ADD14C,0.250000*%
%ADD15C,0.152400*%
%ADD16C,0.504000*%
%ADD17C,0.100000*%
%ADD18C,0.127000*%
%ADD19C,0.200000*%
%ADD20C,0.000000*%
G04 APERTURE END LIST*
D10*
X143184398Y-81825057D02*
X144898684Y-81825057D01*
X144041541Y-84825057D02*
X144041541Y-81825057D01*
X145755826Y-84682200D02*
X146184398Y-84825057D01*
X146184398Y-84825057D02*
X146898683Y-84825057D01*
X146898683Y-84825057D02*
X147184398Y-84682200D01*
X147184398Y-84682200D02*
X147327255Y-84539342D01*
X147327255Y-84539342D02*
X147470112Y-84253628D01*
X147470112Y-84253628D02*
X147470112Y-83967914D01*
X147470112Y-83967914D02*
X147327255Y-83682200D01*
X147327255Y-83682200D02*
X147184398Y-83539342D01*
X147184398Y-83539342D02*
X146898683Y-83396485D01*
X146898683Y-83396485D02*
X146327255Y-83253628D01*
X146327255Y-83253628D02*
X146041540Y-83110771D01*
X146041540Y-83110771D02*
X145898683Y-82967914D01*
X145898683Y-82967914D02*
X145755826Y-82682200D01*
X145755826Y-82682200D02*
X145755826Y-82396485D01*
X145755826Y-82396485D02*
X145898683Y-82110771D01*
X145898683Y-82110771D02*
X146041540Y-81967914D01*
X146041540Y-81967914D02*
X146327255Y-81825057D01*
X146327255Y-81825057D02*
X147041540Y-81825057D01*
X147041540Y-81825057D02*
X147470112Y-81967914D01*
X148327255Y-81825057D02*
X149327255Y-84825057D01*
X149327255Y-84825057D02*
X150327255Y-81825057D01*
X126984398Y-102567914D02*
X126698684Y-102425057D01*
X126698684Y-102425057D02*
X126270112Y-102425057D01*
X126270112Y-102425057D02*
X125841541Y-102567914D01*
X125841541Y-102567914D02*
X125555826Y-102853628D01*
X125555826Y-102853628D02*
X125412969Y-103139342D01*
X125412969Y-103139342D02*
X125270112Y-103710771D01*
X125270112Y-103710771D02*
X125270112Y-104139342D01*
X125270112Y-104139342D02*
X125412969Y-104710771D01*
X125412969Y-104710771D02*
X125555826Y-104996485D01*
X125555826Y-104996485D02*
X125841541Y-105282200D01*
X125841541Y-105282200D02*
X126270112Y-105425057D01*
X126270112Y-105425057D02*
X126555826Y-105425057D01*
X126555826Y-105425057D02*
X126984398Y-105282200D01*
X126984398Y-105282200D02*
X127127255Y-105139342D01*
X127127255Y-105139342D02*
X127127255Y-104139342D01*
X127127255Y-104139342D02*
X126555826Y-104139342D01*
X129841541Y-105425057D02*
X128412969Y-105425057D01*
X128412969Y-105425057D02*
X128412969Y-102425057D01*
X130412969Y-102425057D02*
X131412969Y-105425057D01*
X131412969Y-105425057D02*
X132412969Y-102425057D01*
X145633334Y-121604019D02*
X145300001Y-121127828D01*
X145061906Y-121604019D02*
X145061906Y-120604019D01*
X145061906Y-120604019D02*
X145442858Y-120604019D01*
X145442858Y-120604019D02*
X145538096Y-120651638D01*
X145538096Y-120651638D02*
X145585715Y-120699257D01*
X145585715Y-120699257D02*
X145633334Y-120794495D01*
X145633334Y-120794495D02*
X145633334Y-120937352D01*
X145633334Y-120937352D02*
X145585715Y-121032590D01*
X145585715Y-121032590D02*
X145538096Y-121080209D01*
X145538096Y-121080209D02*
X145442858Y-121127828D01*
X145442858Y-121127828D02*
X145061906Y-121127828D01*
X145966668Y-120604019D02*
X146585715Y-120604019D01*
X146585715Y-120604019D02*
X146252382Y-120984971D01*
X146252382Y-120984971D02*
X146395239Y-120984971D01*
X146395239Y-120984971D02*
X146490477Y-121032590D01*
X146490477Y-121032590D02*
X146538096Y-121080209D01*
X146538096Y-121080209D02*
X146585715Y-121175447D01*
X146585715Y-121175447D02*
X146585715Y-121413542D01*
X146585715Y-121413542D02*
X146538096Y-121508780D01*
X146538096Y-121508780D02*
X146490477Y-121556400D01*
X146490477Y-121556400D02*
X146395239Y-121604019D01*
X146395239Y-121604019D02*
X146109525Y-121604019D01*
X146109525Y-121604019D02*
X146014287Y-121556400D01*
X146014287Y-121556400D02*
X145966668Y-121508780D01*
X145633334Y-112174019D02*
X145300001Y-111697828D01*
X145061906Y-112174019D02*
X145061906Y-111174019D01*
X145061906Y-111174019D02*
X145442858Y-111174019D01*
X145442858Y-111174019D02*
X145538096Y-111221638D01*
X145538096Y-111221638D02*
X145585715Y-111269257D01*
X145585715Y-111269257D02*
X145633334Y-111364495D01*
X145633334Y-111364495D02*
X145633334Y-111507352D01*
X145633334Y-111507352D02*
X145585715Y-111602590D01*
X145585715Y-111602590D02*
X145538096Y-111650209D01*
X145538096Y-111650209D02*
X145442858Y-111697828D01*
X145442858Y-111697828D02*
X145061906Y-111697828D01*
X146490477Y-111507352D02*
X146490477Y-112174019D01*
X146252382Y-111126400D02*
X146014287Y-111840685D01*
X146014287Y-111840685D02*
X146633334Y-111840685D01*
X159435819Y-79704857D02*
X158959628Y-80038190D01*
X159435819Y-80276285D02*
X158435819Y-80276285D01*
X158435819Y-80276285D02*
X158435819Y-79895333D01*
X158435819Y-79895333D02*
X158483438Y-79800095D01*
X158483438Y-79800095D02*
X158531057Y-79752476D01*
X158531057Y-79752476D02*
X158626295Y-79704857D01*
X158626295Y-79704857D02*
X158769152Y-79704857D01*
X158769152Y-79704857D02*
X158864390Y-79752476D01*
X158864390Y-79752476D02*
X158912009Y-79800095D01*
X158912009Y-79800095D02*
X158959628Y-79895333D01*
X158959628Y-79895333D02*
X158959628Y-80276285D01*
X158531057Y-79323904D02*
X158483438Y-79276285D01*
X158483438Y-79276285D02*
X158435819Y-79181047D01*
X158435819Y-79181047D02*
X158435819Y-78942952D01*
X158435819Y-78942952D02*
X158483438Y-78847714D01*
X158483438Y-78847714D02*
X158531057Y-78800095D01*
X158531057Y-78800095D02*
X158626295Y-78752476D01*
X158626295Y-78752476D02*
X158721533Y-78752476D01*
X158721533Y-78752476D02*
X158864390Y-78800095D01*
X158864390Y-78800095D02*
X159435819Y-79371523D01*
X159435819Y-79371523D02*
X159435819Y-78752476D01*
X158531057Y-78371523D02*
X158483438Y-78323904D01*
X158483438Y-78323904D02*
X158435819Y-78228666D01*
X158435819Y-78228666D02*
X158435819Y-77990571D01*
X158435819Y-77990571D02*
X158483438Y-77895333D01*
X158483438Y-77895333D02*
X158531057Y-77847714D01*
X158531057Y-77847714D02*
X158626295Y-77800095D01*
X158626295Y-77800095D02*
X158721533Y-77800095D01*
X158721533Y-77800095D02*
X158864390Y-77847714D01*
X158864390Y-77847714D02*
X159435819Y-78419142D01*
X159435819Y-78419142D02*
X159435819Y-77800095D01*
X144661905Y-76454819D02*
X144661905Y-75454819D01*
X144661905Y-75454819D02*
X144900000Y-75454819D01*
X144900000Y-75454819D02*
X145042857Y-75502438D01*
X145042857Y-75502438D02*
X145138095Y-75597676D01*
X145138095Y-75597676D02*
X145185714Y-75692914D01*
X145185714Y-75692914D02*
X145233333Y-75883390D01*
X145233333Y-75883390D02*
X145233333Y-76026247D01*
X145233333Y-76026247D02*
X145185714Y-76216723D01*
X145185714Y-76216723D02*
X145138095Y-76311961D01*
X145138095Y-76311961D02*
X145042857Y-76407200D01*
X145042857Y-76407200D02*
X144900000Y-76454819D01*
X144900000Y-76454819D02*
X144661905Y-76454819D01*
X146185714Y-76454819D02*
X145614286Y-76454819D01*
X145900000Y-76454819D02*
X145900000Y-75454819D01*
X145900000Y-75454819D02*
X145804762Y-75597676D01*
X145804762Y-75597676D02*
X145709524Y-75692914D01*
X145709524Y-75692914D02*
X145614286Y-75740533D01*
X156019095Y-77611819D02*
X156019095Y-76611819D01*
X156590523Y-77611819D02*
X156161952Y-77040390D01*
X156590523Y-76611819D02*
X156019095Y-77183247D01*
X173654819Y-107133333D02*
X174369104Y-107133333D01*
X174369104Y-107133333D02*
X174511961Y-107180952D01*
X174511961Y-107180952D02*
X174607200Y-107276190D01*
X174607200Y-107276190D02*
X174654819Y-107419047D01*
X174654819Y-107419047D02*
X174654819Y-107514285D01*
X173750057Y-106704761D02*
X173702438Y-106657142D01*
X173702438Y-106657142D02*
X173654819Y-106561904D01*
X173654819Y-106561904D02*
X173654819Y-106323809D01*
X173654819Y-106323809D02*
X173702438Y-106228571D01*
X173702438Y-106228571D02*
X173750057Y-106180952D01*
X173750057Y-106180952D02*
X173845295Y-106133333D01*
X173845295Y-106133333D02*
X173940533Y-106133333D01*
X173940533Y-106133333D02*
X174083390Y-106180952D01*
X174083390Y-106180952D02*
X174654819Y-106752380D01*
X174654819Y-106752380D02*
X174654819Y-106133333D01*
X156757142Y-65054819D02*
X156423809Y-64578628D01*
X156185714Y-65054819D02*
X156185714Y-64054819D01*
X156185714Y-64054819D02*
X156566666Y-64054819D01*
X156566666Y-64054819D02*
X156661904Y-64102438D01*
X156661904Y-64102438D02*
X156709523Y-64150057D01*
X156709523Y-64150057D02*
X156757142Y-64245295D01*
X156757142Y-64245295D02*
X156757142Y-64388152D01*
X156757142Y-64388152D02*
X156709523Y-64483390D01*
X156709523Y-64483390D02*
X156661904Y-64531009D01*
X156661904Y-64531009D02*
X156566666Y-64578628D01*
X156566666Y-64578628D02*
X156185714Y-64578628D01*
X157709523Y-65054819D02*
X157138095Y-65054819D01*
X157423809Y-65054819D02*
X157423809Y-64054819D01*
X157423809Y-64054819D02*
X157328571Y-64197676D01*
X157328571Y-64197676D02*
X157233333Y-64292914D01*
X157233333Y-64292914D02*
X157138095Y-64340533D01*
X158661904Y-65054819D02*
X158090476Y-65054819D01*
X158376190Y-65054819D02*
X158376190Y-64054819D01*
X158376190Y-64054819D02*
X158280952Y-64197676D01*
X158280952Y-64197676D02*
X158185714Y-64292914D01*
X158185714Y-64292914D02*
X158090476Y-64340533D01*
X125357142Y-63359580D02*
X125309523Y-63407200D01*
X125309523Y-63407200D02*
X125166666Y-63454819D01*
X125166666Y-63454819D02*
X125071428Y-63454819D01*
X125071428Y-63454819D02*
X124928571Y-63407200D01*
X124928571Y-63407200D02*
X124833333Y-63311961D01*
X124833333Y-63311961D02*
X124785714Y-63216723D01*
X124785714Y-63216723D02*
X124738095Y-63026247D01*
X124738095Y-63026247D02*
X124738095Y-62883390D01*
X124738095Y-62883390D02*
X124785714Y-62692914D01*
X124785714Y-62692914D02*
X124833333Y-62597676D01*
X124833333Y-62597676D02*
X124928571Y-62502438D01*
X124928571Y-62502438D02*
X125071428Y-62454819D01*
X125071428Y-62454819D02*
X125166666Y-62454819D01*
X125166666Y-62454819D02*
X125309523Y-62502438D01*
X125309523Y-62502438D02*
X125357142Y-62550057D01*
X125738095Y-62550057D02*
X125785714Y-62502438D01*
X125785714Y-62502438D02*
X125880952Y-62454819D01*
X125880952Y-62454819D02*
X126119047Y-62454819D01*
X126119047Y-62454819D02*
X126214285Y-62502438D01*
X126214285Y-62502438D02*
X126261904Y-62550057D01*
X126261904Y-62550057D02*
X126309523Y-62645295D01*
X126309523Y-62645295D02*
X126309523Y-62740533D01*
X126309523Y-62740533D02*
X126261904Y-62883390D01*
X126261904Y-62883390D02*
X125690476Y-63454819D01*
X125690476Y-63454819D02*
X126309523Y-63454819D01*
X127214285Y-62454819D02*
X126738095Y-62454819D01*
X126738095Y-62454819D02*
X126690476Y-62931009D01*
X126690476Y-62931009D02*
X126738095Y-62883390D01*
X126738095Y-62883390D02*
X126833333Y-62835771D01*
X126833333Y-62835771D02*
X127071428Y-62835771D01*
X127071428Y-62835771D02*
X127166666Y-62883390D01*
X127166666Y-62883390D02*
X127214285Y-62931009D01*
X127214285Y-62931009D02*
X127261904Y-63026247D01*
X127261904Y-63026247D02*
X127261904Y-63264342D01*
X127261904Y-63264342D02*
X127214285Y-63359580D01*
X127214285Y-63359580D02*
X127166666Y-63407200D01*
X127166666Y-63407200D02*
X127071428Y-63454819D01*
X127071428Y-63454819D02*
X126833333Y-63454819D01*
X126833333Y-63454819D02*
X126738095Y-63407200D01*
X126738095Y-63407200D02*
X126690476Y-63359580D01*
X133047570Y-81124116D02*
X132571379Y-81457449D01*
X133047570Y-81695544D02*
X132047570Y-81695544D01*
X132047570Y-81695544D02*
X132047570Y-81314592D01*
X132047570Y-81314592D02*
X132095189Y-81219354D01*
X132095189Y-81219354D02*
X132142808Y-81171735D01*
X132142808Y-81171735D02*
X132238046Y-81124116D01*
X132238046Y-81124116D02*
X132380903Y-81124116D01*
X132380903Y-81124116D02*
X132476141Y-81171735D01*
X132476141Y-81171735D02*
X132523760Y-81219354D01*
X132523760Y-81219354D02*
X132571379Y-81314592D01*
X132571379Y-81314592D02*
X132571379Y-81695544D01*
X132047570Y-80790782D02*
X132047570Y-80124116D01*
X132047570Y-80124116D02*
X133047570Y-80552687D01*
X125654819Y-83766666D02*
X125178628Y-84099999D01*
X125654819Y-84338094D02*
X124654819Y-84338094D01*
X124654819Y-84338094D02*
X124654819Y-83957142D01*
X124654819Y-83957142D02*
X124702438Y-83861904D01*
X124702438Y-83861904D02*
X124750057Y-83814285D01*
X124750057Y-83814285D02*
X124845295Y-83766666D01*
X124845295Y-83766666D02*
X124988152Y-83766666D01*
X124988152Y-83766666D02*
X125083390Y-83814285D01*
X125083390Y-83814285D02*
X125131009Y-83861904D01*
X125131009Y-83861904D02*
X125178628Y-83957142D01*
X125178628Y-83957142D02*
X125178628Y-84338094D01*
X125083390Y-83195237D02*
X125035771Y-83290475D01*
X125035771Y-83290475D02*
X124988152Y-83338094D01*
X124988152Y-83338094D02*
X124892914Y-83385713D01*
X124892914Y-83385713D02*
X124845295Y-83385713D01*
X124845295Y-83385713D02*
X124750057Y-83338094D01*
X124750057Y-83338094D02*
X124702438Y-83290475D01*
X124702438Y-83290475D02*
X124654819Y-83195237D01*
X124654819Y-83195237D02*
X124654819Y-83004761D01*
X124654819Y-83004761D02*
X124702438Y-82909523D01*
X124702438Y-82909523D02*
X124750057Y-82861904D01*
X124750057Y-82861904D02*
X124845295Y-82814285D01*
X124845295Y-82814285D02*
X124892914Y-82814285D01*
X124892914Y-82814285D02*
X124988152Y-82861904D01*
X124988152Y-82861904D02*
X125035771Y-82909523D01*
X125035771Y-82909523D02*
X125083390Y-83004761D01*
X125083390Y-83004761D02*
X125083390Y-83195237D01*
X125083390Y-83195237D02*
X125131009Y-83290475D01*
X125131009Y-83290475D02*
X125178628Y-83338094D01*
X125178628Y-83338094D02*
X125273866Y-83385713D01*
X125273866Y-83385713D02*
X125464342Y-83385713D01*
X125464342Y-83385713D02*
X125559580Y-83338094D01*
X125559580Y-83338094D02*
X125607200Y-83290475D01*
X125607200Y-83290475D02*
X125654819Y-83195237D01*
X125654819Y-83195237D02*
X125654819Y-83004761D01*
X125654819Y-83004761D02*
X125607200Y-82909523D01*
X125607200Y-82909523D02*
X125559580Y-82861904D01*
X125559580Y-82861904D02*
X125464342Y-82814285D01*
X125464342Y-82814285D02*
X125273866Y-82814285D01*
X125273866Y-82814285D02*
X125178628Y-82861904D01*
X125178628Y-82861904D02*
X125131009Y-82909523D01*
X125131009Y-82909523D02*
X125083390Y-83004761D01*
D11*
X144608014Y-70457279D02*
X144608014Y-70644755D01*
X144608014Y-70644755D02*
X144214313Y-70644755D01*
X144608014Y-70119821D02*
X144608014Y-70344793D01*
X144608014Y-70232307D02*
X144214313Y-70232307D01*
X144214313Y-70232307D02*
X144270556Y-70269802D01*
X144270556Y-70269802D02*
X144308052Y-70307298D01*
X144308052Y-70307298D02*
X144326799Y-70344793D01*
D10*
X140557142Y-72359580D02*
X140509523Y-72407200D01*
X140509523Y-72407200D02*
X140366666Y-72454819D01*
X140366666Y-72454819D02*
X140271428Y-72454819D01*
X140271428Y-72454819D02*
X140128571Y-72407200D01*
X140128571Y-72407200D02*
X140033333Y-72311961D01*
X140033333Y-72311961D02*
X139985714Y-72216723D01*
X139985714Y-72216723D02*
X139938095Y-72026247D01*
X139938095Y-72026247D02*
X139938095Y-71883390D01*
X139938095Y-71883390D02*
X139985714Y-71692914D01*
X139985714Y-71692914D02*
X140033333Y-71597676D01*
X140033333Y-71597676D02*
X140128571Y-71502438D01*
X140128571Y-71502438D02*
X140271428Y-71454819D01*
X140271428Y-71454819D02*
X140366666Y-71454819D01*
X140366666Y-71454819D02*
X140509523Y-71502438D01*
X140509523Y-71502438D02*
X140557142Y-71550057D01*
X140938095Y-71550057D02*
X140985714Y-71502438D01*
X140985714Y-71502438D02*
X141080952Y-71454819D01*
X141080952Y-71454819D02*
X141319047Y-71454819D01*
X141319047Y-71454819D02*
X141414285Y-71502438D01*
X141414285Y-71502438D02*
X141461904Y-71550057D01*
X141461904Y-71550057D02*
X141509523Y-71645295D01*
X141509523Y-71645295D02*
X141509523Y-71740533D01*
X141509523Y-71740533D02*
X141461904Y-71883390D01*
X141461904Y-71883390D02*
X140890476Y-72454819D01*
X140890476Y-72454819D02*
X141509523Y-72454819D01*
X141890476Y-71550057D02*
X141938095Y-71502438D01*
X141938095Y-71502438D02*
X142033333Y-71454819D01*
X142033333Y-71454819D02*
X142271428Y-71454819D01*
X142271428Y-71454819D02*
X142366666Y-71502438D01*
X142366666Y-71502438D02*
X142414285Y-71550057D01*
X142414285Y-71550057D02*
X142461904Y-71645295D01*
X142461904Y-71645295D02*
X142461904Y-71740533D01*
X142461904Y-71740533D02*
X142414285Y-71883390D01*
X142414285Y-71883390D02*
X141842857Y-72454819D01*
X141842857Y-72454819D02*
X142461904Y-72454819D01*
X172443666Y-73772819D02*
X172443666Y-74487104D01*
X172443666Y-74487104D02*
X172396047Y-74629961D01*
X172396047Y-74629961D02*
X172300809Y-74725200D01*
X172300809Y-74725200D02*
X172157952Y-74772819D01*
X172157952Y-74772819D02*
X172062714Y-74772819D01*
X172824619Y-73772819D02*
X173491285Y-73772819D01*
X173491285Y-73772819D02*
X173062714Y-74772819D01*
X153789927Y-126015019D02*
X153789927Y-126824542D01*
X153789927Y-126824542D02*
X153837546Y-126919780D01*
X153837546Y-126919780D02*
X153885165Y-126967400D01*
X153885165Y-126967400D02*
X153980403Y-127015019D01*
X153980403Y-127015019D02*
X154170879Y-127015019D01*
X154170879Y-127015019D02*
X154266117Y-126967400D01*
X154266117Y-126967400D02*
X154313736Y-126919780D01*
X154313736Y-126919780D02*
X154361355Y-126824542D01*
X154361355Y-126824542D02*
X154361355Y-126015019D01*
X154980403Y-126443590D02*
X154885165Y-126395971D01*
X154885165Y-126395971D02*
X154837546Y-126348352D01*
X154837546Y-126348352D02*
X154789927Y-126253114D01*
X154789927Y-126253114D02*
X154789927Y-126205495D01*
X154789927Y-126205495D02*
X154837546Y-126110257D01*
X154837546Y-126110257D02*
X154885165Y-126062638D01*
X154885165Y-126062638D02*
X154980403Y-126015019D01*
X154980403Y-126015019D02*
X155170879Y-126015019D01*
X155170879Y-126015019D02*
X155266117Y-126062638D01*
X155266117Y-126062638D02*
X155313736Y-126110257D01*
X155313736Y-126110257D02*
X155361355Y-126205495D01*
X155361355Y-126205495D02*
X155361355Y-126253114D01*
X155361355Y-126253114D02*
X155313736Y-126348352D01*
X155313736Y-126348352D02*
X155266117Y-126395971D01*
X155266117Y-126395971D02*
X155170879Y-126443590D01*
X155170879Y-126443590D02*
X154980403Y-126443590D01*
X154980403Y-126443590D02*
X154885165Y-126491209D01*
X154885165Y-126491209D02*
X154837546Y-126538828D01*
X154837546Y-126538828D02*
X154789927Y-126634066D01*
X154789927Y-126634066D02*
X154789927Y-126824542D01*
X154789927Y-126824542D02*
X154837546Y-126919780D01*
X154837546Y-126919780D02*
X154885165Y-126967400D01*
X154885165Y-126967400D02*
X154980403Y-127015019D01*
X154980403Y-127015019D02*
X155170879Y-127015019D01*
X155170879Y-127015019D02*
X155266117Y-126967400D01*
X155266117Y-126967400D02*
X155313736Y-126919780D01*
X155313736Y-126919780D02*
X155361355Y-126824542D01*
X155361355Y-126824542D02*
X155361355Y-126634066D01*
X155361355Y-126634066D02*
X155313736Y-126538828D01*
X155313736Y-126538828D02*
X155266117Y-126491209D01*
X155266117Y-126491209D02*
X155170879Y-126443590D01*
X149957142Y-62654819D02*
X149623809Y-62178628D01*
X149385714Y-62654819D02*
X149385714Y-61654819D01*
X149385714Y-61654819D02*
X149766666Y-61654819D01*
X149766666Y-61654819D02*
X149861904Y-61702438D01*
X149861904Y-61702438D02*
X149909523Y-61750057D01*
X149909523Y-61750057D02*
X149957142Y-61845295D01*
X149957142Y-61845295D02*
X149957142Y-61988152D01*
X149957142Y-61988152D02*
X149909523Y-62083390D01*
X149909523Y-62083390D02*
X149861904Y-62131009D01*
X149861904Y-62131009D02*
X149766666Y-62178628D01*
X149766666Y-62178628D02*
X149385714Y-62178628D01*
X150909523Y-62654819D02*
X150338095Y-62654819D01*
X150623809Y-62654819D02*
X150623809Y-61654819D01*
X150623809Y-61654819D02*
X150528571Y-61797676D01*
X150528571Y-61797676D02*
X150433333Y-61892914D01*
X150433333Y-61892914D02*
X150338095Y-61940533D01*
X151528571Y-61654819D02*
X151623809Y-61654819D01*
X151623809Y-61654819D02*
X151719047Y-61702438D01*
X151719047Y-61702438D02*
X151766666Y-61750057D01*
X151766666Y-61750057D02*
X151814285Y-61845295D01*
X151814285Y-61845295D02*
X151861904Y-62035771D01*
X151861904Y-62035771D02*
X151861904Y-62273866D01*
X151861904Y-62273866D02*
X151814285Y-62464342D01*
X151814285Y-62464342D02*
X151766666Y-62559580D01*
X151766666Y-62559580D02*
X151719047Y-62607200D01*
X151719047Y-62607200D02*
X151623809Y-62654819D01*
X151623809Y-62654819D02*
X151528571Y-62654819D01*
X151528571Y-62654819D02*
X151433333Y-62607200D01*
X151433333Y-62607200D02*
X151385714Y-62559580D01*
X151385714Y-62559580D02*
X151338095Y-62464342D01*
X151338095Y-62464342D02*
X151290476Y-62273866D01*
X151290476Y-62273866D02*
X151290476Y-62035771D01*
X151290476Y-62035771D02*
X151338095Y-61845295D01*
X151338095Y-61845295D02*
X151385714Y-61750057D01*
X151385714Y-61750057D02*
X151433333Y-61702438D01*
X151433333Y-61702438D02*
X151528571Y-61654819D01*
X153038095Y-100654819D02*
X153038095Y-101464342D01*
X153038095Y-101464342D02*
X153085714Y-101559580D01*
X153085714Y-101559580D02*
X153133333Y-101607200D01*
X153133333Y-101607200D02*
X153228571Y-101654819D01*
X153228571Y-101654819D02*
X153419047Y-101654819D01*
X153419047Y-101654819D02*
X153514285Y-101607200D01*
X153514285Y-101607200D02*
X153561904Y-101559580D01*
X153561904Y-101559580D02*
X153609523Y-101464342D01*
X153609523Y-101464342D02*
X153609523Y-100654819D01*
X153990476Y-100654819D02*
X154657142Y-100654819D01*
X154657142Y-100654819D02*
X154228571Y-101654819D01*
X149923142Y-124454819D02*
X149589809Y-123978628D01*
X149351714Y-124454819D02*
X149351714Y-123454819D01*
X149351714Y-123454819D02*
X149732666Y-123454819D01*
X149732666Y-123454819D02*
X149827904Y-123502438D01*
X149827904Y-123502438D02*
X149875523Y-123550057D01*
X149875523Y-123550057D02*
X149923142Y-123645295D01*
X149923142Y-123645295D02*
X149923142Y-123788152D01*
X149923142Y-123788152D02*
X149875523Y-123883390D01*
X149875523Y-123883390D02*
X149827904Y-123931009D01*
X149827904Y-123931009D02*
X149732666Y-123978628D01*
X149732666Y-123978628D02*
X149351714Y-123978628D01*
X150875523Y-124454819D02*
X150304095Y-124454819D01*
X150589809Y-124454819D02*
X150589809Y-123454819D01*
X150589809Y-123454819D02*
X150494571Y-123597676D01*
X150494571Y-123597676D02*
X150399333Y-123692914D01*
X150399333Y-123692914D02*
X150304095Y-123740533D01*
X151732666Y-123788152D02*
X151732666Y-124454819D01*
X151494571Y-123407200D02*
X151256476Y-124121485D01*
X151256476Y-124121485D02*
X151875523Y-124121485D01*
X117837180Y-80078095D02*
X117027657Y-80078095D01*
X117027657Y-80078095D02*
X116932419Y-80125714D01*
X116932419Y-80125714D02*
X116884800Y-80173333D01*
X116884800Y-80173333D02*
X116837180Y-80268571D01*
X116837180Y-80268571D02*
X116837180Y-80459047D01*
X116837180Y-80459047D02*
X116884800Y-80554285D01*
X116884800Y-80554285D02*
X116932419Y-80601904D01*
X116932419Y-80601904D02*
X117027657Y-80649523D01*
X117027657Y-80649523D02*
X117837180Y-80649523D01*
X117503847Y-81554285D02*
X116837180Y-81554285D01*
X117884800Y-81316190D02*
X117170514Y-81078095D01*
X117170514Y-81078095D02*
X117170514Y-81697142D01*
X119295819Y-78372649D02*
X119533914Y-78372649D01*
X119438676Y-78610744D02*
X119533914Y-78372649D01*
X119533914Y-78372649D02*
X119438676Y-78134554D01*
X119724390Y-78515506D02*
X119533914Y-78372649D01*
X119533914Y-78372649D02*
X119724390Y-78229792D01*
X120386180Y-78372650D02*
X120148085Y-78372650D01*
X120243323Y-78134555D02*
X120148085Y-78372650D01*
X120148085Y-78372650D02*
X120243323Y-78610745D01*
X119957609Y-78229793D02*
X120148085Y-78372650D01*
X120148085Y-78372650D02*
X119957609Y-78515507D01*
X143275819Y-68717757D02*
X144085342Y-68717757D01*
X144085342Y-68717757D02*
X144180580Y-68670138D01*
X144180580Y-68670138D02*
X144228200Y-68622519D01*
X144228200Y-68622519D02*
X144275819Y-68527281D01*
X144275819Y-68527281D02*
X144275819Y-68336805D01*
X144275819Y-68336805D02*
X144228200Y-68241567D01*
X144228200Y-68241567D02*
X144180580Y-68193948D01*
X144180580Y-68193948D02*
X144085342Y-68146329D01*
X144085342Y-68146329D02*
X143275819Y-68146329D01*
X144275819Y-67146329D02*
X144275819Y-67717757D01*
X144275819Y-67432043D02*
X143275819Y-67432043D01*
X143275819Y-67432043D02*
X143418676Y-67527281D01*
X143418676Y-67527281D02*
X143513914Y-67622519D01*
X143513914Y-67622519D02*
X143561533Y-67717757D01*
X144275819Y-66193948D02*
X144275819Y-66765376D01*
X144275819Y-66479662D02*
X143275819Y-66479662D01*
X143275819Y-66479662D02*
X143418676Y-66574900D01*
X143418676Y-66574900D02*
X143513914Y-66670138D01*
X143513914Y-66670138D02*
X143561533Y-66765376D01*
X136757142Y-66254819D02*
X136423809Y-65778628D01*
X136185714Y-66254819D02*
X136185714Y-65254819D01*
X136185714Y-65254819D02*
X136566666Y-65254819D01*
X136566666Y-65254819D02*
X136661904Y-65302438D01*
X136661904Y-65302438D02*
X136709523Y-65350057D01*
X136709523Y-65350057D02*
X136757142Y-65445295D01*
X136757142Y-65445295D02*
X136757142Y-65588152D01*
X136757142Y-65588152D02*
X136709523Y-65683390D01*
X136709523Y-65683390D02*
X136661904Y-65731009D01*
X136661904Y-65731009D02*
X136566666Y-65778628D01*
X136566666Y-65778628D02*
X136185714Y-65778628D01*
X137709523Y-66254819D02*
X137138095Y-66254819D01*
X137423809Y-66254819D02*
X137423809Y-65254819D01*
X137423809Y-65254819D02*
X137328571Y-65397676D01*
X137328571Y-65397676D02*
X137233333Y-65492914D01*
X137233333Y-65492914D02*
X137138095Y-65540533D01*
X138280952Y-65683390D02*
X138185714Y-65635771D01*
X138185714Y-65635771D02*
X138138095Y-65588152D01*
X138138095Y-65588152D02*
X138090476Y-65492914D01*
X138090476Y-65492914D02*
X138090476Y-65445295D01*
X138090476Y-65445295D02*
X138138095Y-65350057D01*
X138138095Y-65350057D02*
X138185714Y-65302438D01*
X138185714Y-65302438D02*
X138280952Y-65254819D01*
X138280952Y-65254819D02*
X138471428Y-65254819D01*
X138471428Y-65254819D02*
X138566666Y-65302438D01*
X138566666Y-65302438D02*
X138614285Y-65350057D01*
X138614285Y-65350057D02*
X138661904Y-65445295D01*
X138661904Y-65445295D02*
X138661904Y-65492914D01*
X138661904Y-65492914D02*
X138614285Y-65588152D01*
X138614285Y-65588152D02*
X138566666Y-65635771D01*
X138566666Y-65635771D02*
X138471428Y-65683390D01*
X138471428Y-65683390D02*
X138280952Y-65683390D01*
X138280952Y-65683390D02*
X138185714Y-65731009D01*
X138185714Y-65731009D02*
X138138095Y-65778628D01*
X138138095Y-65778628D02*
X138090476Y-65873866D01*
X138090476Y-65873866D02*
X138090476Y-66064342D01*
X138090476Y-66064342D02*
X138138095Y-66159580D01*
X138138095Y-66159580D02*
X138185714Y-66207200D01*
X138185714Y-66207200D02*
X138280952Y-66254819D01*
X138280952Y-66254819D02*
X138471428Y-66254819D01*
X138471428Y-66254819D02*
X138566666Y-66207200D01*
X138566666Y-66207200D02*
X138614285Y-66159580D01*
X138614285Y-66159580D02*
X138661904Y-66064342D01*
X138661904Y-66064342D02*
X138661904Y-65873866D01*
X138661904Y-65873866D02*
X138614285Y-65778628D01*
X138614285Y-65778628D02*
X138566666Y-65731009D01*
X138566666Y-65731009D02*
X138471428Y-65683390D01*
X157268904Y-71835080D02*
X157268904Y-71025557D01*
X157268904Y-71025557D02*
X157221285Y-70930319D01*
X157221285Y-70930319D02*
X157173666Y-70882700D01*
X157173666Y-70882700D02*
X157078428Y-70835080D01*
X157078428Y-70835080D02*
X156887952Y-70835080D01*
X156887952Y-70835080D02*
X156792714Y-70882700D01*
X156792714Y-70882700D02*
X156745095Y-70930319D01*
X156745095Y-70930319D02*
X156697476Y-71025557D01*
X156697476Y-71025557D02*
X156697476Y-71835080D01*
X155745095Y-71835080D02*
X156221285Y-71835080D01*
X156221285Y-71835080D02*
X156268904Y-71358890D01*
X156268904Y-71358890D02*
X156221285Y-71406509D01*
X156221285Y-71406509D02*
X156126047Y-71454128D01*
X156126047Y-71454128D02*
X155887952Y-71454128D01*
X155887952Y-71454128D02*
X155792714Y-71406509D01*
X155792714Y-71406509D02*
X155745095Y-71358890D01*
X155745095Y-71358890D02*
X155697476Y-71263652D01*
X155697476Y-71263652D02*
X155697476Y-71025557D01*
X155697476Y-71025557D02*
X155745095Y-70930319D01*
X155745095Y-70930319D02*
X155792714Y-70882700D01*
X155792714Y-70882700D02*
X155887952Y-70835080D01*
X155887952Y-70835080D02*
X156126047Y-70835080D01*
X156126047Y-70835080D02*
X156221285Y-70882700D01*
X156221285Y-70882700D02*
X156268904Y-70930319D01*
X159485150Y-71722619D02*
X159485150Y-71960714D01*
X159247055Y-71865476D02*
X159485150Y-71960714D01*
X159485150Y-71960714D02*
X159723245Y-71865476D01*
X159342293Y-72151190D02*
X159485150Y-71960714D01*
X159485150Y-71960714D02*
X159628007Y-72151190D01*
X159485149Y-72812980D02*
X159485149Y-72574885D01*
X159723244Y-72670123D02*
X159485149Y-72574885D01*
X159485149Y-72574885D02*
X159247054Y-72670123D01*
X159628006Y-72384409D02*
X159485149Y-72574885D01*
X159485149Y-72574885D02*
X159342292Y-72384409D01*
X146607580Y-63642857D02*
X146655200Y-63690476D01*
X146655200Y-63690476D02*
X146702819Y-63833333D01*
X146702819Y-63833333D02*
X146702819Y-63928571D01*
X146702819Y-63928571D02*
X146655200Y-64071428D01*
X146655200Y-64071428D02*
X146559961Y-64166666D01*
X146559961Y-64166666D02*
X146464723Y-64214285D01*
X146464723Y-64214285D02*
X146274247Y-64261904D01*
X146274247Y-64261904D02*
X146131390Y-64261904D01*
X146131390Y-64261904D02*
X145940914Y-64214285D01*
X145940914Y-64214285D02*
X145845676Y-64166666D01*
X145845676Y-64166666D02*
X145750438Y-64071428D01*
X145750438Y-64071428D02*
X145702819Y-63928571D01*
X145702819Y-63928571D02*
X145702819Y-63833333D01*
X145702819Y-63833333D02*
X145750438Y-63690476D01*
X145750438Y-63690476D02*
X145798057Y-63642857D01*
X146702819Y-62690476D02*
X146702819Y-63261904D01*
X146702819Y-62976190D02*
X145702819Y-62976190D01*
X145702819Y-62976190D02*
X145845676Y-63071428D01*
X145845676Y-63071428D02*
X145940914Y-63166666D01*
X145940914Y-63166666D02*
X145988533Y-63261904D01*
X145702819Y-61785714D02*
X145702819Y-62261904D01*
X145702819Y-62261904D02*
X146179009Y-62309523D01*
X146179009Y-62309523D02*
X146131390Y-62261904D01*
X146131390Y-62261904D02*
X146083771Y-62166666D01*
X146083771Y-62166666D02*
X146083771Y-61928571D01*
X146083771Y-61928571D02*
X146131390Y-61833333D01*
X146131390Y-61833333D02*
X146179009Y-61785714D01*
X146179009Y-61785714D02*
X146274247Y-61738095D01*
X146274247Y-61738095D02*
X146512342Y-61738095D01*
X146512342Y-61738095D02*
X146607580Y-61785714D01*
X146607580Y-61785714D02*
X146655200Y-61833333D01*
X146655200Y-61833333D02*
X146702819Y-61928571D01*
X146702819Y-61928571D02*
X146702819Y-62166666D01*
X146702819Y-62166666D02*
X146655200Y-62261904D01*
X146655200Y-62261904D02*
X146607580Y-62309523D01*
X173254819Y-125533333D02*
X173969104Y-125533333D01*
X173969104Y-125533333D02*
X174111961Y-125580952D01*
X174111961Y-125580952D02*
X174207200Y-125676190D01*
X174207200Y-125676190D02*
X174254819Y-125819047D01*
X174254819Y-125819047D02*
X174254819Y-125914285D01*
X174254819Y-124533333D02*
X174254819Y-125104761D01*
X174254819Y-124819047D02*
X173254819Y-124819047D01*
X173254819Y-124819047D02*
X173397676Y-124914285D01*
X173397676Y-124914285D02*
X173492914Y-125009523D01*
X173492914Y-125009523D02*
X173540533Y-125104761D01*
X128504930Y-80163795D02*
X127695407Y-80163795D01*
X127695407Y-80163795D02*
X127600169Y-80211414D01*
X127600169Y-80211414D02*
X127552550Y-80259033D01*
X127552550Y-80259033D02*
X127504930Y-80354271D01*
X127504930Y-80354271D02*
X127504930Y-80544747D01*
X127504930Y-80544747D02*
X127552550Y-80639985D01*
X127552550Y-80639985D02*
X127600169Y-80687604D01*
X127600169Y-80687604D02*
X127695407Y-80735223D01*
X127695407Y-80735223D02*
X128504930Y-80735223D01*
X128504930Y-81639985D02*
X128504930Y-81449509D01*
X128504930Y-81449509D02*
X128457311Y-81354271D01*
X128457311Y-81354271D02*
X128409692Y-81306652D01*
X128409692Y-81306652D02*
X128266835Y-81211414D01*
X128266835Y-81211414D02*
X128076359Y-81163795D01*
X128076359Y-81163795D02*
X127695407Y-81163795D01*
X127695407Y-81163795D02*
X127600169Y-81211414D01*
X127600169Y-81211414D02*
X127552550Y-81259033D01*
X127552550Y-81259033D02*
X127504930Y-81354271D01*
X127504930Y-81354271D02*
X127504930Y-81544747D01*
X127504930Y-81544747D02*
X127552550Y-81639985D01*
X127552550Y-81639985D02*
X127600169Y-81687604D01*
X127600169Y-81687604D02*
X127695407Y-81735223D01*
X127695407Y-81735223D02*
X127933502Y-81735223D01*
X127933502Y-81735223D02*
X128028740Y-81687604D01*
X128028740Y-81687604D02*
X128076359Y-81639985D01*
X128076359Y-81639985D02*
X128123978Y-81544747D01*
X128123978Y-81544747D02*
X128123978Y-81354271D01*
X128123978Y-81354271D02*
X128076359Y-81259033D01*
X128076359Y-81259033D02*
X128028740Y-81211414D01*
X128028740Y-81211414D02*
X127933502Y-81163795D01*
X129102750Y-77840519D02*
X129102750Y-78078614D01*
X128864655Y-77983376D02*
X129102750Y-78078614D01*
X129102750Y-78078614D02*
X129340845Y-77983376D01*
X128959893Y-78269090D02*
X129102750Y-78078614D01*
X129102750Y-78078614D02*
X129245607Y-78269090D01*
X128848750Y-77840519D02*
X128848750Y-78078614D01*
X128610655Y-77983376D02*
X128848750Y-78078614D01*
X128848750Y-78078614D02*
X129086845Y-77983376D01*
X128705893Y-78269090D02*
X128848750Y-78078614D01*
X128848750Y-78078614D02*
X128991607Y-78269090D01*
X145958142Y-68795580D02*
X145910523Y-68843200D01*
X145910523Y-68843200D02*
X145767666Y-68890819D01*
X145767666Y-68890819D02*
X145672428Y-68890819D01*
X145672428Y-68890819D02*
X145529571Y-68843200D01*
X145529571Y-68843200D02*
X145434333Y-68747961D01*
X145434333Y-68747961D02*
X145386714Y-68652723D01*
X145386714Y-68652723D02*
X145339095Y-68462247D01*
X145339095Y-68462247D02*
X145339095Y-68319390D01*
X145339095Y-68319390D02*
X145386714Y-68128914D01*
X145386714Y-68128914D02*
X145434333Y-68033676D01*
X145434333Y-68033676D02*
X145529571Y-67938438D01*
X145529571Y-67938438D02*
X145672428Y-67890819D01*
X145672428Y-67890819D02*
X145767666Y-67890819D01*
X145767666Y-67890819D02*
X145910523Y-67938438D01*
X145910523Y-67938438D02*
X145958142Y-67986057D01*
X146910523Y-68890819D02*
X146339095Y-68890819D01*
X146624809Y-68890819D02*
X146624809Y-67890819D01*
X146624809Y-67890819D02*
X146529571Y-68033676D01*
X146529571Y-68033676D02*
X146434333Y-68128914D01*
X146434333Y-68128914D02*
X146339095Y-68176533D01*
X147243857Y-67890819D02*
X147862904Y-67890819D01*
X147862904Y-67890819D02*
X147529571Y-68271771D01*
X147529571Y-68271771D02*
X147672428Y-68271771D01*
X147672428Y-68271771D02*
X147767666Y-68319390D01*
X147767666Y-68319390D02*
X147815285Y-68367009D01*
X147815285Y-68367009D02*
X147862904Y-68462247D01*
X147862904Y-68462247D02*
X147862904Y-68700342D01*
X147862904Y-68700342D02*
X147815285Y-68795580D01*
X147815285Y-68795580D02*
X147767666Y-68843200D01*
X147767666Y-68843200D02*
X147672428Y-68890819D01*
X147672428Y-68890819D02*
X147386714Y-68890819D01*
X147386714Y-68890819D02*
X147291476Y-68843200D01*
X147291476Y-68843200D02*
X147243857Y-68795580D01*
X149957142Y-65559580D02*
X149909523Y-65607200D01*
X149909523Y-65607200D02*
X149766666Y-65654819D01*
X149766666Y-65654819D02*
X149671428Y-65654819D01*
X149671428Y-65654819D02*
X149528571Y-65607200D01*
X149528571Y-65607200D02*
X149433333Y-65511961D01*
X149433333Y-65511961D02*
X149385714Y-65416723D01*
X149385714Y-65416723D02*
X149338095Y-65226247D01*
X149338095Y-65226247D02*
X149338095Y-65083390D01*
X149338095Y-65083390D02*
X149385714Y-64892914D01*
X149385714Y-64892914D02*
X149433333Y-64797676D01*
X149433333Y-64797676D02*
X149528571Y-64702438D01*
X149528571Y-64702438D02*
X149671428Y-64654819D01*
X149671428Y-64654819D02*
X149766666Y-64654819D01*
X149766666Y-64654819D02*
X149909523Y-64702438D01*
X149909523Y-64702438D02*
X149957142Y-64750057D01*
X150909523Y-65654819D02*
X150338095Y-65654819D01*
X150623809Y-65654819D02*
X150623809Y-64654819D01*
X150623809Y-64654819D02*
X150528571Y-64797676D01*
X150528571Y-64797676D02*
X150433333Y-64892914D01*
X150433333Y-64892914D02*
X150338095Y-64940533D01*
X151766666Y-64988152D02*
X151766666Y-65654819D01*
X151528571Y-64607200D02*
X151290476Y-65321485D01*
X151290476Y-65321485D02*
X151909523Y-65321485D01*
X158959580Y-120766666D02*
X159007200Y-120814285D01*
X159007200Y-120814285D02*
X159054819Y-120957142D01*
X159054819Y-120957142D02*
X159054819Y-121052380D01*
X159054819Y-121052380D02*
X159007200Y-121195237D01*
X159007200Y-121195237D02*
X158911961Y-121290475D01*
X158911961Y-121290475D02*
X158816723Y-121338094D01*
X158816723Y-121338094D02*
X158626247Y-121385713D01*
X158626247Y-121385713D02*
X158483390Y-121385713D01*
X158483390Y-121385713D02*
X158292914Y-121338094D01*
X158292914Y-121338094D02*
X158197676Y-121290475D01*
X158197676Y-121290475D02*
X158102438Y-121195237D01*
X158102438Y-121195237D02*
X158054819Y-121052380D01*
X158054819Y-121052380D02*
X158054819Y-120957142D01*
X158054819Y-120957142D02*
X158102438Y-120814285D01*
X158102438Y-120814285D02*
X158150057Y-120766666D01*
X159054819Y-119814285D02*
X159054819Y-120385713D01*
X159054819Y-120099999D02*
X158054819Y-120099999D01*
X158054819Y-120099999D02*
X158197676Y-120195237D01*
X158197676Y-120195237D02*
X158292914Y-120290475D01*
X158292914Y-120290475D02*
X158340533Y-120385713D01*
X161692580Y-75653857D02*
X161740200Y-75701476D01*
X161740200Y-75701476D02*
X161787819Y-75844333D01*
X161787819Y-75844333D02*
X161787819Y-75939571D01*
X161787819Y-75939571D02*
X161740200Y-76082428D01*
X161740200Y-76082428D02*
X161644961Y-76177666D01*
X161644961Y-76177666D02*
X161549723Y-76225285D01*
X161549723Y-76225285D02*
X161359247Y-76272904D01*
X161359247Y-76272904D02*
X161216390Y-76272904D01*
X161216390Y-76272904D02*
X161025914Y-76225285D01*
X161025914Y-76225285D02*
X160930676Y-76177666D01*
X160930676Y-76177666D02*
X160835438Y-76082428D01*
X160835438Y-76082428D02*
X160787819Y-75939571D01*
X160787819Y-75939571D02*
X160787819Y-75844333D01*
X160787819Y-75844333D02*
X160835438Y-75701476D01*
X160835438Y-75701476D02*
X160883057Y-75653857D01*
X161787819Y-74701476D02*
X161787819Y-75272904D01*
X161787819Y-74987190D02*
X160787819Y-74987190D01*
X160787819Y-74987190D02*
X160930676Y-75082428D01*
X160930676Y-75082428D02*
X161025914Y-75177666D01*
X161025914Y-75177666D02*
X161073533Y-75272904D01*
X161787819Y-73749095D02*
X161787819Y-74320523D01*
X161787819Y-74034809D02*
X160787819Y-74034809D01*
X160787819Y-74034809D02*
X160930676Y-74130047D01*
X160930676Y-74130047D02*
X161025914Y-74225285D01*
X161025914Y-74225285D02*
X161073533Y-74320523D01*
X128573142Y-72786820D02*
X128239809Y-72310629D01*
X128001714Y-72786820D02*
X128001714Y-71786820D01*
X128001714Y-71786820D02*
X128382666Y-71786820D01*
X128382666Y-71786820D02*
X128477904Y-71834439D01*
X128477904Y-71834439D02*
X128525523Y-71882058D01*
X128525523Y-71882058D02*
X128573142Y-71977296D01*
X128573142Y-71977296D02*
X128573142Y-72120153D01*
X128573142Y-72120153D02*
X128525523Y-72215391D01*
X128525523Y-72215391D02*
X128477904Y-72263010D01*
X128477904Y-72263010D02*
X128382666Y-72310629D01*
X128382666Y-72310629D02*
X128001714Y-72310629D01*
X128954095Y-71882058D02*
X129001714Y-71834439D01*
X129001714Y-71834439D02*
X129096952Y-71786820D01*
X129096952Y-71786820D02*
X129335047Y-71786820D01*
X129335047Y-71786820D02*
X129430285Y-71834439D01*
X129430285Y-71834439D02*
X129477904Y-71882058D01*
X129477904Y-71882058D02*
X129525523Y-71977296D01*
X129525523Y-71977296D02*
X129525523Y-72072534D01*
X129525523Y-72072534D02*
X129477904Y-72215391D01*
X129477904Y-72215391D02*
X128906476Y-72786820D01*
X128906476Y-72786820D02*
X129525523Y-72786820D01*
X130477904Y-72786820D02*
X129906476Y-72786820D01*
X130192190Y-72786820D02*
X130192190Y-71786820D01*
X130192190Y-71786820D02*
X130096952Y-71929677D01*
X130096952Y-71929677D02*
X130001714Y-72024915D01*
X130001714Y-72024915D02*
X129906476Y-72072534D01*
X158959580Y-105442857D02*
X159007200Y-105490476D01*
X159007200Y-105490476D02*
X159054819Y-105633333D01*
X159054819Y-105633333D02*
X159054819Y-105728571D01*
X159054819Y-105728571D02*
X159007200Y-105871428D01*
X159007200Y-105871428D02*
X158911961Y-105966666D01*
X158911961Y-105966666D02*
X158816723Y-106014285D01*
X158816723Y-106014285D02*
X158626247Y-106061904D01*
X158626247Y-106061904D02*
X158483390Y-106061904D01*
X158483390Y-106061904D02*
X158292914Y-106014285D01*
X158292914Y-106014285D02*
X158197676Y-105966666D01*
X158197676Y-105966666D02*
X158102438Y-105871428D01*
X158102438Y-105871428D02*
X158054819Y-105728571D01*
X158054819Y-105728571D02*
X158054819Y-105633333D01*
X158054819Y-105633333D02*
X158102438Y-105490476D01*
X158102438Y-105490476D02*
X158150057Y-105442857D01*
X159054819Y-104490476D02*
X159054819Y-105061904D01*
X159054819Y-104776190D02*
X158054819Y-104776190D01*
X158054819Y-104776190D02*
X158197676Y-104871428D01*
X158197676Y-104871428D02*
X158292914Y-104966666D01*
X158292914Y-104966666D02*
X158340533Y-105061904D01*
X158483390Y-103919047D02*
X158435771Y-104014285D01*
X158435771Y-104014285D02*
X158388152Y-104061904D01*
X158388152Y-104061904D02*
X158292914Y-104109523D01*
X158292914Y-104109523D02*
X158245295Y-104109523D01*
X158245295Y-104109523D02*
X158150057Y-104061904D01*
X158150057Y-104061904D02*
X158102438Y-104014285D01*
X158102438Y-104014285D02*
X158054819Y-103919047D01*
X158054819Y-103919047D02*
X158054819Y-103728571D01*
X158054819Y-103728571D02*
X158102438Y-103633333D01*
X158102438Y-103633333D02*
X158150057Y-103585714D01*
X158150057Y-103585714D02*
X158245295Y-103538095D01*
X158245295Y-103538095D02*
X158292914Y-103538095D01*
X158292914Y-103538095D02*
X158388152Y-103585714D01*
X158388152Y-103585714D02*
X158435771Y-103633333D01*
X158435771Y-103633333D02*
X158483390Y-103728571D01*
X158483390Y-103728571D02*
X158483390Y-103919047D01*
X158483390Y-103919047D02*
X158531009Y-104014285D01*
X158531009Y-104014285D02*
X158578628Y-104061904D01*
X158578628Y-104061904D02*
X158673866Y-104109523D01*
X158673866Y-104109523D02*
X158864342Y-104109523D01*
X158864342Y-104109523D02*
X158959580Y-104061904D01*
X158959580Y-104061904D02*
X159007200Y-104014285D01*
X159007200Y-104014285D02*
X159054819Y-103919047D01*
X159054819Y-103919047D02*
X159054819Y-103728571D01*
X159054819Y-103728571D02*
X159007200Y-103633333D01*
X159007200Y-103633333D02*
X158959580Y-103585714D01*
X158959580Y-103585714D02*
X158864342Y-103538095D01*
X158864342Y-103538095D02*
X158673866Y-103538095D01*
X158673866Y-103538095D02*
X158578628Y-103585714D01*
X158578628Y-103585714D02*
X158531009Y-103633333D01*
X158531009Y-103633333D02*
X158483390Y-103728571D01*
X146359580Y-130842857D02*
X146407200Y-130890476D01*
X146407200Y-130890476D02*
X146454819Y-131033333D01*
X146454819Y-131033333D02*
X146454819Y-131128571D01*
X146454819Y-131128571D02*
X146407200Y-131271428D01*
X146407200Y-131271428D02*
X146311961Y-131366666D01*
X146311961Y-131366666D02*
X146216723Y-131414285D01*
X146216723Y-131414285D02*
X146026247Y-131461904D01*
X146026247Y-131461904D02*
X145883390Y-131461904D01*
X145883390Y-131461904D02*
X145692914Y-131414285D01*
X145692914Y-131414285D02*
X145597676Y-131366666D01*
X145597676Y-131366666D02*
X145502438Y-131271428D01*
X145502438Y-131271428D02*
X145454819Y-131128571D01*
X145454819Y-131128571D02*
X145454819Y-131033333D01*
X145454819Y-131033333D02*
X145502438Y-130890476D01*
X145502438Y-130890476D02*
X145550057Y-130842857D01*
X145550057Y-130461904D02*
X145502438Y-130414285D01*
X145502438Y-130414285D02*
X145454819Y-130319047D01*
X145454819Y-130319047D02*
X145454819Y-130080952D01*
X145454819Y-130080952D02*
X145502438Y-129985714D01*
X145502438Y-129985714D02*
X145550057Y-129938095D01*
X145550057Y-129938095D02*
X145645295Y-129890476D01*
X145645295Y-129890476D02*
X145740533Y-129890476D01*
X145740533Y-129890476D02*
X145883390Y-129938095D01*
X145883390Y-129938095D02*
X146454819Y-130509523D01*
X146454819Y-130509523D02*
X146454819Y-129890476D01*
X146454819Y-128938095D02*
X146454819Y-129509523D01*
X146454819Y-129223809D02*
X145454819Y-129223809D01*
X145454819Y-129223809D02*
X145597676Y-129319047D01*
X145597676Y-129319047D02*
X145692914Y-129414285D01*
X145692914Y-129414285D02*
X145740533Y-129509523D01*
X138258133Y-109743580D02*
X138210514Y-109791200D01*
X138210514Y-109791200D02*
X138067657Y-109838819D01*
X138067657Y-109838819D02*
X137972419Y-109838819D01*
X137972419Y-109838819D02*
X137829562Y-109791200D01*
X137829562Y-109791200D02*
X137734324Y-109695961D01*
X137734324Y-109695961D02*
X137686705Y-109600723D01*
X137686705Y-109600723D02*
X137639086Y-109410247D01*
X137639086Y-109410247D02*
X137639086Y-109267390D01*
X137639086Y-109267390D02*
X137686705Y-109076914D01*
X137686705Y-109076914D02*
X137734324Y-108981676D01*
X137734324Y-108981676D02*
X137829562Y-108886438D01*
X137829562Y-108886438D02*
X137972419Y-108838819D01*
X137972419Y-108838819D02*
X138067657Y-108838819D01*
X138067657Y-108838819D02*
X138210514Y-108886438D01*
X138210514Y-108886438D02*
X138258133Y-108934057D01*
X138591467Y-108838819D02*
X139258133Y-108838819D01*
X139258133Y-108838819D02*
X138829562Y-109838819D01*
X159910819Y-75355094D02*
X158910819Y-75355094D01*
X158910819Y-75355094D02*
X158910819Y-75116999D01*
X158910819Y-75116999D02*
X158958438Y-74974142D01*
X158958438Y-74974142D02*
X159053676Y-74878904D01*
X159053676Y-74878904D02*
X159148914Y-74831285D01*
X159148914Y-74831285D02*
X159339390Y-74783666D01*
X159339390Y-74783666D02*
X159482247Y-74783666D01*
X159482247Y-74783666D02*
X159672723Y-74831285D01*
X159672723Y-74831285D02*
X159767961Y-74878904D01*
X159767961Y-74878904D02*
X159863200Y-74974142D01*
X159863200Y-74974142D02*
X159910819Y-75116999D01*
X159910819Y-75116999D02*
X159910819Y-75355094D01*
X159006057Y-74402713D02*
X158958438Y-74355094D01*
X158958438Y-74355094D02*
X158910819Y-74259856D01*
X158910819Y-74259856D02*
X158910819Y-74021761D01*
X158910819Y-74021761D02*
X158958438Y-73926523D01*
X158958438Y-73926523D02*
X159006057Y-73878904D01*
X159006057Y-73878904D02*
X159101295Y-73831285D01*
X159101295Y-73831285D02*
X159196533Y-73831285D01*
X159196533Y-73831285D02*
X159339390Y-73878904D01*
X159339390Y-73878904D02*
X159910819Y-74450332D01*
X159910819Y-74450332D02*
X159910819Y-73831285D01*
X136637942Y-72239782D02*
X136304609Y-71763591D01*
X136066514Y-72239782D02*
X136066514Y-71239782D01*
X136066514Y-71239782D02*
X136447466Y-71239782D01*
X136447466Y-71239782D02*
X136542704Y-71287401D01*
X136542704Y-71287401D02*
X136590323Y-71335020D01*
X136590323Y-71335020D02*
X136637942Y-71430258D01*
X136637942Y-71430258D02*
X136637942Y-71573115D01*
X136637942Y-71573115D02*
X136590323Y-71668353D01*
X136590323Y-71668353D02*
X136542704Y-71715972D01*
X136542704Y-71715972D02*
X136447466Y-71763591D01*
X136447466Y-71763591D02*
X136066514Y-71763591D01*
X137590323Y-72239782D02*
X137018895Y-72239782D01*
X137304609Y-72239782D02*
X137304609Y-71239782D01*
X137304609Y-71239782D02*
X137209371Y-71382639D01*
X137209371Y-71382639D02*
X137114133Y-71477877D01*
X137114133Y-71477877D02*
X137018895Y-71525496D01*
X138066514Y-72239782D02*
X138256990Y-72239782D01*
X138256990Y-72239782D02*
X138352228Y-72192163D01*
X138352228Y-72192163D02*
X138399847Y-72144543D01*
X138399847Y-72144543D02*
X138495085Y-72001686D01*
X138495085Y-72001686D02*
X138542704Y-71811210D01*
X138542704Y-71811210D02*
X138542704Y-71430258D01*
X138542704Y-71430258D02*
X138495085Y-71335020D01*
X138495085Y-71335020D02*
X138447466Y-71287401D01*
X138447466Y-71287401D02*
X138352228Y-71239782D01*
X138352228Y-71239782D02*
X138161752Y-71239782D01*
X138161752Y-71239782D02*
X138066514Y-71287401D01*
X138066514Y-71287401D02*
X138018895Y-71335020D01*
X138018895Y-71335020D02*
X137971276Y-71430258D01*
X137971276Y-71430258D02*
X137971276Y-71668353D01*
X137971276Y-71668353D02*
X138018895Y-71763591D01*
X138018895Y-71763591D02*
X138066514Y-71811210D01*
X138066514Y-71811210D02*
X138161752Y-71858829D01*
X138161752Y-71858829D02*
X138352228Y-71858829D01*
X138352228Y-71858829D02*
X138447466Y-71811210D01*
X138447466Y-71811210D02*
X138495085Y-71763591D01*
X138495085Y-71763591D02*
X138542704Y-71668353D01*
D12*
X106423235Y-125266809D02*
X106937282Y-125266809D01*
X106937282Y-125266809D02*
X106997758Y-125236571D01*
X106997758Y-125236571D02*
X107027997Y-125206333D01*
X107027997Y-125206333D02*
X107058235Y-125145857D01*
X107058235Y-125145857D02*
X107058235Y-125024904D01*
X107058235Y-125024904D02*
X107027997Y-124964428D01*
X107027997Y-124964428D02*
X106997758Y-124934190D01*
X106997758Y-124934190D02*
X106937282Y-124903952D01*
X106937282Y-124903952D02*
X106423235Y-124903952D01*
X107058235Y-124268952D02*
X107058235Y-124631809D01*
X107058235Y-124450381D02*
X106423235Y-124450381D01*
X106423235Y-124450381D02*
X106513949Y-124510857D01*
X106513949Y-124510857D02*
X106574425Y-124571333D01*
X106574425Y-124571333D02*
X106604663Y-124631809D01*
D10*
X120157142Y-75959580D02*
X120109523Y-76007200D01*
X120109523Y-76007200D02*
X119966666Y-76054819D01*
X119966666Y-76054819D02*
X119871428Y-76054819D01*
X119871428Y-76054819D02*
X119728571Y-76007200D01*
X119728571Y-76007200D02*
X119633333Y-75911961D01*
X119633333Y-75911961D02*
X119585714Y-75816723D01*
X119585714Y-75816723D02*
X119538095Y-75626247D01*
X119538095Y-75626247D02*
X119538095Y-75483390D01*
X119538095Y-75483390D02*
X119585714Y-75292914D01*
X119585714Y-75292914D02*
X119633333Y-75197676D01*
X119633333Y-75197676D02*
X119728571Y-75102438D01*
X119728571Y-75102438D02*
X119871428Y-75054819D01*
X119871428Y-75054819D02*
X119966666Y-75054819D01*
X119966666Y-75054819D02*
X120109523Y-75102438D01*
X120109523Y-75102438D02*
X120157142Y-75150057D01*
X121109523Y-76054819D02*
X120538095Y-76054819D01*
X120823809Y-76054819D02*
X120823809Y-75054819D01*
X120823809Y-75054819D02*
X120728571Y-75197676D01*
X120728571Y-75197676D02*
X120633333Y-75292914D01*
X120633333Y-75292914D02*
X120538095Y-75340533D01*
X121966666Y-75054819D02*
X121776190Y-75054819D01*
X121776190Y-75054819D02*
X121680952Y-75102438D01*
X121680952Y-75102438D02*
X121633333Y-75150057D01*
X121633333Y-75150057D02*
X121538095Y-75292914D01*
X121538095Y-75292914D02*
X121490476Y-75483390D01*
X121490476Y-75483390D02*
X121490476Y-75864342D01*
X121490476Y-75864342D02*
X121538095Y-75959580D01*
X121538095Y-75959580D02*
X121585714Y-76007200D01*
X121585714Y-76007200D02*
X121680952Y-76054819D01*
X121680952Y-76054819D02*
X121871428Y-76054819D01*
X121871428Y-76054819D02*
X121966666Y-76007200D01*
X121966666Y-76007200D02*
X122014285Y-75959580D01*
X122014285Y-75959580D02*
X122061904Y-75864342D01*
X122061904Y-75864342D02*
X122061904Y-75626247D01*
X122061904Y-75626247D02*
X122014285Y-75531009D01*
X122014285Y-75531009D02*
X121966666Y-75483390D01*
X121966666Y-75483390D02*
X121871428Y-75435771D01*
X121871428Y-75435771D02*
X121680952Y-75435771D01*
X121680952Y-75435771D02*
X121585714Y-75483390D01*
X121585714Y-75483390D02*
X121538095Y-75531009D01*
X121538095Y-75531009D02*
X121490476Y-75626247D01*
X167195580Y-71830857D02*
X167243200Y-71878476D01*
X167243200Y-71878476D02*
X167290819Y-72021333D01*
X167290819Y-72021333D02*
X167290819Y-72116571D01*
X167290819Y-72116571D02*
X167243200Y-72259428D01*
X167243200Y-72259428D02*
X167147961Y-72354666D01*
X167147961Y-72354666D02*
X167052723Y-72402285D01*
X167052723Y-72402285D02*
X166862247Y-72449904D01*
X166862247Y-72449904D02*
X166719390Y-72449904D01*
X166719390Y-72449904D02*
X166528914Y-72402285D01*
X166528914Y-72402285D02*
X166433676Y-72354666D01*
X166433676Y-72354666D02*
X166338438Y-72259428D01*
X166338438Y-72259428D02*
X166290819Y-72116571D01*
X166290819Y-72116571D02*
X166290819Y-72021333D01*
X166290819Y-72021333D02*
X166338438Y-71878476D01*
X166338438Y-71878476D02*
X166386057Y-71830857D01*
X167290819Y-70878476D02*
X167290819Y-71449904D01*
X167290819Y-71164190D02*
X166290819Y-71164190D01*
X166290819Y-71164190D02*
X166433676Y-71259428D01*
X166433676Y-71259428D02*
X166528914Y-71354666D01*
X166528914Y-71354666D02*
X166576533Y-71449904D01*
X166290819Y-70259428D02*
X166290819Y-70164190D01*
X166290819Y-70164190D02*
X166338438Y-70068952D01*
X166338438Y-70068952D02*
X166386057Y-70021333D01*
X166386057Y-70021333D02*
X166481295Y-69973714D01*
X166481295Y-69973714D02*
X166671771Y-69926095D01*
X166671771Y-69926095D02*
X166909866Y-69926095D01*
X166909866Y-69926095D02*
X167100342Y-69973714D01*
X167100342Y-69973714D02*
X167195580Y-70021333D01*
X167195580Y-70021333D02*
X167243200Y-70068952D01*
X167243200Y-70068952D02*
X167290819Y-70164190D01*
X167290819Y-70164190D02*
X167290819Y-70259428D01*
X167290819Y-70259428D02*
X167243200Y-70354666D01*
X167243200Y-70354666D02*
X167195580Y-70402285D01*
X167195580Y-70402285D02*
X167100342Y-70449904D01*
X167100342Y-70449904D02*
X166909866Y-70497523D01*
X166909866Y-70497523D02*
X166671771Y-70497523D01*
X166671771Y-70497523D02*
X166481295Y-70449904D01*
X166481295Y-70449904D02*
X166386057Y-70402285D01*
X166386057Y-70402285D02*
X166338438Y-70354666D01*
X166338438Y-70354666D02*
X166290819Y-70259428D01*
X145163105Y-116400209D02*
X144829772Y-116400209D01*
X144829772Y-116924019D02*
X144829772Y-115924019D01*
X144829772Y-115924019D02*
X145305962Y-115924019D01*
X146163105Y-116924019D02*
X145686915Y-116924019D01*
X145686915Y-116924019D02*
X145686915Y-115924019D01*
X147020248Y-116924019D02*
X146448820Y-116924019D01*
X146734534Y-116924019D02*
X146734534Y-115924019D01*
X146734534Y-115924019D02*
X146639296Y-116066876D01*
X146639296Y-116066876D02*
X146544058Y-116162114D01*
X146544058Y-116162114D02*
X146448820Y-116209733D01*
X159929380Y-129584857D02*
X159977000Y-129632476D01*
X159977000Y-129632476D02*
X160024619Y-129775333D01*
X160024619Y-129775333D02*
X160024619Y-129870571D01*
X160024619Y-129870571D02*
X159977000Y-130013428D01*
X159977000Y-130013428D02*
X159881761Y-130108666D01*
X159881761Y-130108666D02*
X159786523Y-130156285D01*
X159786523Y-130156285D02*
X159596047Y-130203904D01*
X159596047Y-130203904D02*
X159453190Y-130203904D01*
X159453190Y-130203904D02*
X159262714Y-130156285D01*
X159262714Y-130156285D02*
X159167476Y-130108666D01*
X159167476Y-130108666D02*
X159072238Y-130013428D01*
X159072238Y-130013428D02*
X159024619Y-129870571D01*
X159024619Y-129870571D02*
X159024619Y-129775333D01*
X159024619Y-129775333D02*
X159072238Y-129632476D01*
X159072238Y-129632476D02*
X159119857Y-129584857D01*
X159119857Y-129203904D02*
X159072238Y-129156285D01*
X159072238Y-129156285D02*
X159024619Y-129061047D01*
X159024619Y-129061047D02*
X159024619Y-128822952D01*
X159024619Y-128822952D02*
X159072238Y-128727714D01*
X159072238Y-128727714D02*
X159119857Y-128680095D01*
X159119857Y-128680095D02*
X159215095Y-128632476D01*
X159215095Y-128632476D02*
X159310333Y-128632476D01*
X159310333Y-128632476D02*
X159453190Y-128680095D01*
X159453190Y-128680095D02*
X160024619Y-129251523D01*
X160024619Y-129251523D02*
X160024619Y-128632476D01*
X159024619Y-128013428D02*
X159024619Y-127918190D01*
X159024619Y-127918190D02*
X159072238Y-127822952D01*
X159072238Y-127822952D02*
X159119857Y-127775333D01*
X159119857Y-127775333D02*
X159215095Y-127727714D01*
X159215095Y-127727714D02*
X159405571Y-127680095D01*
X159405571Y-127680095D02*
X159643666Y-127680095D01*
X159643666Y-127680095D02*
X159834142Y-127727714D01*
X159834142Y-127727714D02*
X159929380Y-127775333D01*
X159929380Y-127775333D02*
X159977000Y-127822952D01*
X159977000Y-127822952D02*
X160024619Y-127918190D01*
X160024619Y-127918190D02*
X160024619Y-128013428D01*
X160024619Y-128013428D02*
X159977000Y-128108666D01*
X159977000Y-128108666D02*
X159929380Y-128156285D01*
X159929380Y-128156285D02*
X159834142Y-128203904D01*
X159834142Y-128203904D02*
X159643666Y-128251523D01*
X159643666Y-128251523D02*
X159405571Y-128251523D01*
X159405571Y-128251523D02*
X159215095Y-128203904D01*
X159215095Y-128203904D02*
X159119857Y-128156285D01*
X159119857Y-128156285D02*
X159072238Y-128108666D01*
X159072238Y-128108666D02*
X159024619Y-128013428D01*
X150133334Y-112872019D02*
X149800001Y-112395828D01*
X149561906Y-112872019D02*
X149561906Y-111872019D01*
X149561906Y-111872019D02*
X149942858Y-111872019D01*
X149942858Y-111872019D02*
X150038096Y-111919638D01*
X150038096Y-111919638D02*
X150085715Y-111967257D01*
X150085715Y-111967257D02*
X150133334Y-112062495D01*
X150133334Y-112062495D02*
X150133334Y-112205352D01*
X150133334Y-112205352D02*
X150085715Y-112300590D01*
X150085715Y-112300590D02*
X150038096Y-112348209D01*
X150038096Y-112348209D02*
X149942858Y-112395828D01*
X149942858Y-112395828D02*
X149561906Y-112395828D01*
X150514287Y-111967257D02*
X150561906Y-111919638D01*
X150561906Y-111919638D02*
X150657144Y-111872019D01*
X150657144Y-111872019D02*
X150895239Y-111872019D01*
X150895239Y-111872019D02*
X150990477Y-111919638D01*
X150990477Y-111919638D02*
X151038096Y-111967257D01*
X151038096Y-111967257D02*
X151085715Y-112062495D01*
X151085715Y-112062495D02*
X151085715Y-112157733D01*
X151085715Y-112157733D02*
X151038096Y-112300590D01*
X151038096Y-112300590D02*
X150466668Y-112872019D01*
X150466668Y-112872019D02*
X151085715Y-112872019D01*
D11*
X116934384Y-75577014D02*
X116746907Y-75577014D01*
X116746907Y-75577014D02*
X116746907Y-75183313D01*
X117046869Y-75220809D02*
X117065617Y-75202061D01*
X117065617Y-75202061D02*
X117103112Y-75183313D01*
X117103112Y-75183313D02*
X117196851Y-75183313D01*
X117196851Y-75183313D02*
X117234346Y-75202061D01*
X117234346Y-75202061D02*
X117253094Y-75220809D01*
X117253094Y-75220809D02*
X117271841Y-75258304D01*
X117271841Y-75258304D02*
X117271841Y-75295799D01*
X117271841Y-75295799D02*
X117253094Y-75352042D01*
X117253094Y-75352042D02*
X117028122Y-75577014D01*
X117028122Y-75577014D02*
X117271841Y-75577014D01*
D10*
X137493896Y-115950819D02*
X137493896Y-116760342D01*
X137493896Y-116760342D02*
X137541515Y-116855580D01*
X137541515Y-116855580D02*
X137589134Y-116903200D01*
X137589134Y-116903200D02*
X137684372Y-116950819D01*
X137684372Y-116950819D02*
X137874848Y-116950819D01*
X137874848Y-116950819D02*
X137970086Y-116903200D01*
X137970086Y-116903200D02*
X138017705Y-116855580D01*
X138017705Y-116855580D02*
X138065324Y-116760342D01*
X138065324Y-116760342D02*
X138065324Y-115950819D01*
X138493896Y-116046057D02*
X138541515Y-115998438D01*
X138541515Y-115998438D02*
X138636753Y-115950819D01*
X138636753Y-115950819D02*
X138874848Y-115950819D01*
X138874848Y-115950819D02*
X138970086Y-115998438D01*
X138970086Y-115998438D02*
X139017705Y-116046057D01*
X139017705Y-116046057D02*
X139065324Y-116141295D01*
X139065324Y-116141295D02*
X139065324Y-116236533D01*
X139065324Y-116236533D02*
X139017705Y-116379390D01*
X139017705Y-116379390D02*
X138446277Y-116950819D01*
X138446277Y-116950819D02*
X139065324Y-116950819D01*
X132180380Y-116408666D02*
X132228000Y-116456285D01*
X132228000Y-116456285D02*
X132275619Y-116599142D01*
X132275619Y-116599142D02*
X132275619Y-116694380D01*
X132275619Y-116694380D02*
X132228000Y-116837237D01*
X132228000Y-116837237D02*
X132132761Y-116932475D01*
X132132761Y-116932475D02*
X132037523Y-116980094D01*
X132037523Y-116980094D02*
X131847047Y-117027713D01*
X131847047Y-117027713D02*
X131704190Y-117027713D01*
X131704190Y-117027713D02*
X131513714Y-116980094D01*
X131513714Y-116980094D02*
X131418476Y-116932475D01*
X131418476Y-116932475D02*
X131323238Y-116837237D01*
X131323238Y-116837237D02*
X131275619Y-116694380D01*
X131275619Y-116694380D02*
X131275619Y-116599142D01*
X131275619Y-116599142D02*
X131323238Y-116456285D01*
X131323238Y-116456285D02*
X131370857Y-116408666D01*
X131275619Y-115551523D02*
X131275619Y-115741999D01*
X131275619Y-115741999D02*
X131323238Y-115837237D01*
X131323238Y-115837237D02*
X131370857Y-115884856D01*
X131370857Y-115884856D02*
X131513714Y-115980094D01*
X131513714Y-115980094D02*
X131704190Y-116027713D01*
X131704190Y-116027713D02*
X132085142Y-116027713D01*
X132085142Y-116027713D02*
X132180380Y-115980094D01*
X132180380Y-115980094D02*
X132228000Y-115932475D01*
X132228000Y-115932475D02*
X132275619Y-115837237D01*
X132275619Y-115837237D02*
X132275619Y-115646761D01*
X132275619Y-115646761D02*
X132228000Y-115551523D01*
X132228000Y-115551523D02*
X132180380Y-115503904D01*
X132180380Y-115503904D02*
X132085142Y-115456285D01*
X132085142Y-115456285D02*
X131847047Y-115456285D01*
X131847047Y-115456285D02*
X131751809Y-115503904D01*
X131751809Y-115503904D02*
X131704190Y-115551523D01*
X131704190Y-115551523D02*
X131656571Y-115646761D01*
X131656571Y-115646761D02*
X131656571Y-115837237D01*
X131656571Y-115837237D02*
X131704190Y-115932475D01*
X131704190Y-115932475D02*
X131751809Y-115980094D01*
X131751809Y-115980094D02*
X131847047Y-116027713D01*
X140798133Y-109838819D02*
X140464800Y-109362628D01*
X140226705Y-109838819D02*
X140226705Y-108838819D01*
X140226705Y-108838819D02*
X140607657Y-108838819D01*
X140607657Y-108838819D02*
X140702895Y-108886438D01*
X140702895Y-108886438D02*
X140750514Y-108934057D01*
X140750514Y-108934057D02*
X140798133Y-109029295D01*
X140798133Y-109029295D02*
X140798133Y-109172152D01*
X140798133Y-109172152D02*
X140750514Y-109267390D01*
X140750514Y-109267390D02*
X140702895Y-109315009D01*
X140702895Y-109315009D02*
X140607657Y-109362628D01*
X140607657Y-109362628D02*
X140226705Y-109362628D01*
X141702895Y-108838819D02*
X141226705Y-108838819D01*
X141226705Y-108838819D02*
X141179086Y-109315009D01*
X141179086Y-109315009D02*
X141226705Y-109267390D01*
X141226705Y-109267390D02*
X141321943Y-109219771D01*
X141321943Y-109219771D02*
X141560038Y-109219771D01*
X141560038Y-109219771D02*
X141655276Y-109267390D01*
X141655276Y-109267390D02*
X141702895Y-109315009D01*
X141702895Y-109315009D02*
X141750514Y-109410247D01*
X141750514Y-109410247D02*
X141750514Y-109648342D01*
X141750514Y-109648342D02*
X141702895Y-109743580D01*
X141702895Y-109743580D02*
X141655276Y-109791200D01*
X141655276Y-109791200D02*
X141560038Y-109838819D01*
X141560038Y-109838819D02*
X141321943Y-109838819D01*
X141321943Y-109838819D02*
X141226705Y-109791200D01*
X141226705Y-109791200D02*
X141179086Y-109743580D01*
X122359580Y-83442857D02*
X122407200Y-83490476D01*
X122407200Y-83490476D02*
X122454819Y-83633333D01*
X122454819Y-83633333D02*
X122454819Y-83728571D01*
X122454819Y-83728571D02*
X122407200Y-83871428D01*
X122407200Y-83871428D02*
X122311961Y-83966666D01*
X122311961Y-83966666D02*
X122216723Y-84014285D01*
X122216723Y-84014285D02*
X122026247Y-84061904D01*
X122026247Y-84061904D02*
X121883390Y-84061904D01*
X121883390Y-84061904D02*
X121692914Y-84014285D01*
X121692914Y-84014285D02*
X121597676Y-83966666D01*
X121597676Y-83966666D02*
X121502438Y-83871428D01*
X121502438Y-83871428D02*
X121454819Y-83728571D01*
X121454819Y-83728571D02*
X121454819Y-83633333D01*
X121454819Y-83633333D02*
X121502438Y-83490476D01*
X121502438Y-83490476D02*
X121550057Y-83442857D01*
X122454819Y-82490476D02*
X122454819Y-83061904D01*
X122454819Y-82776190D02*
X121454819Y-82776190D01*
X121454819Y-82776190D02*
X121597676Y-82871428D01*
X121597676Y-82871428D02*
X121692914Y-82966666D01*
X121692914Y-82966666D02*
X121740533Y-83061904D01*
X121454819Y-82157142D02*
X121454819Y-81490476D01*
X121454819Y-81490476D02*
X122454819Y-81919047D01*
X142833333Y-124159580D02*
X142785714Y-124207200D01*
X142785714Y-124207200D02*
X142642857Y-124254819D01*
X142642857Y-124254819D02*
X142547619Y-124254819D01*
X142547619Y-124254819D02*
X142404762Y-124207200D01*
X142404762Y-124207200D02*
X142309524Y-124111961D01*
X142309524Y-124111961D02*
X142261905Y-124016723D01*
X142261905Y-124016723D02*
X142214286Y-123826247D01*
X142214286Y-123826247D02*
X142214286Y-123683390D01*
X142214286Y-123683390D02*
X142261905Y-123492914D01*
X142261905Y-123492914D02*
X142309524Y-123397676D01*
X142309524Y-123397676D02*
X142404762Y-123302438D01*
X142404762Y-123302438D02*
X142547619Y-123254819D01*
X142547619Y-123254819D02*
X142642857Y-123254819D01*
X142642857Y-123254819D02*
X142785714Y-123302438D01*
X142785714Y-123302438D02*
X142833333Y-123350057D01*
X143690476Y-123588152D02*
X143690476Y-124254819D01*
X143452381Y-123207200D02*
X143214286Y-123921485D01*
X143214286Y-123921485D02*
X143833333Y-123921485D01*
X150304142Y-131968819D02*
X149970809Y-131492628D01*
X149732714Y-131968819D02*
X149732714Y-130968819D01*
X149732714Y-130968819D02*
X150113666Y-130968819D01*
X150113666Y-130968819D02*
X150208904Y-131016438D01*
X150208904Y-131016438D02*
X150256523Y-131064057D01*
X150256523Y-131064057D02*
X150304142Y-131159295D01*
X150304142Y-131159295D02*
X150304142Y-131302152D01*
X150304142Y-131302152D02*
X150256523Y-131397390D01*
X150256523Y-131397390D02*
X150208904Y-131445009D01*
X150208904Y-131445009D02*
X150113666Y-131492628D01*
X150113666Y-131492628D02*
X149732714Y-131492628D01*
X151256523Y-131968819D02*
X150685095Y-131968819D01*
X150970809Y-131968819D02*
X150970809Y-130968819D01*
X150970809Y-130968819D02*
X150875571Y-131111676D01*
X150875571Y-131111676D02*
X150780333Y-131206914D01*
X150780333Y-131206914D02*
X150685095Y-131254533D01*
X152161285Y-130968819D02*
X151685095Y-130968819D01*
X151685095Y-130968819D02*
X151637476Y-131445009D01*
X151637476Y-131445009D02*
X151685095Y-131397390D01*
X151685095Y-131397390D02*
X151780333Y-131349771D01*
X151780333Y-131349771D02*
X152018428Y-131349771D01*
X152018428Y-131349771D02*
X152113666Y-131397390D01*
X152113666Y-131397390D02*
X152161285Y-131445009D01*
X152161285Y-131445009D02*
X152208904Y-131540247D01*
X152208904Y-131540247D02*
X152208904Y-131778342D01*
X152208904Y-131778342D02*
X152161285Y-131873580D01*
X152161285Y-131873580D02*
X152113666Y-131921200D01*
X152113666Y-131921200D02*
X152018428Y-131968819D01*
X152018428Y-131968819D02*
X151780333Y-131968819D01*
X151780333Y-131968819D02*
X151685095Y-131921200D01*
X151685095Y-131921200D02*
X151637476Y-131873580D01*
X167181580Y-65861857D02*
X167229200Y-65909476D01*
X167229200Y-65909476D02*
X167276819Y-66052333D01*
X167276819Y-66052333D02*
X167276819Y-66147571D01*
X167276819Y-66147571D02*
X167229200Y-66290428D01*
X167229200Y-66290428D02*
X167133961Y-66385666D01*
X167133961Y-66385666D02*
X167038723Y-66433285D01*
X167038723Y-66433285D02*
X166848247Y-66480904D01*
X166848247Y-66480904D02*
X166705390Y-66480904D01*
X166705390Y-66480904D02*
X166514914Y-66433285D01*
X166514914Y-66433285D02*
X166419676Y-66385666D01*
X166419676Y-66385666D02*
X166324438Y-66290428D01*
X166324438Y-66290428D02*
X166276819Y-66147571D01*
X166276819Y-66147571D02*
X166276819Y-66052333D01*
X166276819Y-66052333D02*
X166324438Y-65909476D01*
X166324438Y-65909476D02*
X166372057Y-65861857D01*
X167276819Y-64909476D02*
X167276819Y-65480904D01*
X167276819Y-65195190D02*
X166276819Y-65195190D01*
X166276819Y-65195190D02*
X166419676Y-65290428D01*
X166419676Y-65290428D02*
X166514914Y-65385666D01*
X166514914Y-65385666D02*
X166562533Y-65480904D01*
X167276819Y-63957095D02*
X167276819Y-64528523D01*
X167276819Y-64242809D02*
X166276819Y-64242809D01*
X166276819Y-64242809D02*
X166419676Y-64338047D01*
X166419676Y-64338047D02*
X166514914Y-64433285D01*
X166514914Y-64433285D02*
X166562533Y-64528523D01*
X153216667Y-112319019D02*
X153216667Y-113033304D01*
X153216667Y-113033304D02*
X153169048Y-113176161D01*
X153169048Y-113176161D02*
X153073810Y-113271400D01*
X153073810Y-113271400D02*
X152930953Y-113319019D01*
X152930953Y-113319019D02*
X152835715Y-113319019D01*
X153597620Y-112319019D02*
X154216667Y-112319019D01*
X154216667Y-112319019D02*
X153883334Y-112699971D01*
X153883334Y-112699971D02*
X154026191Y-112699971D01*
X154026191Y-112699971D02*
X154121429Y-112747590D01*
X154121429Y-112747590D02*
X154169048Y-112795209D01*
X154169048Y-112795209D02*
X154216667Y-112890447D01*
X154216667Y-112890447D02*
X154216667Y-113128542D01*
X154216667Y-113128542D02*
X154169048Y-113223780D01*
X154169048Y-113223780D02*
X154121429Y-113271400D01*
X154121429Y-113271400D02*
X154026191Y-113319019D01*
X154026191Y-113319019D02*
X153740477Y-113319019D01*
X153740477Y-113319019D02*
X153645239Y-113271400D01*
X153645239Y-113271400D02*
X153597620Y-113223780D01*
X149757142Y-110054819D02*
X149423809Y-109578628D01*
X149185714Y-110054819D02*
X149185714Y-109054819D01*
X149185714Y-109054819D02*
X149566666Y-109054819D01*
X149566666Y-109054819D02*
X149661904Y-109102438D01*
X149661904Y-109102438D02*
X149709523Y-109150057D01*
X149709523Y-109150057D02*
X149757142Y-109245295D01*
X149757142Y-109245295D02*
X149757142Y-109388152D01*
X149757142Y-109388152D02*
X149709523Y-109483390D01*
X149709523Y-109483390D02*
X149661904Y-109531009D01*
X149661904Y-109531009D02*
X149566666Y-109578628D01*
X149566666Y-109578628D02*
X149185714Y-109578628D01*
X150709523Y-110054819D02*
X150138095Y-110054819D01*
X150423809Y-110054819D02*
X150423809Y-109054819D01*
X150423809Y-109054819D02*
X150328571Y-109197676D01*
X150328571Y-109197676D02*
X150233333Y-109292914D01*
X150233333Y-109292914D02*
X150138095Y-109340533D01*
X151042857Y-109054819D02*
X151661904Y-109054819D01*
X151661904Y-109054819D02*
X151328571Y-109435771D01*
X151328571Y-109435771D02*
X151471428Y-109435771D01*
X151471428Y-109435771D02*
X151566666Y-109483390D01*
X151566666Y-109483390D02*
X151614285Y-109531009D01*
X151614285Y-109531009D02*
X151661904Y-109626247D01*
X151661904Y-109626247D02*
X151661904Y-109864342D01*
X151661904Y-109864342D02*
X151614285Y-109959580D01*
X151614285Y-109959580D02*
X151566666Y-110007200D01*
X151566666Y-110007200D02*
X151471428Y-110054819D01*
X151471428Y-110054819D02*
X151185714Y-110054819D01*
X151185714Y-110054819D02*
X151090476Y-110007200D01*
X151090476Y-110007200D02*
X151042857Y-109959580D01*
X161307819Y-65004666D02*
X160831628Y-65337999D01*
X161307819Y-65576094D02*
X160307819Y-65576094D01*
X160307819Y-65576094D02*
X160307819Y-65195142D01*
X160307819Y-65195142D02*
X160355438Y-65099904D01*
X160355438Y-65099904D02*
X160403057Y-65052285D01*
X160403057Y-65052285D02*
X160498295Y-65004666D01*
X160498295Y-65004666D02*
X160641152Y-65004666D01*
X160641152Y-65004666D02*
X160736390Y-65052285D01*
X160736390Y-65052285D02*
X160784009Y-65099904D01*
X160784009Y-65099904D02*
X160831628Y-65195142D01*
X160831628Y-65195142D02*
X160831628Y-65576094D01*
X160307819Y-64147523D02*
X160307819Y-64337999D01*
X160307819Y-64337999D02*
X160355438Y-64433237D01*
X160355438Y-64433237D02*
X160403057Y-64480856D01*
X160403057Y-64480856D02*
X160545914Y-64576094D01*
X160545914Y-64576094D02*
X160736390Y-64623713D01*
X160736390Y-64623713D02*
X161117342Y-64623713D01*
X161117342Y-64623713D02*
X161212580Y-64576094D01*
X161212580Y-64576094D02*
X161260200Y-64528475D01*
X161260200Y-64528475D02*
X161307819Y-64433237D01*
X161307819Y-64433237D02*
X161307819Y-64242761D01*
X161307819Y-64242761D02*
X161260200Y-64147523D01*
X161260200Y-64147523D02*
X161212580Y-64099904D01*
X161212580Y-64099904D02*
X161117342Y-64052285D01*
X161117342Y-64052285D02*
X160879247Y-64052285D01*
X160879247Y-64052285D02*
X160784009Y-64099904D01*
X160784009Y-64099904D02*
X160736390Y-64147523D01*
X160736390Y-64147523D02*
X160688771Y-64242761D01*
X160688771Y-64242761D02*
X160688771Y-64433237D01*
X160688771Y-64433237D02*
X160736390Y-64528475D01*
X160736390Y-64528475D02*
X160784009Y-64576094D01*
X160784009Y-64576094D02*
X160879247Y-64623713D01*
X135464133Y-109743580D02*
X135416514Y-109791200D01*
X135416514Y-109791200D02*
X135273657Y-109838819D01*
X135273657Y-109838819D02*
X135178419Y-109838819D01*
X135178419Y-109838819D02*
X135035562Y-109791200D01*
X135035562Y-109791200D02*
X134940324Y-109695961D01*
X134940324Y-109695961D02*
X134892705Y-109600723D01*
X134892705Y-109600723D02*
X134845086Y-109410247D01*
X134845086Y-109410247D02*
X134845086Y-109267390D01*
X134845086Y-109267390D02*
X134892705Y-109076914D01*
X134892705Y-109076914D02*
X134940324Y-108981676D01*
X134940324Y-108981676D02*
X135035562Y-108886438D01*
X135035562Y-108886438D02*
X135178419Y-108838819D01*
X135178419Y-108838819D02*
X135273657Y-108838819D01*
X135273657Y-108838819D02*
X135416514Y-108886438D01*
X135416514Y-108886438D02*
X135464133Y-108934057D01*
X135940324Y-109838819D02*
X136130800Y-109838819D01*
X136130800Y-109838819D02*
X136226038Y-109791200D01*
X136226038Y-109791200D02*
X136273657Y-109743580D01*
X136273657Y-109743580D02*
X136368895Y-109600723D01*
X136368895Y-109600723D02*
X136416514Y-109410247D01*
X136416514Y-109410247D02*
X136416514Y-109029295D01*
X136416514Y-109029295D02*
X136368895Y-108934057D01*
X136368895Y-108934057D02*
X136321276Y-108886438D01*
X136321276Y-108886438D02*
X136226038Y-108838819D01*
X136226038Y-108838819D02*
X136035562Y-108838819D01*
X136035562Y-108838819D02*
X135940324Y-108886438D01*
X135940324Y-108886438D02*
X135892705Y-108934057D01*
X135892705Y-108934057D02*
X135845086Y-109029295D01*
X135845086Y-109029295D02*
X135845086Y-109267390D01*
X135845086Y-109267390D02*
X135892705Y-109362628D01*
X135892705Y-109362628D02*
X135940324Y-109410247D01*
X135940324Y-109410247D02*
X136035562Y-109457866D01*
X136035562Y-109457866D02*
X136226038Y-109457866D01*
X136226038Y-109457866D02*
X136321276Y-109410247D01*
X136321276Y-109410247D02*
X136368895Y-109362628D01*
X136368895Y-109362628D02*
X136416514Y-109267390D01*
X138433333Y-124959580D02*
X138385714Y-125007200D01*
X138385714Y-125007200D02*
X138242857Y-125054819D01*
X138242857Y-125054819D02*
X138147619Y-125054819D01*
X138147619Y-125054819D02*
X138004762Y-125007200D01*
X138004762Y-125007200D02*
X137909524Y-124911961D01*
X137909524Y-124911961D02*
X137861905Y-124816723D01*
X137861905Y-124816723D02*
X137814286Y-124626247D01*
X137814286Y-124626247D02*
X137814286Y-124483390D01*
X137814286Y-124483390D02*
X137861905Y-124292914D01*
X137861905Y-124292914D02*
X137909524Y-124197676D01*
X137909524Y-124197676D02*
X138004762Y-124102438D01*
X138004762Y-124102438D02*
X138147619Y-124054819D01*
X138147619Y-124054819D02*
X138242857Y-124054819D01*
X138242857Y-124054819D02*
X138385714Y-124102438D01*
X138385714Y-124102438D02*
X138433333Y-124150057D01*
X139338095Y-124054819D02*
X138861905Y-124054819D01*
X138861905Y-124054819D02*
X138814286Y-124531009D01*
X138814286Y-124531009D02*
X138861905Y-124483390D01*
X138861905Y-124483390D02*
X138957143Y-124435771D01*
X138957143Y-124435771D02*
X139195238Y-124435771D01*
X139195238Y-124435771D02*
X139290476Y-124483390D01*
X139290476Y-124483390D02*
X139338095Y-124531009D01*
X139338095Y-124531009D02*
X139385714Y-124626247D01*
X139385714Y-124626247D02*
X139385714Y-124864342D01*
X139385714Y-124864342D02*
X139338095Y-124959580D01*
X139338095Y-124959580D02*
X139290476Y-125007200D01*
X139290476Y-125007200D02*
X139195238Y-125054819D01*
X139195238Y-125054819D02*
X138957143Y-125054819D01*
X138957143Y-125054819D02*
X138861905Y-125007200D01*
X138861905Y-125007200D02*
X138814286Y-124959580D01*
X144157142Y-106159580D02*
X144109523Y-106207200D01*
X144109523Y-106207200D02*
X143966666Y-106254819D01*
X143966666Y-106254819D02*
X143871428Y-106254819D01*
X143871428Y-106254819D02*
X143728571Y-106207200D01*
X143728571Y-106207200D02*
X143633333Y-106111961D01*
X143633333Y-106111961D02*
X143585714Y-106016723D01*
X143585714Y-106016723D02*
X143538095Y-105826247D01*
X143538095Y-105826247D02*
X143538095Y-105683390D01*
X143538095Y-105683390D02*
X143585714Y-105492914D01*
X143585714Y-105492914D02*
X143633333Y-105397676D01*
X143633333Y-105397676D02*
X143728571Y-105302438D01*
X143728571Y-105302438D02*
X143871428Y-105254819D01*
X143871428Y-105254819D02*
X143966666Y-105254819D01*
X143966666Y-105254819D02*
X144109523Y-105302438D01*
X144109523Y-105302438D02*
X144157142Y-105350057D01*
X145109523Y-106254819D02*
X144538095Y-106254819D01*
X144823809Y-106254819D02*
X144823809Y-105254819D01*
X144823809Y-105254819D02*
X144728571Y-105397676D01*
X144728571Y-105397676D02*
X144633333Y-105492914D01*
X144633333Y-105492914D02*
X144538095Y-105540533D01*
X145585714Y-106254819D02*
X145776190Y-106254819D01*
X145776190Y-106254819D02*
X145871428Y-106207200D01*
X145871428Y-106207200D02*
X145919047Y-106159580D01*
X145919047Y-106159580D02*
X146014285Y-106016723D01*
X146014285Y-106016723D02*
X146061904Y-105826247D01*
X146061904Y-105826247D02*
X146061904Y-105445295D01*
X146061904Y-105445295D02*
X146014285Y-105350057D01*
X146014285Y-105350057D02*
X145966666Y-105302438D01*
X145966666Y-105302438D02*
X145871428Y-105254819D01*
X145871428Y-105254819D02*
X145680952Y-105254819D01*
X145680952Y-105254819D02*
X145585714Y-105302438D01*
X145585714Y-105302438D02*
X145538095Y-105350057D01*
X145538095Y-105350057D02*
X145490476Y-105445295D01*
X145490476Y-105445295D02*
X145490476Y-105683390D01*
X145490476Y-105683390D02*
X145538095Y-105778628D01*
X145538095Y-105778628D02*
X145585714Y-105826247D01*
X145585714Y-105826247D02*
X145680952Y-105873866D01*
X145680952Y-105873866D02*
X145871428Y-105873866D01*
X145871428Y-105873866D02*
X145966666Y-105826247D01*
X145966666Y-105826247D02*
X146014285Y-105778628D01*
X146014285Y-105778628D02*
X146061904Y-105683390D01*
X153339580Y-70700857D02*
X153387200Y-70748476D01*
X153387200Y-70748476D02*
X153434819Y-70891333D01*
X153434819Y-70891333D02*
X153434819Y-70986571D01*
X153434819Y-70986571D02*
X153387200Y-71129428D01*
X153387200Y-71129428D02*
X153291961Y-71224666D01*
X153291961Y-71224666D02*
X153196723Y-71272285D01*
X153196723Y-71272285D02*
X153006247Y-71319904D01*
X153006247Y-71319904D02*
X152863390Y-71319904D01*
X152863390Y-71319904D02*
X152672914Y-71272285D01*
X152672914Y-71272285D02*
X152577676Y-71224666D01*
X152577676Y-71224666D02*
X152482438Y-71129428D01*
X152482438Y-71129428D02*
X152434819Y-70986571D01*
X152434819Y-70986571D02*
X152434819Y-70891333D01*
X152434819Y-70891333D02*
X152482438Y-70748476D01*
X152482438Y-70748476D02*
X152530057Y-70700857D01*
X153434819Y-69748476D02*
X153434819Y-70319904D01*
X153434819Y-70034190D02*
X152434819Y-70034190D01*
X152434819Y-70034190D02*
X152577676Y-70129428D01*
X152577676Y-70129428D02*
X152672914Y-70224666D01*
X152672914Y-70224666D02*
X152720533Y-70319904D01*
X152530057Y-69367523D02*
X152482438Y-69319904D01*
X152482438Y-69319904D02*
X152434819Y-69224666D01*
X152434819Y-69224666D02*
X152434819Y-68986571D01*
X152434819Y-68986571D02*
X152482438Y-68891333D01*
X152482438Y-68891333D02*
X152530057Y-68843714D01*
X152530057Y-68843714D02*
X152625295Y-68796095D01*
X152625295Y-68796095D02*
X152720533Y-68796095D01*
X152720533Y-68796095D02*
X152863390Y-68843714D01*
X152863390Y-68843714D02*
X153434819Y-69415142D01*
X153434819Y-69415142D02*
X153434819Y-68796095D01*
X149400419Y-70473866D02*
X148924228Y-70807199D01*
X149400419Y-71045294D02*
X148400419Y-71045294D01*
X148400419Y-71045294D02*
X148400419Y-70664342D01*
X148400419Y-70664342D02*
X148448038Y-70569104D01*
X148448038Y-70569104D02*
X148495657Y-70521485D01*
X148495657Y-70521485D02*
X148590895Y-70473866D01*
X148590895Y-70473866D02*
X148733752Y-70473866D01*
X148733752Y-70473866D02*
X148828990Y-70521485D01*
X148828990Y-70521485D02*
X148876609Y-70569104D01*
X148876609Y-70569104D02*
X148924228Y-70664342D01*
X148924228Y-70664342D02*
X148924228Y-71045294D01*
X149400419Y-69997675D02*
X149400419Y-69807199D01*
X149400419Y-69807199D02*
X149352800Y-69711961D01*
X149352800Y-69711961D02*
X149305180Y-69664342D01*
X149305180Y-69664342D02*
X149162323Y-69569104D01*
X149162323Y-69569104D02*
X148971847Y-69521485D01*
X148971847Y-69521485D02*
X148590895Y-69521485D01*
X148590895Y-69521485D02*
X148495657Y-69569104D01*
X148495657Y-69569104D02*
X148448038Y-69616723D01*
X148448038Y-69616723D02*
X148400419Y-69711961D01*
X148400419Y-69711961D02*
X148400419Y-69902437D01*
X148400419Y-69902437D02*
X148448038Y-69997675D01*
X148448038Y-69997675D02*
X148495657Y-70045294D01*
X148495657Y-70045294D02*
X148590895Y-70092913D01*
X148590895Y-70092913D02*
X148828990Y-70092913D01*
X148828990Y-70092913D02*
X148924228Y-70045294D01*
X148924228Y-70045294D02*
X148971847Y-69997675D01*
X148971847Y-69997675D02*
X149019466Y-69902437D01*
X149019466Y-69902437D02*
X149019466Y-69711961D01*
X149019466Y-69711961D02*
X148971847Y-69616723D01*
X148971847Y-69616723D02*
X148924228Y-69569104D01*
X148924228Y-69569104D02*
X148828990Y-69521485D01*
X120387666Y-65816819D02*
X120387666Y-66531104D01*
X120387666Y-66531104D02*
X120340047Y-66673961D01*
X120340047Y-66673961D02*
X120244809Y-66769200D01*
X120244809Y-66769200D02*
X120101952Y-66816819D01*
X120101952Y-66816819D02*
X120006714Y-66816819D01*
X121292428Y-65816819D02*
X121101952Y-65816819D01*
X121101952Y-65816819D02*
X121006714Y-65864438D01*
X121006714Y-65864438D02*
X120959095Y-65912057D01*
X120959095Y-65912057D02*
X120863857Y-66054914D01*
X120863857Y-66054914D02*
X120816238Y-66245390D01*
X120816238Y-66245390D02*
X120816238Y-66626342D01*
X120816238Y-66626342D02*
X120863857Y-66721580D01*
X120863857Y-66721580D02*
X120911476Y-66769200D01*
X120911476Y-66769200D02*
X121006714Y-66816819D01*
X121006714Y-66816819D02*
X121197190Y-66816819D01*
X121197190Y-66816819D02*
X121292428Y-66769200D01*
X121292428Y-66769200D02*
X121340047Y-66721580D01*
X121340047Y-66721580D02*
X121387666Y-66626342D01*
X121387666Y-66626342D02*
X121387666Y-66388247D01*
X121387666Y-66388247D02*
X121340047Y-66293009D01*
X121340047Y-66293009D02*
X121292428Y-66245390D01*
X121292428Y-66245390D02*
X121197190Y-66197771D01*
X121197190Y-66197771D02*
X121006714Y-66197771D01*
X121006714Y-66197771D02*
X120911476Y-66245390D01*
X120911476Y-66245390D02*
X120863857Y-66293009D01*
X120863857Y-66293009D02*
X120816238Y-66388247D01*
X158959580Y-112366666D02*
X159007200Y-112414285D01*
X159007200Y-112414285D02*
X159054819Y-112557142D01*
X159054819Y-112557142D02*
X159054819Y-112652380D01*
X159054819Y-112652380D02*
X159007200Y-112795237D01*
X159007200Y-112795237D02*
X158911961Y-112890475D01*
X158911961Y-112890475D02*
X158816723Y-112938094D01*
X158816723Y-112938094D02*
X158626247Y-112985713D01*
X158626247Y-112985713D02*
X158483390Y-112985713D01*
X158483390Y-112985713D02*
X158292914Y-112938094D01*
X158292914Y-112938094D02*
X158197676Y-112890475D01*
X158197676Y-112890475D02*
X158102438Y-112795237D01*
X158102438Y-112795237D02*
X158054819Y-112652380D01*
X158054819Y-112652380D02*
X158054819Y-112557142D01*
X158054819Y-112557142D02*
X158102438Y-112414285D01*
X158102438Y-112414285D02*
X158150057Y-112366666D01*
X158150057Y-111985713D02*
X158102438Y-111938094D01*
X158102438Y-111938094D02*
X158054819Y-111842856D01*
X158054819Y-111842856D02*
X158054819Y-111604761D01*
X158054819Y-111604761D02*
X158102438Y-111509523D01*
X158102438Y-111509523D02*
X158150057Y-111461904D01*
X158150057Y-111461904D02*
X158245295Y-111414285D01*
X158245295Y-111414285D02*
X158340533Y-111414285D01*
X158340533Y-111414285D02*
X158483390Y-111461904D01*
X158483390Y-111461904D02*
X159054819Y-112033332D01*
X159054819Y-112033332D02*
X159054819Y-111414285D01*
X157159580Y-113966666D02*
X157207200Y-114014285D01*
X157207200Y-114014285D02*
X157254819Y-114157142D01*
X157254819Y-114157142D02*
X157254819Y-114252380D01*
X157254819Y-114252380D02*
X157207200Y-114395237D01*
X157207200Y-114395237D02*
X157111961Y-114490475D01*
X157111961Y-114490475D02*
X157016723Y-114538094D01*
X157016723Y-114538094D02*
X156826247Y-114585713D01*
X156826247Y-114585713D02*
X156683390Y-114585713D01*
X156683390Y-114585713D02*
X156492914Y-114538094D01*
X156492914Y-114538094D02*
X156397676Y-114490475D01*
X156397676Y-114490475D02*
X156302438Y-114395237D01*
X156302438Y-114395237D02*
X156254819Y-114252380D01*
X156254819Y-114252380D02*
X156254819Y-114157142D01*
X156254819Y-114157142D02*
X156302438Y-114014285D01*
X156302438Y-114014285D02*
X156350057Y-113966666D01*
X156254819Y-113633332D02*
X156254819Y-113014285D01*
X156254819Y-113014285D02*
X156635771Y-113347618D01*
X156635771Y-113347618D02*
X156635771Y-113204761D01*
X156635771Y-113204761D02*
X156683390Y-113109523D01*
X156683390Y-113109523D02*
X156731009Y-113061904D01*
X156731009Y-113061904D02*
X156826247Y-113014285D01*
X156826247Y-113014285D02*
X157064342Y-113014285D01*
X157064342Y-113014285D02*
X157159580Y-113061904D01*
X157159580Y-113061904D02*
X157207200Y-113109523D01*
X157207200Y-113109523D02*
X157254819Y-113204761D01*
X157254819Y-113204761D02*
X157254819Y-113490475D01*
X157254819Y-113490475D02*
X157207200Y-113585713D01*
X157207200Y-113585713D02*
X157159580Y-113633332D01*
X148054819Y-126042857D02*
X147578628Y-126376190D01*
X148054819Y-126614285D02*
X147054819Y-126614285D01*
X147054819Y-126614285D02*
X147054819Y-126233333D01*
X147054819Y-126233333D02*
X147102438Y-126138095D01*
X147102438Y-126138095D02*
X147150057Y-126090476D01*
X147150057Y-126090476D02*
X147245295Y-126042857D01*
X147245295Y-126042857D02*
X147388152Y-126042857D01*
X147388152Y-126042857D02*
X147483390Y-126090476D01*
X147483390Y-126090476D02*
X147531009Y-126138095D01*
X147531009Y-126138095D02*
X147578628Y-126233333D01*
X147578628Y-126233333D02*
X147578628Y-126614285D01*
X148054819Y-125090476D02*
X148054819Y-125661904D01*
X148054819Y-125376190D02*
X147054819Y-125376190D01*
X147054819Y-125376190D02*
X147197676Y-125471428D01*
X147197676Y-125471428D02*
X147292914Y-125566666D01*
X147292914Y-125566666D02*
X147340533Y-125661904D01*
X147054819Y-124233333D02*
X147054819Y-124423809D01*
X147054819Y-124423809D02*
X147102438Y-124519047D01*
X147102438Y-124519047D02*
X147150057Y-124566666D01*
X147150057Y-124566666D02*
X147292914Y-124661904D01*
X147292914Y-124661904D02*
X147483390Y-124709523D01*
X147483390Y-124709523D02*
X147864342Y-124709523D01*
X147864342Y-124709523D02*
X147959580Y-124661904D01*
X147959580Y-124661904D02*
X148007200Y-124614285D01*
X148007200Y-124614285D02*
X148054819Y-124519047D01*
X148054819Y-124519047D02*
X148054819Y-124328571D01*
X148054819Y-124328571D02*
X148007200Y-124233333D01*
X148007200Y-124233333D02*
X147959580Y-124185714D01*
X147959580Y-124185714D02*
X147864342Y-124138095D01*
X147864342Y-124138095D02*
X147626247Y-124138095D01*
X147626247Y-124138095D02*
X147531009Y-124185714D01*
X147531009Y-124185714D02*
X147483390Y-124233333D01*
X147483390Y-124233333D02*
X147435771Y-124328571D01*
X147435771Y-124328571D02*
X147435771Y-124519047D01*
X147435771Y-124519047D02*
X147483390Y-124614285D01*
X147483390Y-124614285D02*
X147531009Y-124661904D01*
X147531009Y-124661904D02*
X147626247Y-124709523D01*
X149415142Y-101234819D02*
X149081809Y-100758628D01*
X148843714Y-101234819D02*
X148843714Y-100234819D01*
X148843714Y-100234819D02*
X149224666Y-100234819D01*
X149224666Y-100234819D02*
X149319904Y-100282438D01*
X149319904Y-100282438D02*
X149367523Y-100330057D01*
X149367523Y-100330057D02*
X149415142Y-100425295D01*
X149415142Y-100425295D02*
X149415142Y-100568152D01*
X149415142Y-100568152D02*
X149367523Y-100663390D01*
X149367523Y-100663390D02*
X149319904Y-100711009D01*
X149319904Y-100711009D02*
X149224666Y-100758628D01*
X149224666Y-100758628D02*
X148843714Y-100758628D01*
X150367523Y-101234819D02*
X149796095Y-101234819D01*
X150081809Y-101234819D02*
X150081809Y-100234819D01*
X150081809Y-100234819D02*
X149986571Y-100377676D01*
X149986571Y-100377676D02*
X149891333Y-100472914D01*
X149891333Y-100472914D02*
X149796095Y-100520533D01*
X150748476Y-100330057D02*
X150796095Y-100282438D01*
X150796095Y-100282438D02*
X150891333Y-100234819D01*
X150891333Y-100234819D02*
X151129428Y-100234819D01*
X151129428Y-100234819D02*
X151224666Y-100282438D01*
X151224666Y-100282438D02*
X151272285Y-100330057D01*
X151272285Y-100330057D02*
X151319904Y-100425295D01*
X151319904Y-100425295D02*
X151319904Y-100520533D01*
X151319904Y-100520533D02*
X151272285Y-100663390D01*
X151272285Y-100663390D02*
X150700857Y-101234819D01*
X150700857Y-101234819D02*
X151319904Y-101234819D01*
X172570666Y-60465819D02*
X172570666Y-61180104D01*
X172570666Y-61180104D02*
X172523047Y-61322961D01*
X172523047Y-61322961D02*
X172427809Y-61418200D01*
X172427809Y-61418200D02*
X172284952Y-61465819D01*
X172284952Y-61465819D02*
X172189714Y-61465819D01*
X173475428Y-60799152D02*
X173475428Y-61465819D01*
X173237333Y-60418200D02*
X172999238Y-61132485D01*
X172999238Y-61132485D02*
X173618285Y-61132485D01*
X150383334Y-121454819D02*
X150050001Y-120978628D01*
X149811906Y-121454819D02*
X149811906Y-120454819D01*
X149811906Y-120454819D02*
X150192858Y-120454819D01*
X150192858Y-120454819D02*
X150288096Y-120502438D01*
X150288096Y-120502438D02*
X150335715Y-120550057D01*
X150335715Y-120550057D02*
X150383334Y-120645295D01*
X150383334Y-120645295D02*
X150383334Y-120788152D01*
X150383334Y-120788152D02*
X150335715Y-120883390D01*
X150335715Y-120883390D02*
X150288096Y-120931009D01*
X150288096Y-120931009D02*
X150192858Y-120978628D01*
X150192858Y-120978628D02*
X149811906Y-120978628D01*
X151335715Y-121454819D02*
X150764287Y-121454819D01*
X151050001Y-121454819D02*
X151050001Y-120454819D01*
X151050001Y-120454819D02*
X150954763Y-120597676D01*
X150954763Y-120597676D02*
X150859525Y-120692914D01*
X150859525Y-120692914D02*
X150764287Y-120740533D01*
X135833333Y-124959580D02*
X135785714Y-125007200D01*
X135785714Y-125007200D02*
X135642857Y-125054819D01*
X135642857Y-125054819D02*
X135547619Y-125054819D01*
X135547619Y-125054819D02*
X135404762Y-125007200D01*
X135404762Y-125007200D02*
X135309524Y-124911961D01*
X135309524Y-124911961D02*
X135261905Y-124816723D01*
X135261905Y-124816723D02*
X135214286Y-124626247D01*
X135214286Y-124626247D02*
X135214286Y-124483390D01*
X135214286Y-124483390D02*
X135261905Y-124292914D01*
X135261905Y-124292914D02*
X135309524Y-124197676D01*
X135309524Y-124197676D02*
X135404762Y-124102438D01*
X135404762Y-124102438D02*
X135547619Y-124054819D01*
X135547619Y-124054819D02*
X135642857Y-124054819D01*
X135642857Y-124054819D02*
X135785714Y-124102438D01*
X135785714Y-124102438D02*
X135833333Y-124150057D01*
X136404762Y-124483390D02*
X136309524Y-124435771D01*
X136309524Y-124435771D02*
X136261905Y-124388152D01*
X136261905Y-124388152D02*
X136214286Y-124292914D01*
X136214286Y-124292914D02*
X136214286Y-124245295D01*
X136214286Y-124245295D02*
X136261905Y-124150057D01*
X136261905Y-124150057D02*
X136309524Y-124102438D01*
X136309524Y-124102438D02*
X136404762Y-124054819D01*
X136404762Y-124054819D02*
X136595238Y-124054819D01*
X136595238Y-124054819D02*
X136690476Y-124102438D01*
X136690476Y-124102438D02*
X136738095Y-124150057D01*
X136738095Y-124150057D02*
X136785714Y-124245295D01*
X136785714Y-124245295D02*
X136785714Y-124292914D01*
X136785714Y-124292914D02*
X136738095Y-124388152D01*
X136738095Y-124388152D02*
X136690476Y-124435771D01*
X136690476Y-124435771D02*
X136595238Y-124483390D01*
X136595238Y-124483390D02*
X136404762Y-124483390D01*
X136404762Y-124483390D02*
X136309524Y-124531009D01*
X136309524Y-124531009D02*
X136261905Y-124578628D01*
X136261905Y-124578628D02*
X136214286Y-124673866D01*
X136214286Y-124673866D02*
X136214286Y-124864342D01*
X136214286Y-124864342D02*
X136261905Y-124959580D01*
X136261905Y-124959580D02*
X136309524Y-125007200D01*
X136309524Y-125007200D02*
X136404762Y-125054819D01*
X136404762Y-125054819D02*
X136595238Y-125054819D01*
X136595238Y-125054819D02*
X136690476Y-125007200D01*
X136690476Y-125007200D02*
X136738095Y-124959580D01*
X136738095Y-124959580D02*
X136785714Y-124864342D01*
X136785714Y-124864342D02*
X136785714Y-124673866D01*
X136785714Y-124673866D02*
X136738095Y-124578628D01*
X136738095Y-124578628D02*
X136690476Y-124531009D01*
X136690476Y-124531009D02*
X136595238Y-124483390D01*
X121054819Y-93161904D02*
X121864342Y-93161904D01*
X121864342Y-93161904D02*
X121959580Y-93114285D01*
X121959580Y-93114285D02*
X122007200Y-93066666D01*
X122007200Y-93066666D02*
X122054819Y-92971428D01*
X122054819Y-92971428D02*
X122054819Y-92780952D01*
X122054819Y-92780952D02*
X122007200Y-92685714D01*
X122007200Y-92685714D02*
X121959580Y-92638095D01*
X121959580Y-92638095D02*
X121864342Y-92590476D01*
X121864342Y-92590476D02*
X121054819Y-92590476D01*
X121054819Y-92209523D02*
X121054819Y-91590476D01*
X121054819Y-91590476D02*
X121435771Y-91923809D01*
X121435771Y-91923809D02*
X121435771Y-91780952D01*
X121435771Y-91780952D02*
X121483390Y-91685714D01*
X121483390Y-91685714D02*
X121531009Y-91638095D01*
X121531009Y-91638095D02*
X121626247Y-91590476D01*
X121626247Y-91590476D02*
X121864342Y-91590476D01*
X121864342Y-91590476D02*
X121959580Y-91638095D01*
X121959580Y-91638095D02*
X122007200Y-91685714D01*
X122007200Y-91685714D02*
X122054819Y-91780952D01*
X122054819Y-91780952D02*
X122054819Y-92066666D01*
X122054819Y-92066666D02*
X122007200Y-92161904D01*
X122007200Y-92161904D02*
X121959580Y-92209523D01*
X113026519Y-99945349D02*
X113264614Y-99945349D01*
X113169376Y-100183444D02*
X113264614Y-99945349D01*
X113264614Y-99945349D02*
X113169376Y-99707254D01*
X113455090Y-100088206D02*
X113264614Y-99945349D01*
X113264614Y-99945349D02*
X113455090Y-99802492D01*
X113026519Y-99945349D02*
X113264614Y-99945349D01*
X113169376Y-100183444D02*
X113264614Y-99945349D01*
X113264614Y-99945349D02*
X113169376Y-99707254D01*
X113455090Y-100088206D02*
X113264614Y-99945349D01*
X113264614Y-99945349D02*
X113455090Y-99802492D01*
X125031142Y-72277819D02*
X124697809Y-71801628D01*
X124459714Y-72277819D02*
X124459714Y-71277819D01*
X124459714Y-71277819D02*
X124840666Y-71277819D01*
X124840666Y-71277819D02*
X124935904Y-71325438D01*
X124935904Y-71325438D02*
X124983523Y-71373057D01*
X124983523Y-71373057D02*
X125031142Y-71468295D01*
X125031142Y-71468295D02*
X125031142Y-71611152D01*
X125031142Y-71611152D02*
X124983523Y-71706390D01*
X124983523Y-71706390D02*
X124935904Y-71754009D01*
X124935904Y-71754009D02*
X124840666Y-71801628D01*
X124840666Y-71801628D02*
X124459714Y-71801628D01*
X125412095Y-71373057D02*
X125459714Y-71325438D01*
X125459714Y-71325438D02*
X125554952Y-71277819D01*
X125554952Y-71277819D02*
X125793047Y-71277819D01*
X125793047Y-71277819D02*
X125888285Y-71325438D01*
X125888285Y-71325438D02*
X125935904Y-71373057D01*
X125935904Y-71373057D02*
X125983523Y-71468295D01*
X125983523Y-71468295D02*
X125983523Y-71563533D01*
X125983523Y-71563533D02*
X125935904Y-71706390D01*
X125935904Y-71706390D02*
X125364476Y-72277819D01*
X125364476Y-72277819D02*
X125983523Y-72277819D01*
X126602571Y-71277819D02*
X126697809Y-71277819D01*
X126697809Y-71277819D02*
X126793047Y-71325438D01*
X126793047Y-71325438D02*
X126840666Y-71373057D01*
X126840666Y-71373057D02*
X126888285Y-71468295D01*
X126888285Y-71468295D02*
X126935904Y-71658771D01*
X126935904Y-71658771D02*
X126935904Y-71896866D01*
X126935904Y-71896866D02*
X126888285Y-72087342D01*
X126888285Y-72087342D02*
X126840666Y-72182580D01*
X126840666Y-72182580D02*
X126793047Y-72230200D01*
X126793047Y-72230200D02*
X126697809Y-72277819D01*
X126697809Y-72277819D02*
X126602571Y-72277819D01*
X126602571Y-72277819D02*
X126507333Y-72230200D01*
X126507333Y-72230200D02*
X126459714Y-72182580D01*
X126459714Y-72182580D02*
X126412095Y-72087342D01*
X126412095Y-72087342D02*
X126364476Y-71896866D01*
X126364476Y-71896866D02*
X126364476Y-71658771D01*
X126364476Y-71658771D02*
X126412095Y-71468295D01*
X126412095Y-71468295D02*
X126459714Y-71373057D01*
X126459714Y-71373057D02*
X126507333Y-71325438D01*
X126507333Y-71325438D02*
X126602571Y-71277819D01*
X141159580Y-62442857D02*
X141207200Y-62490476D01*
X141207200Y-62490476D02*
X141254819Y-62633333D01*
X141254819Y-62633333D02*
X141254819Y-62728571D01*
X141254819Y-62728571D02*
X141207200Y-62871428D01*
X141207200Y-62871428D02*
X141111961Y-62966666D01*
X141111961Y-62966666D02*
X141016723Y-63014285D01*
X141016723Y-63014285D02*
X140826247Y-63061904D01*
X140826247Y-63061904D02*
X140683390Y-63061904D01*
X140683390Y-63061904D02*
X140492914Y-63014285D01*
X140492914Y-63014285D02*
X140397676Y-62966666D01*
X140397676Y-62966666D02*
X140302438Y-62871428D01*
X140302438Y-62871428D02*
X140254819Y-62728571D01*
X140254819Y-62728571D02*
X140254819Y-62633333D01*
X140254819Y-62633333D02*
X140302438Y-62490476D01*
X140302438Y-62490476D02*
X140350057Y-62442857D01*
X140350057Y-62061904D02*
X140302438Y-62014285D01*
X140302438Y-62014285D02*
X140254819Y-61919047D01*
X140254819Y-61919047D02*
X140254819Y-61680952D01*
X140254819Y-61680952D02*
X140302438Y-61585714D01*
X140302438Y-61585714D02*
X140350057Y-61538095D01*
X140350057Y-61538095D02*
X140445295Y-61490476D01*
X140445295Y-61490476D02*
X140540533Y-61490476D01*
X140540533Y-61490476D02*
X140683390Y-61538095D01*
X140683390Y-61538095D02*
X141254819Y-62109523D01*
X141254819Y-62109523D02*
X141254819Y-61490476D01*
X140254819Y-61157142D02*
X140254819Y-60538095D01*
X140254819Y-60538095D02*
X140635771Y-60871428D01*
X140635771Y-60871428D02*
X140635771Y-60728571D01*
X140635771Y-60728571D02*
X140683390Y-60633333D01*
X140683390Y-60633333D02*
X140731009Y-60585714D01*
X140731009Y-60585714D02*
X140826247Y-60538095D01*
X140826247Y-60538095D02*
X141064342Y-60538095D01*
X141064342Y-60538095D02*
X141159580Y-60585714D01*
X141159580Y-60585714D02*
X141207200Y-60633333D01*
X141207200Y-60633333D02*
X141254819Y-60728571D01*
X141254819Y-60728571D02*
X141254819Y-61014285D01*
X141254819Y-61014285D02*
X141207200Y-61109523D01*
X141207200Y-61109523D02*
X141159580Y-61157142D01*
X136757142Y-63054819D02*
X136423809Y-62578628D01*
X136185714Y-63054819D02*
X136185714Y-62054819D01*
X136185714Y-62054819D02*
X136566666Y-62054819D01*
X136566666Y-62054819D02*
X136661904Y-62102438D01*
X136661904Y-62102438D02*
X136709523Y-62150057D01*
X136709523Y-62150057D02*
X136757142Y-62245295D01*
X136757142Y-62245295D02*
X136757142Y-62388152D01*
X136757142Y-62388152D02*
X136709523Y-62483390D01*
X136709523Y-62483390D02*
X136661904Y-62531009D01*
X136661904Y-62531009D02*
X136566666Y-62578628D01*
X136566666Y-62578628D02*
X136185714Y-62578628D01*
X137709523Y-63054819D02*
X137138095Y-63054819D01*
X137423809Y-63054819D02*
X137423809Y-62054819D01*
X137423809Y-62054819D02*
X137328571Y-62197676D01*
X137328571Y-62197676D02*
X137233333Y-62292914D01*
X137233333Y-62292914D02*
X137138095Y-62340533D01*
X138042857Y-62054819D02*
X138709523Y-62054819D01*
X138709523Y-62054819D02*
X138280952Y-63054819D01*
X128573142Y-63359580D02*
X128525523Y-63407200D01*
X128525523Y-63407200D02*
X128382666Y-63454819D01*
X128382666Y-63454819D02*
X128287428Y-63454819D01*
X128287428Y-63454819D02*
X128144571Y-63407200D01*
X128144571Y-63407200D02*
X128049333Y-63311961D01*
X128049333Y-63311961D02*
X128001714Y-63216723D01*
X128001714Y-63216723D02*
X127954095Y-63026247D01*
X127954095Y-63026247D02*
X127954095Y-62883390D01*
X127954095Y-62883390D02*
X128001714Y-62692914D01*
X128001714Y-62692914D02*
X128049333Y-62597676D01*
X128049333Y-62597676D02*
X128144571Y-62502438D01*
X128144571Y-62502438D02*
X128287428Y-62454819D01*
X128287428Y-62454819D02*
X128382666Y-62454819D01*
X128382666Y-62454819D02*
X128525523Y-62502438D01*
X128525523Y-62502438D02*
X128573142Y-62550057D01*
X128954095Y-62550057D02*
X129001714Y-62502438D01*
X129001714Y-62502438D02*
X129096952Y-62454819D01*
X129096952Y-62454819D02*
X129335047Y-62454819D01*
X129335047Y-62454819D02*
X129430285Y-62502438D01*
X129430285Y-62502438D02*
X129477904Y-62550057D01*
X129477904Y-62550057D02*
X129525523Y-62645295D01*
X129525523Y-62645295D02*
X129525523Y-62740533D01*
X129525523Y-62740533D02*
X129477904Y-62883390D01*
X129477904Y-62883390D02*
X128906476Y-63454819D01*
X128906476Y-63454819D02*
X129525523Y-63454819D01*
X130382666Y-62788152D02*
X130382666Y-63454819D01*
X130144571Y-62407200D02*
X129906476Y-63121485D01*
X129906476Y-63121485D02*
X130525523Y-63121485D01*
X131238095Y-65054819D02*
X131238095Y-65864342D01*
X131238095Y-65864342D02*
X131285714Y-65959580D01*
X131285714Y-65959580D02*
X131333333Y-66007200D01*
X131333333Y-66007200D02*
X131428571Y-66054819D01*
X131428571Y-66054819D02*
X131619047Y-66054819D01*
X131619047Y-66054819D02*
X131714285Y-66007200D01*
X131714285Y-66007200D02*
X131761904Y-65959580D01*
X131761904Y-65959580D02*
X131809523Y-65864342D01*
X131809523Y-65864342D02*
X131809523Y-65054819D01*
X132333333Y-66054819D02*
X132523809Y-66054819D01*
X132523809Y-66054819D02*
X132619047Y-66007200D01*
X132619047Y-66007200D02*
X132666666Y-65959580D01*
X132666666Y-65959580D02*
X132761904Y-65816723D01*
X132761904Y-65816723D02*
X132809523Y-65626247D01*
X132809523Y-65626247D02*
X132809523Y-65245295D01*
X132809523Y-65245295D02*
X132761904Y-65150057D01*
X132761904Y-65150057D02*
X132714285Y-65102438D01*
X132714285Y-65102438D02*
X132619047Y-65054819D01*
X132619047Y-65054819D02*
X132428571Y-65054819D01*
X132428571Y-65054819D02*
X132333333Y-65102438D01*
X132333333Y-65102438D02*
X132285714Y-65150057D01*
X132285714Y-65150057D02*
X132238095Y-65245295D01*
X132238095Y-65245295D02*
X132238095Y-65483390D01*
X132238095Y-65483390D02*
X132285714Y-65578628D01*
X132285714Y-65578628D02*
X132333333Y-65626247D01*
X132333333Y-65626247D02*
X132428571Y-65673866D01*
X132428571Y-65673866D02*
X132619047Y-65673866D01*
X132619047Y-65673866D02*
X132714285Y-65626247D01*
X132714285Y-65626247D02*
X132761904Y-65578628D01*
X132761904Y-65578628D02*
X132809523Y-65483390D01*
D13*
%TO.C,R3*%
X146037259Y-119196700D02*
X145562743Y-119196700D01*
X146037259Y-120241700D02*
X145562743Y-120241700D01*
%TO.C,R4*%
X146037259Y-112696700D02*
X145562743Y-112696700D01*
X146037259Y-113741700D02*
X145562743Y-113741700D01*
%TO.C,R22*%
X157028500Y-78824742D02*
X157028500Y-79299258D01*
X158073500Y-78824742D02*
X158073500Y-79299258D01*
%TO.C,D1*%
X140200000Y-76000000D02*
X141110000Y-76000000D01*
X141110000Y-73280000D02*
X141110000Y-78720000D01*
X141110000Y-78720000D02*
X150850000Y-78720000D01*
X149185000Y-78720000D02*
X149185000Y-73280000D01*
X149305000Y-78720000D02*
X149305000Y-73280000D01*
X149425000Y-78720000D02*
X149425000Y-73280000D01*
X150850000Y-73280000D02*
X141110000Y-73280000D01*
X150850000Y-78720000D02*
X150850000Y-73280000D01*
X151760000Y-76000000D02*
X150850000Y-76000000D01*
%TO.C,J2*%
X164242800Y-99175500D02*
X164242800Y-114695500D01*
X164242800Y-99175500D02*
X182202800Y-99175500D01*
X164242800Y-114695500D02*
X182202800Y-114695500D01*
X167622800Y-115380500D02*
X168622800Y-115380500D01*
X168122800Y-114880500D02*
X167622800Y-115380500D01*
X168622800Y-115380500D02*
X168122800Y-114880500D01*
X182202800Y-114695500D02*
X182202800Y-99175500D01*
%TO.C,R11*%
X154585258Y-64074500D02*
X154110742Y-64074500D01*
X154585258Y-65119500D02*
X154110742Y-65119500D01*
%TO.C,C25*%
X125658000Y-66376581D02*
X125658000Y-66095421D01*
X126678000Y-66376581D02*
X126678000Y-66095421D01*
%TO.C,R7*%
X130419251Y-81194708D02*
X130419251Y-80720192D01*
X131464251Y-81194708D02*
X131464251Y-80720192D01*
%TO.C,R8*%
X124450251Y-80720192D02*
X124450251Y-81194708D01*
X125495251Y-80720192D02*
X125495251Y-81194708D01*
%TO.C,C22*%
X141180580Y-69674763D02*
X140899420Y-69674763D01*
X141180580Y-70694763D02*
X140899420Y-70694763D01*
%TO.C,J7*%
X169077000Y-81518000D02*
X169077000Y-79118000D01*
X171577000Y-76618000D02*
X173977000Y-76618000D01*
X173977000Y-84018000D02*
X171577000Y-84018000D01*
X176477000Y-79118000D02*
X176477000Y-81518000D01*
D10*
%TO.C,U8*%
X153551831Y-127513001D02*
X155551833Y-127513001D01*
X153551831Y-129862999D02*
X155551833Y-129862999D01*
D14*
X152670766Y-128037999D02*
G75*
G02*
X152420764Y-128037999I-125001J0D01*
G01*
X152420764Y-128037999D02*
G75*
G02*
X152670766Y-128037999I125001J0D01*
G01*
D13*
%TO.C,R10*%
X150838258Y-63158500D02*
X150363742Y-63158500D01*
X150838258Y-64203500D02*
X150363742Y-64203500D01*
D10*
%TO.C,U7*%
X152472831Y-103241000D02*
X154472833Y-103241000D01*
X152472831Y-105590998D02*
X154472833Y-105590998D01*
D14*
X151591766Y-103765998D02*
G75*
G02*
X151341764Y-103765998I-125001J0D01*
G01*
X151341764Y-103765998D02*
G75*
G02*
X151591766Y-103765998I125001J0D01*
G01*
D13*
%TO.C,R14*%
X150442542Y-125117500D02*
X150917058Y-125117500D01*
X150442542Y-126162500D02*
X150917058Y-126162500D01*
D15*
%TO.C,U4*%
X115615600Y-79163600D02*
X115615600Y-82516400D01*
X118968400Y-82516400D02*
X118968400Y-79163600D01*
D10*
%TO.C,U11*%
X140166999Y-66469764D02*
X142167001Y-66469764D01*
X140166999Y-68819762D02*
X142167001Y-68819762D01*
D14*
X139285934Y-66994762D02*
G75*
G02*
X139035932Y-66994762I-125001J0D01*
G01*
X139035932Y-66994762D02*
G75*
G02*
X139285934Y-66994762I125001J0D01*
G01*
D13*
%TO.C,R18*%
X137132942Y-67122263D02*
X137607458Y-67122263D01*
X137132942Y-68167263D02*
X137607458Y-68167263D01*
D15*
%TO.C,U5*%
X154386100Y-71289900D02*
X158627900Y-71289900D01*
X158627900Y-66032100D02*
X154386100Y-66032100D01*
D13*
%TO.C,C15*%
X146959252Y-61573000D02*
X145536748Y-61573000D01*
X146959252Y-64293000D02*
X145536748Y-64293000D01*
%TO.C,J1*%
X164319000Y-117749500D02*
X164319000Y-133269500D01*
X164319000Y-117749500D02*
X182279000Y-117749500D01*
X164319000Y-133269500D02*
X182279000Y-133269500D01*
X167699000Y-133954500D02*
X168699000Y-133954500D01*
X168199000Y-133454500D02*
X167699000Y-133954500D01*
X168699000Y-133954500D02*
X168199000Y-133454500D01*
X182279000Y-133269500D02*
X182279000Y-117749500D01*
D15*
%TO.C,U6*%
X126308750Y-79922400D02*
X126308750Y-81929000D01*
X127596489Y-81929000D02*
X128323011Y-81929000D01*
X129610750Y-81929000D02*
X129610750Y-79922400D01*
D13*
%TO.C,C13*%
X146862252Y-66021000D02*
X146339748Y-66021000D01*
X146862252Y-67491000D02*
X146339748Y-67491000D01*
%TO.C,C14*%
X150416748Y-66021000D02*
X150939252Y-66021000D01*
X150416748Y-67491000D02*
X150939252Y-67491000D01*
%TO.C,C1*%
X158190001Y-118111364D02*
X158190001Y-118327036D01*
X158910001Y-118111364D02*
X158910001Y-118327036D01*
%TO.C,C11*%
X161204000Y-71682420D02*
X161204000Y-71963580D01*
X162224000Y-71682420D02*
X162224000Y-71963580D01*
%TO.C,R21*%
X128978742Y-69777501D02*
X129453258Y-69777501D01*
X128978742Y-70822501D02*
X129453258Y-70822501D01*
%TO.C,C18*%
X156202800Y-104751280D02*
X156202800Y-104470120D01*
X157222800Y-104751280D02*
X157222800Y-104470120D01*
%TO.C,C21*%
X147121800Y-128293420D02*
X147121800Y-128574580D01*
X148141800Y-128293420D02*
X148141800Y-128574580D01*
%TO.C,C7*%
X137914800Y-112064580D02*
X137914800Y-111783420D01*
X138934800Y-112064580D02*
X138934800Y-111783420D01*
%TO.C,D2*%
X156591000Y-73617000D02*
X156591000Y-76302000D01*
X156591000Y-76302000D02*
X158511000Y-76302000D01*
X158511000Y-76302000D02*
X158511000Y-73617000D01*
%TO.C,R19*%
X137119742Y-69662263D02*
X137594258Y-69662263D01*
X137119742Y-70707263D02*
X137594258Y-70707263D01*
%TO.C,U1*%
D16*
X109607744Y-124599512D02*
G75*
G02*
X109103744Y-124599512I-252000J0D01*
G01*
X109103744Y-124599512D02*
G75*
G02*
X109607744Y-124599512I252000J0D01*
G01*
X108884744Y-125816512D02*
G75*
G02*
X108380744Y-125816512I-252000J0D01*
G01*
X108380744Y-125816512D02*
G75*
G02*
X108884744Y-125816512I252000J0D01*
G01*
D17*
X129183756Y-123685500D02*
G75*
G02*
X127278756Y-125590500I-1905001J1D01*
G01*
X127278756Y-107810500D02*
G75*
G02*
X129183756Y-109715500I0J-1905000D01*
G01*
X110129756Y-125590500D02*
G75*
G02*
X108224756Y-123685500I1J1905001D01*
G01*
X108228756Y-109715500D02*
G75*
G02*
X110133756Y-107810500I1905000J0D01*
G01*
D18*
X106675472Y-121197784D02*
G75*
G02*
X106175744Y-120697784I403J500131D01*
G01*
X106175744Y-112702512D02*
G75*
G02*
X106675744Y-112202488I500012J12D01*
G01*
D17*
X129183756Y-123685500D02*
X129183756Y-109715500D01*
X127278756Y-125590500D02*
X110133756Y-125590500D01*
X127278756Y-107810500D02*
X110133756Y-107810500D01*
X108228756Y-109715500D02*
X108228756Y-123685500D01*
D18*
X108216756Y-121198500D02*
X106675472Y-121197784D01*
X106675744Y-112202512D02*
X108219756Y-112201500D01*
X106175744Y-120697784D02*
X106175744Y-112702512D01*
D13*
%TO.C,C16*%
X120707420Y-77947000D02*
X120988580Y-77947000D01*
X120707420Y-78967000D02*
X120988580Y-78967000D01*
%TO.C,C10*%
X163176000Y-70476748D02*
X163176000Y-71899252D01*
X165896000Y-70476748D02*
X165896000Y-71899252D01*
D18*
%TO.C,FL1*%
X143651201Y-116919200D02*
X143651201Y-116019200D01*
X147151201Y-114869200D02*
X144651201Y-114869200D01*
X147151201Y-118069200D02*
X144651201Y-118069200D01*
X148151201Y-116919200D02*
X148151201Y-116019200D01*
D19*
X149701201Y-117869200D02*
G75*
G02*
X149501201Y-117869200I-100000J0D01*
G01*
X149501201Y-117869200D02*
G75*
G02*
X149701201Y-117869200I100000J0D01*
G01*
D13*
%TO.C,C20*%
X157535800Y-129082580D02*
X157535800Y-128801420D01*
X158555800Y-129082580D02*
X158555800Y-128801420D01*
%TO.C,R2*%
X150027501Y-114904458D02*
X150027501Y-114429942D01*
X151072501Y-114904458D02*
X151072501Y-114429942D01*
D19*
%TO.C,U2*%
X135155802Y-113996000D02*
X139155802Y-113996000D01*
X137355800Y-118996000D02*
X139155802Y-118996000D01*
D13*
%TO.C,C6*%
X132834800Y-116355420D02*
X132834800Y-116636580D01*
X133854800Y-116355420D02*
X133854800Y-116636580D01*
%TO.C,R5*%
X140442300Y-112098258D02*
X140442300Y-111623742D01*
X141487300Y-112098258D02*
X141487300Y-111623742D01*
%TO.C,C17*%
X120707420Y-79949000D02*
X120988580Y-79949000D01*
X120707420Y-80969000D02*
X120988580Y-80969000D01*
%TO.C,C4*%
X140199800Y-121060748D02*
X140199800Y-121583252D01*
X141669800Y-121060748D02*
X141669800Y-121583252D01*
%TO.C,R15*%
X150930258Y-129213500D02*
X150455742Y-129213500D01*
X150930258Y-130258500D02*
X150455742Y-130258500D01*
%TO.C,C11*%
X163176000Y-66057252D02*
X163176000Y-64634748D01*
X165896000Y-66057252D02*
X165896000Y-64634748D01*
%TO.C,J3*%
X152220001Y-113864200D02*
X153550001Y-113864200D01*
X152220001Y-115194200D02*
X152220001Y-113864200D01*
X152220001Y-116464200D02*
X152220001Y-119064200D01*
X152220001Y-116464200D02*
X154880001Y-116464200D01*
X152220001Y-119064200D02*
X154880001Y-119064200D01*
X154880001Y-116464200D02*
X154880001Y-119064200D01*
%TO.C,R13*%
X149840300Y-106606742D02*
X149840300Y-107081258D01*
X150885300Y-106606742D02*
X150885300Y-107081258D01*
%TO.C,R6*%
X161588000Y-65626641D02*
X161588000Y-65319359D01*
X162348000Y-65626641D02*
X162348000Y-65319359D01*
%TO.C,C9*%
X135120800Y-112064580D02*
X135120800Y-111783420D01*
X136140800Y-112064580D02*
X136140800Y-111783420D01*
%TO.C,C5*%
X137914800Y-121181420D02*
X137914800Y-121462580D01*
X138934800Y-121181420D02*
X138934800Y-121462580D01*
%TO.C,C19*%
X147185800Y-104671420D02*
X147185800Y-104952580D01*
X148205800Y-104671420D02*
X148205800Y-104952580D01*
%TO.C,C12*%
X150565000Y-69796748D02*
X150565000Y-70319252D01*
X152035000Y-69796748D02*
X152035000Y-70319252D01*
%TO.C,R9*%
X147110000Y-69890379D02*
X147110000Y-70225621D01*
X147870000Y-69890379D02*
X147870000Y-70225621D01*
%TO.C,J6*%
X110657000Y-67576000D02*
X110657000Y-65176000D01*
X113157000Y-62676000D02*
X115557000Y-62676000D01*
X115557000Y-70076000D02*
X113157000Y-70076000D01*
X118057000Y-65176000D02*
X118057000Y-67576000D01*
%TO.C,C2*%
X158190001Y-114611364D02*
X158190001Y-114827036D01*
X158910001Y-114611364D02*
X158910001Y-114827036D01*
%TO.C,C3*%
X155927000Y-116789252D02*
X155927000Y-116266748D01*
X157397000Y-116789252D02*
X157397000Y-116266748D01*
%TO.C,R16*%
X150442542Y-127149500D02*
X150917058Y-127149500D01*
X150442542Y-128194500D02*
X150917058Y-128194500D01*
%TO.C,R12*%
X149789500Y-103430258D02*
X149789500Y-102955742D01*
X150834500Y-103430258D02*
X150834500Y-102955742D01*
%TO.C,J4*%
X169204000Y-68211000D02*
X169204000Y-65811000D01*
X171704000Y-63311000D02*
X174104000Y-63311000D01*
X174104000Y-70711000D02*
X171704000Y-70711000D01*
X176604000Y-65811000D02*
X176604000Y-68211000D01*
%TO.C,R1*%
X150027501Y-118714458D02*
X150027501Y-118239942D01*
X151072501Y-118714458D02*
X151072501Y-118239942D01*
%TO.C,C8*%
X135374800Y-121168420D02*
X135374800Y-121449580D01*
X136394800Y-121168420D02*
X136394800Y-121449580D01*
D15*
%TO.C,U3*%
X114663100Y-95217503D02*
X114663100Y-98722497D01*
X119920900Y-98722497D02*
X119920900Y-95217503D01*
D20*
G36*
X119070000Y-93267201D02*
G01*
X118689000Y-93267201D01*
X118689000Y-93013201D01*
X119070000Y-93013201D01*
X119070000Y-93267201D01*
G37*
D13*
%TO.C,R20*%
X125659500Y-69647258D02*
X125659500Y-69172742D01*
X126704500Y-69647258D02*
X126704500Y-69172742D01*
%TO.C,C23*%
X141381420Y-63667663D02*
X141662580Y-63667663D01*
X141381420Y-64687663D02*
X141662580Y-64687663D01*
%TO.C,R17*%
X137720658Y-63655163D02*
X137246142Y-63655163D01*
X137720658Y-64700163D02*
X137246142Y-64700163D01*
%TO.C,C24*%
X129356580Y-64964001D02*
X129075420Y-64964001D01*
X129356580Y-65984001D02*
X129075420Y-65984001D01*
D10*
%TO.C,U9*%
X128534967Y-66458002D02*
X130534969Y-66458002D01*
X128534967Y-68808000D02*
X130534969Y-68808000D01*
D14*
X127653902Y-66983000D02*
G75*
G02*
X127403900Y-66983000I-125001J0D01*
G01*
X127403900Y-66983000D02*
G75*
G02*
X127653902Y-66983000I125001J0D01*
G01*
%TD*%
M02*
