%TF.GenerationSoftware,KiCad,Pcbnew,8.0.7*%
%TF.CreationDate,2025-03-13T19:28:36-05:00*%
%TF.ProjectId,motorboard,6d6f746f-7262-46f6-9172-642e6b696361,rev?*%
%TF.SameCoordinates,Original*%
%TF.FileFunction,Drillmap*%
%TF.FilePolarity,Positive*%
%FSLAX45Y45*%
G04 Gerber Fmt 4.5, Leading zero omitted, Abs format (unit mm)*
G04 Created by KiCad (PCBNEW 8.0.7) date 2025-03-13 19:28:36*
%MOMM*%
%LPD*%
G01*
G04 APERTURE LIST*
%ADD10C,0.050000*%
%ADD11C,0.200000*%
%ADD12C,0.100000*%
%ADD13C,0.160000*%
%ADD14C,0.185000*%
G04 APERTURE END LIST*
D10*
X12106800Y-9531900D02*
G75*
G02*
X12136800Y-9561900I0J-30000D01*
G01*
X15445200Y-9828600D02*
X15445200Y-8898400D01*
X17977600Y-7039500D02*
X17977600Y-6201200D01*
X10776700Y-6201200D02*
G75*
G02*
X10976700Y-6001200I200000J0D01*
G01*
X10776700Y-7039500D02*
X10776700Y-6201200D01*
X10776700Y-13230800D02*
X10776700Y-7039500D01*
X12136800Y-9561900D02*
X12136800Y-9832100D01*
X11180400Y-9531900D02*
X12106800Y-9531900D01*
X12508400Y-9853700D02*
G75*
G02*
X12458400Y-9803700I0J50000D01*
G01*
X10976700Y-13430800D02*
G75*
G02*
X10776700Y-13230800I0J200000D01*
G01*
X12508400Y-8823500D02*
X14294800Y-8823500D01*
X14294800Y-9853700D02*
X12508400Y-9853700D01*
X11180400Y-9862100D02*
G75*
G02*
X11150400Y-9832100I0J30000D01*
G01*
X17777600Y-6001200D02*
G75*
G02*
X17977600Y-6201200I0J-200000D01*
G01*
X17331600Y-9828600D02*
G75*
G02*
X17281600Y-9878600I-50000J0D01*
G01*
X14344800Y-8873500D02*
X14344800Y-9803700D01*
X14294800Y-8823500D02*
G75*
G02*
X14344800Y-8873500I0J-50000D01*
G01*
X15495200Y-9878600D02*
G75*
G02*
X15445200Y-9828600I0J50000D01*
G01*
X15445200Y-8898400D02*
G75*
G02*
X15495200Y-8848400I50000J0D01*
G01*
X17331600Y-8898400D02*
X17331600Y-9828600D01*
X17777600Y-13430800D02*
X10976700Y-13430800D01*
X12458400Y-9803700D02*
X12458400Y-8873500D01*
X12106800Y-9862100D02*
X11180400Y-9862100D01*
X10976700Y-6001200D02*
X17777600Y-6001200D01*
X15495200Y-8848400D02*
X17281600Y-8848400D01*
X17977600Y-13230800D02*
G75*
G02*
X17777600Y-13430800I-200000J0D01*
G01*
X17281600Y-8848400D02*
G75*
G02*
X17331600Y-8898400I0J-50000D01*
G01*
X11150400Y-9561900D02*
G75*
G02*
X11180400Y-9531900I30000J0D01*
G01*
X12458400Y-8873500D02*
G75*
G02*
X12508400Y-8823500I50000J0D01*
G01*
X17977600Y-7039500D02*
X17977600Y-13230800D01*
X12136800Y-9832100D02*
G75*
G02*
X12106800Y-9862100I-30000J0D01*
G01*
X17281600Y-9878600D02*
X15495200Y-9878600D01*
X14344800Y-9803700D02*
G75*
G02*
X14294800Y-9853700I-50000J0D01*
G01*
X11150400Y-9832100D02*
X11150400Y-9561900D01*
D11*
D12*
X11879300Y-10101100D02*
X11909300Y-10131100D01*
X11909300Y-10101100D02*
X11879300Y-10131100D01*
X13568400Y-12310900D02*
X13598400Y-12340900D01*
X13598400Y-12310900D02*
X13568400Y-12340900D01*
X13835100Y-12298200D02*
X13865100Y-12328200D01*
X13865100Y-12298200D02*
X13835100Y-12328200D01*
X14076400Y-12323600D02*
X14106400Y-12353600D01*
X14106400Y-12323600D02*
X14076400Y-12353600D01*
X14800300Y-13034800D02*
X14830300Y-13064800D01*
X14830300Y-13034800D02*
X14800300Y-13064800D01*
X15232100Y-6811700D02*
X15262100Y-6841700D01*
X15262100Y-6811700D02*
X15232100Y-6841700D01*
X15282900Y-12996700D02*
X15312900Y-13026700D01*
X15312900Y-12996700D02*
X15282900Y-13026700D01*
X15448000Y-13009400D02*
X15478000Y-13039400D01*
X15478000Y-13009400D02*
X15448000Y-13039400D01*
X15740100Y-7256200D02*
X15770100Y-7286200D01*
X15770100Y-7256200D02*
X15740100Y-7286200D01*
X15740100Y-8081700D02*
X15770100Y-8111700D01*
X15770100Y-8081700D02*
X15740100Y-8111700D01*
X15816300Y-12666500D02*
X15846300Y-12696500D01*
X15846300Y-12666500D02*
X15816300Y-12696500D01*
X15892500Y-11637800D02*
X15922500Y-11667800D01*
X15922500Y-11637800D02*
X15892500Y-11667800D01*
X11213100Y-11157500D02*
G75*
G02*
X11153100Y-11157500I-30000J0D01*
G01*
X11153100Y-11157500D02*
G75*
G02*
X11213100Y-11157500I30000J0D01*
G01*
X11251200Y-10636800D02*
G75*
G02*
X11191200Y-10636800I-30000J0D01*
G01*
X11191200Y-10636800D02*
G75*
G02*
X11251200Y-10636800I30000J0D01*
G01*
X11378200Y-8541200D02*
G75*
G02*
X11318200Y-8541200I-30000J0D01*
G01*
X11318200Y-8541200D02*
G75*
G02*
X11378200Y-8541200I30000J0D01*
G01*
X11403600Y-10344700D02*
G75*
G02*
X11343600Y-10344700I-30000J0D01*
G01*
X11343600Y-10344700D02*
G75*
G02*
X11403600Y-10344700I30000J0D01*
G01*
X11492500Y-10624100D02*
G75*
G02*
X11432500Y-10624100I-30000J0D01*
G01*
X11432500Y-10624100D02*
G75*
G02*
X11492500Y-10624100I30000J0D01*
G01*
X11543300Y-10344700D02*
G75*
G02*
X11483300Y-10344700I-30000J0D01*
G01*
X11483300Y-10344700D02*
G75*
G02*
X11543300Y-10344700I30000J0D01*
G01*
X11556000Y-8439600D02*
G75*
G02*
X11496000Y-8439600I-30000J0D01*
G01*
X11496000Y-8439600D02*
G75*
G02*
X11556000Y-8439600I30000J0D01*
G01*
X11670300Y-10535200D02*
G75*
G02*
X11610300Y-10535200I-30000J0D01*
G01*
X11610300Y-10535200D02*
G75*
G02*
X11670300Y-10535200I30000J0D01*
G01*
X11759930Y-8033200D02*
G75*
G02*
X11699930Y-8033200I-30000J0D01*
G01*
X11699930Y-8033200D02*
G75*
G02*
X11759930Y-8033200I30000J0D01*
G01*
X11817926Y-10535200D02*
G75*
G02*
X11757926Y-10535200I-30000J0D01*
G01*
X11757926Y-10535200D02*
G75*
G02*
X11817926Y-10535200I30000J0D01*
G01*
X11874230Y-8033200D02*
G75*
G02*
X11814230Y-8033200I-30000J0D01*
G01*
X11814230Y-8033200D02*
G75*
G02*
X11874230Y-8033200I30000J0D01*
G01*
X11911600Y-11094000D02*
G75*
G02*
X11851600Y-11094000I-30000J0D01*
G01*
X11851600Y-11094000D02*
G75*
G02*
X11911600Y-11094000I30000J0D01*
G01*
X11996026Y-10535200D02*
G75*
G02*
X11936026Y-10535200I-30000J0D01*
G01*
X11936026Y-10535200D02*
G75*
G02*
X11996026Y-10535200I30000J0D01*
G01*
X12000500Y-8274500D02*
G75*
G02*
X11940500Y-8274500I-30000J0D01*
G01*
X11940500Y-8274500D02*
G75*
G02*
X12000500Y-8274500I30000J0D01*
G01*
X12089400Y-8376100D02*
G75*
G02*
X12029400Y-8376100I-30000J0D01*
G01*
X12029400Y-8376100D02*
G75*
G02*
X12089400Y-8376100I30000J0D01*
G01*
X12330700Y-7842700D02*
G75*
G02*
X12270700Y-7842700I-30000J0D01*
G01*
X12270700Y-7842700D02*
G75*
G02*
X12330700Y-7842700I30000J0D01*
G01*
X12330700Y-8045900D02*
G75*
G02*
X12270700Y-8045900I-30000J0D01*
G01*
X12270700Y-8045900D02*
G75*
G02*
X12330700Y-8045900I30000J0D01*
G01*
X12495800Y-6864800D02*
G75*
G02*
X12435800Y-6864800I-30000J0D01*
G01*
X12435800Y-6864800D02*
G75*
G02*
X12495800Y-6864800I30000J0D01*
G01*
X12495800Y-7017200D02*
G75*
G02*
X12435800Y-7017200I-30000J0D01*
G01*
X12435800Y-7017200D02*
G75*
G02*
X12495800Y-7017200I30000J0D01*
G01*
X12508500Y-6725100D02*
G75*
G02*
X12448500Y-6725100I-30000J0D01*
G01*
X12448500Y-6725100D02*
G75*
G02*
X12508500Y-6725100I30000J0D01*
G01*
X12635500Y-6420300D02*
G75*
G02*
X12575500Y-6420300I-30000J0D01*
G01*
X12575500Y-6420300D02*
G75*
G02*
X12635500Y-6420300I30000J0D01*
G01*
X12682875Y-8095745D02*
G75*
G02*
X12622875Y-8095745I-30000J0D01*
G01*
X12622875Y-8095745D02*
G75*
G02*
X12682875Y-8095745I30000J0D01*
G01*
X12864100Y-6420300D02*
G75*
G02*
X12804100Y-6420300I-30000J0D01*
G01*
X12804100Y-6420300D02*
G75*
G02*
X12864100Y-6420300I30000J0D01*
G01*
X12927600Y-8287200D02*
G75*
G02*
X12867600Y-8287200I-30000J0D01*
G01*
X12867600Y-8287200D02*
G75*
G02*
X12927600Y-8287200I30000J0D01*
G01*
X13167500Y-7028500D02*
G75*
G02*
X13107500Y-7028500I-30000J0D01*
G01*
X13107500Y-7028500D02*
G75*
G02*
X13167500Y-7028500I30000J0D01*
G01*
X13269100Y-6761800D02*
G75*
G02*
X13209100Y-6761800I-30000J0D01*
G01*
X13209100Y-6761800D02*
G75*
G02*
X13269100Y-6761800I30000J0D01*
G01*
X13410200Y-11449600D02*
G75*
G02*
X13350200Y-11449600I-30000J0D01*
G01*
X13350200Y-11449600D02*
G75*
G02*
X13410200Y-11449600I30000J0D01*
G01*
X13435600Y-6610800D02*
G75*
G02*
X13375600Y-6610800I-30000J0D01*
G01*
X13375600Y-6610800D02*
G75*
G02*
X13435600Y-6610800I30000J0D01*
G01*
X13435600Y-6763200D02*
G75*
G02*
X13375600Y-6763200I-30000J0D01*
G01*
X13375600Y-6763200D02*
G75*
G02*
X13435600Y-6763200I30000J0D01*
G01*
X13435600Y-11119400D02*
G75*
G02*
X13375600Y-11119400I-30000J0D01*
G01*
X13375600Y-11119400D02*
G75*
G02*
X13435600Y-11119400I30000J0D01*
G01*
X13727700Y-11589300D02*
G75*
G02*
X13667700Y-11589300I-30000J0D01*
G01*
X13667700Y-11589300D02*
G75*
G02*
X13727700Y-11589300I30000J0D01*
G01*
X13740400Y-11119400D02*
G75*
G02*
X13680400Y-11119400I-30000J0D01*
G01*
X13680400Y-11119400D02*
G75*
G02*
X13740400Y-11119400I30000J0D01*
G01*
X13765800Y-11729000D02*
G75*
G02*
X13705800Y-11729000I-30000J0D01*
G01*
X13705800Y-11729000D02*
G75*
G02*
X13765800Y-11729000I30000J0D01*
G01*
X13943600Y-11919500D02*
G75*
G02*
X13883600Y-11919500I-30000J0D01*
G01*
X13883600Y-11919500D02*
G75*
G02*
X13943600Y-11919500I30000J0D01*
G01*
X13954900Y-7104700D02*
G75*
G02*
X13894900Y-7104700I-30000J0D01*
G01*
X13894900Y-7104700D02*
G75*
G02*
X13954900Y-7104700I30000J0D01*
G01*
X14248400Y-6255200D02*
G75*
G02*
X14188400Y-6255200I-30000J0D01*
G01*
X14188400Y-6255200D02*
G75*
G02*
X14248400Y-6255200I30000J0D01*
G01*
X14259700Y-6570166D02*
G75*
G02*
X14199700Y-6570166I-30000J0D01*
G01*
X14199700Y-6570166D02*
G75*
G02*
X14259700Y-6570166I30000J0D01*
G01*
X14412100Y-6977700D02*
G75*
G02*
X14352100Y-6977700I-30000J0D01*
G01*
X14352100Y-6977700D02*
G75*
G02*
X14412100Y-6977700I30000J0D01*
G01*
X14477000Y-6534600D02*
G75*
G02*
X14417000Y-6534600I-30000J0D01*
G01*
X14417000Y-6534600D02*
G75*
G02*
X14477000Y-6534600I30000J0D01*
G01*
X14578600Y-10154200D02*
G75*
G02*
X14518600Y-10154200I-30000J0D01*
G01*
X14518600Y-10154200D02*
G75*
G02*
X14578600Y-10154200I30000J0D01*
G01*
X14578600Y-10281200D02*
G75*
G02*
X14518600Y-10281200I-30000J0D01*
G01*
X14518600Y-10281200D02*
G75*
G02*
X14578600Y-10281200I30000J0D01*
G01*
X14578600Y-10408200D02*
G75*
G02*
X14518600Y-10408200I-30000J0D01*
G01*
X14518600Y-10408200D02*
G75*
G02*
X14578600Y-10408200I30000J0D01*
G01*
X14629400Y-12770400D02*
G75*
G02*
X14569400Y-12770400I-30000J0D01*
G01*
X14569400Y-12770400D02*
G75*
G02*
X14629400Y-12770400I30000J0D01*
G01*
X14761480Y-10715070D02*
G75*
G02*
X14701480Y-10715070I-30000J0D01*
G01*
X14701480Y-10715070D02*
G75*
G02*
X14761480Y-10715070I30000J0D01*
G01*
X14794500Y-10293900D02*
G75*
G02*
X14734500Y-10293900I-30000J0D01*
G01*
X14734500Y-10293900D02*
G75*
G02*
X14794500Y-10293900I30000J0D01*
G01*
X14888480Y-10715070D02*
G75*
G02*
X14828480Y-10715070I-30000J0D01*
G01*
X14828480Y-10715070D02*
G75*
G02*
X14888480Y-10715070I30000J0D01*
G01*
X15231380Y-10232470D02*
G75*
G02*
X15171380Y-10232470I-30000J0D01*
G01*
X15171380Y-10232470D02*
G75*
G02*
X15231380Y-10232470I30000J0D01*
G01*
X15244080Y-10664270D02*
G75*
G02*
X15184080Y-10664270I-30000J0D01*
G01*
X15184080Y-10664270D02*
G75*
G02*
X15244080Y-10664270I30000J0D01*
G01*
X15371080Y-10664270D02*
G75*
G02*
X15311080Y-10664270I-30000J0D01*
G01*
X15311080Y-10664270D02*
G75*
G02*
X15371080Y-10664270I30000J0D01*
G01*
X15555100Y-6317300D02*
G75*
G02*
X15495100Y-6317300I-30000J0D01*
G01*
X15495100Y-6317300D02*
G75*
G02*
X15555100Y-6317300I30000J0D01*
G01*
X15561580Y-10295970D02*
G75*
G02*
X15501580Y-10295970I-30000J0D01*
G01*
X15501580Y-10295970D02*
G75*
G02*
X15561580Y-10295970I30000J0D01*
G01*
X15574280Y-10588070D02*
G75*
G02*
X15514280Y-10588070I-30000J0D01*
G01*
X15514280Y-10588070D02*
G75*
G02*
X15574280Y-10588070I30000J0D01*
G01*
X15701280Y-12785170D02*
G75*
G02*
X15641280Y-12785170I-30000J0D01*
G01*
X15641280Y-12785170D02*
G75*
G02*
X15701280Y-12785170I30000J0D01*
G01*
X15701280Y-12988370D02*
G75*
G02*
X15641280Y-12988370I-30000J0D01*
G01*
X15641280Y-12988370D02*
G75*
G02*
X15701280Y-12988370I30000J0D01*
G01*
X15777480Y-10283270D02*
G75*
G02*
X15717480Y-10283270I-30000J0D01*
G01*
X15717480Y-10283270D02*
G75*
G02*
X15777480Y-10283270I30000J0D01*
G01*
X15961500Y-7206300D02*
G75*
G02*
X15901500Y-7206300I-30000J0D01*
G01*
X15901500Y-7206300D02*
G75*
G02*
X15961500Y-7206300I30000J0D01*
G01*
X15980680Y-12975670D02*
G75*
G02*
X15920680Y-12975670I-30000J0D01*
G01*
X15920680Y-12975670D02*
G75*
G02*
X15980680Y-12975670I30000J0D01*
G01*
X16107680Y-11624200D02*
G75*
G02*
X16047680Y-11624200I-30000J0D01*
G01*
X16047680Y-11624200D02*
G75*
G02*
X16107680Y-11624200I30000J0D01*
G01*
X16215500Y-6342700D02*
G75*
G02*
X16155500Y-6342700I-30000J0D01*
G01*
X16155500Y-6342700D02*
G75*
G02*
X16215500Y-6342700I30000J0D01*
G01*
X16547100Y-7474400D02*
G75*
G02*
X16487100Y-7474400I-30000J0D01*
G01*
X16487100Y-7474400D02*
G75*
G02*
X16547100Y-7474400I30000J0D01*
G01*
X17072880Y-11624200D02*
G75*
G02*
X17012880Y-11624200I-30000J0D01*
G01*
X17012880Y-11624200D02*
G75*
G02*
X17072880Y-11624200I30000J0D01*
G01*
X16558280Y-10211050D02*
X16558280Y-10287050D01*
X16520280Y-10249050D02*
X16596280Y-10249050D01*
X16558280Y-10465050D02*
X16558280Y-10541050D01*
X16520280Y-10503050D02*
X16596280Y-10503050D01*
X16558280Y-10719050D02*
X16558280Y-10795050D01*
X16520280Y-10757050D02*
X16596280Y-10757050D01*
X16558280Y-10973050D02*
X16558280Y-11049050D01*
X16520280Y-11011050D02*
X16596280Y-11011050D01*
X16565900Y-12068450D02*
X16565900Y-12144450D01*
X16527900Y-12106450D02*
X16603900Y-12106450D01*
X16565900Y-12322450D02*
X16565900Y-12398450D01*
X16527900Y-12360450D02*
X16603900Y-12360450D01*
X16565900Y-12576450D02*
X16565900Y-12652450D01*
X16527900Y-12614450D02*
X16603900Y-12614450D01*
X16565900Y-12830450D02*
X16565900Y-12906450D01*
X16527900Y-12868450D02*
X16603900Y-12868450D01*
X16812280Y-10338050D02*
X16812280Y-10414050D01*
X16774280Y-10376050D02*
X16850280Y-10376050D01*
X16812280Y-10592050D02*
X16812280Y-10668050D01*
X16774280Y-10630050D02*
X16850280Y-10630050D01*
X16812280Y-10846050D02*
X16812280Y-10922050D01*
X16774280Y-10884050D02*
X16850280Y-10884050D01*
X16812280Y-11100050D02*
X16812280Y-11176050D01*
X16774280Y-11138050D02*
X16850280Y-11138050D01*
X16819900Y-12195450D02*
X16819900Y-12271450D01*
X16781900Y-12233450D02*
X16857900Y-12233450D01*
X16819900Y-12449450D02*
X16819900Y-12525450D01*
X16781900Y-12487450D02*
X16857900Y-12487450D01*
X16819900Y-12703450D02*
X16819900Y-12779450D01*
X16781900Y-12741450D02*
X16857900Y-12741450D01*
X16819900Y-12957450D02*
X16819900Y-13033450D01*
X16781900Y-12995450D02*
X16857900Y-12995450D01*
X15390356Y-11554776D02*
X15390356Y-11484064D01*
X15319644Y-11484064D01*
X15319644Y-11554776D01*
X15390356Y-11554776D01*
X15390356Y-11808776D02*
X15390356Y-11738064D01*
X15319644Y-11738064D01*
X15319644Y-11808776D01*
X15390356Y-11808776D01*
D13*
X13836000Y-7680000D02*
X13916000Y-7600000D01*
X13836000Y-7520000D01*
X13756000Y-7600000D01*
X13836000Y-7680000D01*
X15360000Y-7680000D02*
X15440000Y-7600000D01*
X15360000Y-7520000D01*
X15280000Y-7600000D01*
X15360000Y-7680000D01*
D14*
X11049700Y-6251600D02*
X11234700Y-6436600D01*
X11234700Y-6251600D02*
X11049700Y-6436600D01*
X11234700Y-6344100D02*
G75*
G02*
X11049700Y-6344100I-92500J0D01*
G01*
X11049700Y-6344100D02*
G75*
G02*
X11234700Y-6344100I92500J0D01*
G01*
X11049700Y-6838600D02*
X11234700Y-7023600D01*
X11234700Y-6838600D02*
X11049700Y-7023600D01*
X11234700Y-6931100D02*
G75*
G02*
X11049700Y-6931100I-92500J0D01*
G01*
X11049700Y-6931100D02*
G75*
G02*
X11234700Y-6931100I92500J0D01*
G01*
X11636700Y-6251600D02*
X11821700Y-6436600D01*
X11821700Y-6251600D02*
X11636700Y-6436600D01*
X11821700Y-6344100D02*
G75*
G02*
X11636700Y-6344100I-92500J0D01*
G01*
X11636700Y-6344100D02*
G75*
G02*
X11821700Y-6344100I92500J0D01*
G01*
X11636700Y-6838600D02*
X11821700Y-7023600D01*
X11821700Y-6838600D02*
X11636700Y-7023600D01*
X11821700Y-6931100D02*
G75*
G02*
X11636700Y-6931100I-92500J0D01*
G01*
X11636700Y-6931100D02*
G75*
G02*
X11821700Y-6931100I92500J0D01*
G01*
X16891700Y-7645800D02*
X17076700Y-7830800D01*
X17076700Y-7645800D02*
X16891700Y-7830800D01*
X17076700Y-7738300D02*
G75*
G02*
X16891700Y-7738300I-92500J0D01*
G01*
X16891700Y-7738300D02*
G75*
G02*
X17076700Y-7738300I92500J0D01*
G01*
X16891700Y-8232800D02*
X17076700Y-8417800D01*
X17076700Y-8232800D02*
X16891700Y-8417800D01*
X17076700Y-8325300D02*
G75*
G02*
X16891700Y-8325300I-92500J0D01*
G01*
X16891700Y-8325300D02*
G75*
G02*
X17076700Y-8325300I92500J0D01*
G01*
X16904400Y-6315100D02*
X17089400Y-6500100D01*
X17089400Y-6315100D02*
X16904400Y-6500100D01*
X17089400Y-6407600D02*
G75*
G02*
X16904400Y-6407600I-92500J0D01*
G01*
X16904400Y-6407600D02*
G75*
G02*
X17089400Y-6407600I92500J0D01*
G01*
X16904400Y-6902100D02*
X17089400Y-7087100D01*
X17089400Y-6902100D02*
X16904400Y-7087100D01*
X17089400Y-6994600D02*
G75*
G02*
X16904400Y-6994600I-92500J0D01*
G01*
X16904400Y-6994600D02*
G75*
G02*
X17089400Y-6994600I92500J0D01*
G01*
X17478700Y-7645800D02*
X17663700Y-7830800D01*
X17663700Y-7645800D02*
X17478700Y-7830800D01*
X17663700Y-7738300D02*
G75*
G02*
X17478700Y-7738300I-92500J0D01*
G01*
X17478700Y-7738300D02*
G75*
G02*
X17663700Y-7738300I92500J0D01*
G01*
X17478700Y-8232800D02*
X17663700Y-8417800D01*
X17663700Y-8232800D02*
X17478700Y-8417800D01*
X17663700Y-8325300D02*
G75*
G02*
X17478700Y-8325300I-92500J0D01*
G01*
X17478700Y-8325300D02*
G75*
G02*
X17663700Y-8325300I92500J0D01*
G01*
X17491400Y-6315100D02*
X17676400Y-6500100D01*
X17676400Y-6315100D02*
X17491400Y-6500100D01*
X17676400Y-6407600D02*
G75*
G02*
X17491400Y-6407600I-92500J0D01*
G01*
X17491400Y-6407600D02*
G75*
G02*
X17676400Y-6407600I92500J0D01*
G01*
X17491400Y-6902100D02*
X17676400Y-7087100D01*
X17676400Y-6902100D02*
X17491400Y-7087100D01*
X17676400Y-6994600D02*
G75*
G02*
X17491400Y-6994600I-92500J0D01*
G01*
X17491400Y-6994600D02*
G75*
G02*
X17676400Y-6994600I92500J0D01*
G01*
D11*
X11034977Y-13744784D02*
X11034977Y-13544784D01*
X11034977Y-13544784D02*
X11082596Y-13544784D01*
X11082596Y-13544784D02*
X11111167Y-13554308D01*
X11111167Y-13554308D02*
X11130215Y-13573355D01*
X11130215Y-13573355D02*
X11139739Y-13592403D01*
X11139739Y-13592403D02*
X11149263Y-13630498D01*
X11149263Y-13630498D02*
X11149263Y-13659069D01*
X11149263Y-13659069D02*
X11139739Y-13697165D01*
X11139739Y-13697165D02*
X11130215Y-13716212D01*
X11130215Y-13716212D02*
X11111167Y-13735260D01*
X11111167Y-13735260D02*
X11082596Y-13744784D01*
X11082596Y-13744784D02*
X11034977Y-13744784D01*
X11234977Y-13744784D02*
X11234977Y-13611450D01*
X11234977Y-13649546D02*
X11244501Y-13630498D01*
X11244501Y-13630498D02*
X11254024Y-13620974D01*
X11254024Y-13620974D02*
X11273072Y-13611450D01*
X11273072Y-13611450D02*
X11292120Y-13611450D01*
X11358786Y-13744784D02*
X11358786Y-13611450D01*
X11358786Y-13544784D02*
X11349262Y-13554308D01*
X11349262Y-13554308D02*
X11358786Y-13563831D01*
X11358786Y-13563831D02*
X11368310Y-13554308D01*
X11368310Y-13554308D02*
X11358786Y-13544784D01*
X11358786Y-13544784D02*
X11358786Y-13563831D01*
X11482596Y-13744784D02*
X11463548Y-13735260D01*
X11463548Y-13735260D02*
X11454024Y-13716212D01*
X11454024Y-13716212D02*
X11454024Y-13544784D01*
X11587358Y-13744784D02*
X11568310Y-13735260D01*
X11568310Y-13735260D02*
X11558786Y-13716212D01*
X11558786Y-13716212D02*
X11558786Y-13544784D01*
X11815929Y-13744784D02*
X11815929Y-13544784D01*
X11815929Y-13544784D02*
X11882596Y-13687641D01*
X11882596Y-13687641D02*
X11949262Y-13544784D01*
X11949262Y-13544784D02*
X11949262Y-13744784D01*
X12130215Y-13744784D02*
X12130215Y-13640022D01*
X12130215Y-13640022D02*
X12120691Y-13620974D01*
X12120691Y-13620974D02*
X12101643Y-13611450D01*
X12101643Y-13611450D02*
X12063548Y-13611450D01*
X12063548Y-13611450D02*
X12044501Y-13620974D01*
X12130215Y-13735260D02*
X12111167Y-13744784D01*
X12111167Y-13744784D02*
X12063548Y-13744784D01*
X12063548Y-13744784D02*
X12044501Y-13735260D01*
X12044501Y-13735260D02*
X12034977Y-13716212D01*
X12034977Y-13716212D02*
X12034977Y-13697165D01*
X12034977Y-13697165D02*
X12044501Y-13678117D01*
X12044501Y-13678117D02*
X12063548Y-13668593D01*
X12063548Y-13668593D02*
X12111167Y-13668593D01*
X12111167Y-13668593D02*
X12130215Y-13659069D01*
X12225453Y-13611450D02*
X12225453Y-13811450D01*
X12225453Y-13620974D02*
X12244501Y-13611450D01*
X12244501Y-13611450D02*
X12282596Y-13611450D01*
X12282596Y-13611450D02*
X12301643Y-13620974D01*
X12301643Y-13620974D02*
X12311167Y-13630498D01*
X12311167Y-13630498D02*
X12320691Y-13649546D01*
X12320691Y-13649546D02*
X12320691Y-13706688D01*
X12320691Y-13706688D02*
X12311167Y-13725736D01*
X12311167Y-13725736D02*
X12301643Y-13735260D01*
X12301643Y-13735260D02*
X12282596Y-13744784D01*
X12282596Y-13744784D02*
X12244501Y-13744784D01*
X12244501Y-13744784D02*
X12225453Y-13735260D01*
X12406405Y-13725736D02*
X12415929Y-13735260D01*
X12415929Y-13735260D02*
X12406405Y-13744784D01*
X12406405Y-13744784D02*
X12396882Y-13735260D01*
X12396882Y-13735260D02*
X12406405Y-13725736D01*
X12406405Y-13725736D02*
X12406405Y-13744784D01*
X12406405Y-13620974D02*
X12415929Y-13630498D01*
X12415929Y-13630498D02*
X12406405Y-13640022D01*
X12406405Y-13640022D02*
X12396882Y-13630498D01*
X12396882Y-13630498D02*
X12406405Y-13620974D01*
X12406405Y-13620974D02*
X12406405Y-13640022D01*
D12*
X10744200Y-14058300D02*
X10774200Y-14088300D01*
X10774200Y-14058300D02*
X10744200Y-14088300D01*
D11*
X11073072Y-13964784D02*
X11092120Y-13964784D01*
X11092120Y-13964784D02*
X11111167Y-13974308D01*
X11111167Y-13974308D02*
X11120691Y-13983831D01*
X11120691Y-13983831D02*
X11130215Y-14002879D01*
X11130215Y-14002879D02*
X11139739Y-14040974D01*
X11139739Y-14040974D02*
X11139739Y-14088593D01*
X11139739Y-14088593D02*
X11130215Y-14126688D01*
X11130215Y-14126688D02*
X11120691Y-14145736D01*
X11120691Y-14145736D02*
X11111167Y-14155260D01*
X11111167Y-14155260D02*
X11092120Y-14164784D01*
X11092120Y-14164784D02*
X11073072Y-14164784D01*
X11073072Y-14164784D02*
X11054024Y-14155260D01*
X11054024Y-14155260D02*
X11044501Y-14145736D01*
X11044501Y-14145736D02*
X11034977Y-14126688D01*
X11034977Y-14126688D02*
X11025453Y-14088593D01*
X11025453Y-14088593D02*
X11025453Y-14040974D01*
X11025453Y-14040974D02*
X11034977Y-14002879D01*
X11034977Y-14002879D02*
X11044501Y-13983831D01*
X11044501Y-13983831D02*
X11054024Y-13974308D01*
X11054024Y-13974308D02*
X11073072Y-13964784D01*
X11225453Y-14145736D02*
X11234977Y-14155260D01*
X11234977Y-14155260D02*
X11225453Y-14164784D01*
X11225453Y-14164784D02*
X11215929Y-14155260D01*
X11215929Y-14155260D02*
X11225453Y-14145736D01*
X11225453Y-14145736D02*
X11225453Y-14164784D01*
X11301643Y-13964784D02*
X11425453Y-13964784D01*
X11425453Y-13964784D02*
X11358786Y-14040974D01*
X11358786Y-14040974D02*
X11387358Y-14040974D01*
X11387358Y-14040974D02*
X11406405Y-14050498D01*
X11406405Y-14050498D02*
X11415929Y-14060022D01*
X11415929Y-14060022D02*
X11425453Y-14079069D01*
X11425453Y-14079069D02*
X11425453Y-14126688D01*
X11425453Y-14126688D02*
X11415929Y-14145736D01*
X11415929Y-14145736D02*
X11406405Y-14155260D01*
X11406405Y-14155260D02*
X11387358Y-14164784D01*
X11387358Y-14164784D02*
X11330215Y-14164784D01*
X11330215Y-14164784D02*
X11311167Y-14155260D01*
X11311167Y-14155260D02*
X11301643Y-14145736D01*
X11549262Y-13964784D02*
X11568310Y-13964784D01*
X11568310Y-13964784D02*
X11587358Y-13974308D01*
X11587358Y-13974308D02*
X11596882Y-13983831D01*
X11596882Y-13983831D02*
X11606405Y-14002879D01*
X11606405Y-14002879D02*
X11615929Y-14040974D01*
X11615929Y-14040974D02*
X11615929Y-14088593D01*
X11615929Y-14088593D02*
X11606405Y-14126688D01*
X11606405Y-14126688D02*
X11596882Y-14145736D01*
X11596882Y-14145736D02*
X11587358Y-14155260D01*
X11587358Y-14155260D02*
X11568310Y-14164784D01*
X11568310Y-14164784D02*
X11549262Y-14164784D01*
X11549262Y-14164784D02*
X11530215Y-14155260D01*
X11530215Y-14155260D02*
X11520691Y-14145736D01*
X11520691Y-14145736D02*
X11511167Y-14126688D01*
X11511167Y-14126688D02*
X11501643Y-14088593D01*
X11501643Y-14088593D02*
X11501643Y-14040974D01*
X11501643Y-14040974D02*
X11511167Y-14002879D01*
X11511167Y-14002879D02*
X11520691Y-13983831D01*
X11520691Y-13983831D02*
X11530215Y-13974308D01*
X11530215Y-13974308D02*
X11549262Y-13964784D01*
X11739739Y-13964784D02*
X11758786Y-13964784D01*
X11758786Y-13964784D02*
X11777834Y-13974308D01*
X11777834Y-13974308D02*
X11787358Y-13983831D01*
X11787358Y-13983831D02*
X11796882Y-14002879D01*
X11796882Y-14002879D02*
X11806405Y-14040974D01*
X11806405Y-14040974D02*
X11806405Y-14088593D01*
X11806405Y-14088593D02*
X11796882Y-14126688D01*
X11796882Y-14126688D02*
X11787358Y-14145736D01*
X11787358Y-14145736D02*
X11777834Y-14155260D01*
X11777834Y-14155260D02*
X11758786Y-14164784D01*
X11758786Y-14164784D02*
X11739739Y-14164784D01*
X11739739Y-14164784D02*
X11720691Y-14155260D01*
X11720691Y-14155260D02*
X11711167Y-14145736D01*
X11711167Y-14145736D02*
X11701643Y-14126688D01*
X11701643Y-14126688D02*
X11692120Y-14088593D01*
X11692120Y-14088593D02*
X11692120Y-14040974D01*
X11692120Y-14040974D02*
X11701643Y-14002879D01*
X11701643Y-14002879D02*
X11711167Y-13983831D01*
X11711167Y-13983831D02*
X11720691Y-13974308D01*
X11720691Y-13974308D02*
X11739739Y-13964784D01*
X11892120Y-14164784D02*
X11892120Y-14031450D01*
X11892120Y-14050498D02*
X11901643Y-14040974D01*
X11901643Y-14040974D02*
X11920691Y-14031450D01*
X11920691Y-14031450D02*
X11949263Y-14031450D01*
X11949263Y-14031450D02*
X11968310Y-14040974D01*
X11968310Y-14040974D02*
X11977834Y-14060022D01*
X11977834Y-14060022D02*
X11977834Y-14164784D01*
X11977834Y-14060022D02*
X11987358Y-14040974D01*
X11987358Y-14040974D02*
X12006405Y-14031450D01*
X12006405Y-14031450D02*
X12034977Y-14031450D01*
X12034977Y-14031450D02*
X12054024Y-14040974D01*
X12054024Y-14040974D02*
X12063548Y-14060022D01*
X12063548Y-14060022D02*
X12063548Y-14164784D01*
X12158786Y-14164784D02*
X12158786Y-14031450D01*
X12158786Y-14050498D02*
X12168310Y-14040974D01*
X12168310Y-14040974D02*
X12187358Y-14031450D01*
X12187358Y-14031450D02*
X12215929Y-14031450D01*
X12215929Y-14031450D02*
X12234977Y-14040974D01*
X12234977Y-14040974D02*
X12244501Y-14060022D01*
X12244501Y-14060022D02*
X12244501Y-14164784D01*
X12244501Y-14060022D02*
X12254024Y-14040974D01*
X12254024Y-14040974D02*
X12273072Y-14031450D01*
X12273072Y-14031450D02*
X12301643Y-14031450D01*
X12301643Y-14031450D02*
X12320691Y-14040974D01*
X12320691Y-14040974D02*
X12330215Y-14060022D01*
X12330215Y-14060022D02*
X12330215Y-14164784D01*
X12720691Y-13955260D02*
X12549263Y-14212403D01*
X12977834Y-13964784D02*
X12996882Y-13964784D01*
X12996882Y-13964784D02*
X13015929Y-13974308D01*
X13015929Y-13974308D02*
X13025453Y-13983831D01*
X13025453Y-13983831D02*
X13034977Y-14002879D01*
X13034977Y-14002879D02*
X13044501Y-14040974D01*
X13044501Y-14040974D02*
X13044501Y-14088593D01*
X13044501Y-14088593D02*
X13034977Y-14126688D01*
X13034977Y-14126688D02*
X13025453Y-14145736D01*
X13025453Y-14145736D02*
X13015929Y-14155260D01*
X13015929Y-14155260D02*
X12996882Y-14164784D01*
X12996882Y-14164784D02*
X12977834Y-14164784D01*
X12977834Y-14164784D02*
X12958786Y-14155260D01*
X12958786Y-14155260D02*
X12949263Y-14145736D01*
X12949263Y-14145736D02*
X12939739Y-14126688D01*
X12939739Y-14126688D02*
X12930215Y-14088593D01*
X12930215Y-14088593D02*
X12930215Y-14040974D01*
X12930215Y-14040974D02*
X12939739Y-14002879D01*
X12939739Y-14002879D02*
X12949263Y-13983831D01*
X12949263Y-13983831D02*
X12958786Y-13974308D01*
X12958786Y-13974308D02*
X12977834Y-13964784D01*
X13130215Y-14145736D02*
X13139739Y-14155260D01*
X13139739Y-14155260D02*
X13130215Y-14164784D01*
X13130215Y-14164784D02*
X13120691Y-14155260D01*
X13120691Y-14155260D02*
X13130215Y-14145736D01*
X13130215Y-14145736D02*
X13130215Y-14164784D01*
X13263548Y-13964784D02*
X13282596Y-13964784D01*
X13282596Y-13964784D02*
X13301644Y-13974308D01*
X13301644Y-13974308D02*
X13311167Y-13983831D01*
X13311167Y-13983831D02*
X13320691Y-14002879D01*
X13320691Y-14002879D02*
X13330215Y-14040974D01*
X13330215Y-14040974D02*
X13330215Y-14088593D01*
X13330215Y-14088593D02*
X13320691Y-14126688D01*
X13320691Y-14126688D02*
X13311167Y-14145736D01*
X13311167Y-14145736D02*
X13301644Y-14155260D01*
X13301644Y-14155260D02*
X13282596Y-14164784D01*
X13282596Y-14164784D02*
X13263548Y-14164784D01*
X13263548Y-14164784D02*
X13244501Y-14155260D01*
X13244501Y-14155260D02*
X13234977Y-14145736D01*
X13234977Y-14145736D02*
X13225453Y-14126688D01*
X13225453Y-14126688D02*
X13215929Y-14088593D01*
X13215929Y-14088593D02*
X13215929Y-14040974D01*
X13215929Y-14040974D02*
X13225453Y-14002879D01*
X13225453Y-14002879D02*
X13234977Y-13983831D01*
X13234977Y-13983831D02*
X13244501Y-13974308D01*
X13244501Y-13974308D02*
X13263548Y-13964784D01*
X13520691Y-14164784D02*
X13406406Y-14164784D01*
X13463548Y-14164784D02*
X13463548Y-13964784D01*
X13463548Y-13964784D02*
X13444501Y-13993355D01*
X13444501Y-13993355D02*
X13425453Y-14012403D01*
X13425453Y-14012403D02*
X13406406Y-14021927D01*
X13711167Y-14164784D02*
X13596882Y-14164784D01*
X13654025Y-14164784D02*
X13654025Y-13964784D01*
X13654025Y-13964784D02*
X13634977Y-13993355D01*
X13634977Y-13993355D02*
X13615929Y-14012403D01*
X13615929Y-14012403D02*
X13596882Y-14021927D01*
X13825453Y-14050498D02*
X13806406Y-14040974D01*
X13806406Y-14040974D02*
X13796882Y-14031450D01*
X13796882Y-14031450D02*
X13787358Y-14012403D01*
X13787358Y-14012403D02*
X13787358Y-14002879D01*
X13787358Y-14002879D02*
X13796882Y-13983831D01*
X13796882Y-13983831D02*
X13806406Y-13974308D01*
X13806406Y-13974308D02*
X13825453Y-13964784D01*
X13825453Y-13964784D02*
X13863548Y-13964784D01*
X13863548Y-13964784D02*
X13882596Y-13974308D01*
X13882596Y-13974308D02*
X13892120Y-13983831D01*
X13892120Y-13983831D02*
X13901644Y-14002879D01*
X13901644Y-14002879D02*
X13901644Y-14012403D01*
X13901644Y-14012403D02*
X13892120Y-14031450D01*
X13892120Y-14031450D02*
X13882596Y-14040974D01*
X13882596Y-14040974D02*
X13863548Y-14050498D01*
X13863548Y-14050498D02*
X13825453Y-14050498D01*
X13825453Y-14050498D02*
X13806406Y-14060022D01*
X13806406Y-14060022D02*
X13796882Y-14069546D01*
X13796882Y-14069546D02*
X13787358Y-14088593D01*
X13787358Y-14088593D02*
X13787358Y-14126688D01*
X13787358Y-14126688D02*
X13796882Y-14145736D01*
X13796882Y-14145736D02*
X13806406Y-14155260D01*
X13806406Y-14155260D02*
X13825453Y-14164784D01*
X13825453Y-14164784D02*
X13863548Y-14164784D01*
X13863548Y-14164784D02*
X13882596Y-14155260D01*
X13882596Y-14155260D02*
X13892120Y-14145736D01*
X13892120Y-14145736D02*
X13901644Y-14126688D01*
X13901644Y-14126688D02*
X13901644Y-14088593D01*
X13901644Y-14088593D02*
X13892120Y-14069546D01*
X13892120Y-14069546D02*
X13882596Y-14060022D01*
X13882596Y-14060022D02*
X13863548Y-14050498D01*
X13977834Y-13964784D02*
X13977834Y-14002879D01*
X14054025Y-13964784D02*
X14054025Y-14002879D01*
X14349263Y-14240974D02*
X14339739Y-14231450D01*
X14339739Y-14231450D02*
X14320691Y-14202879D01*
X14320691Y-14202879D02*
X14311168Y-14183831D01*
X14311168Y-14183831D02*
X14301644Y-14155260D01*
X14301644Y-14155260D02*
X14292120Y-14107641D01*
X14292120Y-14107641D02*
X14292120Y-14069546D01*
X14292120Y-14069546D02*
X14301644Y-14021927D01*
X14301644Y-14021927D02*
X14311168Y-13993355D01*
X14311168Y-13993355D02*
X14320691Y-13974308D01*
X14320691Y-13974308D02*
X14339739Y-13945736D01*
X14339739Y-13945736D02*
X14349263Y-13936212D01*
X14530215Y-14164784D02*
X14415929Y-14164784D01*
X14473072Y-14164784D02*
X14473072Y-13964784D01*
X14473072Y-13964784D02*
X14454025Y-13993355D01*
X14454025Y-13993355D02*
X14434977Y-14012403D01*
X14434977Y-14012403D02*
X14415929Y-14021927D01*
X14606406Y-13983831D02*
X14615929Y-13974308D01*
X14615929Y-13974308D02*
X14634977Y-13964784D01*
X14634977Y-13964784D02*
X14682596Y-13964784D01*
X14682596Y-13964784D02*
X14701644Y-13974308D01*
X14701644Y-13974308D02*
X14711168Y-13983831D01*
X14711168Y-13983831D02*
X14720691Y-14002879D01*
X14720691Y-14002879D02*
X14720691Y-14021927D01*
X14720691Y-14021927D02*
X14711168Y-14050498D01*
X14711168Y-14050498D02*
X14596882Y-14164784D01*
X14596882Y-14164784D02*
X14720691Y-14164784D01*
X14958787Y-14164784D02*
X14958787Y-13964784D01*
X15044501Y-14164784D02*
X15044501Y-14060022D01*
X15044501Y-14060022D02*
X15034977Y-14040974D01*
X15034977Y-14040974D02*
X15015930Y-14031450D01*
X15015930Y-14031450D02*
X14987358Y-14031450D01*
X14987358Y-14031450D02*
X14968310Y-14040974D01*
X14968310Y-14040974D02*
X14958787Y-14050498D01*
X15168310Y-14164784D02*
X15149263Y-14155260D01*
X15149263Y-14155260D02*
X15139739Y-14145736D01*
X15139739Y-14145736D02*
X15130215Y-14126688D01*
X15130215Y-14126688D02*
X15130215Y-14069546D01*
X15130215Y-14069546D02*
X15139739Y-14050498D01*
X15139739Y-14050498D02*
X15149263Y-14040974D01*
X15149263Y-14040974D02*
X15168310Y-14031450D01*
X15168310Y-14031450D02*
X15196882Y-14031450D01*
X15196882Y-14031450D02*
X15215930Y-14040974D01*
X15215930Y-14040974D02*
X15225453Y-14050498D01*
X15225453Y-14050498D02*
X15234977Y-14069546D01*
X15234977Y-14069546D02*
X15234977Y-14126688D01*
X15234977Y-14126688D02*
X15225453Y-14145736D01*
X15225453Y-14145736D02*
X15215930Y-14155260D01*
X15215930Y-14155260D02*
X15196882Y-14164784D01*
X15196882Y-14164784D02*
X15168310Y-14164784D01*
X15349263Y-14164784D02*
X15330215Y-14155260D01*
X15330215Y-14155260D02*
X15320691Y-14136212D01*
X15320691Y-14136212D02*
X15320691Y-13964784D01*
X15501644Y-14155260D02*
X15482596Y-14164784D01*
X15482596Y-14164784D02*
X15444501Y-14164784D01*
X15444501Y-14164784D02*
X15425453Y-14155260D01*
X15425453Y-14155260D02*
X15415930Y-14136212D01*
X15415930Y-14136212D02*
X15415930Y-14060022D01*
X15415930Y-14060022D02*
X15425453Y-14040974D01*
X15425453Y-14040974D02*
X15444501Y-14031450D01*
X15444501Y-14031450D02*
X15482596Y-14031450D01*
X15482596Y-14031450D02*
X15501644Y-14040974D01*
X15501644Y-14040974D02*
X15511168Y-14060022D01*
X15511168Y-14060022D02*
X15511168Y-14079069D01*
X15511168Y-14079069D02*
X15415930Y-14098117D01*
X15587358Y-14155260D02*
X15606406Y-14164784D01*
X15606406Y-14164784D02*
X15644501Y-14164784D01*
X15644501Y-14164784D02*
X15663549Y-14155260D01*
X15663549Y-14155260D02*
X15673072Y-14136212D01*
X15673072Y-14136212D02*
X15673072Y-14126688D01*
X15673072Y-14126688D02*
X15663549Y-14107641D01*
X15663549Y-14107641D02*
X15644501Y-14098117D01*
X15644501Y-14098117D02*
X15615930Y-14098117D01*
X15615930Y-14098117D02*
X15596882Y-14088593D01*
X15596882Y-14088593D02*
X15587358Y-14069546D01*
X15587358Y-14069546D02*
X15587358Y-14060022D01*
X15587358Y-14060022D02*
X15596882Y-14040974D01*
X15596882Y-14040974D02*
X15615930Y-14031450D01*
X15615930Y-14031450D02*
X15644501Y-14031450D01*
X15644501Y-14031450D02*
X15663549Y-14040974D01*
X15739739Y-14240974D02*
X15749263Y-14231450D01*
X15749263Y-14231450D02*
X15768311Y-14202879D01*
X15768311Y-14202879D02*
X15777834Y-14183831D01*
X15777834Y-14183831D02*
X15787358Y-14155260D01*
X15787358Y-14155260D02*
X15796882Y-14107641D01*
X15796882Y-14107641D02*
X15796882Y-14069546D01*
X15796882Y-14069546D02*
X15787358Y-14021927D01*
X15787358Y-14021927D02*
X15777834Y-13993355D01*
X15777834Y-13993355D02*
X15768311Y-13974308D01*
X15768311Y-13974308D02*
X15749263Y-13945736D01*
X15749263Y-13945736D02*
X15739739Y-13936212D01*
D12*
X10774200Y-14337300D02*
G75*
G02*
X10714200Y-14337300I-30000J0D01*
G01*
X10714200Y-14337300D02*
G75*
G02*
X10774200Y-14337300I30000J0D01*
G01*
D11*
X11073072Y-14228784D02*
X11092120Y-14228784D01*
X11092120Y-14228784D02*
X11111167Y-14238308D01*
X11111167Y-14238308D02*
X11120691Y-14247831D01*
X11120691Y-14247831D02*
X11130215Y-14266879D01*
X11130215Y-14266879D02*
X11139739Y-14304974D01*
X11139739Y-14304974D02*
X11139739Y-14352593D01*
X11139739Y-14352593D02*
X11130215Y-14390688D01*
X11130215Y-14390688D02*
X11120691Y-14409736D01*
X11120691Y-14409736D02*
X11111167Y-14419260D01*
X11111167Y-14419260D02*
X11092120Y-14428784D01*
X11092120Y-14428784D02*
X11073072Y-14428784D01*
X11073072Y-14428784D02*
X11054024Y-14419260D01*
X11054024Y-14419260D02*
X11044501Y-14409736D01*
X11044501Y-14409736D02*
X11034977Y-14390688D01*
X11034977Y-14390688D02*
X11025453Y-14352593D01*
X11025453Y-14352593D02*
X11025453Y-14304974D01*
X11025453Y-14304974D02*
X11034977Y-14266879D01*
X11034977Y-14266879D02*
X11044501Y-14247831D01*
X11044501Y-14247831D02*
X11054024Y-14238308D01*
X11054024Y-14238308D02*
X11073072Y-14228784D01*
X11225453Y-14409736D02*
X11234977Y-14419260D01*
X11234977Y-14419260D02*
X11225453Y-14428784D01*
X11225453Y-14428784D02*
X11215929Y-14419260D01*
X11215929Y-14419260D02*
X11225453Y-14409736D01*
X11225453Y-14409736D02*
X11225453Y-14428784D01*
X11406405Y-14228784D02*
X11368310Y-14228784D01*
X11368310Y-14228784D02*
X11349262Y-14238308D01*
X11349262Y-14238308D02*
X11339739Y-14247831D01*
X11339739Y-14247831D02*
X11320691Y-14276403D01*
X11320691Y-14276403D02*
X11311167Y-14314498D01*
X11311167Y-14314498D02*
X11311167Y-14390688D01*
X11311167Y-14390688D02*
X11320691Y-14409736D01*
X11320691Y-14409736D02*
X11330215Y-14419260D01*
X11330215Y-14419260D02*
X11349262Y-14428784D01*
X11349262Y-14428784D02*
X11387358Y-14428784D01*
X11387358Y-14428784D02*
X11406405Y-14419260D01*
X11406405Y-14419260D02*
X11415929Y-14409736D01*
X11415929Y-14409736D02*
X11425453Y-14390688D01*
X11425453Y-14390688D02*
X11425453Y-14343069D01*
X11425453Y-14343069D02*
X11415929Y-14324022D01*
X11415929Y-14324022D02*
X11406405Y-14314498D01*
X11406405Y-14314498D02*
X11387358Y-14304974D01*
X11387358Y-14304974D02*
X11349262Y-14304974D01*
X11349262Y-14304974D02*
X11330215Y-14314498D01*
X11330215Y-14314498D02*
X11320691Y-14324022D01*
X11320691Y-14324022D02*
X11311167Y-14343069D01*
X11549262Y-14228784D02*
X11568310Y-14228784D01*
X11568310Y-14228784D02*
X11587358Y-14238308D01*
X11587358Y-14238308D02*
X11596882Y-14247831D01*
X11596882Y-14247831D02*
X11606405Y-14266879D01*
X11606405Y-14266879D02*
X11615929Y-14304974D01*
X11615929Y-14304974D02*
X11615929Y-14352593D01*
X11615929Y-14352593D02*
X11606405Y-14390688D01*
X11606405Y-14390688D02*
X11596882Y-14409736D01*
X11596882Y-14409736D02*
X11587358Y-14419260D01*
X11587358Y-14419260D02*
X11568310Y-14428784D01*
X11568310Y-14428784D02*
X11549262Y-14428784D01*
X11549262Y-14428784D02*
X11530215Y-14419260D01*
X11530215Y-14419260D02*
X11520691Y-14409736D01*
X11520691Y-14409736D02*
X11511167Y-14390688D01*
X11511167Y-14390688D02*
X11501643Y-14352593D01*
X11501643Y-14352593D02*
X11501643Y-14304974D01*
X11501643Y-14304974D02*
X11511167Y-14266879D01*
X11511167Y-14266879D02*
X11520691Y-14247831D01*
X11520691Y-14247831D02*
X11530215Y-14238308D01*
X11530215Y-14238308D02*
X11549262Y-14228784D01*
X11739739Y-14228784D02*
X11758786Y-14228784D01*
X11758786Y-14228784D02*
X11777834Y-14238308D01*
X11777834Y-14238308D02*
X11787358Y-14247831D01*
X11787358Y-14247831D02*
X11796882Y-14266879D01*
X11796882Y-14266879D02*
X11806405Y-14304974D01*
X11806405Y-14304974D02*
X11806405Y-14352593D01*
X11806405Y-14352593D02*
X11796882Y-14390688D01*
X11796882Y-14390688D02*
X11787358Y-14409736D01*
X11787358Y-14409736D02*
X11777834Y-14419260D01*
X11777834Y-14419260D02*
X11758786Y-14428784D01*
X11758786Y-14428784D02*
X11739739Y-14428784D01*
X11739739Y-14428784D02*
X11720691Y-14419260D01*
X11720691Y-14419260D02*
X11711167Y-14409736D01*
X11711167Y-14409736D02*
X11701643Y-14390688D01*
X11701643Y-14390688D02*
X11692120Y-14352593D01*
X11692120Y-14352593D02*
X11692120Y-14304974D01*
X11692120Y-14304974D02*
X11701643Y-14266879D01*
X11701643Y-14266879D02*
X11711167Y-14247831D01*
X11711167Y-14247831D02*
X11720691Y-14238308D01*
X11720691Y-14238308D02*
X11739739Y-14228784D01*
X11892120Y-14428784D02*
X11892120Y-14295450D01*
X11892120Y-14314498D02*
X11901643Y-14304974D01*
X11901643Y-14304974D02*
X11920691Y-14295450D01*
X11920691Y-14295450D02*
X11949263Y-14295450D01*
X11949263Y-14295450D02*
X11968310Y-14304974D01*
X11968310Y-14304974D02*
X11977834Y-14324022D01*
X11977834Y-14324022D02*
X11977834Y-14428784D01*
X11977834Y-14324022D02*
X11987358Y-14304974D01*
X11987358Y-14304974D02*
X12006405Y-14295450D01*
X12006405Y-14295450D02*
X12034977Y-14295450D01*
X12034977Y-14295450D02*
X12054024Y-14304974D01*
X12054024Y-14304974D02*
X12063548Y-14324022D01*
X12063548Y-14324022D02*
X12063548Y-14428784D01*
X12158786Y-14428784D02*
X12158786Y-14295450D01*
X12158786Y-14314498D02*
X12168310Y-14304974D01*
X12168310Y-14304974D02*
X12187358Y-14295450D01*
X12187358Y-14295450D02*
X12215929Y-14295450D01*
X12215929Y-14295450D02*
X12234977Y-14304974D01*
X12234977Y-14304974D02*
X12244501Y-14324022D01*
X12244501Y-14324022D02*
X12244501Y-14428784D01*
X12244501Y-14324022D02*
X12254024Y-14304974D01*
X12254024Y-14304974D02*
X12273072Y-14295450D01*
X12273072Y-14295450D02*
X12301643Y-14295450D01*
X12301643Y-14295450D02*
X12320691Y-14304974D01*
X12320691Y-14304974D02*
X12330215Y-14324022D01*
X12330215Y-14324022D02*
X12330215Y-14428784D01*
X12720691Y-14219260D02*
X12549263Y-14476403D01*
X12977834Y-14228784D02*
X12996882Y-14228784D01*
X12996882Y-14228784D02*
X13015929Y-14238308D01*
X13015929Y-14238308D02*
X13025453Y-14247831D01*
X13025453Y-14247831D02*
X13034977Y-14266879D01*
X13034977Y-14266879D02*
X13044501Y-14304974D01*
X13044501Y-14304974D02*
X13044501Y-14352593D01*
X13044501Y-14352593D02*
X13034977Y-14390688D01*
X13034977Y-14390688D02*
X13025453Y-14409736D01*
X13025453Y-14409736D02*
X13015929Y-14419260D01*
X13015929Y-14419260D02*
X12996882Y-14428784D01*
X12996882Y-14428784D02*
X12977834Y-14428784D01*
X12977834Y-14428784D02*
X12958786Y-14419260D01*
X12958786Y-14419260D02*
X12949263Y-14409736D01*
X12949263Y-14409736D02*
X12939739Y-14390688D01*
X12939739Y-14390688D02*
X12930215Y-14352593D01*
X12930215Y-14352593D02*
X12930215Y-14304974D01*
X12930215Y-14304974D02*
X12939739Y-14266879D01*
X12939739Y-14266879D02*
X12949263Y-14247831D01*
X12949263Y-14247831D02*
X12958786Y-14238308D01*
X12958786Y-14238308D02*
X12977834Y-14228784D01*
X13130215Y-14409736D02*
X13139739Y-14419260D01*
X13139739Y-14419260D02*
X13130215Y-14428784D01*
X13130215Y-14428784D02*
X13120691Y-14419260D01*
X13120691Y-14419260D02*
X13130215Y-14409736D01*
X13130215Y-14409736D02*
X13130215Y-14428784D01*
X13263548Y-14228784D02*
X13282596Y-14228784D01*
X13282596Y-14228784D02*
X13301644Y-14238308D01*
X13301644Y-14238308D02*
X13311167Y-14247831D01*
X13311167Y-14247831D02*
X13320691Y-14266879D01*
X13320691Y-14266879D02*
X13330215Y-14304974D01*
X13330215Y-14304974D02*
X13330215Y-14352593D01*
X13330215Y-14352593D02*
X13320691Y-14390688D01*
X13320691Y-14390688D02*
X13311167Y-14409736D01*
X13311167Y-14409736D02*
X13301644Y-14419260D01*
X13301644Y-14419260D02*
X13282596Y-14428784D01*
X13282596Y-14428784D02*
X13263548Y-14428784D01*
X13263548Y-14428784D02*
X13244501Y-14419260D01*
X13244501Y-14419260D02*
X13234977Y-14409736D01*
X13234977Y-14409736D02*
X13225453Y-14390688D01*
X13225453Y-14390688D02*
X13215929Y-14352593D01*
X13215929Y-14352593D02*
X13215929Y-14304974D01*
X13215929Y-14304974D02*
X13225453Y-14266879D01*
X13225453Y-14266879D02*
X13234977Y-14247831D01*
X13234977Y-14247831D02*
X13244501Y-14238308D01*
X13244501Y-14238308D02*
X13263548Y-14228784D01*
X13406406Y-14247831D02*
X13415929Y-14238308D01*
X13415929Y-14238308D02*
X13434977Y-14228784D01*
X13434977Y-14228784D02*
X13482596Y-14228784D01*
X13482596Y-14228784D02*
X13501644Y-14238308D01*
X13501644Y-14238308D02*
X13511167Y-14247831D01*
X13511167Y-14247831D02*
X13520691Y-14266879D01*
X13520691Y-14266879D02*
X13520691Y-14285927D01*
X13520691Y-14285927D02*
X13511167Y-14314498D01*
X13511167Y-14314498D02*
X13396882Y-14428784D01*
X13396882Y-14428784D02*
X13520691Y-14428784D01*
X13587358Y-14228784D02*
X13711167Y-14228784D01*
X13711167Y-14228784D02*
X13644501Y-14304974D01*
X13644501Y-14304974D02*
X13673072Y-14304974D01*
X13673072Y-14304974D02*
X13692120Y-14314498D01*
X13692120Y-14314498D02*
X13701644Y-14324022D01*
X13701644Y-14324022D02*
X13711167Y-14343069D01*
X13711167Y-14343069D02*
X13711167Y-14390688D01*
X13711167Y-14390688D02*
X13701644Y-14409736D01*
X13701644Y-14409736D02*
X13692120Y-14419260D01*
X13692120Y-14419260D02*
X13673072Y-14428784D01*
X13673072Y-14428784D02*
X13615929Y-14428784D01*
X13615929Y-14428784D02*
X13596882Y-14419260D01*
X13596882Y-14419260D02*
X13587358Y-14409736D01*
X13882596Y-14228784D02*
X13844501Y-14228784D01*
X13844501Y-14228784D02*
X13825453Y-14238308D01*
X13825453Y-14238308D02*
X13815929Y-14247831D01*
X13815929Y-14247831D02*
X13796882Y-14276403D01*
X13796882Y-14276403D02*
X13787358Y-14314498D01*
X13787358Y-14314498D02*
X13787358Y-14390688D01*
X13787358Y-14390688D02*
X13796882Y-14409736D01*
X13796882Y-14409736D02*
X13806406Y-14419260D01*
X13806406Y-14419260D02*
X13825453Y-14428784D01*
X13825453Y-14428784D02*
X13863548Y-14428784D01*
X13863548Y-14428784D02*
X13882596Y-14419260D01*
X13882596Y-14419260D02*
X13892120Y-14409736D01*
X13892120Y-14409736D02*
X13901644Y-14390688D01*
X13901644Y-14390688D02*
X13901644Y-14343069D01*
X13901644Y-14343069D02*
X13892120Y-14324022D01*
X13892120Y-14324022D02*
X13882596Y-14314498D01*
X13882596Y-14314498D02*
X13863548Y-14304974D01*
X13863548Y-14304974D02*
X13825453Y-14304974D01*
X13825453Y-14304974D02*
X13806406Y-14314498D01*
X13806406Y-14314498D02*
X13796882Y-14324022D01*
X13796882Y-14324022D02*
X13787358Y-14343069D01*
X13977834Y-14228784D02*
X13977834Y-14266879D01*
X14054025Y-14228784D02*
X14054025Y-14266879D01*
X14349263Y-14504974D02*
X14339739Y-14495450D01*
X14339739Y-14495450D02*
X14320691Y-14466879D01*
X14320691Y-14466879D02*
X14311168Y-14447831D01*
X14311168Y-14447831D02*
X14301644Y-14419260D01*
X14301644Y-14419260D02*
X14292120Y-14371641D01*
X14292120Y-14371641D02*
X14292120Y-14333546D01*
X14292120Y-14333546D02*
X14301644Y-14285927D01*
X14301644Y-14285927D02*
X14311168Y-14257355D01*
X14311168Y-14257355D02*
X14320691Y-14238308D01*
X14320691Y-14238308D02*
X14339739Y-14209736D01*
X14339739Y-14209736D02*
X14349263Y-14200212D01*
X14511168Y-14228784D02*
X14473072Y-14228784D01*
X14473072Y-14228784D02*
X14454025Y-14238308D01*
X14454025Y-14238308D02*
X14444501Y-14247831D01*
X14444501Y-14247831D02*
X14425453Y-14276403D01*
X14425453Y-14276403D02*
X14415929Y-14314498D01*
X14415929Y-14314498D02*
X14415929Y-14390688D01*
X14415929Y-14390688D02*
X14425453Y-14409736D01*
X14425453Y-14409736D02*
X14434977Y-14419260D01*
X14434977Y-14419260D02*
X14454025Y-14428784D01*
X14454025Y-14428784D02*
X14492120Y-14428784D01*
X14492120Y-14428784D02*
X14511168Y-14419260D01*
X14511168Y-14419260D02*
X14520691Y-14409736D01*
X14520691Y-14409736D02*
X14530215Y-14390688D01*
X14530215Y-14390688D02*
X14530215Y-14343069D01*
X14530215Y-14343069D02*
X14520691Y-14324022D01*
X14520691Y-14324022D02*
X14511168Y-14314498D01*
X14511168Y-14314498D02*
X14492120Y-14304974D01*
X14492120Y-14304974D02*
X14454025Y-14304974D01*
X14454025Y-14304974D02*
X14434977Y-14314498D01*
X14434977Y-14314498D02*
X14425453Y-14324022D01*
X14425453Y-14324022D02*
X14415929Y-14343069D01*
X14720691Y-14428784D02*
X14606406Y-14428784D01*
X14663548Y-14428784D02*
X14663548Y-14228784D01*
X14663548Y-14228784D02*
X14644501Y-14257355D01*
X14644501Y-14257355D02*
X14625453Y-14276403D01*
X14625453Y-14276403D02*
X14606406Y-14285927D01*
X14958787Y-14428784D02*
X14958787Y-14228784D01*
X15044501Y-14428784D02*
X15044501Y-14324022D01*
X15044501Y-14324022D02*
X15034977Y-14304974D01*
X15034977Y-14304974D02*
X15015930Y-14295450D01*
X15015930Y-14295450D02*
X14987358Y-14295450D01*
X14987358Y-14295450D02*
X14968310Y-14304974D01*
X14968310Y-14304974D02*
X14958787Y-14314498D01*
X15168310Y-14428784D02*
X15149263Y-14419260D01*
X15149263Y-14419260D02*
X15139739Y-14409736D01*
X15139739Y-14409736D02*
X15130215Y-14390688D01*
X15130215Y-14390688D02*
X15130215Y-14333546D01*
X15130215Y-14333546D02*
X15139739Y-14314498D01*
X15139739Y-14314498D02*
X15149263Y-14304974D01*
X15149263Y-14304974D02*
X15168310Y-14295450D01*
X15168310Y-14295450D02*
X15196882Y-14295450D01*
X15196882Y-14295450D02*
X15215930Y-14304974D01*
X15215930Y-14304974D02*
X15225453Y-14314498D01*
X15225453Y-14314498D02*
X15234977Y-14333546D01*
X15234977Y-14333546D02*
X15234977Y-14390688D01*
X15234977Y-14390688D02*
X15225453Y-14409736D01*
X15225453Y-14409736D02*
X15215930Y-14419260D01*
X15215930Y-14419260D02*
X15196882Y-14428784D01*
X15196882Y-14428784D02*
X15168310Y-14428784D01*
X15349263Y-14428784D02*
X15330215Y-14419260D01*
X15330215Y-14419260D02*
X15320691Y-14400212D01*
X15320691Y-14400212D02*
X15320691Y-14228784D01*
X15501644Y-14419260D02*
X15482596Y-14428784D01*
X15482596Y-14428784D02*
X15444501Y-14428784D01*
X15444501Y-14428784D02*
X15425453Y-14419260D01*
X15425453Y-14419260D02*
X15415930Y-14400212D01*
X15415930Y-14400212D02*
X15415930Y-14324022D01*
X15415930Y-14324022D02*
X15425453Y-14304974D01*
X15425453Y-14304974D02*
X15444501Y-14295450D01*
X15444501Y-14295450D02*
X15482596Y-14295450D01*
X15482596Y-14295450D02*
X15501644Y-14304974D01*
X15501644Y-14304974D02*
X15511168Y-14324022D01*
X15511168Y-14324022D02*
X15511168Y-14343069D01*
X15511168Y-14343069D02*
X15415930Y-14362117D01*
X15587358Y-14419260D02*
X15606406Y-14428784D01*
X15606406Y-14428784D02*
X15644501Y-14428784D01*
X15644501Y-14428784D02*
X15663549Y-14419260D01*
X15663549Y-14419260D02*
X15673072Y-14400212D01*
X15673072Y-14400212D02*
X15673072Y-14390688D01*
X15673072Y-14390688D02*
X15663549Y-14371641D01*
X15663549Y-14371641D02*
X15644501Y-14362117D01*
X15644501Y-14362117D02*
X15615930Y-14362117D01*
X15615930Y-14362117D02*
X15596882Y-14352593D01*
X15596882Y-14352593D02*
X15587358Y-14333546D01*
X15587358Y-14333546D02*
X15587358Y-14324022D01*
X15587358Y-14324022D02*
X15596882Y-14304974D01*
X15596882Y-14304974D02*
X15615930Y-14295450D01*
X15615930Y-14295450D02*
X15644501Y-14295450D01*
X15644501Y-14295450D02*
X15663549Y-14304974D01*
X15739739Y-14504974D02*
X15749263Y-14495450D01*
X15749263Y-14495450D02*
X15768311Y-14466879D01*
X15768311Y-14466879D02*
X15777834Y-14447831D01*
X15777834Y-14447831D02*
X15787358Y-14419260D01*
X15787358Y-14419260D02*
X15796882Y-14371641D01*
X15796882Y-14371641D02*
X15796882Y-14333546D01*
X15796882Y-14333546D02*
X15787358Y-14285927D01*
X15787358Y-14285927D02*
X15777834Y-14257355D01*
X15777834Y-14257355D02*
X15768311Y-14238308D01*
X15768311Y-14238308D02*
X15749263Y-14209736D01*
X15749263Y-14209736D02*
X15739739Y-14200212D01*
D12*
X10736200Y-14563300D02*
X10736200Y-14639300D01*
X10698200Y-14601300D02*
X10774200Y-14601300D01*
D11*
X11073072Y-14492784D02*
X11092120Y-14492784D01*
X11092120Y-14492784D02*
X11111167Y-14502308D01*
X11111167Y-14502308D02*
X11120691Y-14511831D01*
X11120691Y-14511831D02*
X11130215Y-14530879D01*
X11130215Y-14530879D02*
X11139739Y-14568974D01*
X11139739Y-14568974D02*
X11139739Y-14616593D01*
X11139739Y-14616593D02*
X11130215Y-14654688D01*
X11130215Y-14654688D02*
X11120691Y-14673736D01*
X11120691Y-14673736D02*
X11111167Y-14683260D01*
X11111167Y-14683260D02*
X11092120Y-14692784D01*
X11092120Y-14692784D02*
X11073072Y-14692784D01*
X11073072Y-14692784D02*
X11054024Y-14683260D01*
X11054024Y-14683260D02*
X11044501Y-14673736D01*
X11044501Y-14673736D02*
X11034977Y-14654688D01*
X11034977Y-14654688D02*
X11025453Y-14616593D01*
X11025453Y-14616593D02*
X11025453Y-14568974D01*
X11025453Y-14568974D02*
X11034977Y-14530879D01*
X11034977Y-14530879D02*
X11044501Y-14511831D01*
X11044501Y-14511831D02*
X11054024Y-14502308D01*
X11054024Y-14502308D02*
X11073072Y-14492784D01*
X11225453Y-14673736D02*
X11234977Y-14683260D01*
X11234977Y-14683260D02*
X11225453Y-14692784D01*
X11225453Y-14692784D02*
X11215929Y-14683260D01*
X11215929Y-14683260D02*
X11225453Y-14673736D01*
X11225453Y-14673736D02*
X11225453Y-14692784D01*
X11301643Y-14492784D02*
X11434977Y-14492784D01*
X11434977Y-14492784D02*
X11349262Y-14692784D01*
X11596882Y-14492784D02*
X11558786Y-14492784D01*
X11558786Y-14492784D02*
X11539739Y-14502308D01*
X11539739Y-14502308D02*
X11530215Y-14511831D01*
X11530215Y-14511831D02*
X11511167Y-14540403D01*
X11511167Y-14540403D02*
X11501643Y-14578498D01*
X11501643Y-14578498D02*
X11501643Y-14654688D01*
X11501643Y-14654688D02*
X11511167Y-14673736D01*
X11511167Y-14673736D02*
X11520691Y-14683260D01*
X11520691Y-14683260D02*
X11539739Y-14692784D01*
X11539739Y-14692784D02*
X11577834Y-14692784D01*
X11577834Y-14692784D02*
X11596882Y-14683260D01*
X11596882Y-14683260D02*
X11606405Y-14673736D01*
X11606405Y-14673736D02*
X11615929Y-14654688D01*
X11615929Y-14654688D02*
X11615929Y-14607069D01*
X11615929Y-14607069D02*
X11606405Y-14588022D01*
X11606405Y-14588022D02*
X11596882Y-14578498D01*
X11596882Y-14578498D02*
X11577834Y-14568974D01*
X11577834Y-14568974D02*
X11539739Y-14568974D01*
X11539739Y-14568974D02*
X11520691Y-14578498D01*
X11520691Y-14578498D02*
X11511167Y-14588022D01*
X11511167Y-14588022D02*
X11501643Y-14607069D01*
X11739739Y-14492784D02*
X11758786Y-14492784D01*
X11758786Y-14492784D02*
X11777834Y-14502308D01*
X11777834Y-14502308D02*
X11787358Y-14511831D01*
X11787358Y-14511831D02*
X11796882Y-14530879D01*
X11796882Y-14530879D02*
X11806405Y-14568974D01*
X11806405Y-14568974D02*
X11806405Y-14616593D01*
X11806405Y-14616593D02*
X11796882Y-14654688D01*
X11796882Y-14654688D02*
X11787358Y-14673736D01*
X11787358Y-14673736D02*
X11777834Y-14683260D01*
X11777834Y-14683260D02*
X11758786Y-14692784D01*
X11758786Y-14692784D02*
X11739739Y-14692784D01*
X11739739Y-14692784D02*
X11720691Y-14683260D01*
X11720691Y-14683260D02*
X11711167Y-14673736D01*
X11711167Y-14673736D02*
X11701643Y-14654688D01*
X11701643Y-14654688D02*
X11692120Y-14616593D01*
X11692120Y-14616593D02*
X11692120Y-14568974D01*
X11692120Y-14568974D02*
X11701643Y-14530879D01*
X11701643Y-14530879D02*
X11711167Y-14511831D01*
X11711167Y-14511831D02*
X11720691Y-14502308D01*
X11720691Y-14502308D02*
X11739739Y-14492784D01*
X11892120Y-14692784D02*
X11892120Y-14559450D01*
X11892120Y-14578498D02*
X11901643Y-14568974D01*
X11901643Y-14568974D02*
X11920691Y-14559450D01*
X11920691Y-14559450D02*
X11949263Y-14559450D01*
X11949263Y-14559450D02*
X11968310Y-14568974D01*
X11968310Y-14568974D02*
X11977834Y-14588022D01*
X11977834Y-14588022D02*
X11977834Y-14692784D01*
X11977834Y-14588022D02*
X11987358Y-14568974D01*
X11987358Y-14568974D02*
X12006405Y-14559450D01*
X12006405Y-14559450D02*
X12034977Y-14559450D01*
X12034977Y-14559450D02*
X12054024Y-14568974D01*
X12054024Y-14568974D02*
X12063548Y-14588022D01*
X12063548Y-14588022D02*
X12063548Y-14692784D01*
X12158786Y-14692784D02*
X12158786Y-14559450D01*
X12158786Y-14578498D02*
X12168310Y-14568974D01*
X12168310Y-14568974D02*
X12187358Y-14559450D01*
X12187358Y-14559450D02*
X12215929Y-14559450D01*
X12215929Y-14559450D02*
X12234977Y-14568974D01*
X12234977Y-14568974D02*
X12244501Y-14588022D01*
X12244501Y-14588022D02*
X12244501Y-14692784D01*
X12244501Y-14588022D02*
X12254024Y-14568974D01*
X12254024Y-14568974D02*
X12273072Y-14559450D01*
X12273072Y-14559450D02*
X12301643Y-14559450D01*
X12301643Y-14559450D02*
X12320691Y-14568974D01*
X12320691Y-14568974D02*
X12330215Y-14588022D01*
X12330215Y-14588022D02*
X12330215Y-14692784D01*
X12720691Y-14483260D02*
X12549263Y-14740403D01*
X12977834Y-14492784D02*
X12996882Y-14492784D01*
X12996882Y-14492784D02*
X13015929Y-14502308D01*
X13015929Y-14502308D02*
X13025453Y-14511831D01*
X13025453Y-14511831D02*
X13034977Y-14530879D01*
X13034977Y-14530879D02*
X13044501Y-14568974D01*
X13044501Y-14568974D02*
X13044501Y-14616593D01*
X13044501Y-14616593D02*
X13034977Y-14654688D01*
X13034977Y-14654688D02*
X13025453Y-14673736D01*
X13025453Y-14673736D02*
X13015929Y-14683260D01*
X13015929Y-14683260D02*
X12996882Y-14692784D01*
X12996882Y-14692784D02*
X12977834Y-14692784D01*
X12977834Y-14692784D02*
X12958786Y-14683260D01*
X12958786Y-14683260D02*
X12949263Y-14673736D01*
X12949263Y-14673736D02*
X12939739Y-14654688D01*
X12939739Y-14654688D02*
X12930215Y-14616593D01*
X12930215Y-14616593D02*
X12930215Y-14568974D01*
X12930215Y-14568974D02*
X12939739Y-14530879D01*
X12939739Y-14530879D02*
X12949263Y-14511831D01*
X12949263Y-14511831D02*
X12958786Y-14502308D01*
X12958786Y-14502308D02*
X12977834Y-14492784D01*
X13130215Y-14673736D02*
X13139739Y-14683260D01*
X13139739Y-14683260D02*
X13130215Y-14692784D01*
X13130215Y-14692784D02*
X13120691Y-14683260D01*
X13120691Y-14683260D02*
X13130215Y-14673736D01*
X13130215Y-14673736D02*
X13130215Y-14692784D01*
X13263548Y-14492784D02*
X13282596Y-14492784D01*
X13282596Y-14492784D02*
X13301644Y-14502308D01*
X13301644Y-14502308D02*
X13311167Y-14511831D01*
X13311167Y-14511831D02*
X13320691Y-14530879D01*
X13320691Y-14530879D02*
X13330215Y-14568974D01*
X13330215Y-14568974D02*
X13330215Y-14616593D01*
X13330215Y-14616593D02*
X13320691Y-14654688D01*
X13320691Y-14654688D02*
X13311167Y-14673736D01*
X13311167Y-14673736D02*
X13301644Y-14683260D01*
X13301644Y-14683260D02*
X13282596Y-14692784D01*
X13282596Y-14692784D02*
X13263548Y-14692784D01*
X13263548Y-14692784D02*
X13244501Y-14683260D01*
X13244501Y-14683260D02*
X13234977Y-14673736D01*
X13234977Y-14673736D02*
X13225453Y-14654688D01*
X13225453Y-14654688D02*
X13215929Y-14616593D01*
X13215929Y-14616593D02*
X13215929Y-14568974D01*
X13215929Y-14568974D02*
X13225453Y-14530879D01*
X13225453Y-14530879D02*
X13234977Y-14511831D01*
X13234977Y-14511831D02*
X13244501Y-14502308D01*
X13244501Y-14502308D02*
X13263548Y-14492784D01*
X13406406Y-14511831D02*
X13415929Y-14502308D01*
X13415929Y-14502308D02*
X13434977Y-14492784D01*
X13434977Y-14492784D02*
X13482596Y-14492784D01*
X13482596Y-14492784D02*
X13501644Y-14502308D01*
X13501644Y-14502308D02*
X13511167Y-14511831D01*
X13511167Y-14511831D02*
X13520691Y-14530879D01*
X13520691Y-14530879D02*
X13520691Y-14549927D01*
X13520691Y-14549927D02*
X13511167Y-14578498D01*
X13511167Y-14578498D02*
X13396882Y-14692784D01*
X13396882Y-14692784D02*
X13520691Y-14692784D01*
X13615929Y-14692784D02*
X13654025Y-14692784D01*
X13654025Y-14692784D02*
X13673072Y-14683260D01*
X13673072Y-14683260D02*
X13682596Y-14673736D01*
X13682596Y-14673736D02*
X13701644Y-14645165D01*
X13701644Y-14645165D02*
X13711167Y-14607069D01*
X13711167Y-14607069D02*
X13711167Y-14530879D01*
X13711167Y-14530879D02*
X13701644Y-14511831D01*
X13701644Y-14511831D02*
X13692120Y-14502308D01*
X13692120Y-14502308D02*
X13673072Y-14492784D01*
X13673072Y-14492784D02*
X13634977Y-14492784D01*
X13634977Y-14492784D02*
X13615929Y-14502308D01*
X13615929Y-14502308D02*
X13606406Y-14511831D01*
X13606406Y-14511831D02*
X13596882Y-14530879D01*
X13596882Y-14530879D02*
X13596882Y-14578498D01*
X13596882Y-14578498D02*
X13606406Y-14597546D01*
X13606406Y-14597546D02*
X13615929Y-14607069D01*
X13615929Y-14607069D02*
X13634977Y-14616593D01*
X13634977Y-14616593D02*
X13673072Y-14616593D01*
X13673072Y-14616593D02*
X13692120Y-14607069D01*
X13692120Y-14607069D02*
X13701644Y-14597546D01*
X13701644Y-14597546D02*
X13711167Y-14578498D01*
X13806406Y-14692784D02*
X13844501Y-14692784D01*
X13844501Y-14692784D02*
X13863548Y-14683260D01*
X13863548Y-14683260D02*
X13873072Y-14673736D01*
X13873072Y-14673736D02*
X13892120Y-14645165D01*
X13892120Y-14645165D02*
X13901644Y-14607069D01*
X13901644Y-14607069D02*
X13901644Y-14530879D01*
X13901644Y-14530879D02*
X13892120Y-14511831D01*
X13892120Y-14511831D02*
X13882596Y-14502308D01*
X13882596Y-14502308D02*
X13863548Y-14492784D01*
X13863548Y-14492784D02*
X13825453Y-14492784D01*
X13825453Y-14492784D02*
X13806406Y-14502308D01*
X13806406Y-14502308D02*
X13796882Y-14511831D01*
X13796882Y-14511831D02*
X13787358Y-14530879D01*
X13787358Y-14530879D02*
X13787358Y-14578498D01*
X13787358Y-14578498D02*
X13796882Y-14597546D01*
X13796882Y-14597546D02*
X13806406Y-14607069D01*
X13806406Y-14607069D02*
X13825453Y-14616593D01*
X13825453Y-14616593D02*
X13863548Y-14616593D01*
X13863548Y-14616593D02*
X13882596Y-14607069D01*
X13882596Y-14607069D02*
X13892120Y-14597546D01*
X13892120Y-14597546D02*
X13901644Y-14578498D01*
X13977834Y-14492784D02*
X13977834Y-14530879D01*
X14054025Y-14492784D02*
X14054025Y-14530879D01*
X14349263Y-14768974D02*
X14339739Y-14759450D01*
X14339739Y-14759450D02*
X14320691Y-14730879D01*
X14320691Y-14730879D02*
X14311168Y-14711831D01*
X14311168Y-14711831D02*
X14301644Y-14683260D01*
X14301644Y-14683260D02*
X14292120Y-14635641D01*
X14292120Y-14635641D02*
X14292120Y-14597546D01*
X14292120Y-14597546D02*
X14301644Y-14549927D01*
X14301644Y-14549927D02*
X14311168Y-14521355D01*
X14311168Y-14521355D02*
X14320691Y-14502308D01*
X14320691Y-14502308D02*
X14339739Y-14473736D01*
X14339739Y-14473736D02*
X14349263Y-14464212D01*
X14530215Y-14692784D02*
X14415929Y-14692784D01*
X14473072Y-14692784D02*
X14473072Y-14492784D01*
X14473072Y-14492784D02*
X14454025Y-14521355D01*
X14454025Y-14521355D02*
X14434977Y-14540403D01*
X14434977Y-14540403D02*
X14415929Y-14549927D01*
X14701644Y-14492784D02*
X14663548Y-14492784D01*
X14663548Y-14492784D02*
X14644501Y-14502308D01*
X14644501Y-14502308D02*
X14634977Y-14511831D01*
X14634977Y-14511831D02*
X14615929Y-14540403D01*
X14615929Y-14540403D02*
X14606406Y-14578498D01*
X14606406Y-14578498D02*
X14606406Y-14654688D01*
X14606406Y-14654688D02*
X14615929Y-14673736D01*
X14615929Y-14673736D02*
X14625453Y-14683260D01*
X14625453Y-14683260D02*
X14644501Y-14692784D01*
X14644501Y-14692784D02*
X14682596Y-14692784D01*
X14682596Y-14692784D02*
X14701644Y-14683260D01*
X14701644Y-14683260D02*
X14711168Y-14673736D01*
X14711168Y-14673736D02*
X14720691Y-14654688D01*
X14720691Y-14654688D02*
X14720691Y-14607069D01*
X14720691Y-14607069D02*
X14711168Y-14588022D01*
X14711168Y-14588022D02*
X14701644Y-14578498D01*
X14701644Y-14578498D02*
X14682596Y-14568974D01*
X14682596Y-14568974D02*
X14644501Y-14568974D01*
X14644501Y-14568974D02*
X14625453Y-14578498D01*
X14625453Y-14578498D02*
X14615929Y-14588022D01*
X14615929Y-14588022D02*
X14606406Y-14607069D01*
X14958787Y-14692784D02*
X14958787Y-14492784D01*
X15044501Y-14692784D02*
X15044501Y-14588022D01*
X15044501Y-14588022D02*
X15034977Y-14568974D01*
X15034977Y-14568974D02*
X15015930Y-14559450D01*
X15015930Y-14559450D02*
X14987358Y-14559450D01*
X14987358Y-14559450D02*
X14968310Y-14568974D01*
X14968310Y-14568974D02*
X14958787Y-14578498D01*
X15168310Y-14692784D02*
X15149263Y-14683260D01*
X15149263Y-14683260D02*
X15139739Y-14673736D01*
X15139739Y-14673736D02*
X15130215Y-14654688D01*
X15130215Y-14654688D02*
X15130215Y-14597546D01*
X15130215Y-14597546D02*
X15139739Y-14578498D01*
X15139739Y-14578498D02*
X15149263Y-14568974D01*
X15149263Y-14568974D02*
X15168310Y-14559450D01*
X15168310Y-14559450D02*
X15196882Y-14559450D01*
X15196882Y-14559450D02*
X15215930Y-14568974D01*
X15215930Y-14568974D02*
X15225453Y-14578498D01*
X15225453Y-14578498D02*
X15234977Y-14597546D01*
X15234977Y-14597546D02*
X15234977Y-14654688D01*
X15234977Y-14654688D02*
X15225453Y-14673736D01*
X15225453Y-14673736D02*
X15215930Y-14683260D01*
X15215930Y-14683260D02*
X15196882Y-14692784D01*
X15196882Y-14692784D02*
X15168310Y-14692784D01*
X15349263Y-14692784D02*
X15330215Y-14683260D01*
X15330215Y-14683260D02*
X15320691Y-14664212D01*
X15320691Y-14664212D02*
X15320691Y-14492784D01*
X15501644Y-14683260D02*
X15482596Y-14692784D01*
X15482596Y-14692784D02*
X15444501Y-14692784D01*
X15444501Y-14692784D02*
X15425453Y-14683260D01*
X15425453Y-14683260D02*
X15415930Y-14664212D01*
X15415930Y-14664212D02*
X15415930Y-14588022D01*
X15415930Y-14588022D02*
X15425453Y-14568974D01*
X15425453Y-14568974D02*
X15444501Y-14559450D01*
X15444501Y-14559450D02*
X15482596Y-14559450D01*
X15482596Y-14559450D02*
X15501644Y-14568974D01*
X15501644Y-14568974D02*
X15511168Y-14588022D01*
X15511168Y-14588022D02*
X15511168Y-14607069D01*
X15511168Y-14607069D02*
X15415930Y-14626117D01*
X15587358Y-14683260D02*
X15606406Y-14692784D01*
X15606406Y-14692784D02*
X15644501Y-14692784D01*
X15644501Y-14692784D02*
X15663549Y-14683260D01*
X15663549Y-14683260D02*
X15673072Y-14664212D01*
X15673072Y-14664212D02*
X15673072Y-14654688D01*
X15673072Y-14654688D02*
X15663549Y-14635641D01*
X15663549Y-14635641D02*
X15644501Y-14626117D01*
X15644501Y-14626117D02*
X15615930Y-14626117D01*
X15615930Y-14626117D02*
X15596882Y-14616593D01*
X15596882Y-14616593D02*
X15587358Y-14597546D01*
X15587358Y-14597546D02*
X15587358Y-14588022D01*
X15587358Y-14588022D02*
X15596882Y-14568974D01*
X15596882Y-14568974D02*
X15615930Y-14559450D01*
X15615930Y-14559450D02*
X15644501Y-14559450D01*
X15644501Y-14559450D02*
X15663549Y-14568974D01*
X15739739Y-14768974D02*
X15749263Y-14759450D01*
X15749263Y-14759450D02*
X15768311Y-14730879D01*
X15768311Y-14730879D02*
X15777834Y-14711831D01*
X15777834Y-14711831D02*
X15787358Y-14683260D01*
X15787358Y-14683260D02*
X15796882Y-14635641D01*
X15796882Y-14635641D02*
X15796882Y-14597546D01*
X15796882Y-14597546D02*
X15787358Y-14549927D01*
X15787358Y-14549927D02*
X15777834Y-14521355D01*
X15777834Y-14521355D02*
X15768311Y-14502308D01*
X15768311Y-14502308D02*
X15749263Y-14473736D01*
X15749263Y-14473736D02*
X15739739Y-14464212D01*
D12*
X10759556Y-14900656D02*
X10759556Y-14829944D01*
X10688844Y-14829944D01*
X10688844Y-14900656D01*
X10759556Y-14900656D01*
D11*
X11139739Y-14956784D02*
X11025453Y-14956784D01*
X11082596Y-14956784D02*
X11082596Y-14756784D01*
X11082596Y-14756784D02*
X11063548Y-14785355D01*
X11063548Y-14785355D02*
X11044501Y-14804403D01*
X11044501Y-14804403D02*
X11025453Y-14813927D01*
X11225453Y-14937736D02*
X11234977Y-14947260D01*
X11234977Y-14947260D02*
X11225453Y-14956784D01*
X11225453Y-14956784D02*
X11215929Y-14947260D01*
X11215929Y-14947260D02*
X11225453Y-14937736D01*
X11225453Y-14937736D02*
X11225453Y-14956784D01*
X11358786Y-14756784D02*
X11377834Y-14756784D01*
X11377834Y-14756784D02*
X11396882Y-14766308D01*
X11396882Y-14766308D02*
X11406405Y-14775831D01*
X11406405Y-14775831D02*
X11415929Y-14794879D01*
X11415929Y-14794879D02*
X11425453Y-14832974D01*
X11425453Y-14832974D02*
X11425453Y-14880593D01*
X11425453Y-14880593D02*
X11415929Y-14918688D01*
X11415929Y-14918688D02*
X11406405Y-14937736D01*
X11406405Y-14937736D02*
X11396882Y-14947260D01*
X11396882Y-14947260D02*
X11377834Y-14956784D01*
X11377834Y-14956784D02*
X11358786Y-14956784D01*
X11358786Y-14956784D02*
X11339739Y-14947260D01*
X11339739Y-14947260D02*
X11330215Y-14937736D01*
X11330215Y-14937736D02*
X11320691Y-14918688D01*
X11320691Y-14918688D02*
X11311167Y-14880593D01*
X11311167Y-14880593D02*
X11311167Y-14832974D01*
X11311167Y-14832974D02*
X11320691Y-14794879D01*
X11320691Y-14794879D02*
X11330215Y-14775831D01*
X11330215Y-14775831D02*
X11339739Y-14766308D01*
X11339739Y-14766308D02*
X11358786Y-14756784D01*
X11549262Y-14756784D02*
X11568310Y-14756784D01*
X11568310Y-14756784D02*
X11587358Y-14766308D01*
X11587358Y-14766308D02*
X11596882Y-14775831D01*
X11596882Y-14775831D02*
X11606405Y-14794879D01*
X11606405Y-14794879D02*
X11615929Y-14832974D01*
X11615929Y-14832974D02*
X11615929Y-14880593D01*
X11615929Y-14880593D02*
X11606405Y-14918688D01*
X11606405Y-14918688D02*
X11596882Y-14937736D01*
X11596882Y-14937736D02*
X11587358Y-14947260D01*
X11587358Y-14947260D02*
X11568310Y-14956784D01*
X11568310Y-14956784D02*
X11549262Y-14956784D01*
X11549262Y-14956784D02*
X11530215Y-14947260D01*
X11530215Y-14947260D02*
X11520691Y-14937736D01*
X11520691Y-14937736D02*
X11511167Y-14918688D01*
X11511167Y-14918688D02*
X11501643Y-14880593D01*
X11501643Y-14880593D02*
X11501643Y-14832974D01*
X11501643Y-14832974D02*
X11511167Y-14794879D01*
X11511167Y-14794879D02*
X11520691Y-14775831D01*
X11520691Y-14775831D02*
X11530215Y-14766308D01*
X11530215Y-14766308D02*
X11549262Y-14756784D01*
X11739739Y-14756784D02*
X11758786Y-14756784D01*
X11758786Y-14756784D02*
X11777834Y-14766308D01*
X11777834Y-14766308D02*
X11787358Y-14775831D01*
X11787358Y-14775831D02*
X11796882Y-14794879D01*
X11796882Y-14794879D02*
X11806405Y-14832974D01*
X11806405Y-14832974D02*
X11806405Y-14880593D01*
X11806405Y-14880593D02*
X11796882Y-14918688D01*
X11796882Y-14918688D02*
X11787358Y-14937736D01*
X11787358Y-14937736D02*
X11777834Y-14947260D01*
X11777834Y-14947260D02*
X11758786Y-14956784D01*
X11758786Y-14956784D02*
X11739739Y-14956784D01*
X11739739Y-14956784D02*
X11720691Y-14947260D01*
X11720691Y-14947260D02*
X11711167Y-14937736D01*
X11711167Y-14937736D02*
X11701643Y-14918688D01*
X11701643Y-14918688D02*
X11692120Y-14880593D01*
X11692120Y-14880593D02*
X11692120Y-14832974D01*
X11692120Y-14832974D02*
X11701643Y-14794879D01*
X11701643Y-14794879D02*
X11711167Y-14775831D01*
X11711167Y-14775831D02*
X11720691Y-14766308D01*
X11720691Y-14766308D02*
X11739739Y-14756784D01*
X11892120Y-14956784D02*
X11892120Y-14823450D01*
X11892120Y-14842498D02*
X11901643Y-14832974D01*
X11901643Y-14832974D02*
X11920691Y-14823450D01*
X11920691Y-14823450D02*
X11949263Y-14823450D01*
X11949263Y-14823450D02*
X11968310Y-14832974D01*
X11968310Y-14832974D02*
X11977834Y-14852022D01*
X11977834Y-14852022D02*
X11977834Y-14956784D01*
X11977834Y-14852022D02*
X11987358Y-14832974D01*
X11987358Y-14832974D02*
X12006405Y-14823450D01*
X12006405Y-14823450D02*
X12034977Y-14823450D01*
X12034977Y-14823450D02*
X12054024Y-14832974D01*
X12054024Y-14832974D02*
X12063548Y-14852022D01*
X12063548Y-14852022D02*
X12063548Y-14956784D01*
X12158786Y-14956784D02*
X12158786Y-14823450D01*
X12158786Y-14842498D02*
X12168310Y-14832974D01*
X12168310Y-14832974D02*
X12187358Y-14823450D01*
X12187358Y-14823450D02*
X12215929Y-14823450D01*
X12215929Y-14823450D02*
X12234977Y-14832974D01*
X12234977Y-14832974D02*
X12244501Y-14852022D01*
X12244501Y-14852022D02*
X12244501Y-14956784D01*
X12244501Y-14852022D02*
X12254024Y-14832974D01*
X12254024Y-14832974D02*
X12273072Y-14823450D01*
X12273072Y-14823450D02*
X12301643Y-14823450D01*
X12301643Y-14823450D02*
X12320691Y-14832974D01*
X12320691Y-14832974D02*
X12330215Y-14852022D01*
X12330215Y-14852022D02*
X12330215Y-14956784D01*
X12720691Y-14747260D02*
X12549263Y-15004403D01*
X12977834Y-14756784D02*
X12996882Y-14756784D01*
X12996882Y-14756784D02*
X13015929Y-14766308D01*
X13015929Y-14766308D02*
X13025453Y-14775831D01*
X13025453Y-14775831D02*
X13034977Y-14794879D01*
X13034977Y-14794879D02*
X13044501Y-14832974D01*
X13044501Y-14832974D02*
X13044501Y-14880593D01*
X13044501Y-14880593D02*
X13034977Y-14918688D01*
X13034977Y-14918688D02*
X13025453Y-14937736D01*
X13025453Y-14937736D02*
X13015929Y-14947260D01*
X13015929Y-14947260D02*
X12996882Y-14956784D01*
X12996882Y-14956784D02*
X12977834Y-14956784D01*
X12977834Y-14956784D02*
X12958786Y-14947260D01*
X12958786Y-14947260D02*
X12949263Y-14937736D01*
X12949263Y-14937736D02*
X12939739Y-14918688D01*
X12939739Y-14918688D02*
X12930215Y-14880593D01*
X12930215Y-14880593D02*
X12930215Y-14832974D01*
X12930215Y-14832974D02*
X12939739Y-14794879D01*
X12939739Y-14794879D02*
X12949263Y-14775831D01*
X12949263Y-14775831D02*
X12958786Y-14766308D01*
X12958786Y-14766308D02*
X12977834Y-14756784D01*
X13130215Y-14937736D02*
X13139739Y-14947260D01*
X13139739Y-14947260D02*
X13130215Y-14956784D01*
X13130215Y-14956784D02*
X13120691Y-14947260D01*
X13120691Y-14947260D02*
X13130215Y-14937736D01*
X13130215Y-14937736D02*
X13130215Y-14956784D01*
X13263548Y-14756784D02*
X13282596Y-14756784D01*
X13282596Y-14756784D02*
X13301644Y-14766308D01*
X13301644Y-14766308D02*
X13311167Y-14775831D01*
X13311167Y-14775831D02*
X13320691Y-14794879D01*
X13320691Y-14794879D02*
X13330215Y-14832974D01*
X13330215Y-14832974D02*
X13330215Y-14880593D01*
X13330215Y-14880593D02*
X13320691Y-14918688D01*
X13320691Y-14918688D02*
X13311167Y-14937736D01*
X13311167Y-14937736D02*
X13301644Y-14947260D01*
X13301644Y-14947260D02*
X13282596Y-14956784D01*
X13282596Y-14956784D02*
X13263548Y-14956784D01*
X13263548Y-14956784D02*
X13244501Y-14947260D01*
X13244501Y-14947260D02*
X13234977Y-14937736D01*
X13234977Y-14937736D02*
X13225453Y-14918688D01*
X13225453Y-14918688D02*
X13215929Y-14880593D01*
X13215929Y-14880593D02*
X13215929Y-14832974D01*
X13215929Y-14832974D02*
X13225453Y-14794879D01*
X13225453Y-14794879D02*
X13234977Y-14775831D01*
X13234977Y-14775831D02*
X13244501Y-14766308D01*
X13244501Y-14766308D02*
X13263548Y-14756784D01*
X13396882Y-14756784D02*
X13520691Y-14756784D01*
X13520691Y-14756784D02*
X13454025Y-14832974D01*
X13454025Y-14832974D02*
X13482596Y-14832974D01*
X13482596Y-14832974D02*
X13501644Y-14842498D01*
X13501644Y-14842498D02*
X13511167Y-14852022D01*
X13511167Y-14852022D02*
X13520691Y-14871069D01*
X13520691Y-14871069D02*
X13520691Y-14918688D01*
X13520691Y-14918688D02*
X13511167Y-14937736D01*
X13511167Y-14937736D02*
X13501644Y-14947260D01*
X13501644Y-14947260D02*
X13482596Y-14956784D01*
X13482596Y-14956784D02*
X13425453Y-14956784D01*
X13425453Y-14956784D02*
X13406406Y-14947260D01*
X13406406Y-14947260D02*
X13396882Y-14937736D01*
X13615929Y-14956784D02*
X13654025Y-14956784D01*
X13654025Y-14956784D02*
X13673072Y-14947260D01*
X13673072Y-14947260D02*
X13682596Y-14937736D01*
X13682596Y-14937736D02*
X13701644Y-14909165D01*
X13701644Y-14909165D02*
X13711167Y-14871069D01*
X13711167Y-14871069D02*
X13711167Y-14794879D01*
X13711167Y-14794879D02*
X13701644Y-14775831D01*
X13701644Y-14775831D02*
X13692120Y-14766308D01*
X13692120Y-14766308D02*
X13673072Y-14756784D01*
X13673072Y-14756784D02*
X13634977Y-14756784D01*
X13634977Y-14756784D02*
X13615929Y-14766308D01*
X13615929Y-14766308D02*
X13606406Y-14775831D01*
X13606406Y-14775831D02*
X13596882Y-14794879D01*
X13596882Y-14794879D02*
X13596882Y-14842498D01*
X13596882Y-14842498D02*
X13606406Y-14861546D01*
X13606406Y-14861546D02*
X13615929Y-14871069D01*
X13615929Y-14871069D02*
X13634977Y-14880593D01*
X13634977Y-14880593D02*
X13673072Y-14880593D01*
X13673072Y-14880593D02*
X13692120Y-14871069D01*
X13692120Y-14871069D02*
X13701644Y-14861546D01*
X13701644Y-14861546D02*
X13711167Y-14842498D01*
X13882596Y-14823450D02*
X13882596Y-14956784D01*
X13834977Y-14747260D02*
X13787358Y-14890117D01*
X13787358Y-14890117D02*
X13911167Y-14890117D01*
X13977834Y-14756784D02*
X13977834Y-14794879D01*
X14054025Y-14756784D02*
X14054025Y-14794879D01*
X14349263Y-15032974D02*
X14339739Y-15023450D01*
X14339739Y-15023450D02*
X14320691Y-14994879D01*
X14320691Y-14994879D02*
X14311168Y-14975831D01*
X14311168Y-14975831D02*
X14301644Y-14947260D01*
X14301644Y-14947260D02*
X14292120Y-14899641D01*
X14292120Y-14899641D02*
X14292120Y-14861546D01*
X14292120Y-14861546D02*
X14301644Y-14813927D01*
X14301644Y-14813927D02*
X14311168Y-14785355D01*
X14311168Y-14785355D02*
X14320691Y-14766308D01*
X14320691Y-14766308D02*
X14339739Y-14737736D01*
X14339739Y-14737736D02*
X14349263Y-14728212D01*
X14415929Y-14775831D02*
X14425453Y-14766308D01*
X14425453Y-14766308D02*
X14444501Y-14756784D01*
X14444501Y-14756784D02*
X14492120Y-14756784D01*
X14492120Y-14756784D02*
X14511168Y-14766308D01*
X14511168Y-14766308D02*
X14520691Y-14775831D01*
X14520691Y-14775831D02*
X14530215Y-14794879D01*
X14530215Y-14794879D02*
X14530215Y-14813927D01*
X14530215Y-14813927D02*
X14520691Y-14842498D01*
X14520691Y-14842498D02*
X14406406Y-14956784D01*
X14406406Y-14956784D02*
X14530215Y-14956784D01*
X14768310Y-14956784D02*
X14768310Y-14756784D01*
X14854025Y-14956784D02*
X14854025Y-14852022D01*
X14854025Y-14852022D02*
X14844501Y-14832974D01*
X14844501Y-14832974D02*
X14825453Y-14823450D01*
X14825453Y-14823450D02*
X14796882Y-14823450D01*
X14796882Y-14823450D02*
X14777834Y-14832974D01*
X14777834Y-14832974D02*
X14768310Y-14842498D01*
X14977834Y-14956784D02*
X14958787Y-14947260D01*
X14958787Y-14947260D02*
X14949263Y-14937736D01*
X14949263Y-14937736D02*
X14939739Y-14918688D01*
X14939739Y-14918688D02*
X14939739Y-14861546D01*
X14939739Y-14861546D02*
X14949263Y-14842498D01*
X14949263Y-14842498D02*
X14958787Y-14832974D01*
X14958787Y-14832974D02*
X14977834Y-14823450D01*
X14977834Y-14823450D02*
X15006406Y-14823450D01*
X15006406Y-14823450D02*
X15025453Y-14832974D01*
X15025453Y-14832974D02*
X15034977Y-14842498D01*
X15034977Y-14842498D02*
X15044501Y-14861546D01*
X15044501Y-14861546D02*
X15044501Y-14918688D01*
X15044501Y-14918688D02*
X15034977Y-14937736D01*
X15034977Y-14937736D02*
X15025453Y-14947260D01*
X15025453Y-14947260D02*
X15006406Y-14956784D01*
X15006406Y-14956784D02*
X14977834Y-14956784D01*
X15158787Y-14956784D02*
X15139739Y-14947260D01*
X15139739Y-14947260D02*
X15130215Y-14928212D01*
X15130215Y-14928212D02*
X15130215Y-14756784D01*
X15311168Y-14947260D02*
X15292120Y-14956784D01*
X15292120Y-14956784D02*
X15254025Y-14956784D01*
X15254025Y-14956784D02*
X15234977Y-14947260D01*
X15234977Y-14947260D02*
X15225453Y-14928212D01*
X15225453Y-14928212D02*
X15225453Y-14852022D01*
X15225453Y-14852022D02*
X15234977Y-14832974D01*
X15234977Y-14832974D02*
X15254025Y-14823450D01*
X15254025Y-14823450D02*
X15292120Y-14823450D01*
X15292120Y-14823450D02*
X15311168Y-14832974D01*
X15311168Y-14832974D02*
X15320691Y-14852022D01*
X15320691Y-14852022D02*
X15320691Y-14871069D01*
X15320691Y-14871069D02*
X15225453Y-14890117D01*
X15396882Y-14947260D02*
X15415930Y-14956784D01*
X15415930Y-14956784D02*
X15454025Y-14956784D01*
X15454025Y-14956784D02*
X15473072Y-14947260D01*
X15473072Y-14947260D02*
X15482596Y-14928212D01*
X15482596Y-14928212D02*
X15482596Y-14918688D01*
X15482596Y-14918688D02*
X15473072Y-14899641D01*
X15473072Y-14899641D02*
X15454025Y-14890117D01*
X15454025Y-14890117D02*
X15425453Y-14890117D01*
X15425453Y-14890117D02*
X15406406Y-14880593D01*
X15406406Y-14880593D02*
X15396882Y-14861546D01*
X15396882Y-14861546D02*
X15396882Y-14852022D01*
X15396882Y-14852022D02*
X15406406Y-14832974D01*
X15406406Y-14832974D02*
X15425453Y-14823450D01*
X15425453Y-14823450D02*
X15454025Y-14823450D01*
X15454025Y-14823450D02*
X15473072Y-14832974D01*
X15549263Y-15032974D02*
X15558787Y-15023450D01*
X15558787Y-15023450D02*
X15577834Y-14994879D01*
X15577834Y-14994879D02*
X15587358Y-14975831D01*
X15587358Y-14975831D02*
X15596882Y-14947260D01*
X15596882Y-14947260D02*
X15606406Y-14899641D01*
X15606406Y-14899641D02*
X15606406Y-14861546D01*
X15606406Y-14861546D02*
X15596882Y-14813927D01*
X15596882Y-14813927D02*
X15587358Y-14785355D01*
X15587358Y-14785355D02*
X15577834Y-14766308D01*
X15577834Y-14766308D02*
X15558787Y-14737736D01*
X15558787Y-14737736D02*
X15549263Y-14728212D01*
D13*
X10694200Y-15209300D02*
X10774200Y-15129300D01*
X10694200Y-15049300D01*
X10614200Y-15129300D01*
X10694200Y-15209300D01*
D11*
X11139739Y-15220784D02*
X11025453Y-15220784D01*
X11082596Y-15220784D02*
X11082596Y-15020784D01*
X11082596Y-15020784D02*
X11063548Y-15049355D01*
X11063548Y-15049355D02*
X11044501Y-15068403D01*
X11044501Y-15068403D02*
X11025453Y-15077927D01*
X11225453Y-15201736D02*
X11234977Y-15211260D01*
X11234977Y-15211260D02*
X11225453Y-15220784D01*
X11225453Y-15220784D02*
X11215929Y-15211260D01*
X11215929Y-15211260D02*
X11225453Y-15201736D01*
X11225453Y-15201736D02*
X11225453Y-15220784D01*
X11406405Y-15020784D02*
X11368310Y-15020784D01*
X11368310Y-15020784D02*
X11349262Y-15030308D01*
X11349262Y-15030308D02*
X11339739Y-15039831D01*
X11339739Y-15039831D02*
X11320691Y-15068403D01*
X11320691Y-15068403D02*
X11311167Y-15106498D01*
X11311167Y-15106498D02*
X11311167Y-15182688D01*
X11311167Y-15182688D02*
X11320691Y-15201736D01*
X11320691Y-15201736D02*
X11330215Y-15211260D01*
X11330215Y-15211260D02*
X11349262Y-15220784D01*
X11349262Y-15220784D02*
X11387358Y-15220784D01*
X11387358Y-15220784D02*
X11406405Y-15211260D01*
X11406405Y-15211260D02*
X11415929Y-15201736D01*
X11415929Y-15201736D02*
X11425453Y-15182688D01*
X11425453Y-15182688D02*
X11425453Y-15135069D01*
X11425453Y-15135069D02*
X11415929Y-15116022D01*
X11415929Y-15116022D02*
X11406405Y-15106498D01*
X11406405Y-15106498D02*
X11387358Y-15096974D01*
X11387358Y-15096974D02*
X11349262Y-15096974D01*
X11349262Y-15096974D02*
X11330215Y-15106498D01*
X11330215Y-15106498D02*
X11320691Y-15116022D01*
X11320691Y-15116022D02*
X11311167Y-15135069D01*
X11549262Y-15020784D02*
X11568310Y-15020784D01*
X11568310Y-15020784D02*
X11587358Y-15030308D01*
X11587358Y-15030308D02*
X11596882Y-15039831D01*
X11596882Y-15039831D02*
X11606405Y-15058879D01*
X11606405Y-15058879D02*
X11615929Y-15096974D01*
X11615929Y-15096974D02*
X11615929Y-15144593D01*
X11615929Y-15144593D02*
X11606405Y-15182688D01*
X11606405Y-15182688D02*
X11596882Y-15201736D01*
X11596882Y-15201736D02*
X11587358Y-15211260D01*
X11587358Y-15211260D02*
X11568310Y-15220784D01*
X11568310Y-15220784D02*
X11549262Y-15220784D01*
X11549262Y-15220784D02*
X11530215Y-15211260D01*
X11530215Y-15211260D02*
X11520691Y-15201736D01*
X11520691Y-15201736D02*
X11511167Y-15182688D01*
X11511167Y-15182688D02*
X11501643Y-15144593D01*
X11501643Y-15144593D02*
X11501643Y-15096974D01*
X11501643Y-15096974D02*
X11511167Y-15058879D01*
X11511167Y-15058879D02*
X11520691Y-15039831D01*
X11520691Y-15039831D02*
X11530215Y-15030308D01*
X11530215Y-15030308D02*
X11549262Y-15020784D01*
X11739739Y-15020784D02*
X11758786Y-15020784D01*
X11758786Y-15020784D02*
X11777834Y-15030308D01*
X11777834Y-15030308D02*
X11787358Y-15039831D01*
X11787358Y-15039831D02*
X11796882Y-15058879D01*
X11796882Y-15058879D02*
X11806405Y-15096974D01*
X11806405Y-15096974D02*
X11806405Y-15144593D01*
X11806405Y-15144593D02*
X11796882Y-15182688D01*
X11796882Y-15182688D02*
X11787358Y-15201736D01*
X11787358Y-15201736D02*
X11777834Y-15211260D01*
X11777834Y-15211260D02*
X11758786Y-15220784D01*
X11758786Y-15220784D02*
X11739739Y-15220784D01*
X11739739Y-15220784D02*
X11720691Y-15211260D01*
X11720691Y-15211260D02*
X11711167Y-15201736D01*
X11711167Y-15201736D02*
X11701643Y-15182688D01*
X11701643Y-15182688D02*
X11692120Y-15144593D01*
X11692120Y-15144593D02*
X11692120Y-15096974D01*
X11692120Y-15096974D02*
X11701643Y-15058879D01*
X11701643Y-15058879D02*
X11711167Y-15039831D01*
X11711167Y-15039831D02*
X11720691Y-15030308D01*
X11720691Y-15030308D02*
X11739739Y-15020784D01*
X11892120Y-15220784D02*
X11892120Y-15087450D01*
X11892120Y-15106498D02*
X11901643Y-15096974D01*
X11901643Y-15096974D02*
X11920691Y-15087450D01*
X11920691Y-15087450D02*
X11949263Y-15087450D01*
X11949263Y-15087450D02*
X11968310Y-15096974D01*
X11968310Y-15096974D02*
X11977834Y-15116022D01*
X11977834Y-15116022D02*
X11977834Y-15220784D01*
X11977834Y-15116022D02*
X11987358Y-15096974D01*
X11987358Y-15096974D02*
X12006405Y-15087450D01*
X12006405Y-15087450D02*
X12034977Y-15087450D01*
X12034977Y-15087450D02*
X12054024Y-15096974D01*
X12054024Y-15096974D02*
X12063548Y-15116022D01*
X12063548Y-15116022D02*
X12063548Y-15220784D01*
X12158786Y-15220784D02*
X12158786Y-15087450D01*
X12158786Y-15106498D02*
X12168310Y-15096974D01*
X12168310Y-15096974D02*
X12187358Y-15087450D01*
X12187358Y-15087450D02*
X12215929Y-15087450D01*
X12215929Y-15087450D02*
X12234977Y-15096974D01*
X12234977Y-15096974D02*
X12244501Y-15116022D01*
X12244501Y-15116022D02*
X12244501Y-15220784D01*
X12244501Y-15116022D02*
X12254024Y-15096974D01*
X12254024Y-15096974D02*
X12273072Y-15087450D01*
X12273072Y-15087450D02*
X12301643Y-15087450D01*
X12301643Y-15087450D02*
X12320691Y-15096974D01*
X12320691Y-15096974D02*
X12330215Y-15116022D01*
X12330215Y-15116022D02*
X12330215Y-15220784D01*
X12720691Y-15011260D02*
X12549263Y-15268403D01*
X12977834Y-15020784D02*
X12996882Y-15020784D01*
X12996882Y-15020784D02*
X13015929Y-15030308D01*
X13015929Y-15030308D02*
X13025453Y-15039831D01*
X13025453Y-15039831D02*
X13034977Y-15058879D01*
X13034977Y-15058879D02*
X13044501Y-15096974D01*
X13044501Y-15096974D02*
X13044501Y-15144593D01*
X13044501Y-15144593D02*
X13034977Y-15182688D01*
X13034977Y-15182688D02*
X13025453Y-15201736D01*
X13025453Y-15201736D02*
X13015929Y-15211260D01*
X13015929Y-15211260D02*
X12996882Y-15220784D01*
X12996882Y-15220784D02*
X12977834Y-15220784D01*
X12977834Y-15220784D02*
X12958786Y-15211260D01*
X12958786Y-15211260D02*
X12949263Y-15201736D01*
X12949263Y-15201736D02*
X12939739Y-15182688D01*
X12939739Y-15182688D02*
X12930215Y-15144593D01*
X12930215Y-15144593D02*
X12930215Y-15096974D01*
X12930215Y-15096974D02*
X12939739Y-15058879D01*
X12939739Y-15058879D02*
X12949263Y-15039831D01*
X12949263Y-15039831D02*
X12958786Y-15030308D01*
X12958786Y-15030308D02*
X12977834Y-15020784D01*
X13130215Y-15201736D02*
X13139739Y-15211260D01*
X13139739Y-15211260D02*
X13130215Y-15220784D01*
X13130215Y-15220784D02*
X13120691Y-15211260D01*
X13120691Y-15211260D02*
X13130215Y-15201736D01*
X13130215Y-15201736D02*
X13130215Y-15220784D01*
X13263548Y-15020784D02*
X13282596Y-15020784D01*
X13282596Y-15020784D02*
X13301644Y-15030308D01*
X13301644Y-15030308D02*
X13311167Y-15039831D01*
X13311167Y-15039831D02*
X13320691Y-15058879D01*
X13320691Y-15058879D02*
X13330215Y-15096974D01*
X13330215Y-15096974D02*
X13330215Y-15144593D01*
X13330215Y-15144593D02*
X13320691Y-15182688D01*
X13320691Y-15182688D02*
X13311167Y-15201736D01*
X13311167Y-15201736D02*
X13301644Y-15211260D01*
X13301644Y-15211260D02*
X13282596Y-15220784D01*
X13282596Y-15220784D02*
X13263548Y-15220784D01*
X13263548Y-15220784D02*
X13244501Y-15211260D01*
X13244501Y-15211260D02*
X13234977Y-15201736D01*
X13234977Y-15201736D02*
X13225453Y-15182688D01*
X13225453Y-15182688D02*
X13215929Y-15144593D01*
X13215929Y-15144593D02*
X13215929Y-15096974D01*
X13215929Y-15096974D02*
X13225453Y-15058879D01*
X13225453Y-15058879D02*
X13234977Y-15039831D01*
X13234977Y-15039831D02*
X13244501Y-15030308D01*
X13244501Y-15030308D02*
X13263548Y-15020784D01*
X13501644Y-15020784D02*
X13463548Y-15020784D01*
X13463548Y-15020784D02*
X13444501Y-15030308D01*
X13444501Y-15030308D02*
X13434977Y-15039831D01*
X13434977Y-15039831D02*
X13415929Y-15068403D01*
X13415929Y-15068403D02*
X13406406Y-15106498D01*
X13406406Y-15106498D02*
X13406406Y-15182688D01*
X13406406Y-15182688D02*
X13415929Y-15201736D01*
X13415929Y-15201736D02*
X13425453Y-15211260D01*
X13425453Y-15211260D02*
X13444501Y-15220784D01*
X13444501Y-15220784D02*
X13482596Y-15220784D01*
X13482596Y-15220784D02*
X13501644Y-15211260D01*
X13501644Y-15211260D02*
X13511167Y-15201736D01*
X13511167Y-15201736D02*
X13520691Y-15182688D01*
X13520691Y-15182688D02*
X13520691Y-15135069D01*
X13520691Y-15135069D02*
X13511167Y-15116022D01*
X13511167Y-15116022D02*
X13501644Y-15106498D01*
X13501644Y-15106498D02*
X13482596Y-15096974D01*
X13482596Y-15096974D02*
X13444501Y-15096974D01*
X13444501Y-15096974D02*
X13425453Y-15106498D01*
X13425453Y-15106498D02*
X13415929Y-15116022D01*
X13415929Y-15116022D02*
X13406406Y-15135069D01*
X13587358Y-15020784D02*
X13711167Y-15020784D01*
X13711167Y-15020784D02*
X13644501Y-15096974D01*
X13644501Y-15096974D02*
X13673072Y-15096974D01*
X13673072Y-15096974D02*
X13692120Y-15106498D01*
X13692120Y-15106498D02*
X13701644Y-15116022D01*
X13701644Y-15116022D02*
X13711167Y-15135069D01*
X13711167Y-15135069D02*
X13711167Y-15182688D01*
X13711167Y-15182688D02*
X13701644Y-15201736D01*
X13701644Y-15201736D02*
X13692120Y-15211260D01*
X13692120Y-15211260D02*
X13673072Y-15220784D01*
X13673072Y-15220784D02*
X13615929Y-15220784D01*
X13615929Y-15220784D02*
X13596882Y-15211260D01*
X13596882Y-15211260D02*
X13587358Y-15201736D01*
X13834977Y-15020784D02*
X13854025Y-15020784D01*
X13854025Y-15020784D02*
X13873072Y-15030308D01*
X13873072Y-15030308D02*
X13882596Y-15039831D01*
X13882596Y-15039831D02*
X13892120Y-15058879D01*
X13892120Y-15058879D02*
X13901644Y-15096974D01*
X13901644Y-15096974D02*
X13901644Y-15144593D01*
X13901644Y-15144593D02*
X13892120Y-15182688D01*
X13892120Y-15182688D02*
X13882596Y-15201736D01*
X13882596Y-15201736D02*
X13873072Y-15211260D01*
X13873072Y-15211260D02*
X13854025Y-15220784D01*
X13854025Y-15220784D02*
X13834977Y-15220784D01*
X13834977Y-15220784D02*
X13815929Y-15211260D01*
X13815929Y-15211260D02*
X13806406Y-15201736D01*
X13806406Y-15201736D02*
X13796882Y-15182688D01*
X13796882Y-15182688D02*
X13787358Y-15144593D01*
X13787358Y-15144593D02*
X13787358Y-15096974D01*
X13787358Y-15096974D02*
X13796882Y-15058879D01*
X13796882Y-15058879D02*
X13806406Y-15039831D01*
X13806406Y-15039831D02*
X13815929Y-15030308D01*
X13815929Y-15030308D02*
X13834977Y-15020784D01*
X13977834Y-15020784D02*
X13977834Y-15058879D01*
X14054025Y-15020784D02*
X14054025Y-15058879D01*
X14349263Y-15296974D02*
X14339739Y-15287450D01*
X14339739Y-15287450D02*
X14320691Y-15258879D01*
X14320691Y-15258879D02*
X14311168Y-15239831D01*
X14311168Y-15239831D02*
X14301644Y-15211260D01*
X14301644Y-15211260D02*
X14292120Y-15163641D01*
X14292120Y-15163641D02*
X14292120Y-15125546D01*
X14292120Y-15125546D02*
X14301644Y-15077927D01*
X14301644Y-15077927D02*
X14311168Y-15049355D01*
X14311168Y-15049355D02*
X14320691Y-15030308D01*
X14320691Y-15030308D02*
X14339739Y-15001736D01*
X14339739Y-15001736D02*
X14349263Y-14992212D01*
X14415929Y-15039831D02*
X14425453Y-15030308D01*
X14425453Y-15030308D02*
X14444501Y-15020784D01*
X14444501Y-15020784D02*
X14492120Y-15020784D01*
X14492120Y-15020784D02*
X14511168Y-15030308D01*
X14511168Y-15030308D02*
X14520691Y-15039831D01*
X14520691Y-15039831D02*
X14530215Y-15058879D01*
X14530215Y-15058879D02*
X14530215Y-15077927D01*
X14530215Y-15077927D02*
X14520691Y-15106498D01*
X14520691Y-15106498D02*
X14406406Y-15220784D01*
X14406406Y-15220784D02*
X14530215Y-15220784D01*
X14768310Y-15220784D02*
X14768310Y-15020784D01*
X14854025Y-15220784D02*
X14854025Y-15116022D01*
X14854025Y-15116022D02*
X14844501Y-15096974D01*
X14844501Y-15096974D02*
X14825453Y-15087450D01*
X14825453Y-15087450D02*
X14796882Y-15087450D01*
X14796882Y-15087450D02*
X14777834Y-15096974D01*
X14777834Y-15096974D02*
X14768310Y-15106498D01*
X14977834Y-15220784D02*
X14958787Y-15211260D01*
X14958787Y-15211260D02*
X14949263Y-15201736D01*
X14949263Y-15201736D02*
X14939739Y-15182688D01*
X14939739Y-15182688D02*
X14939739Y-15125546D01*
X14939739Y-15125546D02*
X14949263Y-15106498D01*
X14949263Y-15106498D02*
X14958787Y-15096974D01*
X14958787Y-15096974D02*
X14977834Y-15087450D01*
X14977834Y-15087450D02*
X15006406Y-15087450D01*
X15006406Y-15087450D02*
X15025453Y-15096974D01*
X15025453Y-15096974D02*
X15034977Y-15106498D01*
X15034977Y-15106498D02*
X15044501Y-15125546D01*
X15044501Y-15125546D02*
X15044501Y-15182688D01*
X15044501Y-15182688D02*
X15034977Y-15201736D01*
X15034977Y-15201736D02*
X15025453Y-15211260D01*
X15025453Y-15211260D02*
X15006406Y-15220784D01*
X15006406Y-15220784D02*
X14977834Y-15220784D01*
X15158787Y-15220784D02*
X15139739Y-15211260D01*
X15139739Y-15211260D02*
X15130215Y-15192212D01*
X15130215Y-15192212D02*
X15130215Y-15020784D01*
X15311168Y-15211260D02*
X15292120Y-15220784D01*
X15292120Y-15220784D02*
X15254025Y-15220784D01*
X15254025Y-15220784D02*
X15234977Y-15211260D01*
X15234977Y-15211260D02*
X15225453Y-15192212D01*
X15225453Y-15192212D02*
X15225453Y-15116022D01*
X15225453Y-15116022D02*
X15234977Y-15096974D01*
X15234977Y-15096974D02*
X15254025Y-15087450D01*
X15254025Y-15087450D02*
X15292120Y-15087450D01*
X15292120Y-15087450D02*
X15311168Y-15096974D01*
X15311168Y-15096974D02*
X15320691Y-15116022D01*
X15320691Y-15116022D02*
X15320691Y-15135069D01*
X15320691Y-15135069D02*
X15225453Y-15154117D01*
X15396882Y-15211260D02*
X15415930Y-15220784D01*
X15415930Y-15220784D02*
X15454025Y-15220784D01*
X15454025Y-15220784D02*
X15473072Y-15211260D01*
X15473072Y-15211260D02*
X15482596Y-15192212D01*
X15482596Y-15192212D02*
X15482596Y-15182688D01*
X15482596Y-15182688D02*
X15473072Y-15163641D01*
X15473072Y-15163641D02*
X15454025Y-15154117D01*
X15454025Y-15154117D02*
X15425453Y-15154117D01*
X15425453Y-15154117D02*
X15406406Y-15144593D01*
X15406406Y-15144593D02*
X15396882Y-15125546D01*
X15396882Y-15125546D02*
X15396882Y-15116022D01*
X15396882Y-15116022D02*
X15406406Y-15096974D01*
X15406406Y-15096974D02*
X15425453Y-15087450D01*
X15425453Y-15087450D02*
X15454025Y-15087450D01*
X15454025Y-15087450D02*
X15473072Y-15096974D01*
X15549263Y-15296974D02*
X15558787Y-15287450D01*
X15558787Y-15287450D02*
X15577834Y-15258879D01*
X15577834Y-15258879D02*
X15587358Y-15239831D01*
X15587358Y-15239831D02*
X15596882Y-15211260D01*
X15596882Y-15211260D02*
X15606406Y-15163641D01*
X15606406Y-15163641D02*
X15606406Y-15125546D01*
X15606406Y-15125546D02*
X15596882Y-15077927D01*
X15596882Y-15077927D02*
X15587358Y-15049355D01*
X15587358Y-15049355D02*
X15577834Y-15030308D01*
X15577834Y-15030308D02*
X15558787Y-15001736D01*
X15558787Y-15001736D02*
X15549263Y-14992212D01*
D14*
X10589200Y-15316800D02*
X10774200Y-15501800D01*
X10774200Y-15316800D02*
X10589200Y-15501800D01*
X10774200Y-15409300D02*
G75*
G02*
X10589200Y-15409300I-92500J0D01*
G01*
X10589200Y-15409300D02*
G75*
G02*
X10774200Y-15409300I92500J0D01*
G01*
D11*
X11139739Y-15500784D02*
X11025453Y-15500784D01*
X11082596Y-15500784D02*
X11082596Y-15300784D01*
X11082596Y-15300784D02*
X11063548Y-15329355D01*
X11063548Y-15329355D02*
X11044501Y-15348403D01*
X11044501Y-15348403D02*
X11025453Y-15357927D01*
X11225453Y-15481736D02*
X11234977Y-15491260D01*
X11234977Y-15491260D02*
X11225453Y-15500784D01*
X11225453Y-15500784D02*
X11215929Y-15491260D01*
X11215929Y-15491260D02*
X11225453Y-15481736D01*
X11225453Y-15481736D02*
X11225453Y-15500784D01*
X11349262Y-15386498D02*
X11330215Y-15376974D01*
X11330215Y-15376974D02*
X11320691Y-15367450D01*
X11320691Y-15367450D02*
X11311167Y-15348403D01*
X11311167Y-15348403D02*
X11311167Y-15338879D01*
X11311167Y-15338879D02*
X11320691Y-15319831D01*
X11320691Y-15319831D02*
X11330215Y-15310308D01*
X11330215Y-15310308D02*
X11349262Y-15300784D01*
X11349262Y-15300784D02*
X11387358Y-15300784D01*
X11387358Y-15300784D02*
X11406405Y-15310308D01*
X11406405Y-15310308D02*
X11415929Y-15319831D01*
X11415929Y-15319831D02*
X11425453Y-15338879D01*
X11425453Y-15338879D02*
X11425453Y-15348403D01*
X11425453Y-15348403D02*
X11415929Y-15367450D01*
X11415929Y-15367450D02*
X11406405Y-15376974D01*
X11406405Y-15376974D02*
X11387358Y-15386498D01*
X11387358Y-15386498D02*
X11349262Y-15386498D01*
X11349262Y-15386498D02*
X11330215Y-15396022D01*
X11330215Y-15396022D02*
X11320691Y-15405546D01*
X11320691Y-15405546D02*
X11311167Y-15424593D01*
X11311167Y-15424593D02*
X11311167Y-15462688D01*
X11311167Y-15462688D02*
X11320691Y-15481736D01*
X11320691Y-15481736D02*
X11330215Y-15491260D01*
X11330215Y-15491260D02*
X11349262Y-15500784D01*
X11349262Y-15500784D02*
X11387358Y-15500784D01*
X11387358Y-15500784D02*
X11406405Y-15491260D01*
X11406405Y-15491260D02*
X11415929Y-15481736D01*
X11415929Y-15481736D02*
X11425453Y-15462688D01*
X11425453Y-15462688D02*
X11425453Y-15424593D01*
X11425453Y-15424593D02*
X11415929Y-15405546D01*
X11415929Y-15405546D02*
X11406405Y-15396022D01*
X11406405Y-15396022D02*
X11387358Y-15386498D01*
X11606405Y-15300784D02*
X11511167Y-15300784D01*
X11511167Y-15300784D02*
X11501643Y-15396022D01*
X11501643Y-15396022D02*
X11511167Y-15386498D01*
X11511167Y-15386498D02*
X11530215Y-15376974D01*
X11530215Y-15376974D02*
X11577834Y-15376974D01*
X11577834Y-15376974D02*
X11596882Y-15386498D01*
X11596882Y-15386498D02*
X11606405Y-15396022D01*
X11606405Y-15396022D02*
X11615929Y-15415069D01*
X11615929Y-15415069D02*
X11615929Y-15462688D01*
X11615929Y-15462688D02*
X11606405Y-15481736D01*
X11606405Y-15481736D02*
X11596882Y-15491260D01*
X11596882Y-15491260D02*
X11577834Y-15500784D01*
X11577834Y-15500784D02*
X11530215Y-15500784D01*
X11530215Y-15500784D02*
X11511167Y-15491260D01*
X11511167Y-15491260D02*
X11501643Y-15481736D01*
X11739739Y-15300784D02*
X11758786Y-15300784D01*
X11758786Y-15300784D02*
X11777834Y-15310308D01*
X11777834Y-15310308D02*
X11787358Y-15319831D01*
X11787358Y-15319831D02*
X11796882Y-15338879D01*
X11796882Y-15338879D02*
X11806405Y-15376974D01*
X11806405Y-15376974D02*
X11806405Y-15424593D01*
X11806405Y-15424593D02*
X11796882Y-15462688D01*
X11796882Y-15462688D02*
X11787358Y-15481736D01*
X11787358Y-15481736D02*
X11777834Y-15491260D01*
X11777834Y-15491260D02*
X11758786Y-15500784D01*
X11758786Y-15500784D02*
X11739739Y-15500784D01*
X11739739Y-15500784D02*
X11720691Y-15491260D01*
X11720691Y-15491260D02*
X11711167Y-15481736D01*
X11711167Y-15481736D02*
X11701643Y-15462688D01*
X11701643Y-15462688D02*
X11692120Y-15424593D01*
X11692120Y-15424593D02*
X11692120Y-15376974D01*
X11692120Y-15376974D02*
X11701643Y-15338879D01*
X11701643Y-15338879D02*
X11711167Y-15319831D01*
X11711167Y-15319831D02*
X11720691Y-15310308D01*
X11720691Y-15310308D02*
X11739739Y-15300784D01*
X11892120Y-15500784D02*
X11892120Y-15367450D01*
X11892120Y-15386498D02*
X11901643Y-15376974D01*
X11901643Y-15376974D02*
X11920691Y-15367450D01*
X11920691Y-15367450D02*
X11949263Y-15367450D01*
X11949263Y-15367450D02*
X11968310Y-15376974D01*
X11968310Y-15376974D02*
X11977834Y-15396022D01*
X11977834Y-15396022D02*
X11977834Y-15500784D01*
X11977834Y-15396022D02*
X11987358Y-15376974D01*
X11987358Y-15376974D02*
X12006405Y-15367450D01*
X12006405Y-15367450D02*
X12034977Y-15367450D01*
X12034977Y-15367450D02*
X12054024Y-15376974D01*
X12054024Y-15376974D02*
X12063548Y-15396022D01*
X12063548Y-15396022D02*
X12063548Y-15500784D01*
X12158786Y-15500784D02*
X12158786Y-15367450D01*
X12158786Y-15386498D02*
X12168310Y-15376974D01*
X12168310Y-15376974D02*
X12187358Y-15367450D01*
X12187358Y-15367450D02*
X12215929Y-15367450D01*
X12215929Y-15367450D02*
X12234977Y-15376974D01*
X12234977Y-15376974D02*
X12244501Y-15396022D01*
X12244501Y-15396022D02*
X12244501Y-15500784D01*
X12244501Y-15396022D02*
X12254024Y-15376974D01*
X12254024Y-15376974D02*
X12273072Y-15367450D01*
X12273072Y-15367450D02*
X12301643Y-15367450D01*
X12301643Y-15367450D02*
X12320691Y-15376974D01*
X12320691Y-15376974D02*
X12330215Y-15396022D01*
X12330215Y-15396022D02*
X12330215Y-15500784D01*
X12720691Y-15291260D02*
X12549263Y-15548403D01*
X12977834Y-15300784D02*
X12996882Y-15300784D01*
X12996882Y-15300784D02*
X13015929Y-15310308D01*
X13015929Y-15310308D02*
X13025453Y-15319831D01*
X13025453Y-15319831D02*
X13034977Y-15338879D01*
X13034977Y-15338879D02*
X13044501Y-15376974D01*
X13044501Y-15376974D02*
X13044501Y-15424593D01*
X13044501Y-15424593D02*
X13034977Y-15462688D01*
X13034977Y-15462688D02*
X13025453Y-15481736D01*
X13025453Y-15481736D02*
X13015929Y-15491260D01*
X13015929Y-15491260D02*
X12996882Y-15500784D01*
X12996882Y-15500784D02*
X12977834Y-15500784D01*
X12977834Y-15500784D02*
X12958786Y-15491260D01*
X12958786Y-15491260D02*
X12949263Y-15481736D01*
X12949263Y-15481736D02*
X12939739Y-15462688D01*
X12939739Y-15462688D02*
X12930215Y-15424593D01*
X12930215Y-15424593D02*
X12930215Y-15376974D01*
X12930215Y-15376974D02*
X12939739Y-15338879D01*
X12939739Y-15338879D02*
X12949263Y-15319831D01*
X12949263Y-15319831D02*
X12958786Y-15310308D01*
X12958786Y-15310308D02*
X12977834Y-15300784D01*
X13130215Y-15481736D02*
X13139739Y-15491260D01*
X13139739Y-15491260D02*
X13130215Y-15500784D01*
X13130215Y-15500784D02*
X13120691Y-15491260D01*
X13120691Y-15491260D02*
X13130215Y-15481736D01*
X13130215Y-15481736D02*
X13130215Y-15500784D01*
X13263548Y-15300784D02*
X13282596Y-15300784D01*
X13282596Y-15300784D02*
X13301644Y-15310308D01*
X13301644Y-15310308D02*
X13311167Y-15319831D01*
X13311167Y-15319831D02*
X13320691Y-15338879D01*
X13320691Y-15338879D02*
X13330215Y-15376974D01*
X13330215Y-15376974D02*
X13330215Y-15424593D01*
X13330215Y-15424593D02*
X13320691Y-15462688D01*
X13320691Y-15462688D02*
X13311167Y-15481736D01*
X13311167Y-15481736D02*
X13301644Y-15491260D01*
X13301644Y-15491260D02*
X13282596Y-15500784D01*
X13282596Y-15500784D02*
X13263548Y-15500784D01*
X13263548Y-15500784D02*
X13244501Y-15491260D01*
X13244501Y-15491260D02*
X13234977Y-15481736D01*
X13234977Y-15481736D02*
X13225453Y-15462688D01*
X13225453Y-15462688D02*
X13215929Y-15424593D01*
X13215929Y-15424593D02*
X13215929Y-15376974D01*
X13215929Y-15376974D02*
X13225453Y-15338879D01*
X13225453Y-15338879D02*
X13234977Y-15319831D01*
X13234977Y-15319831D02*
X13244501Y-15310308D01*
X13244501Y-15310308D02*
X13263548Y-15300784D01*
X13396882Y-15300784D02*
X13530215Y-15300784D01*
X13530215Y-15300784D02*
X13444501Y-15500784D01*
X13596882Y-15319831D02*
X13606406Y-15310308D01*
X13606406Y-15310308D02*
X13625453Y-15300784D01*
X13625453Y-15300784D02*
X13673072Y-15300784D01*
X13673072Y-15300784D02*
X13692120Y-15310308D01*
X13692120Y-15310308D02*
X13701644Y-15319831D01*
X13701644Y-15319831D02*
X13711167Y-15338879D01*
X13711167Y-15338879D02*
X13711167Y-15357927D01*
X13711167Y-15357927D02*
X13701644Y-15386498D01*
X13701644Y-15386498D02*
X13587358Y-15500784D01*
X13587358Y-15500784D02*
X13711167Y-15500784D01*
X13825453Y-15386498D02*
X13806406Y-15376974D01*
X13806406Y-15376974D02*
X13796882Y-15367450D01*
X13796882Y-15367450D02*
X13787358Y-15348403D01*
X13787358Y-15348403D02*
X13787358Y-15338879D01*
X13787358Y-15338879D02*
X13796882Y-15319831D01*
X13796882Y-15319831D02*
X13806406Y-15310308D01*
X13806406Y-15310308D02*
X13825453Y-15300784D01*
X13825453Y-15300784D02*
X13863548Y-15300784D01*
X13863548Y-15300784D02*
X13882596Y-15310308D01*
X13882596Y-15310308D02*
X13892120Y-15319831D01*
X13892120Y-15319831D02*
X13901644Y-15338879D01*
X13901644Y-15338879D02*
X13901644Y-15348403D01*
X13901644Y-15348403D02*
X13892120Y-15367450D01*
X13892120Y-15367450D02*
X13882596Y-15376974D01*
X13882596Y-15376974D02*
X13863548Y-15386498D01*
X13863548Y-15386498D02*
X13825453Y-15386498D01*
X13825453Y-15386498D02*
X13806406Y-15396022D01*
X13806406Y-15396022D02*
X13796882Y-15405546D01*
X13796882Y-15405546D02*
X13787358Y-15424593D01*
X13787358Y-15424593D02*
X13787358Y-15462688D01*
X13787358Y-15462688D02*
X13796882Y-15481736D01*
X13796882Y-15481736D02*
X13806406Y-15491260D01*
X13806406Y-15491260D02*
X13825453Y-15500784D01*
X13825453Y-15500784D02*
X13863548Y-15500784D01*
X13863548Y-15500784D02*
X13882596Y-15491260D01*
X13882596Y-15491260D02*
X13892120Y-15481736D01*
X13892120Y-15481736D02*
X13901644Y-15462688D01*
X13901644Y-15462688D02*
X13901644Y-15424593D01*
X13901644Y-15424593D02*
X13892120Y-15405546D01*
X13892120Y-15405546D02*
X13882596Y-15396022D01*
X13882596Y-15396022D02*
X13863548Y-15386498D01*
X13977834Y-15300784D02*
X13977834Y-15338879D01*
X14054025Y-15300784D02*
X14054025Y-15338879D01*
X14349263Y-15576974D02*
X14339739Y-15567450D01*
X14339739Y-15567450D02*
X14320691Y-15538879D01*
X14320691Y-15538879D02*
X14311168Y-15519831D01*
X14311168Y-15519831D02*
X14301644Y-15491260D01*
X14301644Y-15491260D02*
X14292120Y-15443641D01*
X14292120Y-15443641D02*
X14292120Y-15405546D01*
X14292120Y-15405546D02*
X14301644Y-15357927D01*
X14301644Y-15357927D02*
X14311168Y-15329355D01*
X14311168Y-15329355D02*
X14320691Y-15310308D01*
X14320691Y-15310308D02*
X14339739Y-15281736D01*
X14339739Y-15281736D02*
X14349263Y-15272212D01*
X14530215Y-15500784D02*
X14415929Y-15500784D01*
X14473072Y-15500784D02*
X14473072Y-15300784D01*
X14473072Y-15300784D02*
X14454025Y-15329355D01*
X14454025Y-15329355D02*
X14434977Y-15348403D01*
X14434977Y-15348403D02*
X14415929Y-15357927D01*
X14606406Y-15319831D02*
X14615929Y-15310308D01*
X14615929Y-15310308D02*
X14634977Y-15300784D01*
X14634977Y-15300784D02*
X14682596Y-15300784D01*
X14682596Y-15300784D02*
X14701644Y-15310308D01*
X14701644Y-15310308D02*
X14711168Y-15319831D01*
X14711168Y-15319831D02*
X14720691Y-15338879D01*
X14720691Y-15338879D02*
X14720691Y-15357927D01*
X14720691Y-15357927D02*
X14711168Y-15386498D01*
X14711168Y-15386498D02*
X14596882Y-15500784D01*
X14596882Y-15500784D02*
X14720691Y-15500784D01*
X14958787Y-15500784D02*
X14958787Y-15300784D01*
X15044501Y-15500784D02*
X15044501Y-15396022D01*
X15044501Y-15396022D02*
X15034977Y-15376974D01*
X15034977Y-15376974D02*
X15015930Y-15367450D01*
X15015930Y-15367450D02*
X14987358Y-15367450D01*
X14987358Y-15367450D02*
X14968310Y-15376974D01*
X14968310Y-15376974D02*
X14958787Y-15386498D01*
X15168310Y-15500784D02*
X15149263Y-15491260D01*
X15149263Y-15491260D02*
X15139739Y-15481736D01*
X15139739Y-15481736D02*
X15130215Y-15462688D01*
X15130215Y-15462688D02*
X15130215Y-15405546D01*
X15130215Y-15405546D02*
X15139739Y-15386498D01*
X15139739Y-15386498D02*
X15149263Y-15376974D01*
X15149263Y-15376974D02*
X15168310Y-15367450D01*
X15168310Y-15367450D02*
X15196882Y-15367450D01*
X15196882Y-15367450D02*
X15215930Y-15376974D01*
X15215930Y-15376974D02*
X15225453Y-15386498D01*
X15225453Y-15386498D02*
X15234977Y-15405546D01*
X15234977Y-15405546D02*
X15234977Y-15462688D01*
X15234977Y-15462688D02*
X15225453Y-15481736D01*
X15225453Y-15481736D02*
X15215930Y-15491260D01*
X15215930Y-15491260D02*
X15196882Y-15500784D01*
X15196882Y-15500784D02*
X15168310Y-15500784D01*
X15349263Y-15500784D02*
X15330215Y-15491260D01*
X15330215Y-15491260D02*
X15320691Y-15472212D01*
X15320691Y-15472212D02*
X15320691Y-15300784D01*
X15501644Y-15491260D02*
X15482596Y-15500784D01*
X15482596Y-15500784D02*
X15444501Y-15500784D01*
X15444501Y-15500784D02*
X15425453Y-15491260D01*
X15425453Y-15491260D02*
X15415930Y-15472212D01*
X15415930Y-15472212D02*
X15415930Y-15396022D01*
X15415930Y-15396022D02*
X15425453Y-15376974D01*
X15425453Y-15376974D02*
X15444501Y-15367450D01*
X15444501Y-15367450D02*
X15482596Y-15367450D01*
X15482596Y-15367450D02*
X15501644Y-15376974D01*
X15501644Y-15376974D02*
X15511168Y-15396022D01*
X15511168Y-15396022D02*
X15511168Y-15415069D01*
X15511168Y-15415069D02*
X15415930Y-15434117D01*
X15587358Y-15491260D02*
X15606406Y-15500784D01*
X15606406Y-15500784D02*
X15644501Y-15500784D01*
X15644501Y-15500784D02*
X15663549Y-15491260D01*
X15663549Y-15491260D02*
X15673072Y-15472212D01*
X15673072Y-15472212D02*
X15673072Y-15462688D01*
X15673072Y-15462688D02*
X15663549Y-15443641D01*
X15663549Y-15443641D02*
X15644501Y-15434117D01*
X15644501Y-15434117D02*
X15615930Y-15434117D01*
X15615930Y-15434117D02*
X15596882Y-15424593D01*
X15596882Y-15424593D02*
X15587358Y-15405546D01*
X15587358Y-15405546D02*
X15587358Y-15396022D01*
X15587358Y-15396022D02*
X15596882Y-15376974D01*
X15596882Y-15376974D02*
X15615930Y-15367450D01*
X15615930Y-15367450D02*
X15644501Y-15367450D01*
X15644501Y-15367450D02*
X15663549Y-15376974D01*
X15739739Y-15576974D02*
X15749263Y-15567450D01*
X15749263Y-15567450D02*
X15768311Y-15538879D01*
X15768311Y-15538879D02*
X15777834Y-15519831D01*
X15777834Y-15519831D02*
X15787358Y-15491260D01*
X15787358Y-15491260D02*
X15796882Y-15443641D01*
X15796882Y-15443641D02*
X15796882Y-15405546D01*
X15796882Y-15405546D02*
X15787358Y-15357927D01*
X15787358Y-15357927D02*
X15777834Y-15329355D01*
X15777834Y-15329355D02*
X15768311Y-15310308D01*
X15768311Y-15310308D02*
X15749263Y-15281736D01*
X15749263Y-15281736D02*
X15739739Y-15272212D01*
M02*
